<svg width="1440" height="216" viewBox="0 0 1440 216" fill="none" xmlns="http://www.w3.org/2000/svg">
<mask id="mask0_133_73" style="mask-type:alpha" maskUnits="userSpaceOnUse" x="0" y="-1" width="1440" height="217">
<rect y="-0.000244141" width="1440" height="216" fill="#C4C4C4"/>
</mask>
<g mask="url(#mask0_133_73)">
<path fill-rule="evenodd" clip-rule="evenodd" d="M1576 144L1505.92 132C1435.83 120 1295.67 95.9999 1155.5 89.9999C1015.33 84 875.167 96 735 90C594.833 84 454.667 60 314.5 78C174.333 96 34.1667 156 -35.9166 186L-106 216L-106 -5.54278e-06L-35.9166 -1.16697e-05C34.1667 -1.77965e-05 174.333 -3.00503e-05 314.5 -4.23041e-05C454.667 -5.45578e-05 594.833 -6.68116e-05 735 -7.90653e-05C875.167 -9.13191e-05 1015.33 -0.000103573 1155.5 -0.000115827C1295.67 -0.00012808 1435.83 -0.000140334 1505.92 -0.000146461L1576 -0.000152588L1576 144Z" fill="#E5E5E5"/>
</g>
</svg>
