<svg width="243" height="164" viewBox="0 0 243 164" fill="none" xmlns="http://www.w3.org/2000/svg">
<g style="mix-blend-mode:multiply">
<path d="M227.866 105.935C225.566 105.203 223.197 104.834 220.818 104.838C220.818 104.577 220.992 104.342 221.057 104.107C222.622 99.4858 222.956 94.3925 222.011 89.5329C220.905 84.8062 219.066 80.3748 216.589 76.4737C211.64 69.4701 204.738 64.8823 197.18 63.5712C193.314 62.8397 189.377 62.8397 185.512 63.5712C185.604 60.0017 185.335 56.432 184.71 52.941C183.105 43.669 177.314 35.4156 171.22 29.774C168.008 27.0354 164.355 25.1372 160.497 24.2015C156.638 23.2659 152.66 23.3135 148.818 24.3414C147.99 24.5026 147.171 24.7295 146.367 25.0205C143.808 17.185 136.803 12.5359 130.319 10.6031C125.902 9.4008 121.313 9.45445 116.917 10.7598C112.883 12.0473 109.136 14.393 105.943 17.629C102.715 20.8795 100.042 24.8532 98.0707 29.33C96.1091 34.205 95.1779 39.5882 95.3599 45.001C95.4063 49.2347 96.3787 53.3788 98.1792 57.0155C97.2278 57.5475 96.3324 58.2138 95.5117 59.0005C92.8538 61.548 90.8652 64.9679 89.7864 68.8471C88.7901 68.2573 87.7611 67.7512 86.7069 67.3322C82.7527 65.7922 78.6075 65.0854 74.4538 65.2428C70.3814 65.5339 66.4023 66.8319 62.7646 69.0561C55.326 73.1305 48.1911 77.9885 44.1356 86.921C43.0828 89.3832 42.3513 92.026 41.967 94.7566C41.2947 94.4954 40.6007 94.2603 39.9284 94.0513C34.7593 92.4991 29.3236 92.8355 24.3139 95.0177C15.2271 98.8571 9.13311 110.689 8.17889 121.894C7.83876 128.207 9.29445 134.473 12.3062 139.657C15.3179 144.841 19.706 148.636 24.7476 150.415C30.0145 152.147 35.5881 151.974 40.7742 149.919C44.0432 148.778 47.1881 147.173 50.1429 145.139C51.6156 147.65 53.3259 149.947 55.2393 151.982C61.6679 158.165 69.4682 161.926 77.6635 162.795C81.441 163.329 85.2673 163.046 88.9623 161.959C90.8273 161.437 92.7358 161.202 94.5791 160.523C96.546 159.8 98.4728 158.928 100.348 157.911C103.542 156.318 106.529 154.181 109.218 151.564C110.141 152.654 111.119 153.674 112.145 154.62C117.768 160.157 124.696 163.42 131.946 163.944C139.468 164.329 146.968 162.715 153.914 159.217C158.919 156.686 163.448 152.963 167.23 148.273C173.273 154.003 180.317 158.004 187.832 159.974C193.506 161.648 199.343 162.386 205.182 162.168C210.892 161.926 216.523 160.476 221.816 157.885C230.729 153.418 240.596 144.617 242.375 132.498C243.158 126.686 242.102 120.733 239.415 115.814C236.729 110.896 232.607 107.37 227.866 105.935Z" fill="#97D4EB"/>
</g>
<path d="M219.735 96.428C217.438 95.6763 215.067 95.2985 212.687 95.3049L212.947 94.5736C214.497 89.9473 214.823 84.8573 213.879 79.9996C212.766 75.2716 210.919 70.8405 208.436 66.9404C203.511 59.9008 196.627 55.2592 189.07 53.8812C185.203 53.1773 181.269 53.1773 177.402 53.8812C177.483 50.3035 177.213 46.7268 176.6 43.2249C174.973 33.979 169.183 25.6995 163.067 20.084C159.856 17.3409 156.204 15.438 152.346 14.4978C148.488 13.5577 144.508 13.6011 140.665 14.6253C139.862 14.8081 139.038 15.0693 138.236 15.3043C135.698 7.59941 128.672 2.81975 122.209 0.913104C117.972 -0.303828 113.556 -0.30437 109.318 0.91149C105.08 2.12735 101.139 4.52558 97.8116 7.91283C94.5843 11.1674 91.9173 15.1514 89.961 19.64C87.9861 24.5111 87.04 29.894 87.2068 35.311C87.251 39.5358 88.2399 43.6681 90.0694 47.2732C89.1158 47.8213 88.2202 48.5053 87.4019 49.3105C84.7258 51.8428 82.7272 55.2671 81.6549 59.1571C80.6606 58.5743 79.6397 58.0599 78.5971 57.6161C74.6345 56.083 70.482 55.385 66.3224 55.5528C62.2485 55.8458 58.2655 57.125 54.6115 59.3138C47.1729 63.4405 40.0596 68.2463 36.0042 77.231C34.9678 79.6462 34.2368 82.2344 33.8355 84.9098C33.1415 84.6486 32.4692 84.4397 31.7969 84.2307C26.6311 82.6744 21.1986 82.9924 16.1824 85.1449C7.09567 89.0104 1.00167 100.816 0.0474495 112.073C-0.288684 118.386 1.16859 124.649 4.17971 129.832C7.19083 135.015 11.5766 138.811 16.6162 140.594C21.8925 142.305 27.468 142.133 32.6644 140.098C35.9306 138.959 39.0694 137.345 42.0114 135.292C43.471 137.824 45.1825 140.131 47.1078 142.161C53.5423 148.328 61.3406 152.079 69.532 152.948C73.3083 153.49 77.1346 153.216 80.8308 152.139C82.7176 151.616 84.6043 151.381 86.4911 150.702C88.4514 149.981 90.371 149.109 92.2381 148.09C95.4345 146.531 98.4174 144.4 101.086 141.77C102 142.953 102.986 144.053 104.036 145.06C109.646 150.597 116.572 153.844 123.814 154.332C131.34 154.772 138.853 153.184 145.805 149.683C150.786 147.129 155.298 143.41 159.077 138.74C165.132 144.434 172.173 148.415 179.679 150.389C185.351 152.082 191.189 152.829 197.029 152.609C202.741 152.36 208.371 150.901 213.663 148.299C222.576 143.859 232.422 135.057 234.2 122.938C234.973 117.142 233.917 111.207 231.24 106.302C228.563 101.396 224.459 97.8735 219.735 96.428Z" fill="white"/>
<path d="M229.257 128.815C226.828 134.352 221.948 138.4 217.632 141.613C207.591 149.004 195.295 149.971 183.974 147.568C177.835 146.335 171.888 143.974 166.343 140.568C164.414 139.357 162.565 137.969 160.813 136.415L162.331 134.404C161.68 135.031 161.008 135.527 160.401 136.05C157.95 137.982 155.456 139.941 152.919 141.691C152.637 141.9 152.29 142.083 152.008 142.318C150.16 143.753 148.224 145.019 146.218 146.105C143.066 147.68 139.789 148.862 136.437 149.631C132.928 150.603 129.345 151.146 125.745 151.25C122.736 151.233 119.74 150.75 116.832 149.814C112.648 148.986 108.643 147.157 105.056 144.433C102.841 142.803 100.887 140.706 99.2875 138.243C98.4045 136.332 97.3578 134.538 96.1646 132.889C96.4713 133.884 96.8336 134.853 97.2489 135.788C97.9672 137.436 98.8404 138.978 99.8513 140.385C97.0189 142.501 94.0095 144.251 90.873 145.609C84.1098 149.068 76.7435 150.467 69.4247 149.683C61.8746 148.628 54.6338 145.462 48.2801 140.437C46.2378 138.839 44.3972 136.895 42.815 134.665C41.0061 132.317 39.4737 129.68 38.2608 126.83C38.9688 129.329 39.8995 131.728 41.0367 133.986C38.3887 135.342 35.6636 136.468 32.8824 137.355C27.9721 139.029 22.7837 139.128 17.8318 137.643C13.3271 136.06 9.37008 132.761 6.55465 128.24C3.73922 123.719 2.21729 118.22 2.21729 112.569C2.22347 107.058 3.54545 101.666 6.0256 97.0353C8.50574 92.4043 12.0394 88.7301 16.2053 86.4507C21.0473 84.2188 26.3298 83.7644 31.3861 85.1448C32.08 85.3537 32.7957 85.5888 33.5547 85.85C33.3832 87.0514 33.2673 88.2635 33.2077 89.4804C33.2199 90.7747 33.3068 92.0663 33.468 93.346C33.8103 95.0615 34.2524 96.746 34.7909 98.3868C34.3967 93.6333 34.9161 88.8342 36.309 84.3612C36.539 83.5814 36.8144 82.8221 37.1331 82.0889C37.5234 80.9658 37.9572 79.8428 38.4343 78.7458C42.056 70.7013 48.6921 66.5746 55.1548 62.6308C62.0153 58.3455 69.9185 57.1418 77.4488 59.2354C78.781 59.6052 80.0864 60.1031 81.3525 60.7241C80.589 64.6348 81.1261 68.75 82.8489 72.1901C82.2629 69.7273 82.0991 67.1467 82.3676 64.6052C82.636 62.0638 83.331 59.6147 84.4103 57.4071C85.6396 54.6734 87.288 52.2451 89.2682 50.2506C89.7473 49.7477 90.271 49.3098 90.8296 48.9447C91.1995 48.6872 91.5835 48.4603 91.979 48.2656C91.9759 48.2135 91.9759 48.1611 91.979 48.1089C94.2518 47.0639 96.6167 46.3366 99.0272 45.9411C100.728 45.5503 102.468 45.471 104.189 45.706C104.583 45.7483 104.975 45.8269 105.36 45.9411C105.467 45.917 105.578 45.917 105.685 45.9411C104.479 45.3469 103.193 45.0195 101.89 44.9747C99.986 44.9042 98.0802 44.9915 96.1863 45.2359C94.53 45.4834 92.9011 45.9475 91.3284 46.6202C89.8828 42.9757 89.1413 38.9842 89.1597 34.9453C88.9596 29.94 89.7864 24.9525 91.5669 20.4235C93.4633 16.1482 96.0342 12.3599 99.1357 9.27091C102.163 6.16002 105.713 3.87469 109.542 2.57178C113.372 1.26887 117.39 0.979225 121.321 1.7227C127.936 2.92415 135.288 7.80829 138.042 15.4349C135.937 16.1824 133.896 17.1707 131.948 18.3862C130.664 19.3572 129.484 20.5152 128.435 21.8338C133.289 17.4975 139.318 15.5123 145.329 16.2706C151.606 16.1725 157.725 18.6503 162.678 23.2965C168.575 28.4683 173.066 35.6309 175.582 43.8778C176.186 46.2998 176.557 48.7974 176.688 51.3215C176.99 53.987 177.056 56.6837 176.883 59.366C176.883 60.045 176.883 60.7502 176.883 61.4293C177.237 59.284 177.462 57.1104 177.555 54.9258H178.032C181.663 54.5605 185.319 54.8599 188.876 55.8139C194.076 56.8246 198.938 59.5698 202.909 63.7384C206.88 67.907 209.802 73.3321 211.343 79.3988C212.583 84.0365 212.53 89.0354 211.191 93.6333C211.061 94.234 210.888 94.7825 210.714 95.3571C208.881 95.5515 207.067 95.9448 205.293 96.5324C204.574 96.6415 203.912 97.0588 203.428 97.7077H203.558C203.558 97.7077 203.558 97.7077 203.731 97.7077C205.342 96.7735 207.136 96.3938 208.914 96.6108C210.048 96.5195 211.185 96.5195 212.319 96.6108C214.579 96.8503 216.803 97.4475 218.934 98.3868C221.483 99.4811 223.812 101.209 225.77 103.459C227.728 105.709 229.27 108.431 230.298 111.446C231.161 114.263 231.516 117.27 231.336 120.266C231.156 123.261 230.447 126.176 229.257 128.815Z" fill="white"/>
<path opacity="0.3" d="M119.932 33.8482C119.819 35.1881 119.945 36.5414 120.301 37.8182C120.726 32.6438 122.654 27.8161 125.744 24.1844C126.87 22.8248 128.122 21.6243 129.474 20.6062C130.26 19.8061 131.085 19.0647 131.946 18.3861C133.895 17.1706 135.936 16.1823 138.04 15.4348C137.42 13.7051 136.571 12.1084 135.525 10.7073C128.607 11.726 120.821 21.9382 119.932 33.8482Z" fill="#BCE8E5"/>
<path opacity="0.3" d="M91.4131 46.7511C92.9858 46.0784 94.6147 45.6143 96.271 45.3668C98.1649 45.1224 100.071 45.0351 101.975 45.1056C103.023 45.1357 104.061 45.3558 105.054 45.7586C108.507 46.3498 111.873 47.5281 115.052 49.2584C118.65 51.0668 121.999 53.524 124.984 56.5455C118.804 44.2698 105.054 36.6694 93.8638 41.893C93.7803 41.9525 93.6877 41.991 93.5916 42.006C93.4955 42.0211 93.3978 42.0126 93.3045 41.9808C93.2112 41.949 93.1243 41.8948 93.0489 41.8213C92.9736 41.7479 92.9114 41.6568 92.8661 41.5535C90.8399 35.0802 90.3152 28.0647 91.3481 21.2595C89.7656 25.6078 89.0241 30.3322 89.1794 35.0761C89.1813 39.1211 89.9451 43.1129 91.4131 46.7511Z" fill="#BCE8E5"/>
<path opacity="0.5" d="M230.232 111.473C229.205 108.457 227.662 105.736 225.704 103.486C223.746 101.236 221.417 99.5079 218.868 98.4136C216.737 97.4743 214.513 96.8771 212.253 96.6375C211.12 96.5463 209.982 96.5463 208.848 96.6375C207.07 96.4206 205.276 96.8002 203.665 97.7345C203.665 97.7345 203.557 97.7345 203.492 97.7345H203.362C203.846 97.0855 204.508 96.6683 205.227 96.5592C207.001 95.9716 208.815 95.5782 210.648 95.3838C210.847 94.8235 211.013 94.2476 211.147 93.66C212.486 89.0622 212.539 84.0632 211.299 79.4255C209.929 73.9508 207.414 68.9913 203.997 65.0218C200.58 61.0524 196.373 58.2058 191.781 56.7548C197.94 61.9784 202.885 68.5864 202.798 78.5114C202.776 86.2449 201.071 93.8365 197.853 100.529C199.003 100.346 200.174 100.19 201.366 100.085C206.333 99.615 211.624 98.8837 216.352 101.287C217.204 101.696 217.979 102.306 218.632 103.081C219.286 103.856 219.804 104.78 220.158 105.799C220.511 106.818 220.692 107.911 220.69 109.016C220.688 110.12 220.504 111.213 220.147 112.23C219.144 115.52 217.575 118.517 215.541 121.025C213.508 123.532 211.057 125.493 208.35 126.778C197.506 132.237 185.08 130.983 174.301 126.177C166.838 123.231 160.221 117.797 155.217 110.506C152.557 117.048 148.41 122.545 143.258 126.359C138.106 130.174 132.16 132.149 126.113 132.054C111.279 131.636 94.7974 119.7 90.4601 101.887C90.4658 107.556 91.4789 113.158 93.4312 118.316C93.4771 118.415 93.5062 118.524 93.5169 118.637C93.5276 118.75 93.5196 118.865 93.4934 118.974C93.4672 119.083 93.4233 119.185 93.3642 119.274C93.3052 119.363 93.2321 119.437 93.1493 119.491C82.3058 127.17 59.925 134.849 47.325 127.797C40.4286 123.957 37.3924 116.357 34.79 107.111C34.2094 113.936 34.8907 120.831 36.7852 127.3C36.937 127.901 35.1587 128.162 34.6165 128.215C25.5731 129.077 14.708 127.405 8.3538 118.734C5.21473 114.389 3.48896 108.822 3.49596 103.063C2.48378 106.453 2.05327 110.056 2.23049 113.653C2.4077 117.25 3.18895 120.767 4.52697 123.989C5.86499 127.212 7.73199 130.075 10.015 132.404C12.298 134.733 14.9495 136.48 17.8092 137.539C22.7612 139.025 27.9496 138.925 32.8599 137.252C35.6411 136.364 38.3661 135.238 41.0141 133.882C39.877 131.625 38.9463 129.225 38.2382 126.726C39.4512 129.577 40.9836 132.213 42.7925 134.561C44.3617 136.797 46.1958 138.742 48.2358 140.334C54.5896 145.358 61.8304 148.524 69.3805 149.579C76.6992 150.363 84.0656 148.964 90.8288 145.505C93.9653 144.148 96.9746 142.397 99.8071 140.281C98.7961 138.874 97.9229 137.332 97.2047 135.684C96.7893 134.749 96.427 133.78 96.1203 132.785C97.3136 134.434 98.3602 136.229 99.2432 138.14C100.843 140.602 102.797 142.699 105.012 144.33C108.599 147.053 112.603 148.882 116.788 149.71C119.696 150.646 122.691 151.129 125.701 151.147C129.301 151.042 132.883 150.5 136.393 149.527C139.745 148.758 143.022 147.576 146.174 146.001C148.18 144.916 150.115 143.65 151.964 142.214C152.246 141.979 152.593 141.796 152.875 141.587C155.412 139.837 157.906 137.878 160.357 135.946C160.964 135.423 161.636 134.927 162.287 134.3L160.769 136.311C162.521 137.865 164.369 139.253 166.299 140.464C171.844 143.87 177.79 146.231 183.93 147.464C195.251 149.867 207.547 148.9 217.588 141.509C221.926 138.296 226.783 134.248 229.212 128.711C230.384 126.087 231.081 123.195 231.256 120.223C231.432 117.252 231.083 114.27 230.232 111.473Z" fill="#BCE8E5"/>
</svg>
