<svg width="23" height="17" viewBox="0 0 23 17" fill="none" xmlns="http://www.w3.org/2000/svg">
<path fill-rule="evenodd" clip-rule="evenodd" d="M7.4593 0.111481C6.24546 0.370656 4.78612 0.829176 3.83732 1.24938C3.51797 1.39084 3.45641 1.44034 3.29245 1.68734C1.52384 4.35125 0.475484 7.08709 0.112351 9.98619C0.0114177 10.7918 -0.0348616 12.8195 0.0299294 13.5949C0.0698912 14.0727 0.0956999 14.1938 0.1696 14.2497C0.923536 14.8196 2.61608 15.7712 3.70411 16.2367C4.51647 16.5843 5.63575 16.9886 5.81621 16.9997C5.91744 17.0059 5.99433 16.9234 6.30604 16.4745C6.50937 16.1816 6.78249 15.747 6.91301 15.5086L7.15033 15.0752L6.93749 14.9955C6.60614 14.8716 5.29387 14.2352 5.26008 14.1821C5.24347 14.1559 5.32609 14.058 5.44363 13.9644L5.65739 13.7941L6.17313 14.0041C9.60886 15.4032 13.3844 15.4056 16.8095 14.0109L17.3203 13.8029L17.5197 13.9454C17.6294 14.0238 17.7191 14.1166 17.7191 14.1517C17.7191 14.2167 16.6989 14.7385 16.1879 14.9348C16.0325 14.9945 15.8939 15.0615 15.8799 15.0836C15.8478 15.1341 16.3241 15.9545 16.7415 16.5675C17.1149 17.1161 16.9893 17.1027 18.0864 16.7102C19.5257 16.1952 20.8737 15.5296 22.1203 14.7183C22.4604 14.4969 22.7785 14.2863 22.827 14.2502C22.9614 14.1503 23.024 13.1995 22.9916 11.7473C22.9476 9.77042 22.6588 8.11146 22.05 6.33717C21.5352 4.83719 20.6187 3.02044 19.7213 1.72127L19.4866 1.38156L18.9377 1.15637C18.1511 0.833698 17.4371 0.592896 16.6241 0.376273C15.7761 0.150274 14.8629 -0.0321247 14.764 0.00476439C14.7248 0.0193772 14.5663 0.284503 14.4118 0.59399C14.2573 0.90343 14.1283 1.15999 14.1252 1.16408C14.1221 1.16822 13.8992 1.14152 13.6299 1.10482C12.8012 0.991821 10.872 0.966451 9.91587 1.05594C9.46233 1.09839 9.04362 1.14433 8.98539 1.15804C8.89156 1.18017 8.84606 1.11643 8.58567 0.598607C8.23963 -0.0895766 8.29296 -0.0664912 7.4593 0.111481ZM8.01661 7.12917C8.77926 7.26977 9.44764 7.9124 9.66802 8.71701C9.82395 9.28611 9.7117 10.0881 9.40479 10.5985C9.07751 11.1428 8.453 11.5399 7.84834 11.588C6.18566 11.7204 5.07251 9.79717 5.89672 8.21628C6.16034 7.71063 6.71334 7.27863 7.26341 7.14863C7.57492 7.075 7.7045 7.07167 8.01661 7.12917ZM16.0077 7.22208C16.4852 7.39838 16.9088 7.79079 17.1676 8.29643C17.4831 8.91284 17.4577 9.83697 17.1069 10.5099C16.7968 11.1046 16.1305 11.5473 15.4771 11.5927C14.5487 11.6573 13.7176 11.0587 13.3787 10.0814C13.2471 9.70188 13.2591 8.92174 13.4025 8.53828C13.827 7.40286 14.9547 6.83315 16.0077 7.22208Z" fill="white"/>
</svg>
