<svg width="205" height="138" viewBox="0 0 205 138" fill="none" xmlns="http://www.w3.org/2000/svg">
<g style="mix-blend-mode:multiply">
<path d="M191.973 89.1407C190.038 88.5246 188.044 88.2143 186.043 88.2177C186.043 87.9979 186.189 87.8001 186.243 87.6023C187.561 83.7138 187.841 79.4279 187.046 75.3387C186.116 71.3614 184.568 67.6326 182.484 64.3499C178.319 58.4567 172.512 54.5962 166.152 53.493C162.899 52.8775 159.586 52.8775 156.334 53.493C156.411 50.4894 156.185 47.4856 155.659 44.5481C154.308 36.746 149.436 29.8011 144.308 25.0539C141.605 22.7495 138.531 21.1522 135.284 20.3648C132.038 19.5775 128.69 19.6176 125.457 20.4826C124.76 20.6182 124.071 20.8091 123.395 21.054C121.242 14.4607 115.347 10.5487 109.891 8.92233C106.174 7.91061 102.313 7.95575 98.6133 9.05419C95.2191 10.1375 92.0659 12.1113 89.3795 14.8343C86.6634 17.5695 84.4138 20.9132 82.7552 24.6803C81.1045 28.7824 80.321 33.3122 80.4741 37.8669C80.5132 41.4294 81.3314 44.9165 82.8464 47.9766C82.0459 48.4242 81.2924 48.9849 80.6019 49.6469C78.3653 51.7905 76.692 54.6682 75.7842 57.9325C74.9459 57.4362 74.08 57.0102 73.1929 56.6577C69.8656 55.3619 66.3776 54.7671 62.8824 54.8995C59.4556 55.1445 56.1074 56.2368 53.0464 58.1083C46.7871 61.5368 40.7833 65.6246 37.3708 73.141C36.4849 75.2128 35.8694 77.4367 35.546 79.7343C34.9802 79.5145 34.3963 79.3167 33.8306 79.1409C29.481 77.8347 24.907 78.1178 20.6916 79.954C13.0454 83.1847 7.9175 93.1406 7.11456 102.569C6.82835 107.882 8.05326 113.154 10.5875 117.516C13.1217 121.879 16.8142 125.071 21.0565 126.569C25.4884 128.026 30.1784 127.881 34.5423 126.151C37.293 125.191 39.9394 123.841 42.4257 122.129C43.665 124.242 45.1041 126.175 46.7141 127.887C52.1236 133.09 58.6873 136.255 65.5832 136.986C68.7619 137.435 71.9816 137.197 75.0908 136.283C76.6601 135.843 78.266 135.645 79.8172 135.074C81.4722 134.466 83.0935 133.732 84.6713 132.876C87.359 131.536 89.8726 129.738 92.135 127.536C92.9118 128.453 93.7345 129.311 94.5986 130.107C99.3294 134.767 105.159 137.512 111.26 137.953C117.589 138.277 123.901 136.919 129.745 133.975C133.957 131.845 137.768 128.713 140.95 124.766C146.035 129.588 151.963 132.955 158.286 134.612C163.061 136.021 167.972 136.642 172.885 136.459C177.69 136.255 182.428 135.035 186.882 132.854C194.382 129.096 202.685 121.69 204.182 111.492C204.841 106.602 203.952 101.592 201.691 97.4535C199.431 93.3147 195.963 90.3483 191.973 89.1407Z" fill="#97D4EB"/>
</g>
<path d="M185.131 81.1406C183.198 80.508 181.203 80.1902 179.2 80.1955L179.419 79.5802C180.724 75.6873 180.998 71.4042 180.204 67.3167C179.267 63.3383 177.713 59.6096 175.624 56.3278C171.479 50.4043 165.687 46.4985 159.328 45.339C156.073 44.7467 152.764 44.7467 149.51 45.339C149.577 42.3285 149.351 39.3189 148.835 36.3721C147.466 28.592 142.594 21.6251 137.447 16.8999C134.746 14.5917 131.673 12.9905 128.426 12.1994C125.179 11.4083 121.831 11.4448 118.597 12.3066C117.921 12.4604 117.228 12.6802 116.553 12.878C114.418 6.39462 108.505 2.37271 103.067 0.768343C99.5011 -0.25566 95.7854 -0.256116 92.2193 0.766985C88.6533 1.79009 85.3368 3.80811 82.5373 6.65835C79.8216 9.39692 77.5774 12.7493 75.9313 16.5263C74.2694 20.6252 73.4734 25.1547 73.6137 29.7129C73.6509 33.2679 74.483 36.7451 76.0225 39.7787C75.2201 40.2399 74.4665 40.8154 73.7779 41.4929C71.526 43.6238 69.8443 46.5052 68.942 49.7785C68.1053 49.2881 67.2463 48.8552 66.3689 48.4818C63.0346 47.1918 59.5404 46.6044 56.0402 46.7456C52.6122 46.9922 49.2607 48.0685 46.1859 49.9103C39.9267 53.3828 33.9411 57.4267 30.5286 64.987C29.6565 67.0193 29.0414 69.1972 28.7037 71.4484C28.1198 71.2287 27.5541 71.0528 26.9884 70.877C22.6415 69.5674 18.0702 69.835 13.8493 71.6462C6.20316 74.8989 1.07529 84.8328 0.272349 94.3052C-0.0104949 99.6173 1.21575 104.887 3.74949 109.249C6.28324 113.61 9.97371 116.804 14.2143 118.305C18.6541 119.745 23.3457 119.6 27.7183 117.887C30.4667 116.929 33.1079 115.571 35.5835 113.843C36.8116 115.974 38.2518 117.915 39.8719 119.623C45.2863 124.812 51.8483 127.969 58.741 128.7C61.9186 129.156 65.1383 128.926 68.2486 128.019C69.8362 127.579 71.4238 127.382 73.0115 126.81C74.6609 126.203 76.2763 125.469 77.8474 124.612C80.537 123.3 83.047 121.507 85.2928 119.294C86.0618 120.29 86.8913 121.215 87.7746 122.063C92.4955 126.722 98.3234 129.454 104.417 129.865C110.75 130.235 117.072 128.899 122.922 125.953C127.114 123.804 130.91 120.674 134.09 116.744C139.185 121.536 145.11 124.886 151.426 126.546C156.198 127.971 161.11 128.6 166.025 128.414C170.831 128.205 175.569 126.978 180.022 124.788C187.522 121.052 195.807 113.646 197.303 103.448C197.953 98.5707 197.065 93.5769 194.812 89.4488C192.56 85.3206 189.106 82.3569 185.131 81.1406Z" fill="white"/>
<path d="M193.143 108.393C191.099 113.052 186.993 116.459 183.362 119.162C174.913 125.381 164.566 126.195 155.04 124.173C149.873 123.135 144.87 121.149 140.204 118.283C138.58 117.264 137.024 116.096 135.55 114.788L136.828 113.096C136.28 113.623 135.714 114.041 135.204 114.481C133.141 116.107 131.043 117.755 128.908 119.228C128.671 119.404 128.379 119.557 128.141 119.755C126.586 120.963 124.957 122.028 123.269 122.942C120.617 124.267 117.859 125.262 115.039 125.909C112.086 126.727 109.072 127.184 106.042 127.271C103.509 127.257 100.989 126.85 98.542 126.063C95.021 125.366 91.6516 123.827 88.633 121.535C86.7691 120.163 85.125 118.399 83.7789 116.327C83.0358 114.719 82.1551 113.208 81.151 111.821C81.4091 112.658 81.714 113.473 82.0635 114.261C82.6679 115.647 83.4026 116.945 84.2533 118.129C81.8699 119.909 79.3377 121.382 76.6984 122.524C71.0074 125.435 64.8089 126.612 58.6505 125.953C52.2973 125.065 46.2045 122.4 40.858 118.173C39.1395 116.828 37.5908 115.192 36.2594 113.316C34.7373 111.34 33.4478 109.121 32.4272 106.722C33.0229 108.825 33.8061 110.844 34.763 112.744C32.5348 113.885 30.2418 114.832 27.9015 115.579C23.7696 116.988 19.4038 117.071 15.2369 115.821C11.4464 114.49 8.11671 111.713 5.74763 107.909C3.37855 104.105 2.0979 99.4779 2.0979 94.7226C2.1031 90.0856 3.2155 85.5482 5.30245 81.6515C7.3894 77.7547 10.3629 74.663 13.8683 72.745C17.9427 70.867 22.3877 70.4846 26.6423 71.6461C27.2263 71.8219 27.8285 72.0197 28.4672 72.2395C28.3229 73.2505 28.2254 74.2704 28.1752 75.2944C28.1854 76.3834 28.2586 77.4703 28.3942 78.5471C28.6822 79.9906 29.0542 81.4081 29.5074 82.7888C29.1757 78.7888 29.6128 74.7506 30.7848 70.9868C30.9783 70.3306 31.2101 69.6916 31.4782 69.0747C31.8067 68.1297 32.1717 67.1846 32.5731 66.2616C35.6207 59.4925 41.2048 56.02 46.6428 52.7014C52.4157 49.0955 59.066 48.0826 65.4025 49.8443C66.5234 50.1555 67.6218 50.5744 68.6872 51.097C68.0448 54.3877 68.4967 57.8505 69.9464 60.7452C69.4533 58.6728 69.3155 56.5013 69.5414 54.3628C69.7673 52.2243 70.3521 50.1635 71.2603 48.3059C72.2947 46.0056 73.6817 43.9622 75.348 42.284C75.7512 41.8608 76.1918 41.4923 76.6619 41.1851C76.9731 40.9684 77.2963 40.7775 77.629 40.6137C77.6264 40.5698 77.6264 40.5257 77.629 40.4818C79.5415 39.6025 81.5315 38.9904 83.5599 38.6577C84.9911 38.3288 86.4553 38.2621 87.903 38.4599C88.2352 38.4954 88.5647 38.5615 88.8885 38.6577C88.9789 38.6374 89.0717 38.6374 89.1622 38.6577C88.1469 38.1576 87.0651 37.8822 85.9687 37.8445C84.3666 37.7852 82.763 37.8586 81.1693 38.0643C79.7756 38.2725 78.405 38.6631 77.0816 39.2291C75.8652 36.1624 75.2413 32.8037 75.2567 29.4051C75.0883 25.1934 75.784 20.9965 77.2823 17.1855C78.878 13.5881 81.0414 10.4003 83.6511 7.80106C86.1983 5.18336 89.1856 3.26035 92.408 2.164C95.6303 1.06764 99.0115 0.823917 102.319 1.44953C107.885 2.4605 114.072 6.57032 116.389 12.9878C114.618 13.6168 112.901 14.4484 111.261 15.4713C110.181 16.2883 109.188 17.2627 108.305 18.3723C112.39 14.7234 117.463 13.053 122.521 13.6911C127.803 13.6085 132.952 15.6935 137.12 19.603C142.082 23.9549 145.861 29.982 147.978 36.9214C148.486 38.9595 148.798 41.0611 148.908 43.1851C149.163 45.428 149.218 47.6972 149.073 49.9542C149.073 50.5256 149.073 51.119 149.073 51.6904C149.371 49.8852 149.56 48.0562 149.638 46.218H150.04C153.095 45.9105 156.171 46.1625 159.164 46.9652C163.54 47.8157 167.631 50.1257 170.972 53.6334C174.314 57.1411 176.773 61.7062 178.07 66.811C179.113 70.7135 179.068 74.9199 177.942 78.7888C177.832 79.2943 177.686 79.7559 177.54 80.2394C175.998 80.4029 174.471 80.7339 172.978 81.2283C172.373 81.3202 171.816 81.6713 171.409 82.2173H171.518C171.518 82.2173 171.518 82.2173 171.664 82.2173C173.02 81.4312 174.529 81.1117 176.026 81.2943C176.98 81.2175 177.937 81.2175 178.891 81.2943C180.793 81.4959 182.664 81.9984 184.457 82.7888C186.602 83.7096 188.562 85.1639 190.209 87.0572C191.857 88.9505 193.155 91.2403 194.019 93.7776C194.746 96.1482 195.044 98.6786 194.893 101.199C194.742 103.72 194.145 106.172 193.143 108.393Z" fill="white"/>
<path opacity="0.3" d="M101.151 28.4822C101.056 29.6096 101.162 30.7484 101.461 31.8228C101.819 27.4688 103.441 23.4064 106.041 20.3505C106.989 19.2064 108.042 18.1962 109.18 17.3395C109.841 16.6663 110.536 16.0425 111.26 15.4714C112.9 14.4486 114.617 13.617 116.388 12.988C115.866 11.5325 115.151 10.1889 114.271 9.01001C108.45 9.86714 101.899 18.4604 101.151 28.4822Z" fill="#BCE8E5"/>
<path opacity="0.3" d="M77.1535 39.3391C78.4768 38.7731 79.8475 38.3825 81.2411 38.1743C82.8349 37.9686 84.4384 37.8952 86.0405 37.9545C86.9223 37.9798 87.7959 38.165 88.6318 38.504C91.5376 39.0014 94.37 39.993 97.0445 41.4489C100.072 42.9707 102.891 45.0382 105.402 47.5807C100.201 37.2512 88.6319 30.8557 79.2156 35.2513C79.1454 35.3013 79.0674 35.3336 78.9866 35.3463C78.9057 35.359 78.8235 35.3518 78.745 35.3251C78.6665 35.2984 78.5933 35.2527 78.5299 35.1909C78.4665 35.1291 78.4142 35.0524 78.3761 34.9655C76.6711 29.5185 76.2296 23.6152 77.0987 17.8889C75.7671 21.5478 75.1431 25.5233 75.2738 29.5151C75.2755 32.9188 75.9181 36.2777 77.1535 39.3391Z" fill="#BCE8E5"/>
<path opacity="0.5" d="M193.964 93.8C193.1 91.2627 191.801 88.9729 190.154 87.0796C188.506 85.1864 186.546 83.732 184.401 82.8112C182.609 82.0208 180.737 81.5183 178.836 81.3167C177.882 81.2399 176.925 81.2399 175.971 81.3167C174.474 81.1342 172.964 81.4536 171.609 82.2398C171.609 82.2398 171.518 82.2398 171.463 82.2398H171.354C171.761 81.6937 172.318 81.3426 172.923 81.2508C174.416 80.7564 175.943 80.4253 177.485 80.2617C177.652 79.7902 177.792 79.3056 177.905 78.8113C179.031 74.9423 179.076 70.7359 178.033 66.8334C176.88 62.2266 174.764 58.0534 171.888 54.7132C169.013 51.3731 165.473 48.9779 161.609 47.7568C166.792 52.1524 170.952 57.7127 170.879 66.0642C170.861 72.5717 169.426 78.9597 166.719 84.5913C167.686 84.4375 168.671 84.3056 169.675 84.2177C173.854 83.8221 178.306 83.2068 182.285 85.2287C183.001 85.5734 183.653 86.0867 184.203 86.7386C184.753 87.3906 185.189 88.168 185.487 89.0255C185.784 89.8829 185.937 90.8032 185.935 91.7325C185.934 92.6617 185.778 93.5813 185.478 94.4374C184.634 97.2058 183.313 99.7279 181.602 101.838C179.891 103.948 177.829 105.597 175.551 106.679C166.427 111.272 155.97 110.217 146.901 106.173C140.62 103.694 135.052 99.1219 130.842 92.9868C128.603 98.491 125.114 103.117 120.778 106.327C116.443 109.536 111.441 111.198 106.352 111.118C93.87 110.767 80.001 100.723 76.3513 85.7342C76.3561 90.5042 77.2085 95.2177 78.8513 99.5581C78.8899 99.6417 78.9145 99.7337 78.9235 99.8288C78.9324 99.9239 78.9257 100.02 78.9037 100.112C78.8816 100.204 78.8447 100.29 78.795 100.364C78.7453 100.439 78.6838 100.501 78.6141 100.547C69.4898 107.009 50.6572 113.47 40.0547 107.536C34.2516 104.305 31.6968 97.9098 29.507 90.1297C29.0184 95.8725 29.5917 101.674 31.1859 107.118C31.3136 107.624 29.8172 107.844 29.361 107.888C21.7513 108.613 12.6087 107.206 7.26188 99.9098C4.62047 96.2539 3.1683 91.5693 3.17419 86.7232C2.32247 89.5764 1.96022 92.6081 2.10934 95.6348C2.25846 98.6615 2.91585 101.62 4.04174 104.332C5.16764 107.044 6.73865 109.453 8.65971 111.413C10.5808 113.372 12.812 114.842 15.2183 115.734C19.3852 116.984 23.751 116.9 27.8829 115.492C30.2231 114.745 32.5161 113.797 34.7443 112.657C33.7875 110.757 33.0043 108.738 32.4085 106.635C33.4292 109.034 34.7186 111.252 36.2407 113.228C37.5612 115.109 39.1045 116.746 40.8211 118.085C46.1676 122.313 52.2604 124.977 58.6136 125.865C64.772 126.525 70.9705 125.347 76.6615 122.437C79.3008 121.295 81.833 119.821 84.2164 118.041C83.3657 116.857 82.631 115.559 82.0266 114.173C81.6771 113.386 81.3722 112.571 81.1142 111.734C82.1182 113.121 82.9989 114.631 83.742 116.239C85.0881 118.311 86.7322 120.076 88.5961 121.448C91.6147 123.739 94.9841 125.279 98.5051 125.975C100.952 126.763 103.473 127.169 106.005 127.184C109.035 127.096 112.049 126.64 115.002 125.821C117.822 125.174 120.58 124.18 123.232 122.854C124.92 121.941 126.549 120.876 128.104 119.668C128.342 119.47 128.634 119.316 128.871 119.14C131.006 117.668 133.105 116.019 135.167 114.393C135.678 113.953 136.243 113.536 136.791 113.008L135.513 114.701C136.987 116.008 138.543 117.176 140.167 118.195C144.833 121.061 149.836 123.048 155.003 124.085C164.529 126.107 174.876 125.294 183.325 119.074C186.975 116.371 191.062 112.965 193.106 108.305C194.092 106.098 194.678 103.664 194.826 101.163C194.974 98.6631 194.68 96.1535 193.964 93.8Z" fill="#BCE8E5"/>
</svg>
