<svg width="57" height="36" viewBox="0 0 57 36" fill="none" xmlns="http://www.w3.org/2000/svg">
<path d="M4.69565 21.913C5.34783 21.913 5.80435 21.6522 6.06522 21.1304C6.32609 20.6087 6.32609 20.087 6.06522 19.5652C5.80435 19.0435 5.34783 18.7826 4.69565 18.7826C4.04348 18.7826 3.58696 19.0435 3.32609 19.5652C3.06522 20.087 3.06522 20.6087 3.32609 21.1304C3.58696 21.6522 4.04348 21.913 4.69565 21.913ZM40.7201 20.4946C40.5571 20.2826 40.2432 19.875 39.7785 19.2717C39.3139 18.6685 38.9755 18.2283 38.7636 17.9511C38.5516 17.6739 38.2418 17.2745 37.8342 16.7527C37.4266 16.231 37.0802 15.7989 36.7948 15.4565C36.5095 15.1141 36.1793 14.731 35.8043 14.3071C35.4293 13.8832 35.0625 13.4837 34.7038 13.1087L31.6467 16.5326C30.2935 18.0652 28.5938 18.8152 26.5476 18.7826C24.5014 18.75 22.8261 17.9511 21.5217 16.3859C20.5924 15.2609 20.1318 13.9728 20.1399 12.5217C20.1481 11.0707 20.625 9.79076 21.5707 8.68207L25.8995 3.64402C25.5408 3.46467 25.125 3.33016 24.6522 3.24049C24.1793 3.15082 23.7921 3.1019 23.4905 3.09375C23.1889 3.0856 22.7283 3.08967 22.1087 3.10598C21.4891 3.12228 21.0897 3.13043 20.9103 3.13043C19.4103 3.13043 18.1223 3.66848 17.0462 4.74457L13.1821 8.6087H9.3913V21.913C9.47283 21.913 9.64402 21.909 9.90489 21.9008C10.1658 21.8927 10.3451 21.8927 10.4429 21.9008C10.5408 21.909 10.6997 21.9253 10.9198 21.9497C11.1399 21.9742 11.3071 22.0109 11.4212 22.0598C11.5353 22.1087 11.678 22.178 11.8492 22.2677C12.0204 22.3573 12.1712 22.4674 12.3016 22.5978L19.5652 29.7391C21.4402 31.5489 23.2908 32.4538 25.1168 32.4538C26.3886 32.4538 27.4076 32.0707 28.1739 31.3043C29.1033 31.6304 30.0204 31.5652 30.9253 31.1087C31.8302 30.6522 32.4212 29.9592 32.6984 29.0299C33.9049 29.1277 34.9402 28.769 35.8043 27.9538C36.1304 27.6603 36.4239 27.2894 36.6848 26.841C36.9457 26.3927 37.0598 25.981 37.0272 25.606C37.1902 25.769 37.5408 25.8505 38.0788 25.8505C38.7799 25.8505 39.4076 25.6793 39.962 25.337C40.5163 24.9946 40.9198 24.5625 41.1726 24.0408C41.4253 23.519 41.5231 22.9361 41.466 22.2921C41.409 21.6481 41.1603 21.0489 40.7201 20.4946ZM44.6087 21.913H46.9565V9.3913H44.6821L40.8424 4.98913C39.7663 3.75 38.3886 3.13043 36.7092 3.13043H32.625C31.1739 3.13043 29.9837 3.67663 29.0543 4.76902L23.9429 10.712C23.4864 11.25 23.2582 11.8614 23.2582 12.5462C23.2582 13.231 23.4783 13.8424 23.9185 14.3804C24.6196 15.212 25.5163 15.6359 26.6087 15.6522C27.7011 15.6685 28.606 15.269 29.3234 14.4538L34.0435 9.12228C34.4511 8.74728 34.8872 8.57201 35.3519 8.59647C35.8166 8.62092 36.1997 8.84103 36.5014 9.25679C36.803 9.67255 36.8723 10.1332 36.7092 10.6386C36.9701 10.9484 37.4266 11.462 38.0788 12.1793C38.731 12.8967 39.2201 13.4511 39.5462 13.8424C40.019 14.4293 40.6916 15.2894 41.5639 16.4226C42.4361 17.5557 42.962 18.2446 43.1413 18.4891C43.9891 19.5652 44.4783 20.7065 44.6087 21.913ZM51.6522 21.913C52.3043 21.913 52.7609 21.6522 53.0217 21.1304C53.2826 20.6087 53.2826 20.087 53.0217 19.5652C52.7609 19.0435 52.3043 18.7826 51.6522 18.7826C51 18.7826 50.5435 19.0435 50.2826 19.5652C50.0217 20.087 50.0217 20.6087 50.2826 21.1304C50.5435 21.6522 51 21.913 51.6522 21.913ZM56.3478 7.82609V23.4783C56.3478 23.9022 56.1929 24.269 55.8832 24.5788C55.5734 24.8886 55.2065 25.0435 54.7826 25.0435H44.1685C43.7283 26.1033 43.0598 26.9715 42.163 27.6481C41.2663 28.3247 40.2473 28.7446 39.106 28.9076C38.5679 29.6902 37.9117 30.3546 37.1372 30.9008C36.3628 31.447 35.5272 31.8179 34.6304 32.0136C33.9457 32.8777 33.0938 33.5421 32.0747 34.0068C31.0557 34.4715 30.0082 34.6712 28.9321 34.606C27.9538 35.1603 26.9266 35.4823 25.8505 35.572C24.7745 35.6617 23.7351 35.5476 22.7323 35.2296C21.7296 34.9117 20.7758 34.4755 19.8709 33.9212C18.966 33.3668 18.1223 32.7065 17.3397 31.9402L10.3207 25.0435H1.56522C1.1413 25.0435 0.774457 24.8886 0.464674 24.5788C0.154891 24.269 0 23.9022 0 23.4783V7.04348C0 6.61957 0.154891 6.25272 0.464674 5.94293C0.774457 5.63315 1.1413 5.47826 1.56522 5.47826H11.8614C12.0897 5.25 12.4728 4.8587 13.0109 4.30435C13.5489 3.75 13.9361 3.3587 14.1726 3.13043C14.409 2.90217 14.7677 2.57609 15.2486 2.15217C15.7296 1.72826 16.1413 1.42255 16.4837 1.23505C16.8261 1.04755 17.2418 0.839674 17.731 0.611413C18.2201 0.383152 18.7255 0.224185 19.2473 0.134511C19.769 0.044837 20.3234 0 20.9103 0H23.7717C25.3859 0 26.8614 0.456522 28.1984 1.36957C29.5353 0.456522 31.0109 0 32.625 0H36.7092C37.2799 0 37.8261 0.048913 38.3478 0.146739C38.8696 0.244565 39.3302 0.362772 39.7296 0.501359C40.1291 0.639946 40.5489 0.855978 40.9891 1.14946C41.4293 1.44293 41.7921 1.69565 42.0774 1.90761C42.3628 2.11957 42.7133 2.44158 43.1291 2.87364C43.5448 3.30571 43.8628 3.6481 44.0829 3.90082C44.303 4.15353 44.6372 4.54484 45.0856 5.07473C45.534 5.60462 45.8723 6 46.1005 6.26087H54.7826C55.2065 6.26087 55.5734 6.41576 55.8832 6.72554C56.1929 7.03533 56.3478 7.40217 56.3478 7.82609Z" fill="black"/>
</svg>
