<svg width="20" height="19" viewBox="0 0 20 19" fill="none" xmlns="http://www.w3.org/2000/svg">
<path d="M10.4066 6.31619C8.66658 6.31619 7.24657 7.73623 7.24657 9.47631C7.24657 11.2164 8.66658 12.6364 10.4066 12.6364C12.1467 12.6364 13.5667 11.2164 13.5667 9.47631C13.5667 7.73623 12.1467 6.31619 10.4066 6.31619ZM19.8844 9.47631C19.8844 8.16769 19.8963 6.87093 19.8228 5.56469C19.7493 4.04745 19.4032 2.70091 18.2937 1.59143C17.1819 0.479582 15.8377 0.135834 14.3205 0.0623428C13.012 -0.0111483 11.7152 0.000705145 10.409 0.000705145C9.1004 0.000705145 7.80367 -0.0111483 6.49745 0.0623428C4.98024 0.135834 3.63372 0.481953 2.52426 1.59143C1.41243 2.70328 1.06869 4.04745 0.995203 5.56469C0.921713 6.8733 0.933566 8.17006 0.933566 9.47631C0.933566 10.7826 0.921713 12.0817 0.995203 13.3879C1.06869 14.9052 1.41481 16.2517 2.52426 17.3612C3.63609 18.473 4.98024 18.8168 6.49745 18.8903C7.80604 18.9638 9.10277 18.9519 10.409 18.9519C11.7176 18.9519 13.0143 18.9638 14.3205 18.8903C15.8377 18.8168 17.1843 18.4707 18.2937 17.3612C19.4056 16.2493 19.7493 14.9052 19.8228 13.3879C19.8986 12.0817 19.8844 10.7849 19.8844 9.47631ZM10.4066 14.3386C7.71595 14.3386 5.54445 12.167 5.54445 9.47631C5.54445 6.78559 7.71595 4.61405 10.4066 4.61405C13.0973 4.61405 15.2688 6.78559 15.2688 9.47631C15.2688 12.167 13.0973 14.3386 10.4066 14.3386ZM15.4679 5.55046C14.8397 5.55046 14.3324 5.04314 14.3324 4.41491C14.3324 3.78668 14.8397 3.27935 15.4679 3.27935C16.0961 3.27935 16.6035 3.78668 16.6035 4.41491C16.6037 4.56409 16.5744 4.71183 16.5174 4.84969C16.4604 4.98755 16.3768 5.1128 16.2713 5.21829C16.1658 5.32377 16.0406 5.40741 15.9027 5.46441C15.7648 5.52141 15.6171 5.55065 15.4679 5.55046Z" fill="#2FF562"/>
</svg>
