<svg width="20" height="20" viewBox="0 0 20 20" fill="none" xmlns="http://www.w3.org/2000/svg">
<path d="M9.58154 4.66645C6.86026 4.66645 4.66405 6.86265 4.66405 9.58393C4.66405 12.3052 6.86026 14.5014 9.58154 14.5014C12.3028 14.5014 14.499 12.3052 14.499 9.58393C14.499 6.86265 12.3028 4.66645 9.58154 4.66645ZM9.58154 12.7799C7.8217 12.7799 6.38553 11.3438 6.38553 9.58393C6.38553 7.82409 7.8217 6.38793 9.58154 6.38793C11.3414 6.38793 12.7775 7.82409 12.7775 9.58393C12.7775 11.3438 11.3414 12.7799 9.58154 12.7799ZM14.7004 3.319C14.0651 3.319 13.552 3.83208 13.552 4.46745C13.552 5.10281 14.0651 5.6159 14.7004 5.6159C15.3358 5.6159 15.8489 5.10521 15.8489 4.46745C15.8491 4.31658 15.8195 4.16715 15.7618 4.02773C15.7042 3.88831 15.6196 3.76163 15.5129 3.65495C15.4062 3.54827 15.2796 3.46368 15.1401 3.40603C15.0007 3.34838 14.8513 3.31881 14.7004 3.319ZM19.1672 9.58393C19.1672 8.26046 19.1791 6.94897 19.1048 5.62789C19.0305 4.09342 18.6804 2.73158 17.5584 1.6095C16.4339 0.485029 15.0745 0.137376 13.54 0.0630508C12.2165 -0.0112749 10.905 0.000713153 9.58394 0.000713153C8.26046 0.000713153 6.94897 -0.0112749 5.62789 0.0630508C4.09342 0.137376 2.73158 0.487426 1.60951 1.6095C0.485029 2.73398 0.137377 4.09342 0.0630508 5.62789C-0.0112749 6.95136 0.000713153 8.26285 0.000713153 9.58393C0.000713153 10.905 -0.0112749 12.2189 0.0630508 13.54C0.137377 15.0744 0.487427 16.4363 1.60951 17.5584C2.73398 18.6828 4.09342 19.0305 5.62789 19.1048C6.95137 19.1791 8.26286 19.1672 9.58394 19.1672C10.9074 19.1672 12.2189 19.1791 13.54 19.1048C15.0745 19.0305 16.4363 18.6804 17.5584 17.5584C18.6828 16.4339 19.0305 15.0744 19.1048 13.54C19.1815 12.2189 19.1672 10.9074 19.1672 9.58393ZM17.0573 15.2375C16.8822 15.6738 16.6713 15.9999 16.3332 16.3356C15.9951 16.6736 15.6715 16.8846 15.2351 17.0597C13.974 17.5608 10.9793 17.4481 9.58154 17.4481C8.18374 17.4481 5.18673 17.5608 3.92559 17.0621C3.48923 16.887 3.16315 16.676 2.82749 16.338C2.48943 15.9999 2.27844 15.6762 2.10341 15.2399C1.60471 13.9763 1.7174 10.9817 1.7174 9.58393C1.7174 8.18613 1.60471 5.18913 2.10341 3.92799C2.27844 3.49162 2.48943 3.16555 2.82749 2.82988C3.16555 2.49422 3.48923 2.28083 3.92559 2.10581C5.18673 1.60711 8.18374 1.71979 9.58154 1.71979C10.9793 1.71979 13.9763 1.60711 15.2375 2.10581C15.6739 2.28083 15.9999 2.49182 16.3356 2.82988C16.6737 3.16795 16.8846 3.49162 17.0597 3.92799C17.5584 5.18913 17.4457 8.18613 17.4457 9.58393C17.4457 10.9817 17.5584 13.9763 17.0573 15.2375Z" fill="black"/>
</svg>
