<svg width="19" height="18" viewBox="0 0 19 18" fill="none" xmlns="http://www.w3.org/2000/svg">
<path d="M4.49575 18H0.763881V5.98232H4.49575V18ZM2.62781 4.343C1.43448 4.343 0.466553 3.35458 0.466553 2.16125C0.466553 1.58805 0.694256 1.03833 1.09957 0.633017C1.50488 0.227703 2.05461 0 2.62781 0C3.20101 0 3.75073 0.227703 4.15604 0.633017C4.56136 1.03833 4.78906 1.58805 4.78906 2.16125C4.78906 3.35458 3.82074 4.343 2.62781 4.343ZM18.4629 18H14.7391V12.1499C14.7391 10.7556 14.711 8.96766 12.7988 8.96766C10.8586 8.96766 10.5612 10.4824 10.5612 12.0494V18H6.83339V5.98232H10.4126V7.62164H10.4648C10.963 6.67743 12.1801 5.68097 13.9958 5.68097C17.7727 5.68097 18.467 8.16808 18.467 11.3985V18H18.4629Z" fill="#FF4D93"/>
</svg>
