<svg width="22" height="23" viewBox="0 0 22 23" fill="none" xmlns="http://www.w3.org/2000/svg">
<path d="M4.80863 22.0167H0.354845V7.67425H4.80863V22.0167ZM2.57934 5.71781C1.15517 5.71781 0 4.53819 0 3.11401C1.01936e-08 2.42993 0.271751 1.77386 0.755472 1.29014C1.23919 0.806419 1.89526 0.534668 2.57934 0.534668C3.26343 0.534668 3.91949 0.806419 4.40321 1.29014C4.88693 1.77386 5.15868 2.42993 5.15868 3.11401C5.15868 4.53819 4.00304 5.71781 2.57934 5.71781ZM21.4777 22.0167H17.0335V15.0349C17.0335 13.371 17 11.2371 14.7179 11.2371C12.4023 11.2371 12.0475 13.0449 12.0475 14.915V22.0167H7.59849V7.67425H11.8701V9.6307H11.9324C12.527 8.50382 13.9795 7.31461 16.1464 7.31461C20.6539 7.31461 21.4825 10.2828 21.4825 14.1382V22.0167H21.4777Z" fill="black"/>
</svg>
