<svg width="26" height="31" viewBox="0 0 26 31" fill="none" xmlns="http://www.w3.org/2000/svg">
<path d="M12.2491 0.157406C12.0742 0.0919258 11.886 0.0697728 11.7007 0.0928427C11.5154 0.115913 11.3385 0.183519 11.185 0.289879C11.0315 0.39624 10.9061 0.53819 10.8194 0.703592C10.7328 0.868993 10.6874 1.05292 10.6873 1.23966V19.9354C9.61901 19.0801 8.29649 18.6044 6.92808 18.5834C5.55968 18.5623 4.22314 18.997 3.12899 19.8191C2.03483 20.6412 1.24523 21.8039 0.884533 23.124C0.52384 24.4442 0.612555 25.8469 1.13671 27.1111C1.66086 28.3753 2.59066 29.4292 3.77968 30.1069C4.96869 30.7846 6.34934 31.0474 7.70419 30.8541C9.05903 30.6608 10.3111 30.0223 11.2631 29.0392C12.2152 28.056 12.8132 26.7841 12.9628 25.4238C12.9873 25.3296 12.9997 25.2328 12.9998 25.1355V10.6161L23.7715 14.6552C23.9463 14.7207 24.1345 14.7429 24.3198 14.7198C24.5051 14.6967 24.682 14.6291 24.8355 14.5228C24.989 14.4164 25.1144 14.2745 25.2011 14.1091C25.2878 13.9437 25.3331 13.7597 25.3332 13.573V8.53636C25.3335 7.51615 25.0223 6.52016 24.4413 5.68156C23.8602 4.84296 23.0371 4.2017 22.0818 3.84353L12.2491 0.157406Z" fill="black"/>
</svg>
