<svg width="18" height="15" viewBox="0 0 18 15" fill="none" xmlns="http://www.w3.org/2000/svg">
<path d="M17.5337 2.10992C16.9064 2.39485 16.2326 2.58737 15.5241 2.67439C16.2551 2.22604 16.8019 1.5204 17.0627 0.689133C16.3759 1.10728 15.6243 1.4016 14.8405 1.55932C14.3135 0.982428 13.6153 0.600056 12.8545 0.471567C12.0937 0.343078 11.3128 0.475662 10.6331 0.848734C9.95333 1.22181 9.41274 1.81449 9.09526 2.53478C8.77777 3.25506 8.70115 4.06264 8.87729 4.83214C7.48578 4.76052 6.12451 4.38977 4.88183 3.74395C3.63915 3.09813 2.54282 2.19168 1.66401 1.08341C1.36352 1.61476 1.19074 2.23083 1.19074 2.88693C1.1904 3.47757 1.33229 4.05917 1.60382 4.58012C1.87535 5.10107 2.26812 5.54526 2.74728 5.87328C2.19158 5.85516 1.64814 5.70124 1.16219 5.42433V5.47053C1.16213 6.29894 1.44167 7.10185 1.95337 7.74302C2.46507 8.3842 3.17741 8.82416 3.96952 8.98824C3.45402 9.13126 2.91355 9.15232 2.38894 9.04985C2.61243 9.76264 3.04776 10.3859 3.634 10.8325C4.22024 11.2791 4.92803 11.5265 5.65828 11.5403C4.41863 12.5378 2.88767 13.079 1.31168 13.0766C1.03251 13.0766 0.753578 13.0599 0.476318 13.0265C2.07604 14.0809 3.93823 14.6405 5.84008 14.6383C12.2781 14.6383 15.7976 9.17229 15.7976 4.4317C15.7976 4.27769 15.7938 4.12213 15.7871 3.96812C16.4717 3.46062 17.0626 2.83217 17.5322 2.11223L17.5337 2.10992Z" fill="#3AB7FF"/>
</svg>
