<svg width="37" height="36" viewBox="0 0 37 36" fill="none" xmlns="http://www.w3.org/2000/svg">
<path d="M25 21.5C25 21.1022 25.158 20.7206 25.4393 20.4393C25.7206 20.158 26.1022 20 26.5 20H30.5C30.8978 20 31.2794 20.158 31.5607 20.4393C31.842 20.7206 32 21.1022 32 21.5C32 21.8978 31.842 22.2794 31.5607 22.5607C31.2794 22.842 30.8978 23 30.5 23H26.5C26.1022 23 25.7206 22.842 25.4393 22.5607C25.158 22.2794 25 21.8978 25 21.5ZM0 4H0.0279999C0.150986 2.89998 0.675081 1.88387 1.50009 1.14594C2.32509 0.408014 3.39313 3.34412e-05 4.5 0H27.5C28.0909 0 28.6761 0.116396 29.2221 0.342542C29.768 0.568688 30.2641 0.900156 30.682 1.31802C31.0998 1.73588 31.4313 2.23196 31.6575 2.77792C31.8836 3.32389 32 3.90905 32 4.5V6.174C33.4237 6.51202 34.6917 7.32037 35.599 8.46833C36.5064 9.6163 37 11.0368 37 12.5V29.5C37 31.2239 36.3152 32.8772 35.0962 34.0962C33.8772 35.3152 32.2239 36 30.5 36H6.5C4.77609 36 3.12279 35.3152 1.90381 34.0962C0.684819 32.8772 0 31.2239 0 29.5V4ZM30.5 9H3V29.5C3 31.432 4.568 33 6.5 33H30.5C31.4283 33 32.3185 32.6312 32.9749 31.9749C33.6312 31.3185 34 30.4283 34 29.5V12.5C34 11.5717 33.6312 10.6815 32.9749 10.0251C32.3185 9.36875 31.4283 9 30.5 9ZM29 6V4.5C29 4.10218 28.842 3.72064 28.5607 3.43934C28.2794 3.15804 27.8978 3 27.5 3H4.5C4.10218 3 3.72064 3.15804 3.43934 3.43934C3.15804 3.72064 3 4.10218 3 4.5C3 4.89782 3.15804 5.27936 3.43934 5.56066C3.72064 5.84196 4.10218 6 4.5 6H29Z" fill="black"/>
</svg>
