<?xml version="1.0" standalone="no"?>
<!DOCTYPE svg PUBLIC "-//W3C//DTD SVG 1.1//EN" "http://www.w3.org/Graphics/SVG/1.1/DTD/svg11.dtd" >
<svg xmlns="http://www.w3.org/2000/svg" xmlns:xlink="http://www.w3.org/1999/xlink" version="1.1">
<metadata>
Created by FontForge 20170731 at Wed Aug 25 19:26:47 2021
 By Aleksey,,,
Copyright 2018 The Changa Project Authors (https://github.com/eliheuer/changa-vf)
</metadata>
<defs>
<font id="Changa-Regular" horiz-adv-x="0" >
  <font-face 
    font-family="Changa"
    font-weight="400"
    font-stretch="normal"
    units-per-em="1000"
    panose-1="0 0 0 0 0 0 0 0 0 0"
    ascent="800"
    descent="-200"
    x-height="500"
    cap-height="625"
    bbox="-157 -553 1757 1223"
    underline-thickness="50"
    underline-position="-175"
    unicode-range="U+0020-FEFC"
  />
<missing-glyph horiz-adv-x="600" 
d="M24 1012h524v-1012h-524v1012zM40 996v-979h492v979h-492z" />
    <glyph glyph-name="f_f" unicode="ff" horiz-adv-x="666" 
d="M220 0h-100v494q4 70 15.5 109.5t37 55.5t68.5 16q23 0 46 -2.5t46 -7.5l-6 -72l-107 9v-602zM300 500v-69h-250v69h250zM553 0h-100v494q4 70 15.5 109.5t37 55.5t68.5 16q23 0 46 -2.5t46 -7.5l-6 -72l-107 9v-602zM633 500v-69h-250v69h250z" />
    <glyph glyph-name="fi" unicode="fi" horiz-adv-x="613" 
d="M220 0h-100v494q4 70 15.5 109.5t37 55.5t68.5 16q23 0 46 -2.5t46 -7.5l-6 -72l-107 9v-602zM300 500v-69h-250v69h250zM423 493l100 15v-508h-100v493zM474 587q-37 0 -49.5 12.5t-12.5 47.5q0 36 13 49t49 13q35 0 47.5 -13t12.5 -49q0 -35 -12 -47.5t-48 -12.5z" />
    <glyph glyph-name="fl" unicode="fl" horiz-adv-x="604" 
d="M220 0h-100v494q4 70 15.5 109.5t37 55.5t68.5 16q23 0 46 -2.5t46 -7.5l-6 -72l-107 9v-602zM300 500v-69h-250v69h250zM518 74q9 -1 21.5 -2.5t24.5 -2.5l-6 -68q-20 -6 -35.5 -8.5t-30.5 -2.5q-37 0 -55.5 18.5t-18.5 56.5v585l100 15v-591z" />
    <glyph glyph-name="f_f_i" unicode="ffi" horiz-adv-x="946" 
d="M220 0h-100v494q4 70 15.5 109.5t37 55.5t68.5 16q23 0 46 -2.5t46 -7.5l-6 -72l-107 9v-602zM300 500v-69h-250v69h250zM553 0h-100v494q4 70 15.5 109.5t37 55.5t68.5 16q23 0 46 -2.5t46 -7.5l-6 -72l-107 9v-602zM633 500v-69h-250v69h250zM756 493l100 15v-508h-100
v493zM807 587q-37 0 -49.5 12.5t-12.5 47.5q0 36 13 49t49 13q35 0 47.5 -13t12.5 -49q0 -35 -12 -47.5t-48 -12.5z" />
    <glyph glyph-name="f_f_l" unicode="ffl" horiz-adv-x="937" 
d="M220 0h-100v494q4 70 15.5 109.5t37 55.5t68.5 16q23 0 46 -2.5t46 -7.5l-6 -72l-107 9v-602zM300 500v-69h-250v69h250zM553 0h-100v494q4 70 15.5 109.5t37 55.5t68.5 16q23 0 46 -2.5t46 -7.5l-6 -72l-107 9v-602zM633 500v-69h-250v69h250zM851 74q9 -1 21.5 -2.5
t24.5 -2.5l-6 -68q-20 -6 -35.5 -8.5t-30.5 -2.5q-37 0 -55.5 18.5t-18.5 56.5v585l100 15v-591z" />
    <glyph glyph-name="uniFDF2" unicode="&#x627;&#xfedf;&#xfee0;&#xfeea;" horiz-adv-x="1539" arabic-form="isolated" 
d="M1359 0v630h80v-630h-80zM1159 0h-240v90h160v540h80v-630zM839 90h120v-90h-360v90h160v540h80v-540zM529 90h110v-90h-110v90zM532 470v-470h-244q-64 0 -104.5 9t-61.5 34t-29 71t-8 121t8 121t29 71t61.5 34t104.5 9h244zM452 380h-213q-37 0 -53 -13t-16 -43v-178
q0 -30 16 -43t53 -13h213v290zM1263 984l1 -198l-257 -69q-6 -1 -11 -2t-10 -1q-21 0 -30.5 19t-9.5 62q0 27 3.5 56.5t9.5 51.5l58 8q-5 -24 -7.5 -47t-2.5 -44q0 -18 1.5 -31t4.5 -24l72 19q-8 16 -8 65v76l54 15v-143l70 18v145zM1078 1011v198l54 14v-198z" />
    <glyph glyph-name="uniFEF5" unicode="&#xfedf;&#xfe82;" horiz-adv-x="635" arabic-form="isolated" 
d="M452 391v239h80v-201q0 -30 -5.5 -53.5t-18 -39.5t-35.5 -24v-7q47 -40 64.5 -74t17.5 -77q0 -88 -61 -128.5t-197 -40.5q-87 0 -136.5 14t-69.5 46.5t-20 86.5q0 47 11 76t42 50.5t89 43.5zM156 75h202q59 0 85.5 23t26.5 53q0 21 -11.5 43t-32.5 38l-50 40l-220 -82
v-115zM324 313l-228 184l53 65l268 -216zM190 686q-13 0 -23 7.5t-36 32.5l-59 -27l-14 28q31 22 49 33.5t29 16t19 4.5q11 0 20.5 -7.5t37.5 -33.5l59 27l14 -28q-27 -20 -45 -31.5t-30 -16.5t-21 -5z" />
    <glyph glyph-name="uniFEF6" unicode="&#xfee0;&#xfe82;" horiz-adv-x="640" arabic-form="final" 
d="M183 54l-43 491h80l43 -491h-80zM460 54v576h80v-576h-80zM660 90v-90h-640v90h640zM196 686q-13 0 -23 7.5t-36 32.5l-59 -27l-14 28q31 22 49 33.5t29 16t19 4.5q11 0 20.5 -7.5t37.5 -33.5l59 27l14 -28q-27 -20 -45 -31.5t-30 -16.5t-21 -5z" />
    <glyph glyph-name="uniFEF7" unicode="&#xfedf;&#xfe84;" horiz-adv-x="635" arabic-form="isolated" 
d="M452 391v239h80v-201q0 -30 -5.5 -53.5t-18 -39.5t-35.5 -24v-7q47 -40 64.5 -74t17.5 -77q0 -88 -61 -128.5t-197 -40.5q-87 0 -136.5 14t-69.5 46.5t-20 86.5q0 47 11 76t42 50.5t89 43.5zM156 75h202q59 0 85.5 23t26.5 53q0 21 -11.5 43t-32.5 38l-50 40l-220 -82
v-115zM324 313l-228 184l53 65l268 -216zM202 737l86 23v-46l-228 -61v46l44 12q-6 13 -9 30.5t-3 43.5q0 56 21.5 86t60.5 42t90 12v-56q-28 0 -57 -6t-50 -18l-1 -88q0 -18 10.5 -22.5t35.5 2.5z" />
    <glyph glyph-name="uniFEF8" unicode="&#xfee0;&#xfe84;" horiz-adv-x="640" arabic-form="final" 
d="M183 54l-43 491h80l43 -491h-80zM460 54v576h80v-576h-80zM660 90v-90h-640v90h640zM208 737l86 23v-46l-228 -61v46l44 12q-6 13 -9 30.5t-3 43.5q0 56 21.5 86t60.5 42t90 12v-56q-28 0 -57 -6t-50 -18l-1 -88q0 -18 10.5 -22.5t35.5 2.5z" />
    <glyph glyph-name="uniFEF9" unicode="&#xfedf;&#xfe88;" horiz-adv-x="635" arabic-form="isolated" 
d="M452 391v239h80v-201q0 -30 -5.5 -53.5t-18 -39.5t-35.5 -24v-7q47 -40 64.5 -74t17.5 -77q0 -88 -61 -128.5t-197 -40.5q-87 0 -136.5 14t-69.5 46.5t-20 86.5q0 47 11 76t42 50.5t89 43.5zM156 75h202q59 0 85.5 23t26.5 53q0 21 -11.5 43t-32.5 38l-50 40l-220 -82
v-115zM324 313l-228 184l53 65l268 -216zM151 -267l86 23v-46l-228 -61v46l44 12q-6 13 -9 30.5t-3 43.5q0 56 21.5 86t60.5 42t90 12v-56q-28 0 -57 -6t-50 -18l-1 -88q0 -18 10.5 -22.5t35.5 2.5z" />
    <glyph glyph-name="uniFEFA" unicode="&#xfee0;&#xfe88;" horiz-adv-x="640" arabic-form="final" 
d="M183 54l-43 491h80l43 -491h-80zM460 54v576h80v-576h-80zM660 90v-90h-640v90h640zM258 -267l86 23v-46l-228 -61v46l44 12q-6 13 -9 30.5t-3 43.5q0 56 21.5 86t60.5 42t90 12v-56q-28 0 -57 -6t-50 -18l-1 -88q0 -18 10.5 -22.5t35.5 2.5z" />
    <glyph glyph-name="uniFEFB" unicode="&#xfedf;&#xfe8e;" horiz-adv-x="635" arabic-form="isolated" 
d="M452 391v239h80v-201q0 -30 -5.5 -53.5t-18 -39.5t-35.5 -24v-7q47 -40 64.5 -74t17.5 -77q0 -88 -61 -128.5t-197 -40.5q-87 0 -136.5 14t-69.5 46.5t-20 86.5q0 47 11 76t42 50.5t89 43.5zM156 75h202q59 0 85.5 23t26.5 53q0 21 -11.5 43t-32.5 38l-50 40l-220 -82
v-115zM324 313l-228 184l53 65l268 -216z" />
    <glyph glyph-name="uniFEFC" unicode="&#xfee0;&#xfe8e;" horiz-adv-x="640" arabic-form="final" 
d="M183 54l-43 491h80l43 -491h-80zM460 54v576h80v-576h-80zM660 90v-90h-640v90h640z" />
    <glyph glyph-name="lam_alefWaslaar" unicode="&#xfedf;&#xfb51;" horiz-adv-x="635" 
d="M452 391v239h80v-201q0 -30 -5.5 -53.5t-18 -39.5t-35.5 -24v-7q47 -40 64.5 -74t17.5 -77q0 -88 -61 -128.5t-197 -40.5q-87 0 -136.5 14t-69.5 46.5t-20 86.5q0 47 11 76t42 50.5t89 43.5zM156 75h202q59 0 85.5 23t26.5 53q0 21 -11.5 43t-32.5 38l-50 40l-220 -82
v-115zM324 313l-228 184l53 65l268 -216zM47 694q0 92 37.5 146.5t116.5 54.5q57 0 80 -17t23 -58v-126h-60v150q-14 5 -43 5q-49 0 -71.5 -37.5t-22.5 -117.5h-60zM17 665v45h287v-45h-287z" />
    <glyph glyph-name="lam_alefWaslaar.fina" unicode="&#xfee0;&#xfb51;" horiz-adv-x="640" 
d="M183 54l-43 491h80l43 -491h-80zM460 54v576h80v-576h-80zM660 90v-90h-640v90h640zM53 694q0 92 37.5 146.5t116.5 54.5q57 0 80 -17t23 -58v-126h-60v150q-14 5 -43 5q-49 0 -71.5 -37.5t-22.5 -117.5h-60zM23 665v45h287v-45h-287z" />
    <glyph glyph-name="uni066E.init" unicode="&#x66e;" horiz-adv-x="320" 
d="M-20 0v90h160v380h80v-470h-240z" />
    <glyph glyph-name="uni066E.medi" unicode="&#x66e;" horiz-adv-x="320" 
d="M220 90h120v-90h-360v90h160v380h80v-380z" />
    <glyph glyph-name="uni066E.fina" unicode="&#x66e;" horiz-adv-x="884" 
d="M774 90h130v-90h-130v90zM210 0q-51 0 -82 20t-44.5 65.5t-13.5 120.5q0 45 7.5 94.5t20.5 83.5l76 -13q-12 -40 -18 -78t-6 -71q0 -41 3.5 -72.5t12.5 -59.5h538v380h80v-470h-574z" />
    <glyph glyph-name="uni066F.fina" unicode="&#x66f;" horiz-adv-x="882" 
d="M782 90h120v-90h-120v90zM200 -260q-51 0 -82 23.5t-44.5 76.5t-13.5 141q0 36 3.5 75t10 75t14.5 63l76 -13q-12 -50 -18 -96.5t-6 -87.5q0 -52 3.5 -92t12.5 -75h546v170h80v-100q0 -88 -34.5 -124t-120.5 -36h-427zM508 0q-43 0 -71 11t-44 37.5t-23 73.5t-7 118
q0 73 9.5 119.5t32.5 73t64 37t104 10.5q64 0 111 -7t98 -24v-449h-274zM656 90q26 0 36 11t10 39v250h-208q-27 0 -36.5 -11t-9.5 -44v-245h208z" />
    <glyph glyph-name="uni06A1.init" unicode="&#x6a1;" horiz-adv-x="649" 
d="M-20 90h160q-5 28 -7.5 67t-2.5 103q0 65 9 107.5t32 67t64 35t105 10.5q55 0 102 -7t107 -24v-449h-569v90zM423 90q26 0 36 11t10 39v248h-208q-27 0 -36.5 -11t-9.5 -44v-243h208z" />
    <glyph glyph-name="uni06A1.medi" unicode="&#x6a1;" horiz-adv-x="649" 
d="M549 90h120v-90h-120v90zM-20 90h160q-5 28 -7.5 67t-2.5 103q0 65 9 107.5t32 67t64 35t105 10.5q55 0 102 -7t107 -24v-449h-569v90zM423 90q26 0 36 11t10 39v248h-208q-27 0 -36.5 -11t-9.5 -44v-243h208z" />
    <glyph glyph-name="uni06A1.fina" unicode="&#x6a1;" horiz-adv-x="984" 
d="M884 90h120v-90h-120v90zM210 0q-51 0 -82 20t-44.5 65.5t-13.5 120.5q0 45 7.5 94.5t20.5 83.5l76 -13q-12 -40 -18 -78t-6 -71q0 -41 3.5 -72.5t12.5 -59.5h309q-5 28 -7.5 67t-2.5 103q0 65 9 107.5t32 67t64 35t105 10.5q55 0 102 -7t107 -24v-449h-674zM758 90
q26 0 36 11t10 39v248h-208q-27 0 -36.5 -11t-9.5 -44v-243h208z" />
    <glyph glyph-name="uni06C2.fina" unicode="&#x6c2;" horiz-adv-x="619" 
d="M529 90h110v-90h-110v90zM532 470v-470h-244q-64 0 -104.5 9t-61.5 34t-29 71t-8 121t8 121t29 71t61.5 34t104.5 9h244zM452 380h-213q-37 0 -53 -13t-16 -43v-178q0 -30 16 -43t53 -13h213v290zM338 662l86 23v-46l-228 -61v46l44 12q-6 13 -9 30.5t-3 43.5
q0 56 21.5 86t60.5 42t90 12v-56q-28 0 -57 -6t-50 -18l-1 -88q0 -18 10.5 -22.5t35.5 2.5z" />
    <glyph glyph-name="uni06C3.fina" unicode="&#x6c3;" horiz-adv-x="652" 
d="M315 480q42 0 87 -3.5t85 -10.5t65 -16l-10 -84q-31 8 -68 13.5t-73.5 8t-68.5 2.5q-46 0 -85 -2.5t-71 -8.5v-379h-80v340q0 52 19.5 82.5t67.5 44t132 13.5zM552 450v-360h120v-90h-200v450h80zM259 590q-10 0 -23 9t-22.5 22.5t-9.5 23.5q0 11 9.5 23.5t22.5 22
t23 9.5q11 0 23.5 -9.5t22 -22t9.5 -23.5q0 -10 -9.5 -23t-22.5 -22.5t-23 -9.5zM403 590q-10 0 -23 9t-22.5 22.5t-9.5 23.5q0 11 9.5 23.5t22.5 22t23 9.5q11 0 23.5 -9.5t22 -22t9.5 -23.5q0 -10 -9.5 -23t-22.5 -22.5t-23 -9.5z" />
    <glyph glyph-name="uniFB51" unicode="&#x671;" horiz-adv-x="280" arabic-form="final" 
d="M100 0v470h80v-380h120v-90h-200zM13 619q0 92 37.5 146.5t116.5 54.5q57 0 80 -17t23 -58v-126h-60v150q-14 5 -43 5q-49 0 -71.5 -37.5t-22.5 -117.5h-60zM-17 590v45h287v-45h-287z" />
    <glyph glyph-name="uniFB57" unicode="&#x67e;" horiz-adv-x="884" arabic-form="final" 
d="M774 90h130v-90h-130v90zM210 0q-51 0 -82 20t-44.5 65.5t-13.5 120.5q0 45 7.5 94.5t20.5 83.5l76 -13q-12 -40 -18 -78t-6 -71q0 -41 3.5 -72.5t12.5 -59.5h538v380h80v-470h-574zM438 -350q-10 0 -23 9t-22.5 22.5t-9.5 23.5q0 11 9.5 23.5t22.5 22t23 9.5
q11 0 23.5 -9.5t22 -22t9.5 -23.5q0 -10 -9.5 -23t-22.5 -22.5t-23 -9.5zM366 -200q-10 0 -23 9t-22.5 22.5t-9.5 23.5q0 11 9.5 23.5t22.5 22t23 9.5q11 0 23.5 -9.5t22 -22t9.5 -23.5q0 -10 -9.5 -23t-22.5 -22.5t-23 -9.5zM510 -200q-10 0 -23 9t-22.5 22.5t-9.5 23.5
q0 11 9.5 23.5t22.5 22t23 9.5q11 0 23.5 -9.5t22 -22t9.5 -23.5q0 -10 -9.5 -23t-22.5 -22.5t-23 -9.5z" />
    <glyph glyph-name="uniFB58" unicode="&#x67e;" horiz-adv-x="320" arabic-form="initial" 
d="M-20 0v90h160v380h80v-470h-240zM116 -326q-10 0 -23 9t-22.5 22.5t-9.5 23.5q0 11 9.5 23.5t22.5 22t23 9.5q11 0 23.5 -9.5t22 -22t9.5 -23.5q0 -10 -9.5 -23t-22.5 -22.5t-23 -9.5zM44 -176q-10 0 -23 9t-22.5 22.5t-9.5 23.5q0 11 9.5 23.5t22.5 22t23 9.5
q11 0 23.5 -9.5t22 -22t9.5 -23.5q0 -10 -9.5 -23t-22.5 -22.5t-23 -9.5zM188 -176q-10 0 -23 9t-22.5 22.5t-9.5 23.5q0 11 9.5 23.5t22.5 22t23 9.5q11 0 23.5 -9.5t22 -22t9.5 -23.5q0 -10 -9.5 -23t-22.5 -22.5t-23 -9.5z" />
    <glyph glyph-name="uniFB59" unicode="&#x67e;" horiz-adv-x="320" arabic-form="medial" 
d="M220 90h120v-90h-360v90h160v380h80v-380zM179 -340q-10 0 -23 9t-22.5 22.5t-9.5 23.5q0 11 9.5 23.5t22.5 22t23 9.5q11 0 23.5 -9.5t22 -22t9.5 -23.5q0 -10 -9.5 -23t-22.5 -22.5t-23 -9.5zM107 -190q-10 0 -23 9t-22.5 22.5t-9.5 23.5q0 11 9.5 23.5t22.5 22t23 9.5
q11 0 23.5 -9.5t22 -22t9.5 -23.5q0 -10 -9.5 -23t-22.5 -22.5t-23 -9.5zM251 -190q-10 0 -23 9t-22.5 22.5t-9.5 23.5q0 11 9.5 23.5t22.5 22t23 9.5q11 0 23.5 -9.5t22 -22t9.5 -23.5q0 -10 -9.5 -23t-22.5 -22.5t-23 -9.5z" />
    <glyph glyph-name="uniFB67" unicode="&#x679;" horiz-adv-x="884" arabic-form="final" 
d="M774 90h130v-90h-130v90zM210 0q-51 0 -82 20t-44.5 65.5t-13.5 120.5q0 45 7.5 94.5t20.5 83.5l76 -13q-12 -40 -18 -78t-6 -71q0 -41 3.5 -72.5t12.5 -59.5h538v380h80v-470h-574zM312 529v234h60v-120q17 27 44.5 42t72.5 15t62.5 -16.5t17.5 -58.5v-96h-60v117
q-8 4 -19.5 6t-23.5 2q-49 0 -71.5 -30t-22.5 -95h-60zM282 490v45h287v-45h-287z" />
    <glyph glyph-name="uniFB68" unicode="&#x679;" horiz-adv-x="320" arabic-form="initial" 
d="M-20 0v90h160v380h80v-470h-240zM53 629v234h60v-120q17 27 44.5 42t72.5 15t62.5 -16.5t17.5 -58.5v-96h-60v117q-8 4 -19.5 6t-23.5 2q-49 0 -71.5 -30t-22.5 -95h-60zM23 590v45h287v-45h-287z" />
    <glyph glyph-name="uniFB69" unicode="&#x679;" horiz-adv-x="320" arabic-form="medial" 
d="M220 90h120v-90h-360v90h160v380h80v-380zM53 629v234h60v-120q17 27 44.5 42t72.5 15t62.5 -16.5t17.5 -58.5v-96h-60v117q-8 4 -19.5 6t-23.5 2q-49 0 -71.5 -30t-22.5 -95h-60zM23 590v45h287v-45h-287z" />
    <glyph glyph-name="uniFB6B" unicode="&#x6a4;" horiz-adv-x="984" arabic-form="final" 
d="M884 90h120v-90h-120v90zM210 0q-51 0 -82 20t-44.5 65.5t-13.5 120.5q0 45 7.5 94.5t20.5 83.5l76 -13q-12 -40 -18 -78t-6 -71q0 -41 3.5 -72.5t12.5 -59.5h309q-5 28 -7.5 67t-2.5 103q0 65 9 107.5t32 67t64 35t105 10.5q55 0 102 -7t107 -24v-449h-674zM758 90
q26 0 36 11t10 39v248h-208q-27 0 -36.5 -11t-9.5 -44v-243h208zM631 590q-10 0 -23 9t-22.5 22.5t-9.5 23.5q0 11 9.5 23.5t22.5 22t23 9.5q11 0 23.5 -9.5t22 -22t9.5 -23.5q0 -10 -9.5 -23t-22.5 -22.5t-23 -9.5zM775 590q-10 0 -23 9t-22.5 22.5t-9.5 23.5
q0 11 9.5 23.5t22.5 22t23 9.5q11 0 23.5 -9.5t22 -22t9.5 -23.5q0 -10 -9.5 -23t-22.5 -22.5t-23 -9.5zM703 740q-10 0 -23 9t-22.5 22.5t-9.5 23.5q0 11 9.5 23.5t22.5 22t23 9.5q11 0 23.5 -9.5t22 -22t9.5 -23.5q0 -10 -9.5 -23t-22.5 -22.5t-23 -9.5z" />
    <glyph glyph-name="uniFB6C" unicode="&#x6a4;" horiz-adv-x="649" arabic-form="initial" 
d="M-20 90h160q-5 28 -7.5 67t-2.5 103q0 65 9 107.5t32 67t64 35t105 10.5q55 0 102 -7t107 -24v-449h-569v90zM423 90q26 0 36 11t10 39v248h-208q-27 0 -36.5 -11t-9.5 -44v-243h208zM268 590q-10 0 -23 9t-22.5 22.5t-9.5 23.5q0 11 9.5 23.5t22.5 22t23 9.5
q11 0 23.5 -9.5t22 -22t9.5 -23.5q0 -10 -9.5 -23t-22.5 -22.5t-23 -9.5zM412 590q-10 0 -23 9t-22.5 22.5t-9.5 23.5q0 11 9.5 23.5t22.5 22t23 9.5q11 0 23.5 -9.5t22 -22t9.5 -23.5q0 -10 -9.5 -23t-22.5 -22.5t-23 -9.5zM340 740q-10 0 -23 9t-22.5 22.5t-9.5 23.5
q0 11 9.5 23.5t22.5 22t23 9.5q11 0 23.5 -9.5t22 -22t9.5 -23.5q0 -10 -9.5 -23t-22.5 -22.5t-23 -9.5z" />
    <glyph glyph-name="uniFB6D" unicode="&#x6a4;" horiz-adv-x="649" arabic-form="medial" 
d="M549 90h120v-90h-120v90zM-20 90h160q-5 28 -7.5 67t-2.5 103q0 65 9 107.5t32 67t64 35t105 10.5q55 0 102 -7t107 -24v-449h-569v90zM423 90q26 0 36 11t10 39v248h-208q-27 0 -36.5 -11t-9.5 -44v-243h208zM268 590q-10 0 -23 9t-22.5 22.5t-9.5 23.5q0 11 9.5 23.5
t22.5 22t23 9.5q11 0 23.5 -9.5t22 -22t9.5 -23.5q0 -10 -9.5 -23t-22.5 -22.5t-23 -9.5zM412 590q-10 0 -23 9t-22.5 22.5t-9.5 23.5q0 11 9.5 23.5t22.5 22t23 9.5q11 0 23.5 -9.5t22 -22t9.5 -23.5q0 -10 -9.5 -23t-22.5 -22.5t-23 -9.5zM340 740q-10 0 -23 9t-22.5 22.5
t-9.5 23.5q0 11 9.5 23.5t22.5 22t23 9.5q11 0 23.5 -9.5t22 -22t9.5 -23.5q0 -10 -9.5 -23t-22.5 -22.5t-23 -9.5z" />
    <glyph glyph-name="uniFB7B" unicode="&#x686;" horiz-adv-x="672" arabic-form="final" 
d="M632 90h60v-90h-56q-30 0 -47 13.5t-28 42.5l-69 180q-24 58 -54 91.5t-74.5 48t-113.5 14.5q-19 0 -39.5 -1t-43.5 -3l-13 88q29 3 55.5 4.5t50.5 1.5q84 0 141.5 -21.5t96.5 -67.5t66 -121zM307 -177l12 -84q-28 -7 -54 -10.5t-49 -3.5q-67 0 -102.5 21.5t-49 70.5
t-13.5 131q0 106 44 169.5t142.5 92t261.5 28.5l56 -70q-153 0 -245 -16.5t-133 -53.5t-41 -99v-177q15 -3 32.5 -5t37.5 -2q22 0 47 2t54 6zM377 -198q-10 0 -23 9t-22.5 22.5t-9.5 23.5q0 11 9.5 23.5t22.5 22t23 9.5q11 0 23.5 -9.5t22 -22t9.5 -23.5q0 -10 -9.5 -23
t-22.5 -22.5t-23 -9.5zM305 -48q-10 0 -23 9t-22.5 22.5t-9.5 23.5q0 11 9.5 23.5t22.5 22t23 9.5q11 0 23.5 -9.5t22 -22t9.5 -23.5q0 -10 -9.5 -23t-22.5 -22.5t-23 -9.5zM449 -48q-10 0 -23 9t-22.5 22.5t-9.5 23.5q0 11 9.5 23.5t22.5 22t23 9.5q11 0 23.5 -9.5t22 -22
t9.5 -23.5q0 -10 -9.5 -23t-22.5 -22.5t-23 -9.5z" />
    <glyph glyph-name="uniFB7C" unicode="&#x686;" horiz-adv-x="555" arabic-form="initial" 
d="M463 270h92v-90h-88q-30 0 -47 13.5t-28 42.5q-21 59 -51 92.5t-76 47.5t-115 14q-19 0 -39.5 -1t-43.5 -3l-13 88q29 3 55.5 4.5t50.5 1.5q84 0 141 -21.5t96 -67.5t66 -121zM396 265l74 -32q-19 -50 -48 -92.5t-69 -74t-92 -49t-118 -17.5h-163v90h186q46 0 83 16
t65.5 42t49 56.5t32.5 60.5zM264 -340q-10 0 -23 9t-22.5 22.5t-9.5 23.5q0 11 9.5 23.5t22.5 22t23 9.5q11 0 23.5 -9.5t22 -22t9.5 -23.5q0 -10 -9.5 -23t-22.5 -22.5t-23 -9.5zM192 -190q-10 0 -23 9t-22.5 22.5t-9.5 23.5q0 11 9.5 23.5t22.5 22t23 9.5q11 0 23.5 -9.5
t22 -22t9.5 -23.5q0 -10 -9.5 -23t-22.5 -22.5t-23 -9.5zM336 -190q-10 0 -23 9t-22.5 22.5t-9.5 23.5q0 11 9.5 23.5t22.5 22t23 9.5q11 0 23.5 -9.5t22 -22t9.5 -23.5q0 -10 -9.5 -23t-22.5 -22.5t-23 -9.5z" />
    <glyph glyph-name="uniFB7D" unicode="&#x686;" horiz-adv-x="572" arabic-form="medial" 
d="M532 90h60v-90h-56q-30 0 -47 13.5t-28 42.5l-69 180q-24 58 -54 91.5t-74.5 48t-113.5 14.5q-19 0 -39.5 -1t-43.5 -3l-13 88q29 3 55.5 4.5t50.5 1.5q84 0 141.5 -21.5t96.5 -67.5t66 -121zM396 265l74 -32q-18 -50 -45.5 -92.5t-65 -74t-86 -49t-110.5 -17.5h-183v90
h216q40 0 72.5 16t57 42t42 56.5t28.5 60.5zM264 -340q-10 0 -23 9t-22.5 22.5t-9.5 23.5q0 11 9.5 23.5t22.5 22t23 9.5q11 0 23.5 -9.5t22 -22t9.5 -23.5q0 -10 -9.5 -23t-22.5 -22.5t-23 -9.5zM192 -190q-10 0 -23 9t-22.5 22.5t-9.5 23.5q0 11 9.5 23.5t22.5 22t23 9.5
q11 0 23.5 -9.5t22 -22t9.5 -23.5q0 -10 -9.5 -23t-22.5 -22.5t-23 -9.5zM336 -190q-10 0 -23 9t-22.5 22.5t-9.5 23.5q0 11 9.5 23.5t22.5 22t23 9.5q11 0 23.5 -9.5t22 -22t9.5 -23.5q0 -10 -9.5 -23t-22.5 -22.5t-23 -9.5z" />
    <glyph glyph-name="uniFB89" unicode="&#x688;" horiz-adv-x="493" arabic-form="final" 
d="M443 90h70v-90h-70v90zM20 0v90h347q-27 99 -49.5 160t-45.5 94t-53 45t-73 12q-17 0 -38 -2.5t-38 -7.5l-22 88q26 6 52 9t46 3q53 0 90.5 -7.5t66 -31t52.5 -69.5t49.5 -122.5t58.5 -190.5v-70h-443zM48 629v234h60v-120q17 27 44.5 42t72.5 15t62.5 -16.5t17.5 -58.5
v-96h-60v117q-8 4 -19.5 6t-23.5 2q-49 0 -71.5 -30t-22.5 -95h-60zM18 590v45h287v-45h-287z" />
    <glyph glyph-name="uniFB8B" unicode="&#x698;" horiz-adv-x="310" arabic-form="final" 
d="M210 90h120v-90h-120v90zM62 -259l-34 70q39 19 61.5 43t32 59t9.5 87v470h80v-470q0 -66 -15 -114.5t-48 -83.5t-86 -61zM98 590q-10 0 -23 9t-22.5 22.5t-9.5 23.5q0 11 9.5 23.5t22.5 22t23 9.5q11 0 23.5 -9.5t22 -22t9.5 -23.5q0 -10 -9.5 -23t-22.5 -22.5t-23 -9.5
zM242 590q-10 0 -23 9t-22.5 22.5t-9.5 23.5q0 11 9.5 23.5t22.5 22t23 9.5q11 0 23.5 -9.5t22 -22t9.5 -23.5q0 -10 -9.5 -23t-22.5 -22.5t-23 -9.5zM170 740q-10 0 -23 9t-22.5 22.5t-9.5 23.5q0 11 9.5 23.5t22.5 22t23 9.5q11 0 23.5 -9.5t22 -22t9.5 -23.5
q0 -10 -9.5 -23t-22.5 -22.5t-23 -9.5z" />
    <glyph glyph-name="uniFB8D" unicode="&#x691;" horiz-adv-x="310" arabic-form="final" 
d="M210 90h120v-90h-120v90zM62 -259l-34 70q39 19 61.5 43t32 59t9.5 87v470h80v-470q0 -66 -15 -114.5t-48 -83.5t-86 -61zM43 629v234h60v-120q17 27 44.5 42t72.5 15t62.5 -16.5t17.5 -58.5v-96h-60v117q-8 4 -19.5 6t-23.5 2q-49 0 -71.5 -30t-22.5 -95h-60zM13 590v45
h287v-45h-287z" />
    <glyph glyph-name="uniFB8F" unicode="&#x6a9;" horiz-adv-x="844" arabic-form="final" 
d="M744 90h120v-90h-120v90zM210 0q-51 0 -82 20t-44.5 65.5t-13.5 120.5q0 45 7.5 94.5t20.5 83.5l76 -13q-12 -40 -18 -78t-6 -71q0 -41 3.5 -72.5t12.5 -59.5h498v223h-261q-46 0 -70 21.5t-24 63.5q0 33 12 74t32.5 84.5t47 83t56.5 69.5l68 -36q-28 -30 -52 -63.5
t-42.5 -68.5t-31 -70t-18.5 -68h253q43 0 66.5 -10t33.5 -33.5t10 -66.5v-293h-534z" />
    <glyph glyph-name="uniFB90" unicode="&#x6a9;" horiz-adv-x="702" arabic-form="initial" 
d="M-20 0v90h542v223h-341q-46 0 -70 21.5t-24 63.5q0 33 12 74t32.5 84.5t47 83t56.5 69.5l68 -36q-28 -30 -52 -63.5t-42.5 -68.5t-31 -70t-18.5 -68h333q43 0 66.5 -10t33.5 -33.5t10 -66.5v-293h-622z" />
    <glyph glyph-name="uniFB91" unicode="&#x6a9;" horiz-adv-x="702" arabic-form="medial" 
d="M602 90h120v-90h-120v90zM-20 0v90h542v223h-341q-46 0 -70 21.5t-24 63.5q0 33 12 74t32.5 84.5t47 83t56.5 69.5l68 -36q-28 -30 -52 -63.5t-42.5 -68.5t-31 -70t-18.5 -68h333q43 0 66.5 -10t33.5 -33.5t10 -66.5v-293h-622z" />
    <glyph glyph-name="uniFB93" unicode="&#x6af;" horiz-adv-x="844" arabic-form="final" 
d="M744 90h120v-90h-120v90zM210 0q-51 0 -82 20t-44.5 65.5t-13.5 120.5q0 45 7.5 94.5t20.5 83.5l76 -13q-12 -40 -18 -78t-6 -71q0 -41 3.5 -72.5t12.5 -59.5h498v223h-261q-46 0 -70 21.5t-24 63.5q0 33 12 74t32.5 84.5t47 83t56.5 69.5l68 -36q-28 -30 -52 -63.5
t-42.5 -68.5t-31 -70t-18.5 -68h253q43 0 66.5 -10t33.5 -33.5t10 -66.5v-293h-534zM315 783q-28 -27 -51.5 -62.5t-42 -75.5t-30.5 -79.5t-17 -74.5l73 -25q7 50 25.5 100t47 96.5t63.5 84.5z" />
    <glyph glyph-name="uniFB94" unicode="&#x6af;" horiz-adv-x="702" arabic-form="initial" 
d="M-20 0v90h542v223h-341q-46 0 -70 21.5t-24 63.5q0 33 12 74t32.5 84.5t47 83t56.5 69.5l68 -36q-28 -30 -52 -63.5t-42.5 -68.5t-31 -70t-18.5 -68h333q43 0 66.5 -10t33.5 -33.5t10 -66.5v-293h-622zM83 783q-28 -27 -51.5 -62.5t-42 -75.5t-30.5 -79.5t-17 -74.5
l73 -25q7 50 25.5 100t47 96.5t63.5 84.5z" />
    <glyph glyph-name="uniFB95" unicode="&#x6af;" horiz-adv-x="702" arabic-form="medial" 
d="M602 90h120v-90h-120v90zM-20 0v90h542v223h-341q-46 0 -70 21.5t-24 63.5q0 33 12 74t32.5 84.5t47 83t56.5 69.5l68 -36q-28 -30 -52 -63.5t-42.5 -68.5t-31 -70t-18.5 -68h333q43 0 66.5 -10t33.5 -33.5t10 -66.5v-293h-622zM83 783q-28 -27 -51.5 -62.5t-42 -75.5
t-30.5 -79.5t-17 -74.5l73 -25q7 50 25.5 100t47 96.5t63.5 84.5z" />
    <glyph glyph-name="uniFB9F" unicode="&#x6ba;" horiz-adv-x="661" arabic-form="final" 
d="M561 90h120v-90h-120v90zM162 -150h183q77 0 106.5 10.5t29.5 42.5v567h80v-506q0 -62 -10 -102t-38 -62t-79 -31t-134 -9q-73 0 -118.5 10t-70 34.5t-33 68t-8.5 111.5q0 42 3.5 87.5t10.5 87.5t16 74l74 -13q-12 -59 -18 -114.5t-6 -104.5q0 -47 2.5 -82.5t9.5 -68.5z
" />
    <glyph glyph-name="uniFBA7" unicode="&#x6c1;" horiz-adv-x="652" arabic-form="final" 
d="M315 480q42 0 87 -3.5t85 -10.5t65 -16l-10 -84q-31 8 -68 13.5t-73.5 8t-68.5 2.5q-46 0 -85 -2.5t-71 -8.5v-379h-80v340q0 52 19.5 82.5t67.5 44t132 13.5zM552 450v-360h120v-90h-200v450h80z" />
    <glyph glyph-name="uniFBA8" unicode="&#x6c1;" horiz-adv-x="320" arabic-form="initial" 
d="M184 11l36 -11l-16 -72q19 -3 26 -14.5t7 -38.5q0 -31 -11.5 -43t-42.5 -12q-28 0 -39 12t-11 43q0 10 2 19.5t6.5 22t12.5 30.5zM-20 0v90h160v380h80v-470h-240z" />
    <glyph glyph-name="uniFBA9" unicode="&#x6c1;" horiz-adv-x="653" arabic-form="medial" 
d="M555 16v-251q0 -51 -15 -82t-53 -44.5t-106 -13.5q-52 0 -108.5 10t-100.5 30q-19 46 -31.5 106t-12.5 121v108h80v-108q0 -40 8 -82t21 -81q70 -14 127 -14q32 0 60.5 2.5t50.5 8.5v290h80zM475 0v90h200v-90h-200zM-20 0v90h228v-90h-228z" />
    <glyph glyph-name="uniFBAB" unicode="&#x6be;" horiz-adv-x="730" arabic-form="final" 
d="M640 89h110v-90h-110v90zM20 0v90h573l-50 194q-18 69 -55.5 107.5t-97.5 54t-149 15.5l5 87q107 0 181 -19.5t120.5 -70t69.5 -143.5l63 -246v-69h-660zM94 70q0 79 5.5 126t22.5 70t51.5 30.5t91.5 7.5q61 0 97.5 -7.5t54.5 -30.5t23.5 -70t5.5 -126h-352zM376 239
h-161q-28 0 -39.5 -8.5t-11.5 -30.5v-130h212v169z" />
    <glyph glyph-name="uniFBAC" unicode="&#x6be;" horiz-adv-x="730" arabic-form="initial" 
d="M-20 0v90h613l-50 194q-18 69 -55.5 107.5t-97.5 54t-149 15.5l5 87q107 0 181 -19.5t120.5 -70t69.5 -143.5l63 -246v-69h-700zM94 70q0 79 5.5 126t22.5 70t51.5 30.5t91.5 7.5q61 0 97.5 -7.5t54.5 -30.5t23.5 -70t5.5 -126h-352zM376 239h-161q-28 0 -39.5 -8.5
t-11.5 -30.5v-130h212v169z" />
    <glyph glyph-name="uniFBAD" unicode="&#x6be;" horiz-adv-x="730" arabic-form="medial" 
d="M640 89h110v-90h-110v90zM-20 0v90h613l-50 194q-18 69 -55.5 107.5t-97.5 54t-149 15.5l5 87q107 0 181 -19.5t120.5 -70t69.5 -143.5l63 -246v-69h-700zM94 70q0 79 5.5 126t22.5 70t51.5 30.5t91.5 7.5q61 0 97.5 -7.5t54.5 -30.5t23.5 -70t5.5 -126h-352zM376 239
h-161q-28 0 -39.5 -8.5t-11.5 -30.5v-130h212v169z" />
    <glyph glyph-name="uniFBAF" unicode="&#x6d2;" horiz-adv-x="690" arabic-form="final" 
d="M50 0v90h660v-90h-660zM368 -275q-99 0 -161.5 8.5t-96.5 30.5t-47 61t-13 99v76h80v-132q0 -21 19 -32.5t66.5 -16t130.5 -4.5q45 0 80 1t66 3.5t64 7.5t76 12l13 -84q-34 -9 -80.5 -15.5t-97.5 -10.5t-99 -4z" />
    <glyph glyph-name="uniFBB1" unicode="&#x6d3;" horiz-adv-x="690" arabic-form="final" 
d="M50 0v90h660v-90h-660zM368 -275q-99 0 -161.5 8.5t-96.5 30.5t-47 61t-13 99v76h80v-132q0 -21 19 -32.5t66.5 -16t130.5 -4.5q45 0 80 1t66 3.5t64 7.5t76 12l13 -84q-34 -9 -80.5 -15.5t-97.5 -10.5t-99 -4zM333 307l86 23v-46l-228 -61v46l44 12q-6 13 -9 30.5
t-3 43.5q0 56 21.5 86t60.5 42t90 12v-56q-28 0 -57 -6t-50 -18l-1 -88q0 -18 10.5 -22.5t35.5 2.5z" />
    <glyph glyph-name="uniFBFD" unicode="&#x6cc;" horiz-adv-x="861" arabic-form="final" 
d="M398 -275q-99 0 -163 5.5t-100 24.5t-50.5 57t-14.5 102q0 39 3.5 80.5t10.5 80.5t16 68l78 -14q-12 -52 -20 -101t-8 -92q0 -38 2.5 -65.5t9.5 -55.5h283q92 0 143 4.5t72 16t21 32.5v132h80v-81q0 -57 -15 -94.5t-54 -59.5t-110 -31t-184 -9zM631 0q-50 0 -105.5 8.5
t-93.5 21.5l13 84q46 -12 89 -18t80 -6h267v-90h-250z" />
    <glyph glyph-name="uniFBFE" unicode="&#x6cc;" horiz-adv-x="320" arabic-form="initial" 
d="M-20 0v90h160v380h80v-470h-240zM44 -170q-10 0 -23 9t-22.5 22.5t-9.5 23.5q0 11 9.5 23.5t22.5 22t23 9.5q11 0 23.5 -9.5t22 -22t9.5 -23.5q0 -10 -9.5 -23t-22.5 -22.5t-23 -9.5zM188 -170q-10 0 -23 9t-22.5 22.5t-9.5 23.5q0 11 9.5 23.5t22.5 22t23 9.5
q11 0 23.5 -9.5t22 -22t9.5 -23.5q0 -10 -9.5 -23t-22.5 -22.5t-23 -9.5z" />
    <glyph glyph-name="uniFBFF" unicode="&#x6cc;" horiz-adv-x="320" arabic-form="medial" 
d="M220 90h120v-90h-360v90h160v380h80v-380zM103 -190q-10 0 -23 9t-22.5 22.5t-9.5 23.5q0 11 9.5 23.5t22.5 22t23 9.5q11 0 23.5 -9.5t22 -22t9.5 -23.5q0 -10 -9.5 -23t-22.5 -22.5t-23 -9.5zM247 -190q-10 0 -23 9t-22.5 22.5t-9.5 23.5q0 11 9.5 23.5t22.5 22t23 9.5
q11 0 23.5 -9.5t22 -22t9.5 -23.5q0 -10 -9.5 -23t-22.5 -22.5t-23 -9.5z" />
    <glyph glyph-name="uniFC64" unicode="&#xfc64;" horiz-adv-x="641" arabic-form="final" 
d="M461 0v470h80v-380h120v-90h-200zM211 470h250v-90h-250v90zM62 -259l-34 70q39 19 61.5 43t32 59t9.5 87v470h80v-470q0 -66 -15 -114.5t-48 -83.5t-86 -61zM529 662l86 23v-46l-228 -61v46l44 12q-6 13 -9 30.5t-3 43.5q0 56 21.5 86t60.5 42t90 12v-56q-28 0 -57 -6
t-50 -18l-1 -88q0 -18 10.5 -22.5t35.5 2.5z" />
    <glyph glyph-name="uniFC65" unicode="&#xfc65;" horiz-adv-x="641" arabic-form="final" 
d="M461 0v470h80v-380h120v-90h-200zM211 470h250v-90h-250v90zM62 -259l-34 70q39 19 61.5 43t32 59t9.5 87v470h80v-470q0 -66 -15 -114.5t-48 -83.5t-86 -61zM529 662l86 23v-46l-228 -61v46l44 12q-6 13 -9 30.5t-3 43.5q0 56 21.5 86t60.5 42t90 12v-56q-28 0 -57 -6
t-50 -18l-1 -88q0 -18 10.5 -22.5t35.5 2.5zM171 590q-10 0 -23 9t-22.5 22.5t-9.5 23.5q0 11 9.5 23.5t22.5 22t23 9.5q11 0 23.5 -9.5t22 -22t9.5 -23.5q0 -10 -9.5 -23t-22.5 -22.5t-23 -9.5z" />
    <glyph glyph-name="uniFC67" unicode="&#xfc67;" horiz-adv-x="991" arabic-form="final" 
d="M811 0v470h80v-380h120v-90h-200zM561 470h250v-90h-250v90zM162 -150h183q77 0 106.5 10.5t29.5 42.5v567h80v-506q0 -62 -10 -102t-38 -62t-79 -31t-134 -9q-73 0 -118.5 10t-70 34.5t-33 68t-8.5 111.5q0 42 3.5 87.5t10.5 87.5t16 74l74 -13q-12 -59 -18 -114.5
t-6 -104.5q0 -47 2.5 -82.5t9.5 -68.5zM320 610q-10 0 -23 9t-22.5 22.5t-9.5 23.5q0 11 9.5 23.5t22.5 22t23 9.5q11 0 23.5 -9.5t22 -22t9.5 -23.5q0 -10 -9.5 -23t-22.5 -22.5t-23 -9.5zM881 662l86 23v-46l-228 -61v46l44 12q-6 13 -9 30.5t-3 43.5q0 56 21.5 86
t60.5 42t90 12v-56q-28 0 -57 -6t-50 -18l-1 -88q0 -18 10.5 -22.5t35.5 2.5z" />
    <glyph glyph-name="uniFC68" unicode="&#xfc68;" horiz-adv-x="1131" arabic-form="final" 
d="M951 0v470h80v-380h120v-90h-200zM70 -86q0 39 3.5 80.5t10.5 80.5t16 68l78 -14q-12 -52 -20 -101t-8 -92q0 -38 2.5 -65.5t9.5 -55.5h283q92 0 143 4.5t72 16t21 32.5v211l-140 17q-66 8 -101.5 28t-48.5 59t-13 102q0 51 8.5 86t29 57t55 32t86.5 10h394v-90h-488
v-188l162 -17q55 -5 84 -25.5t40.5 -59t11.5 -100.5v-71q0 -57 -15 -94.5t-54 -59.5t-110 -31t-184 -9q-99 0 -163 5.5t-100 24.5t-50.5 57t-14.5 102zM1018 662l86 23v-46l-228 -61v46l44 12q-6 13 -9 30.5t-3 43.5q0 56 21.5 86t60.5 42t90 12v-56q-28 0 -57 -6t-50 -18
l-1 -88q0 -18 10.5 -22.5t35.5 2.5z" />
    <glyph glyph-name="uniFC69" unicode="&#xfc69;" horiz-adv-x="1131" arabic-form="final" 
d="M951 0v470h80v-380h120v-90h-200zM70 -86q0 39 3.5 80.5t10.5 80.5t16 68l78 -14q-12 -52 -20 -101t-8 -92q0 -38 2.5 -65.5t9.5 -55.5h283q92 0 143 4.5t72 16t21 32.5v211l-140 17q-66 8 -101.5 28t-48.5 59t-13 102q0 51 8.5 86t29 57t55 32t86.5 10h394v-90h-488
v-188l162 -17q55 -5 84 -25.5t40.5 -59t11.5 -100.5v-71q0 -57 -15 -94.5t-54 -59.5t-110 -31t-184 -9q-99 0 -163 5.5t-100 24.5t-50.5 57t-14.5 102zM1018 662l86 23v-46l-228 -61v46l44 12q-6 13 -9 30.5t-3 43.5q0 56 21.5 86t60.5 42t90 12v-56q-28 0 -57 -6t-50 -18
l-1 -88q0 -18 10.5 -22.5t35.5 2.5zM359 -440q-10 0 -23 9t-22.5 22.5t-9.5 23.5q0 11 9.5 23.5t22.5 22t23 9.5q11 0 23.5 -9.5t22 -22t9.5 -23.5q0 -10 -9.5 -23t-22.5 -22.5t-23 -9.5zM503 -440q-10 0 -23 9t-22.5 22.5t-9.5 23.5q0 11 9.5 23.5t22.5 22t23 9.5
q11 0 23.5 -9.5t22 -22t9.5 -23.5q0 -10 -9.5 -23t-22.5 -22.5t-23 -9.5z" />
    <glyph glyph-name="uniFC6A" unicode="&#xfc6a;" horiz-adv-x="641" arabic-form="final" 
d="M461 0v470h80v-380h120v-90h-200zM211 470h250v-90h-250v90zM62 -259l-34 70q39 19 61.5 43t32 59t9.5 87v470h80v-470q0 -66 -15 -114.5t-48 -83.5t-86 -61zM501 -190q-10 0 -23 9t-22.5 22.5t-9.5 23.5q0 11 9.5 23.5t22.5 22t23 9.5q11 0 23.5 -9.5t22 -22t9.5 -23.5
q0 -10 -9.5 -23t-22.5 -22.5t-23 -9.5z" />
    <glyph glyph-name="uniFC6B" unicode="&#xfc6b;" horiz-adv-x="641" arabic-form="final" 
d="M461 0v470h80v-380h120v-90h-200zM211 470h250v-90h-250v90zM62 -259l-34 70q39 19 61.5 43t32 59t9.5 87v470h80v-470q0 -66 -15 -114.5t-48 -83.5t-86 -61zM501 -190q-10 0 -23 9t-22.5 22.5t-9.5 23.5q0 11 9.5 23.5t22.5 22t23 9.5q11 0 23.5 -9.5t22 -22t9.5 -23.5
q0 -10 -9.5 -23t-22.5 -22.5t-23 -9.5zM171 590q-10 0 -23 9t-22.5 22.5t-9.5 23.5q0 11 9.5 23.5t22.5 22t23 9.5q11 0 23.5 -9.5t22 -22t9.5 -23.5q0 -10 -9.5 -23t-22.5 -22.5t-23 -9.5z" />
    <glyph glyph-name="uniFC6D" unicode="&#xfc6d;" horiz-adv-x="991" arabic-form="final" 
d="M811 0v470h80v-380h120v-90h-200zM561 470h250v-90h-250v90zM162 -150h183q77 0 106.5 10.5t29.5 42.5v567h80v-506q0 -62 -10 -102t-38 -62t-79 -31t-134 -9q-73 0 -118.5 10t-70 34.5t-33 68t-8.5 111.5q0 42 3.5 87.5t10.5 87.5t16 74l74 -13q-12 -59 -18 -114.5
t-6 -104.5q0 -47 2.5 -82.5t9.5 -68.5zM320 610q-10 0 -23 9t-22.5 22.5t-9.5 23.5q0 11 9.5 23.5t22.5 22t23 9.5q11 0 23.5 -9.5t22 -22t9.5 -23.5q0 -10 -9.5 -23t-22.5 -22.5t-23 -9.5zM853 -190q-10 0 -23 9t-22.5 22.5t-9.5 23.5q0 11 9.5 23.5t22.5 22t23 9.5
q11 0 23.5 -9.5t22 -22t9.5 -23.5q0 -10 -9.5 -23t-22.5 -22.5t-23 -9.5z" />
    <glyph glyph-name="uniFC6E" unicode="&#xfc6e;" horiz-adv-x="1131" arabic-form="final" 
d="M951 0v470h80v-380h120v-90h-200zM70 -86q0 39 3.5 80.5t10.5 80.5t16 68l78 -14q-12 -52 -20 -101t-8 -92q0 -38 2.5 -65.5t9.5 -55.5h283q92 0 143 4.5t72 16t21 32.5v211l-140 17q-66 8 -101.5 28t-48.5 59t-13 102q0 51 8.5 86t29 57t55 32t86.5 10h394v-90h-488
v-188l162 -17q55 -5 84 -25.5t40.5 -59t11.5 -100.5v-71q0 -57 -15 -94.5t-54 -59.5t-110 -31t-184 -9q-99 0 -163 5.5t-100 24.5t-50.5 57t-14.5 102zM991 -170q-10 0 -23 9t-22.5 22.5t-9.5 23.5q0 11 9.5 23.5t22.5 22t23 9.5q11 0 23.5 -9.5t22 -22t9.5 -23.5
q0 -10 -9.5 -23t-22.5 -22.5t-23 -9.5z" />
    <glyph glyph-name="uniFC6F" unicode="&#xfc6f;" horiz-adv-x="1131" arabic-form="final" 
d="M951 0v470h80v-380h120v-90h-200zM70 -86q0 39 3.5 80.5t10.5 80.5t16 68l78 -14q-12 -52 -20 -101t-8 -92q0 -38 2.5 -65.5t9.5 -55.5h283q92 0 143 4.5t72 16t21 32.5v211l-140 17q-66 8 -101.5 28t-48.5 59t-13 102q0 51 8.5 86t29 57t55 32t86.5 10h394v-90h-488
v-188l162 -17q55 -5 84 -25.5t40.5 -59t11.5 -100.5v-71q0 -57 -15 -94.5t-54 -59.5t-110 -31t-184 -9q-99 0 -163 5.5t-100 24.5t-50.5 57t-14.5 102zM991 -170q-10 0 -23 9t-22.5 22.5t-9.5 23.5q0 11 9.5 23.5t22.5 22t23 9.5q11 0 23.5 -9.5t22 -22t9.5 -23.5
q0 -10 -9.5 -23t-22.5 -22.5t-23 -9.5zM359 -440q-10 0 -23 9t-22.5 22.5t-9.5 23.5q0 11 9.5 23.5t22.5 22t23 9.5q11 0 23.5 -9.5t22 -22t9.5 -23.5q0 -10 -9.5 -23t-22.5 -22.5t-23 -9.5zM503 -440q-10 0 -23 9t-22.5 22.5t-9.5 23.5q0 11 9.5 23.5t22.5 22t23 9.5
q11 0 23.5 -9.5t22 -22t9.5 -23.5q0 -10 -9.5 -23t-22.5 -22.5t-23 -9.5z" />
    <glyph glyph-name="uniFC70" unicode="&#xfc70;" horiz-adv-x="641" arabic-form="final" 
d="M461 0v470h80v-380h120v-90h-200zM211 470h250v-90h-250v90zM62 -259l-34 70q39 19 61.5 43t32 59t9.5 87v470h80v-470q0 -66 -15 -114.5t-48 -83.5t-86 -61zM429 590q-10 0 -23 9t-22.5 22.5t-9.5 23.5q0 11 9.5 23.5t22.5 22t23 9.5q11 0 23.5 -9.5t22 -22t9.5 -23.5
q0 -10 -9.5 -23t-22.5 -22.5t-23 -9.5zM573 590q-10 0 -23 9t-22.5 22.5t-9.5 23.5q0 11 9.5 23.5t22.5 22t23 9.5q11 0 23.5 -9.5t22 -22t9.5 -23.5q0 -10 -9.5 -23t-22.5 -22.5t-23 -9.5z" />
    <glyph glyph-name="uniFC71" unicode="&#xfc71;" horiz-adv-x="641" arabic-form="final" 
d="M461 0v470h80v-380h120v-90h-200zM211 470h250v-90h-250v90zM62 -259l-34 70q39 19 61.5 43t32 59t9.5 87v470h80v-470q0 -66 -15 -114.5t-48 -83.5t-86 -61zM429 590q-10 0 -23 9t-22.5 22.5t-9.5 23.5q0 11 9.5 23.5t22.5 22t23 9.5q11 0 23.5 -9.5t22 -22t9.5 -23.5
q0 -10 -9.5 -23t-22.5 -22.5t-23 -9.5zM573 590q-10 0 -23 9t-22.5 22.5t-9.5 23.5q0 11 9.5 23.5t22.5 22t23 9.5q11 0 23.5 -9.5t22 -22t9.5 -23.5q0 -10 -9.5 -23t-22.5 -22.5t-23 -9.5zM171 590q-10 0 -23 9t-22.5 22.5t-9.5 23.5q0 11 9.5 23.5t22.5 22t23 9.5
q11 0 23.5 -9.5t22 -22t9.5 -23.5q0 -10 -9.5 -23t-22.5 -22.5t-23 -9.5z" />
    <glyph glyph-name="uniFC73" unicode="&#xfc73;" horiz-adv-x="991" arabic-form="final" 
d="M811 0v470h80v-380h120v-90h-200zM561 470h250v-90h-250v90zM162 -150h183q77 0 106.5 10.5t29.5 42.5v567h80v-506q0 -62 -10 -102t-38 -62t-79 -31t-134 -9q-73 0 -118.5 10t-70 34.5t-33 68t-8.5 111.5q0 42 3.5 87.5t10.5 87.5t16 74l74 -13q-12 -59 -18 -114.5
t-6 -104.5q0 -47 2.5 -82.5t9.5 -68.5zM320 610q-10 0 -23 9t-22.5 22.5t-9.5 23.5q0 11 9.5 23.5t22.5 22t23 9.5q11 0 23.5 -9.5t22 -22t9.5 -23.5q0 -10 -9.5 -23t-22.5 -22.5t-23 -9.5zM781 590q-10 0 -23 9t-22.5 22.5t-9.5 23.5q0 11 9.5 23.5t22.5 22t23 9.5
q11 0 23.5 -9.5t22 -22t9.5 -23.5q0 -10 -9.5 -23t-22.5 -22.5t-23 -9.5zM925 590q-10 0 -23 9t-22.5 22.5t-9.5 23.5q0 11 9.5 23.5t22.5 22t23 9.5q11 0 23.5 -9.5t22 -22t9.5 -23.5q0 -10 -9.5 -23t-22.5 -22.5t-23 -9.5z" />
    <glyph glyph-name="uniFC74" unicode="&#xfc74;" horiz-adv-x="1131" arabic-form="final" 
d="M951 0v470h80v-380h120v-90h-200zM70 -86q0 39 3.5 80.5t10.5 80.5t16 68l78 -14q-12 -52 -20 -101t-8 -92q0 -38 2.5 -65.5t9.5 -55.5h283q92 0 143 4.5t72 16t21 32.5v211l-140 17q-66 8 -101.5 28t-48.5 59t-13 102q0 51 8.5 86t29 57t55 32t86.5 10h394v-90h-488
v-188l162 -17q55 -5 84 -25.5t40.5 -59t11.5 -100.5v-71q0 -57 -15 -94.5t-54 -59.5t-110 -31t-184 -9q-99 0 -163 5.5t-100 24.5t-50.5 57t-14.5 102zM918 590q-10 0 -23 9t-22.5 22.5t-9.5 23.5q0 11 9.5 23.5t22.5 22t23 9.5q11 0 23.5 -9.5t22 -22t9.5 -23.5
q0 -10 -9.5 -23t-22.5 -22.5t-23 -9.5zM1062 590q-10 0 -23 9t-22.5 22.5t-9.5 23.5q0 11 9.5 23.5t22.5 22t23 9.5q11 0 23.5 -9.5t22 -22t9.5 -23.5q0 -10 -9.5 -23t-22.5 -22.5t-23 -9.5z" />
    <glyph glyph-name="uniFC75" unicode="&#xfc75;" horiz-adv-x="1131" arabic-form="final" 
d="M951 0v470h80v-380h120v-90h-200zM70 -86q0 39 3.5 80.5t10.5 80.5t16 68l78 -14q-12 -52 -20 -101t-8 -92q0 -38 2.5 -65.5t9.5 -55.5h283q92 0 143 4.5t72 16t21 32.5v211l-140 17q-66 8 -101.5 28t-48.5 59t-13 102q0 51 8.5 86t29 57t55 32t86.5 10h394v-90h-488
v-188l162 -17q55 -5 84 -25.5t40.5 -59t11.5 -100.5v-71q0 -57 -15 -94.5t-54 -59.5t-110 -31t-184 -9q-99 0 -163 5.5t-100 24.5t-50.5 57t-14.5 102zM918 590q-10 0 -23 9t-22.5 22.5t-9.5 23.5q0 11 9.5 23.5t22.5 22t23 9.5q11 0 23.5 -9.5t22 -22t9.5 -23.5
q0 -10 -9.5 -23t-22.5 -22.5t-23 -9.5zM1062 590q-10 0 -23 9t-22.5 22.5t-9.5 23.5q0 11 9.5 23.5t22.5 22t23 9.5q11 0 23.5 -9.5t22 -22t9.5 -23.5q0 -10 -9.5 -23t-22.5 -22.5t-23 -9.5zM359 -440q-10 0 -23 9t-22.5 22.5t-9.5 23.5q0 11 9.5 23.5t22.5 22t23 9.5
q11 0 23.5 -9.5t22 -22t9.5 -23.5q0 -10 -9.5 -23t-22.5 -22.5t-23 -9.5zM503 -440q-10 0 -23 9t-22.5 22.5t-9.5 23.5q0 11 9.5 23.5t22.5 22t23 9.5q11 0 23.5 -9.5t22 -22t9.5 -23.5q0 -10 -9.5 -23t-22.5 -22.5t-23 -9.5z" />
    <glyph glyph-name="uniFC76" unicode="&#xfc76;" horiz-adv-x="641" arabic-form="final" 
d="M461 0v470h80v-380h120v-90h-200zM211 470h250v-90h-250v90zM62 -259l-34 70q39 19 61.5 43t32 59t9.5 87v470h80v-470q0 -66 -15 -114.5t-48 -83.5t-86 -61zM429 590q-10 0 -23 9t-22.5 22.5t-9.5 23.5q0 11 9.5 23.5t22.5 22t23 9.5q11 0 23.5 -9.5t22 -22t9.5 -23.5
q0 -10 -9.5 -23t-22.5 -22.5t-23 -9.5zM573 590q-10 0 -23 9t-22.5 22.5t-9.5 23.5q0 11 9.5 23.5t22.5 22t23 9.5q11 0 23.5 -9.5t22 -22t9.5 -23.5q0 -10 -9.5 -23t-22.5 -22.5t-23 -9.5zM501 740q-10 0 -23 9t-22.5 22.5t-9.5 23.5q0 11 9.5 23.5t22.5 22t23 9.5
q11 0 23.5 -9.5t22 -22t9.5 -23.5q0 -10 -9.5 -23t-22.5 -22.5t-23 -9.5z" />
    <glyph glyph-name="uniFC77" unicode="&#xfc77;" horiz-adv-x="641" arabic-form="final" 
d="M461 0v470h80v-380h120v-90h-200zM211 470h250v-90h-250v90zM62 -259l-34 70q39 19 61.5 43t32 59t9.5 87v470h80v-470q0 -66 -15 -114.5t-48 -83.5t-86 -61zM429 590q-10 0 -23 9t-22.5 22.5t-9.5 23.5q0 11 9.5 23.5t22.5 22t23 9.5q11 0 23.5 -9.5t22 -22t9.5 -23.5
q0 -10 -9.5 -23t-22.5 -22.5t-23 -9.5zM573 590q-10 0 -23 9t-22.5 22.5t-9.5 23.5q0 11 9.5 23.5t22.5 22t23 9.5q11 0 23.5 -9.5t22 -22t9.5 -23.5q0 -10 -9.5 -23t-22.5 -22.5t-23 -9.5zM501 740q-10 0 -23 9t-22.5 22.5t-9.5 23.5q0 11 9.5 23.5t22.5 22t23 9.5
q11 0 23.5 -9.5t22 -22t9.5 -23.5q0 -10 -9.5 -23t-22.5 -22.5t-23 -9.5zM171 590q-10 0 -23 9t-22.5 22.5t-9.5 23.5q0 11 9.5 23.5t22.5 22t23 9.5q11 0 23.5 -9.5t22 -22t9.5 -23.5q0 -10 -9.5 -23t-22.5 -22.5t-23 -9.5z" />
    <glyph glyph-name="uniFC79" unicode="&#xfc79;" horiz-adv-x="991" arabic-form="final" 
d="M811 0v470h80v-380h120v-90h-200zM561 470h250v-90h-250v90zM162 -150h183q77 0 106.5 10.5t29.5 42.5v567h80v-506q0 -62 -10 -102t-38 -62t-79 -31t-134 -9q-73 0 -118.5 10t-70 34.5t-33 68t-8.5 111.5q0 42 3.5 87.5t10.5 87.5t16 74l74 -13q-12 -59 -18 -114.5
t-6 -104.5q0 -47 2.5 -82.5t9.5 -68.5zM320 610q-10 0 -23 9t-22.5 22.5t-9.5 23.5q0 11 9.5 23.5t22.5 22t23 9.5q11 0 23.5 -9.5t22 -22t9.5 -23.5q0 -10 -9.5 -23t-22.5 -22.5t-23 -9.5zM781 590q-10 0 -23 9t-22.5 22.5t-9.5 23.5q0 11 9.5 23.5t22.5 22t23 9.5
q11 0 23.5 -9.5t22 -22t9.5 -23.5q0 -10 -9.5 -23t-22.5 -22.5t-23 -9.5zM925 590q-10 0 -23 9t-22.5 22.5t-9.5 23.5q0 11 9.5 23.5t22.5 22t23 9.5q11 0 23.5 -9.5t22 -22t9.5 -23.5q0 -10 -9.5 -23t-22.5 -22.5t-23 -9.5zM853 740q-10 0 -23 9t-22.5 22.5t-9.5 23.5
q0 11 9.5 23.5t22.5 22t23 9.5q11 0 23.5 -9.5t22 -22t9.5 -23.5q0 -10 -9.5 -23t-22.5 -22.5t-23 -9.5z" />
    <glyph glyph-name="uniFC7A" unicode="&#xfc7a;" horiz-adv-x="1131" arabic-form="final" 
d="M951 0v470h80v-380h120v-90h-200zM70 -86q0 39 3.5 80.5t10.5 80.5t16 68l78 -14q-12 -52 -20 -101t-8 -92q0 -38 2.5 -65.5t9.5 -55.5h283q92 0 143 4.5t72 16t21 32.5v211l-140 17q-66 8 -101.5 28t-48.5 59t-13 102q0 51 8.5 86t29 57t55 32t86.5 10h394v-90h-488
v-188l162 -17q55 -5 84 -25.5t40.5 -59t11.5 -100.5v-71q0 -57 -15 -94.5t-54 -59.5t-110 -31t-184 -9q-99 0 -163 5.5t-100 24.5t-50.5 57t-14.5 102zM918 590q-10 0 -23 9t-22.5 22.5t-9.5 23.5q0 11 9.5 23.5t22.5 22t23 9.5q11 0 23.5 -9.5t22 -22t9.5 -23.5
q0 -10 -9.5 -23t-22.5 -22.5t-23 -9.5zM1062 590q-10 0 -23 9t-22.5 22.5t-9.5 23.5q0 11 9.5 23.5t22.5 22t23 9.5q11 0 23.5 -9.5t22 -22t9.5 -23.5q0 -10 -9.5 -23t-22.5 -22.5t-23 -9.5zM990 740q-10 0 -23 9t-22.5 22.5t-9.5 23.5q0 11 9.5 23.5t22.5 22t23 9.5
q11 0 23.5 -9.5t22 -22t9.5 -23.5q0 -10 -9.5 -23t-22.5 -22.5t-23 -9.5z" />
    <glyph glyph-name="uniFC7B" unicode="&#xfc7b;" horiz-adv-x="1131" arabic-form="final" 
d="M951 0v470h80v-380h120v-90h-200zM70 -86q0 39 3.5 80.5t10.5 80.5t16 68l78 -14q-12 -52 -20 -101t-8 -92q0 -38 2.5 -65.5t9.5 -55.5h283q92 0 143 4.5t72 16t21 32.5v211l-140 17q-66 8 -101.5 28t-48.5 59t-13 102q0 51 8.5 86t29 57t55 32t86.5 10h394v-90h-488
v-188l162 -17q55 -5 84 -25.5t40.5 -59t11.5 -100.5v-71q0 -57 -15 -94.5t-54 -59.5t-110 -31t-184 -9q-99 0 -163 5.5t-100 24.5t-50.5 57t-14.5 102zM918 590q-10 0 -23 9t-22.5 22.5t-9.5 23.5q0 11 9.5 23.5t22.5 22t23 9.5q11 0 23.5 -9.5t22 -22t9.5 -23.5
q0 -10 -9.5 -23t-22.5 -22.5t-23 -9.5zM1062 590q-10 0 -23 9t-22.5 22.5t-9.5 23.5q0 11 9.5 23.5t22.5 22t23 9.5q11 0 23.5 -9.5t22 -22t9.5 -23.5q0 -10 -9.5 -23t-22.5 -22.5t-23 -9.5zM990 740q-10 0 -23 9t-22.5 22.5t-9.5 23.5q0 11 9.5 23.5t22.5 22t23 9.5
q11 0 23.5 -9.5t22 -22t9.5 -23.5q0 -10 -9.5 -23t-22.5 -22.5t-23 -9.5zM359 -440q-10 0 -23 9t-22.5 22.5t-9.5 23.5q0 11 9.5 23.5t22.5 22t23 9.5q11 0 23.5 -9.5t22 -22t9.5 -23.5q0 -10 -9.5 -23t-22.5 -22.5t-23 -9.5zM503 -440q-10 0 -23 9t-22.5 22.5t-9.5 23.5
q0 11 9.5 23.5t22.5 22t23 9.5q11 0 23.5 -9.5t22 -22t9.5 -23.5q0 -10 -9.5 -23t-22.5 -22.5t-23 -9.5z" />
    <glyph glyph-name="uniFC8A" unicode="&#xfc8a;" horiz-adv-x="641" arabic-form="final" 
d="M461 0v470h80v-380h120v-90h-200zM211 470h250v-90h-250v90zM62 -259l-34 70q39 19 61.5 43t32 59t9.5 87v470h80v-470q0 -66 -15 -114.5t-48 -83.5t-86 -61zM501 590q-10 0 -23 9t-22.5 22.5t-9.5 23.5q0 11 9.5 23.5t22.5 22t23 9.5q11 0 23.5 -9.5t22 -22t9.5 -23.5
q0 -10 -9.5 -23t-22.5 -22.5t-23 -9.5z" />
    <glyph glyph-name="uniFC8B" unicode="&#xfc8b;" horiz-adv-x="641" arabic-form="final" 
d="M461 0v470h80v-380h120v-90h-200zM211 470h250v-90h-250v90zM62 -259l-34 70q39 19 61.5 43t32 59t9.5 87v470h80v-470q0 -66 -15 -114.5t-48 -83.5t-86 -61zM501 590q-10 0 -23 9t-22.5 22.5t-9.5 23.5q0 11 9.5 23.5t22.5 22t23 9.5q11 0 23.5 -9.5t22 -22t9.5 -23.5
q0 -10 -9.5 -23t-22.5 -22.5t-23 -9.5zM171 590q-10 0 -23 9t-22.5 22.5t-9.5 23.5q0 11 9.5 23.5t22.5 22t23 9.5q11 0 23.5 -9.5t22 -22t9.5 -23.5q0 -10 -9.5 -23t-22.5 -22.5t-23 -9.5z" />
    <glyph glyph-name="uniFC8D" unicode="&#xfc8d;" horiz-adv-x="991" arabic-form="final" 
d="M811 0v470h80v-380h120v-90h-200zM561 470h250v-90h-250v90zM162 -150h183q77 0 106.5 10.5t29.5 42.5v567h80v-506q0 -62 -10 -102t-38 -62t-79 -31t-134 -9q-73 0 -118.5 10t-70 34.5t-33 68t-8.5 111.5q0 42 3.5 87.5t10.5 87.5t16 74l74 -13q-12 -59 -18 -114.5
t-6 -104.5q0 -47 2.5 -82.5t9.5 -68.5zM320 610q-10 0 -23 9t-22.5 22.5t-9.5 23.5q0 11 9.5 23.5t22.5 22t23 9.5q11 0 23.5 -9.5t22 -22t9.5 -23.5q0 -10 -9.5 -23t-22.5 -22.5t-23 -9.5zM853 590q-10 0 -23 9t-22.5 22.5t-9.5 23.5q0 11 9.5 23.5t22.5 22t23 9.5
q11 0 23.5 -9.5t22 -22t9.5 -23.5q0 -10 -9.5 -23t-22.5 -22.5t-23 -9.5z" />
    <glyph glyph-name="uniFC8E" unicode="&#xfc8e;" horiz-adv-x="1131" arabic-form="final" 
d="M951 0v470h80v-380h120v-90h-200zM70 -86q0 39 3.5 80.5t10.5 80.5t16 68l78 -14q-12 -52 -20 -101t-8 -92q0 -38 2.5 -65.5t9.5 -55.5h283q92 0 143 4.5t72 16t21 32.5v211l-140 17q-66 8 -101.5 28t-48.5 59t-13 102q0 51 8.5 86t29 57t55 32t86.5 10h394v-90h-488
v-188l162 -17q55 -5 84 -25.5t40.5 -59t11.5 -100.5v-71q0 -57 -15 -94.5t-54 -59.5t-110 -31t-184 -9q-99 0 -163 5.5t-100 24.5t-50.5 57t-14.5 102zM990 590q-10 0 -23 9t-22.5 22.5t-9.5 23.5q0 11 9.5 23.5t22.5 22t23 9.5q11 0 23.5 -9.5t22 -22t9.5 -23.5
q0 -10 -9.5 -23t-22.5 -22.5t-23 -9.5z" />
    <glyph glyph-name="uniFC8F" unicode="&#xfc8f;" horiz-adv-x="1131" arabic-form="final" 
d="M951 0v470h80v-380h120v-90h-200zM70 -86q0 39 3.5 80.5t10.5 80.5t16 68l78 -14q-12 -52 -20 -101t-8 -92q0 -38 2.5 -65.5t9.5 -55.5h283q92 0 143 4.5t72 16t21 32.5v211l-140 17q-66 8 -101.5 28t-48.5 59t-13 102q0 51 8.5 86t29 57t55 32t86.5 10h394v-90h-488
v-188l162 -17q55 -5 84 -25.5t40.5 -59t11.5 -100.5v-71q0 -57 -15 -94.5t-54 -59.5t-110 -31t-184 -9q-99 0 -163 5.5t-100 24.5t-50.5 57t-14.5 102zM990 590q-10 0 -23 9t-22.5 22.5t-9.5 23.5q0 11 9.5 23.5t22.5 22t23 9.5q11 0 23.5 -9.5t22 -22t9.5 -23.5
q0 -10 -9.5 -23t-22.5 -22.5t-23 -9.5zM359 -440q-10 0 -23 9t-22.5 22.5t-9.5 23.5q0 11 9.5 23.5t22.5 22t23 9.5q11 0 23.5 -9.5t22 -22t9.5 -23.5q0 -10 -9.5 -23t-22.5 -22.5t-23 -9.5zM503 -440q-10 0 -23 9t-22.5 22.5t-9.5 23.5q0 11 9.5 23.5t22.5 22t23 9.5
q11 0 23.5 -9.5t22 -22t9.5 -23.5q0 -10 -9.5 -23t-22.5 -22.5t-23 -9.5z" />
    <glyph glyph-name="uniFC91" unicode="&#xfc91;" horiz-adv-x="641" arabic-form="final" 
d="M461 0v470h80v-380h120v-90h-200zM211 470h250v-90h-250v90zM62 -259l-34 70q39 19 61.5 43t32 59t9.5 87v470h80v-470q0 -66 -15 -114.5t-48 -83.5t-86 -61zM424 -190q-10 0 -23 9t-22.5 22.5t-9.5 23.5q0 11 9.5 23.5t22.5 22t23 9.5q11 0 23.5 -9.5t22 -22t9.5 -23.5
q0 -10 -9.5 -23t-22.5 -22.5t-23 -9.5zM568 -190q-10 0 -23 9t-22.5 22.5t-9.5 23.5q0 11 9.5 23.5t22.5 22t23 9.5q11 0 23.5 -9.5t22 -22t9.5 -23.5q0 -10 -9.5 -23t-22.5 -22.5t-23 -9.5z" />
    <glyph glyph-name="uniFC92" unicode="&#xfc92;" horiz-adv-x="641" arabic-form="final" 
d="M461 0v470h80v-380h120v-90h-200zM211 470h250v-90h-250v90zM62 -259l-34 70q39 19 61.5 43t32 59t9.5 87v470h80v-470q0 -66 -15 -114.5t-48 -83.5t-86 -61zM424 -190q-10 0 -23 9t-22.5 22.5t-9.5 23.5q0 11 9.5 23.5t22.5 22t23 9.5q11 0 23.5 -9.5t22 -22t9.5 -23.5
q0 -10 -9.5 -23t-22.5 -22.5t-23 -9.5zM568 -190q-10 0 -23 9t-22.5 22.5t-9.5 23.5q0 11 9.5 23.5t22.5 22t23 9.5q11 0 23.5 -9.5t22 -22t9.5 -23.5q0 -10 -9.5 -23t-22.5 -22.5t-23 -9.5zM171 590q-10 0 -23 9t-22.5 22.5t-9.5 23.5q0 11 9.5 23.5t22.5 22t23 9.5
q11 0 23.5 -9.5t22 -22t9.5 -23.5q0 -10 -9.5 -23t-22.5 -22.5t-23 -9.5z" />
    <glyph glyph-name="uniFC94" unicode="&#xfc94;" horiz-adv-x="991" arabic-form="final" 
d="M811 0v470h80v-380h120v-90h-200zM561 470h250v-90h-250v90zM162 -150h183q77 0 106.5 10.5t29.5 42.5v567h80v-506q0 -62 -10 -102t-38 -62t-79 -31t-134 -9q-73 0 -118.5 10t-70 34.5t-33 68t-8.5 111.5q0 42 3.5 87.5t10.5 87.5t16 74l74 -13q-12 -59 -18 -114.5
t-6 -104.5q0 -47 2.5 -82.5t9.5 -68.5zM320 610q-10 0 -23 9t-22.5 22.5t-9.5 23.5q0 11 9.5 23.5t22.5 22t23 9.5q11 0 23.5 -9.5t22 -22t9.5 -23.5q0 -10 -9.5 -23t-22.5 -22.5t-23 -9.5zM776 -190q-10 0 -23 9t-22.5 22.5t-9.5 23.5q0 11 9.5 23.5t22.5 22t23 9.5
q11 0 23.5 -9.5t22 -22t9.5 -23.5q0 -10 -9.5 -23t-22.5 -22.5t-23 -9.5zM920 -190q-10 0 -23 9t-22.5 22.5t-9.5 23.5q0 11 9.5 23.5t22.5 22t23 9.5q11 0 23.5 -9.5t22 -22t9.5 -23.5q0 -10 -9.5 -23t-22.5 -22.5t-23 -9.5z" />
    <glyph glyph-name="uniFCFB" unicode="&#xfcfb;" horiz-adv-x="1727" arabic-form="isolated" 
d="M951 0v470h80v-470h-80zM70 -86q0 39 3.5 80.5t10.5 80.5t16 68l78 -14q-12 -52 -20 -101t-8 -92q0 -38 2.5 -65.5t9.5 -55.5h283q92 0 143 4.5t72 16t21 32.5v211l-140 17q-66 8 -101.5 28t-48.5 59t-13 102q0 51 8.5 86t29 57t55 32t86.5 10h394v-90h-488v-188l162 -17
q55 -5 84 -25.5t40.5 -59t11.5 -100.5v-71q0 -57 -15 -94.5t-54 -59.5t-110 -31t-184 -9q-99 0 -163 5.5t-100 24.5t-50.5 57t-14.5 102zM1457 0q-64 0 -104 8t-61.5 29t-29.5 58t-8 94v191h80v-237q0 -32 18 -42.5t60 -10.5h133q7 35 9.5 74.5t2.5 91.5q0 44 -7 95t-19 104
l79 13q7 -26 13 -63.5t10 -76t4 -69.5q0 -99 -15 -155.5t-53.5 -80t-111.5 -23.5zM1131 0h-100v90h145q42 0 60 10.5t18 42.5v237h80v-191q0 -57 -7.5 -94t-29 -58t-61.5 -29t-105 -8z" />
    <glyph glyph-name="uniFCFC" unicode="&#xfcfc;" horiz-adv-x="1727" arabic-form="isolated" 
d="M951 0v470h80v-470h-80zM70 -86q0 39 3.5 80.5t10.5 80.5t16 68l78 -14q-12 -52 -20 -101t-8 -92q0 -38 2.5 -65.5t9.5 -55.5h283q92 0 143 4.5t72 16t21 32.5v211l-140 17q-66 8 -101.5 28t-48.5 59t-13 102q0 51 8.5 86t29 57t55 32t86.5 10h394v-90h-488v-188l162 -17
q55 -5 84 -25.5t40.5 -59t11.5 -100.5v-71q0 -57 -15 -94.5t-54 -59.5t-110 -31t-184 -9q-99 0 -163 5.5t-100 24.5t-50.5 57t-14.5 102zM1457 0q-64 0 -104 8t-61.5 29t-29.5 58t-8 94v191h80v-237q0 -32 18 -42.5t60 -10.5h133q7 35 9.5 74.5t2.5 91.5q0 44 -7 95t-19 104
l79 13q7 -26 13 -63.5t10 -76t4 -69.5q0 -99 -15 -155.5t-53.5 -80t-111.5 -23.5zM1131 0h-100v90h145q42 0 60 10.5t18 42.5v237h80v-191q0 -57 -7.5 -94t-29 -58t-61.5 -29t-105 -8zM359 -440q-10 0 -23 9t-22.5 22.5t-9.5 23.5q0 11 9.5 23.5t22.5 22t23 9.5
q11 0 23.5 -9.5t22 -22t9.5 -23.5q0 -10 -9.5 -23t-22.5 -22.5t-23 -9.5zM503 -440q-10 0 -23 9t-22.5 22.5t-9.5 23.5q0 11 9.5 23.5t22.5 22t23 9.5q11 0 23.5 -9.5t22 -22t9.5 -23.5q0 -10 -9.5 -23t-22.5 -22.5t-23 -9.5z" />
    <glyph glyph-name="uniFD0D" unicode="&#xfd0d;" horiz-adv-x="1237" arabic-form="isolated" 
d="M461 0v470h80v-470h-80zM211 470h250v-90h-250v90zM62 -259l-34 70q39 19 61.5 43t32 59t9.5 87v470h80v-470q0 -66 -15 -114.5t-48 -83.5t-86 -61zM967 0q-64 0 -104 8t-61.5 29t-29.5 58t-8 94v191h80v-237q0 -32 18 -42.5t60 -10.5h133q7 35 9.5 74.5t2.5 91.5
q0 44 -7 95t-19 104l79 13q7 -26 13 -63.5t10 -76t4 -69.5q0 -99 -15 -155.5t-53.5 -80t-111.5 -23.5zM641 0h-100v90h145q42 0 60 10.5t18 42.5v237h80v-191q0 -57 -7.5 -94t-29 -58t-61.5 -29t-105 -8zM732 590q-10 0 -23 9t-22.5 22.5t-9.5 23.5q0 11 9.5 23.5t22.5 22
t23 9.5q11 0 23.5 -9.5t22 -22t9.5 -23.5q0 -10 -9.5 -23t-22.5 -22.5t-23 -9.5zM876 590q-10 0 -23 9t-22.5 22.5t-9.5 23.5q0 11 9.5 23.5t22.5 22t23 9.5q11 0 23.5 -9.5t22 -22t9.5 -23.5q0 -10 -9.5 -23t-22.5 -22.5t-23 -9.5zM804 740q-10 0 -23 9t-22.5 22.5
t-9.5 23.5q0 11 9.5 23.5t22.5 22t23 9.5q11 0 23.5 -9.5t22 -22t9.5 -23.5q0 -10 -9.5 -23t-22.5 -22.5t-23 -9.5z" />
    <glyph glyph-name="uniFD0E" unicode="&#xfd0e;" horiz-adv-x="1237" arabic-form="isolated" 
d="M461 0v470h80v-470h-80zM211 470h250v-90h-250v90zM62 -259l-34 70q39 19 61.5 43t32 59t9.5 87v470h80v-470q0 -66 -15 -114.5t-48 -83.5t-86 -61zM967 0q-64 0 -104 8t-61.5 29t-29.5 58t-8 94v191h80v-237q0 -32 18 -42.5t60 -10.5h133q7 35 9.5 74.5t2.5 91.5
q0 44 -7 95t-19 104l79 13q7 -26 13 -63.5t10 -76t4 -69.5q0 -99 -15 -155.5t-53.5 -80t-111.5 -23.5zM641 0h-100v90h145q42 0 60 10.5t18 42.5v237h80v-191q0 -57 -7.5 -94t-29 -58t-61.5 -29t-105 -8z" />
    <glyph glyph-name="uniFD0F" unicode="&#xfd0f;" horiz-adv-x="1128" arabic-form="isolated" 
d="M211 470h250v-90h-250v90zM62 -259l-34 70q39 19 61.5 43t32 59t9.5 87v470h80v-470q0 -66 -15 -114.5t-48 -83.5t-86 -61zM1033 90v-90h-572v90h572zM953 0v379q-16 5 -44.5 8t-66.5 3q-153 0 -227 -82.5t-74 -253.5h-80v416h80v-184q23 62 70 105.5t115 66t153 22.5
q58 0 91.5 -11t48 -37t14.5 -72v-360h-80z" />
    <glyph glyph-name="uniFD10" unicode="&#xfd10;" horiz-adv-x="1128" arabic-form="isolated" 
d="M211 470h250v-90h-250v90zM62 -259l-34 70q39 19 61.5 43t32 59t9.5 87v470h80v-470q0 -66 -15 -114.5t-48 -83.5t-86 -61zM1033 90v-90h-572v90h572zM953 0v379q-16 5 -44.5 8t-66.5 3q-153 0 -227 -82.5t-74 -253.5h-80v416h80v-184q23 62 70 105.5t115 66t153 22.5
q58 0 91.5 -11t48 -37t14.5 -72v-360h-80zM791 590q-10 0 -23 9t-22.5 22.5t-9.5 23.5q0 11 9.5 23.5t22.5 22t23 9.5q11 0 23.5 -9.5t22 -22t9.5 -23.5q0 -10 -9.5 -23t-22.5 -22.5t-23 -9.5z" />
    <glyph glyph-name="uniFD17" unicode="&#xfd17;" horiz-adv-x="1737" arabic-form="final" 
d="M1572 90h185v-90h-300zM951 0v470h80v-470h-80zM70 -86q0 39 3.5 80.5t10.5 80.5t16 68l78 -14q-12 -52 -20 -101t-8 -92q0 -38 2.5 -65.5t9.5 -55.5h283q92 0 143 4.5t72 16t21 32.5v211l-140 17q-66 8 -101.5 28t-48.5 59t-13 102q0 51 8.5 86t29 57t55 32t86.5 10h394
v-90h-488v-188l162 -17q55 -5 84 -25.5t40.5 -59t11.5 -100.5v-71q0 -57 -15 -94.5t-54 -59.5t-110 -31t-184 -9q-99 0 -163 5.5t-100 24.5t-50.5 57t-14.5 102zM1457 0q-64 0 -104 8t-61.5 29t-29.5 58t-8 94v191h80v-237q0 -32 18 -42.5t60 -10.5h133q7 35 9.5 74.5
t2.5 91.5q0 44 -7 95t-19 104l79 13q7 -26 13 -63.5t10 -76t4 -69.5q0 -99 -15 -155.5t-53.5 -80t-111.5 -23.5zM1131 0h-100v90h145q42 0 60 10.5t18 42.5v237h80v-191q0 -57 -7.5 -94t-29 -58t-61.5 -29t-105 -8z" />
    <glyph glyph-name="uniFD18" unicode="&#xfd18;" horiz-adv-x="1737" arabic-form="final" 
d="M1572 90h185v-90h-300zM951 0v470h80v-470h-80zM70 -86q0 39 3.5 80.5t10.5 80.5t16 68l78 -14q-12 -52 -20 -101t-8 -92q0 -38 2.5 -65.5t9.5 -55.5h283q92 0 143 4.5t72 16t21 32.5v211l-140 17q-66 8 -101.5 28t-48.5 59t-13 102q0 51 8.5 86t29 57t55 32t86.5 10h394
v-90h-488v-188l162 -17q55 -5 84 -25.5t40.5 -59t11.5 -100.5v-71q0 -57 -15 -94.5t-54 -59.5t-110 -31t-184 -9q-99 0 -163 5.5t-100 24.5t-50.5 57t-14.5 102zM1457 0q-64 0 -104 8t-61.5 29t-29.5 58t-8 94v191h80v-237q0 -32 18 -42.5t60 -10.5h133q7 35 9.5 74.5
t2.5 91.5q0 44 -7 95t-19 104l79 13q7 -26 13 -63.5t10 -76t4 -69.5q0 -99 -15 -155.5t-53.5 -80t-111.5 -23.5zM1131 0h-100v90h145q42 0 60 10.5t18 42.5v237h80v-191q0 -57 -7.5 -94t-29 -58t-61.5 -29t-105 -8zM359 -440q-10 0 -23 9t-22.5 22.5t-9.5 23.5
q0 11 9.5 23.5t22.5 22t23 9.5q11 0 23.5 -9.5t22 -22t9.5 -23.5q0 -10 -9.5 -23t-22.5 -22.5t-23 -9.5zM503 -440q-10 0 -23 9t-22.5 22.5t-9.5 23.5q0 11 9.5 23.5t22.5 22t23 9.5q11 0 23.5 -9.5t22 -22t9.5 -23.5q0 -10 -9.5 -23t-22.5 -22.5t-23 -9.5z" />
    <glyph glyph-name="uniFD29" unicode="&#xfd29;" horiz-adv-x="1247" arabic-form="final" 
d="M967 0l115 90h185v-90h-300zM461 0v470h80v-470h-80zM211 470h250v-90h-250v90zM62 -259l-34 70q39 19 61.5 43t32 59t9.5 87v470h80v-470q0 -66 -15 -114.5t-48 -83.5t-86 -61zM967 0q-64 0 -104 8t-61.5 29t-29.5 58t-8 94v191h80v-237q0 -32 18 -42.5t60 -10.5h133
q7 35 9.5 74.5t2.5 91.5q0 44 -7 95t-19 104l79 13q7 -26 13 -63.5t10 -76t4 -69.5q0 -99 -15 -155.5t-53.5 -80t-111.5 -23.5zM641 0h-100v90h145q42 0 60 10.5t18 42.5v237h80v-191q0 -57 -7.5 -94t-29 -58t-61.5 -29t-105 -8zM732 590q-10 0 -23 9t-22.5 22.5t-9.5 23.5
q0 11 9.5 23.5t22.5 22t23 9.5q11 0 23.5 -9.5t22 -22t9.5 -23.5q0 -10 -9.5 -23t-22.5 -22.5t-23 -9.5zM876 590q-10 0 -23 9t-22.5 22.5t-9.5 23.5q0 11 9.5 23.5t22.5 22t23 9.5q11 0 23.5 -9.5t22 -22t9.5 -23.5q0 -10 -9.5 -23t-22.5 -22.5t-23 -9.5zM804 740
q-10 0 -23 9t-22.5 22.5t-9.5 23.5q0 11 9.5 23.5t22.5 22t23 9.5q11 0 23.5 -9.5t22 -22t9.5 -23.5q0 -10 -9.5 -23t-22.5 -22.5t-23 -9.5z" />
    <glyph glyph-name="uniFD2A" unicode="&#xfd2a;" horiz-adv-x="1247" arabic-form="final" 
d="M967 0l115 90h185v-90h-300zM461 0v470h80v-470h-80zM211 470h250v-90h-250v90zM62 -259l-34 70q39 19 61.5 43t32 59t9.5 87v470h80v-470q0 -66 -15 -114.5t-48 -83.5t-86 -61zM967 0q-64 0 -104 8t-61.5 29t-29.5 58t-8 94v191h80v-237q0 -32 18 -42.5t60 -10.5h133
q7 35 9.5 74.5t2.5 91.5q0 44 -7 95t-19 104l79 13q7 -26 13 -63.5t10 -76t4 -69.5q0 -99 -15 -155.5t-53.5 -80t-111.5 -23.5zM641 0h-100v90h145q42 0 60 10.5t18 42.5v237h80v-191q0 -57 -7.5 -94t-29 -58t-61.5 -29t-105 -8z" />
    <glyph glyph-name="uniFD2B" unicode="&#xfd2b;" horiz-adv-x="1133" arabic-form="final" 
d="M1033 90h120v-90h-120v90zM211 470h250v-90h-250v90zM62 -259l-34 70q39 19 61.5 43t32 59t9.5 87v470h80v-470q0 -66 -15 -114.5t-48 -83.5t-86 -61zM1033 90v-90h-572v90h572zM953 0v379q-16 5 -44.5 8t-66.5 3q-153 0 -227 -82.5t-74 -253.5h-80v416h80v-184
q23 62 70 105.5t115 66t153 22.5q58 0 91.5 -11t48 -37t14.5 -72v-360h-80z" />
    <glyph glyph-name="uniFD2C" unicode="&#xfd2c;" horiz-adv-x="1133" arabic-form="final" 
d="M1033 90h120v-90h-120v90zM211 470h250v-90h-250v90zM62 -259l-34 70q39 19 61.5 43t32 59t9.5 87v470h80v-470q0 -66 -15 -114.5t-48 -83.5t-86 -61zM1033 90v-90h-572v90h572zM953 0v379q-16 5 -44.5 8t-66.5 3q-153 0 -227 -82.5t-74 -253.5h-80v416h80v-184
q23 62 70 105.5t115 66t153 22.5q58 0 91.5 -11t48 -37t14.5 -72v-360h-80zM791 590q-10 0 -23 9t-22.5 22.5t-9.5 23.5q0 11 9.5 23.5t22.5 22t23 9.5q11 0 23.5 -9.5t22 -22t9.5 -23.5q0 -10 -9.5 -23t-22.5 -22.5t-23 -9.5z" />
    <glyph glyph-name="uniFE82" unicode="&#x622;" horiz-adv-x="280" arabic-form="final" 
d="M100 0v470h80v-380h120v-90h-200zM156 611q-13 0 -23 7.5t-36 32.5l-59 -27l-14 28q31 22 49 33.5t29 16t19 4.5q11 0 20.5 -7.5t37.5 -33.5l59 27l14 -28q-27 -20 -45 -31.5t-30 -16.5t-21 -5z" />
    <glyph glyph-name="uniFE84" unicode="&#x623;" horiz-adv-x="280" arabic-form="final" 
d="M100 0v470h80v-380h120v-90h-200zM168 662l86 23v-46l-228 -61v46l44 12q-6 13 -9 30.5t-3 43.5q0 56 21.5 86t60.5 42t90 12v-56q-28 0 -57 -6t-50 -18l-1 -88q0 -18 10.5 -22.5t35.5 2.5z" />
    <glyph glyph-name="uniFE86" unicode="&#x624;" horiz-adv-x="614" arabic-form="final" 
d="M474 90h160v-90h-160v90zM230 0q-43 0 -71 11t-44 37.5t-23 73.5t-7 118q0 73 9.5 119.5t32.5 73t64 37t104 10.5q64 0 111 -7t98 -24v-359l-37 -90h-237zM378 90q26 0 36 11t10 39v250h-208q-27 0 -36.5 -11t-9.5 -44v-245h208zM292 -267l-50 62q37 29 69.5 66t58 77
t40 79.5t14.5 72.5h80q0 -42 -16.5 -91t-46 -98t-67.5 -92.5t-82 -75.5zM323 662l86 23v-46l-228 -61v46l44 12q-6 13 -9 30.5t-3 43.5q0 56 21.5 86t60.5 42t90 12v-56q-28 0 -57 -6t-50 -18l-1 -88q0 -18 10.5 -22.5t35.5 2.5z" />
    <glyph glyph-name="uniFE88" unicode="&#x625;" horiz-adv-x="280" arabic-form="final" 
d="M100 0v630h80v-540h120v-90h-200zM168 -267l86 23v-46l-228 -61v46l44 12q-6 13 -9 30.5t-3 43.5q0 56 21.5 86t60.5 42t90 12v-56q-28 0 -57 -6t-50 -18l-1 -88q0 -18 10.5 -22.5t35.5 2.5z" />
    <glyph glyph-name="uniFE8A" unicode="&#x626;" horiz-adv-x="861" arabic-form="final" 
d="M398 -275q-99 0 -163 5.5t-100 24.5t-50.5 57t-14.5 102q0 39 3.5 80.5t10.5 80.5t16 68l78 -14q-12 -52 -20 -101t-8 -92q0 -38 2.5 -65.5t9.5 -55.5h283q92 0 143 4.5t72 16t21 32.5v132h80v-81q0 -57 -15 -94.5t-54 -59.5t-110 -31t-184 -9zM631 0q-50 0 -105.5 8.5
t-93.5 21.5l13 84q46 -12 89 -18t80 -6h267v-90h-250zM198 352l86 23v-46l-228 -61v46l44 12q-6 13 -9 30.5t-3 43.5q0 56 21.5 86t60.5 42t90 12v-56q-28 0 -57 -6t-50 -18l-1 -88q0 -18 10.5 -22.5t35.5 2.5z" />
    <glyph glyph-name="uniFE8B" unicode="&#x626;" horiz-adv-x="320" arabic-form="initial" 
d="M-20 0v90h160v380h80v-470h-240zM208 662l86 23v-46l-228 -61v46l44 12q-6 13 -9 30.5t-3 43.5q0 56 21.5 86t60.5 42t90 12v-56q-28 0 -57 -6t-50 -18l-1 -88q0 -18 10.5 -22.5t35.5 2.5z" />
    <glyph glyph-name="uniFE8C" unicode="&#x626;" horiz-adv-x="320" arabic-form="medial" 
d="M220 90h120v-90h-360v90h160v380h80v-380zM208 662l86 23v-46l-228 -61v46l44 12q-6 13 -9 30.5t-3 43.5q0 56 21.5 86t60.5 42t90 12v-56q-28 0 -57 -6t-50 -18l-1 -88q0 -18 10.5 -22.5t35.5 2.5z" />
    <glyph glyph-name="uniFE8E" unicode="&#x627;" horiz-adv-x="280" arabic-form="final" 
d="M100 0v630h80v-540h120v-90h-200z" />
    <glyph glyph-name="uniFE90" unicode="&#x628;" horiz-adv-x="884" arabic-form="final" 
d="M774 90h130v-90h-130v90zM210 0q-51 0 -82 20t-44.5 65.5t-13.5 120.5q0 45 7.5 94.5t20.5 83.5l76 -13q-12 -40 -18 -78t-6 -71q0 -41 3.5 -72.5t12.5 -59.5h538v380h80v-470h-574zM439 -200q-10 0 -23 9t-22.5 22.5t-9.5 23.5q0 11 9.5 23.5t22.5 22t23 9.5
q11 0 23.5 -9.5t22 -22t9.5 -23.5q0 -10 -9.5 -23t-22.5 -22.5t-23 -9.5z" />
    <glyph glyph-name="uniFE91" unicode="&#x628;" horiz-adv-x="320" arabic-form="initial" 
d="M-20 0v90h160v380h80v-470h-240zM180 -190q-10 0 -23 9t-22.5 22.5t-9.5 23.5q0 11 9.5 23.5t22.5 22t23 9.5q11 0 23.5 -9.5t22 -22t9.5 -23.5q0 -10 -9.5 -23t-22.5 -22.5t-23 -9.5z" />
    <glyph glyph-name="uniFE92" unicode="&#x628;" horiz-adv-x="320" arabic-form="medial" 
d="M220 90h120v-90h-360v90h160v380h80v-380zM180 -190q-10 0 -23 9t-22.5 22.5t-9.5 23.5q0 11 9.5 23.5t22.5 22t23 9.5q11 0 23.5 -9.5t22 -22t9.5 -23.5q0 -10 -9.5 -23t-22.5 -22.5t-23 -9.5z" />
    <glyph glyph-name="uniFE94" unicode="&#x629;" horiz-adv-x="619" arabic-form="final" 
d="M529 90h110v-90h-110v90zM532 470v-470h-244q-64 0 -104.5 9t-61.5 34t-29 71t-8 121t8 121t29 71t61.5 34t104.5 9h244zM452 380h-213q-37 0 -53 -13t-16 -43v-178q0 -30 16 -43t53 -13h213v290zM238 590q-10 0 -23 9t-22.5 22.5t-9.5 23.5q0 11 9.5 23.5t22.5 22
t23 9.5q11 0 23.5 -9.5t22 -22t9.5 -23.5q0 -10 -9.5 -23t-22.5 -22.5t-23 -9.5zM382 590q-10 0 -23 9t-22.5 22.5t-9.5 23.5q0 11 9.5 23.5t22.5 22t23 9.5q11 0 23.5 -9.5t22 -22t9.5 -23.5q0 -10 -9.5 -23t-22.5 -22.5t-23 -9.5z" />
    <glyph glyph-name="uniFE96" unicode="&#x62a;" horiz-adv-x="884" arabic-form="final" 
d="M774 90h130v-90h-130v90zM210 0q-51 0 -82 20t-44.5 65.5t-13.5 120.5q0 45 7.5 94.5t20.5 83.5l76 -13q-12 -40 -18 -78t-6 -71q0 -41 3.5 -72.5t12.5 -59.5h538v380h80v-470h-574zM367 490q-10 0 -23 9t-22.5 22.5t-9.5 23.5q0 11 9.5 23.5t22.5 22t23 9.5
q11 0 23.5 -9.5t22 -22t9.5 -23.5q0 -10 -9.5 -23t-22.5 -22.5t-23 -9.5zM511 490q-10 0 -23 9t-22.5 22.5t-9.5 23.5q0 11 9.5 23.5t22.5 22t23 9.5q11 0 23.5 -9.5t22 -22t9.5 -23.5q0 -10 -9.5 -23t-22.5 -22.5t-23 -9.5z" />
    <glyph glyph-name="uniFE97" unicode="&#x62a;" horiz-adv-x="320" arabic-form="initial" 
d="M-20 0v90h160v380h80v-470h-240zM108 590q-10 0 -23 9t-22.5 22.5t-9.5 23.5q0 11 9.5 23.5t22.5 22t23 9.5q11 0 23.5 -9.5t22 -22t9.5 -23.5q0 -10 -9.5 -23t-22.5 -22.5t-23 -9.5zM252 590q-10 0 -23 9t-22.5 22.5t-9.5 23.5q0 11 9.5 23.5t22.5 22t23 9.5
q11 0 23.5 -9.5t22 -22t9.5 -23.5q0 -10 -9.5 -23t-22.5 -22.5t-23 -9.5z" />
    <glyph glyph-name="uniFE98" unicode="&#x62a;" horiz-adv-x="320" arabic-form="medial" 
d="M220 90h120v-90h-360v90h160v380h80v-380zM108 590q-10 0 -23 9t-22.5 22.5t-9.5 23.5q0 11 9.5 23.5t22.5 22t23 9.5q11 0 23.5 -9.5t22 -22t9.5 -23.5q0 -10 -9.5 -23t-22.5 -22.5t-23 -9.5zM252 590q-10 0 -23 9t-22.5 22.5t-9.5 23.5q0 11 9.5 23.5t22.5 22t23 9.5
q11 0 23.5 -9.5t22 -22t9.5 -23.5q0 -10 -9.5 -23t-22.5 -22.5t-23 -9.5z" />
    <glyph glyph-name="uniFE9A" unicode="&#x62b;" horiz-adv-x="884" arabic-form="final" 
d="M774 90h130v-90h-130v90zM210 0q-51 0 -82 20t-44.5 65.5t-13.5 120.5q0 45 7.5 94.5t20.5 83.5l76 -13q-12 -40 -18 -78t-6 -71q0 -41 3.5 -72.5t12.5 -59.5h538v380h80v-470h-574zM367 490q-10 0 -23 9t-22.5 22.5t-9.5 23.5q0 11 9.5 23.5t22.5 22t23 9.5
q11 0 23.5 -9.5t22 -22t9.5 -23.5q0 -10 -9.5 -23t-22.5 -22.5t-23 -9.5zM511 490q-10 0 -23 9t-22.5 22.5t-9.5 23.5q0 11 9.5 23.5t22.5 22t23 9.5q11 0 23.5 -9.5t22 -22t9.5 -23.5q0 -10 -9.5 -23t-22.5 -22.5t-23 -9.5zM439 640q-10 0 -23 9t-22.5 22.5t-9.5 23.5
q0 11 9.5 23.5t22.5 22t23 9.5q11 0 23.5 -9.5t22 -22t9.5 -23.5q0 -10 -9.5 -23t-22.5 -22.5t-23 -9.5z" />
    <glyph glyph-name="uniFE9B" unicode="&#x62b;" horiz-adv-x="320" arabic-form="initial" 
d="M-20 0v90h160v380h80v-470h-240zM108 590q-10 0 -23 9t-22.5 22.5t-9.5 23.5q0 11 9.5 23.5t22.5 22t23 9.5q11 0 23.5 -9.5t22 -22t9.5 -23.5q0 -10 -9.5 -23t-22.5 -22.5t-23 -9.5zM252 590q-10 0 -23 9t-22.5 22.5t-9.5 23.5q0 11 9.5 23.5t22.5 22t23 9.5
q11 0 23.5 -9.5t22 -22t9.5 -23.5q0 -10 -9.5 -23t-22.5 -22.5t-23 -9.5zM180 740q-10 0 -23 9t-22.5 22.5t-9.5 23.5q0 11 9.5 23.5t22.5 22t23 9.5q11 0 23.5 -9.5t22 -22t9.5 -23.5q0 -10 -9.5 -23t-22.5 -22.5t-23 -9.5z" />
    <glyph glyph-name="uniFE9C" unicode="&#x62b;" horiz-adv-x="320" arabic-form="medial" 
d="M220 90h120v-90h-360v90h160v380h80v-380zM108 590q-10 0 -23 9t-22.5 22.5t-9.5 23.5q0 11 9.5 23.5t22.5 22t23 9.5q11 0 23.5 -9.5t22 -22t9.5 -23.5q0 -10 -9.5 -23t-22.5 -22.5t-23 -9.5zM252 590q-10 0 -23 9t-22.5 22.5t-9.5 23.5q0 11 9.5 23.5t22.5 22t23 9.5
q11 0 23.5 -9.5t22 -22t9.5 -23.5q0 -10 -9.5 -23t-22.5 -22.5t-23 -9.5zM180 740q-10 0 -23 9t-22.5 22.5t-9.5 23.5q0 11 9.5 23.5t22.5 22t23 9.5q11 0 23.5 -9.5t22 -22t9.5 -23.5q0 -10 -9.5 -23t-22.5 -22.5t-23 -9.5z" />
    <glyph glyph-name="uniFE9E" unicode="&#x62c;" horiz-adv-x="572" arabic-form="final" 
d="M249 -277q-64 0 -103.5 10.5t-60 36t-27.5 69t-7 109.5q0 110 43 174t130.5 92.5t219.5 32.5l21 -70q-108 -4 -181.5 -22t-110.5 -55.5t-37 -100.5v-177q28 -5 63 -7t78 -2q38 0 76 5t93 17l12 -84q-39 -13 -94.5 -20.5t-114.5 -7.5zM532 90h60v-90h-56q-30 0 -47 13.5
t-28 42.5l-69 180q-24 58 -54 91.5t-74.5 48t-113.5 14.5q-19 0 -39.5 -1t-43.5 -3l-13 88q29 3 55.5 4.5t50.5 1.5q84 0 141.5 -21.5t96.5 -67.5t66 -121zM303 -83q-10 0 -23 9t-22.5 22.5t-9.5 23.5q0 11 9.5 23.5t22.5 22t23 9.5q11 0 23.5 -9.5t22 -22t9.5 -23.5
q0 -10 -9.5 -23t-22.5 -22.5t-23 -9.5z" />
    <glyph glyph-name="uniFE9F" unicode="&#x62c;" horiz-adv-x="555" arabic-form="initial" 
d="M463 270h92v-90h-88q-30 0 -47 13.5t-28 42.5q-21 59 -51 92.5t-76 47.5t-115 14q-19 0 -39.5 -1t-43.5 -3l-13 88q29 3 55.5 4.5t50.5 1.5q84 0 141 -21.5t96 -67.5t66 -121zM396 265l74 -32q-19 -50 -48 -92.5t-69 -74t-92 -49t-118 -17.5h-163v90h186q46 0 83 16
t65.5 42t49 56.5t32.5 60.5zM265 -190q-10 0 -23 9t-22.5 22.5t-9.5 23.5q0 11 9.5 23.5t22.5 22t23 9.5q11 0 23.5 -9.5t22 -22t9.5 -23.5q0 -10 -9.5 -23t-22.5 -22.5t-23 -9.5z" />
    <glyph glyph-name="uniFEA0" unicode="&#x62c;" horiz-adv-x="572" arabic-form="medial" 
d="M532 90h60v-90h-56q-30 0 -47 13.5t-28 42.5l-69 180q-24 58 -54 91.5t-74.5 48t-113.5 14.5q-19 0 -39.5 -1t-43.5 -3l-13 88q29 3 55.5 4.5t50.5 1.5q84 0 141.5 -21.5t96.5 -67.5t66 -121zM396 265l74 -32q-18 -50 -45.5 -92.5t-65 -74t-86 -49t-110.5 -17.5h-183v90
h216q40 0 72.5 16t57 42t42 56.5t28.5 60.5zM265 -190q-10 0 -23 9t-22.5 22.5t-9.5 23.5q0 11 9.5 23.5t22.5 22t23 9.5q11 0 23.5 -9.5t22 -22t9.5 -23.5q0 -10 -9.5 -23t-22.5 -22.5t-23 -9.5z" />
    <glyph glyph-name="uniFEA2" unicode="&#x62d;" horiz-adv-x="572" arabic-form="final" 
d="M249 -277q-64 0 -103.5 10.5t-60 36t-27.5 69t-7 109.5q0 110 43 174t130.5 92.5t219.5 32.5l21 -70q-108 -4 -181.5 -22t-110.5 -55.5t-37 -100.5v-177q28 -5 63 -7t78 -2q38 0 76 5t93 17l12 -84q-39 -13 -94.5 -20.5t-114.5 -7.5zM532 90h60v-90h-56q-30 0 -47 13.5
t-28 42.5l-69 180q-24 58 -54 91.5t-74.5 48t-113.5 14.5q-19 0 -39.5 -1t-43.5 -3l-13 88q29 3 55.5 4.5t50.5 1.5q84 0 141.5 -21.5t96.5 -67.5t66 -121z" />
    <glyph glyph-name="uniFEA3" unicode="&#x62d;" horiz-adv-x="555" arabic-form="initial" 
d="M463 270h92v-90h-88q-30 0 -47 13.5t-28 42.5q-21 59 -51 92.5t-76 47.5t-115 14q-19 0 -39.5 -1t-43.5 -3l-13 88q29 3 55.5 4.5t50.5 1.5q84 0 141 -21.5t96 -67.5t66 -121zM396 265l74 -32q-19 -50 -48 -92.5t-69 -74t-92 -49t-118 -17.5h-163v90h186q46 0 83 16
t65.5 42t49 56.5t32.5 60.5z" />
    <glyph glyph-name="uniFEA4" unicode="&#x62d;" horiz-adv-x="572" arabic-form="medial" 
d="M532 90h60v-90h-56q-30 0 -47 13.5t-28 42.5l-69 180q-24 58 -54 91.5t-74.5 48t-113.5 14.5q-19 0 -39.5 -1t-43.5 -3l-13 88q29 3 55.5 4.5t50.5 1.5q84 0 141.5 -21.5t96.5 -67.5t66 -121zM396 265l74 -32q-18 -50 -45.5 -92.5t-65 -74t-86 -49t-110.5 -17.5h-183v90
h216q40 0 72.5 16t57 42t42 56.5t28.5 60.5z" />
    <glyph glyph-name="uniFEA6" unicode="&#x62e;" horiz-adv-x="572" arabic-form="final" 
d="M249 -277q-64 0 -103.5 10.5t-60 36t-27.5 69t-7 109.5q0 110 43 174t130.5 92.5t219.5 32.5l21 -70q-108 -4 -181.5 -22t-110.5 -55.5t-37 -100.5v-177q28 -5 63 -7t78 -2q38 0 76 5t93 17l12 -84q-39 -13 -94.5 -20.5t-114.5 -7.5zM532 90h60v-90h-56q-30 0 -47 13.5
t-28 42.5l-69 180q-24 58 -54 91.5t-74.5 48t-113.5 14.5q-19 0 -39.5 -1t-43.5 -3l-13 88q29 3 55.5 4.5t50.5 1.5q84 0 141.5 -21.5t96.5 -67.5t66 -121zM279 613q-10 0 -23 9t-22.5 22.5t-9.5 23.5q0 11 9.5 23.5t22.5 22t23 9.5q11 0 23.5 -9.5t22 -22t9.5 -23.5
q0 -10 -9.5 -23t-22.5 -22.5t-23 -9.5z" />
    <glyph glyph-name="uniFEA7" unicode="&#x62e;" horiz-adv-x="555" arabic-form="initial" 
d="M463 270h92v-90h-88q-30 0 -47 13.5t-28 42.5q-21 59 -51 92.5t-76 47.5t-115 14q-19 0 -39.5 -1t-43.5 -3l-13 88q29 3 55.5 4.5t50.5 1.5q84 0 141 -21.5t96 -67.5t66 -121zM396 265l74 -32q-19 -50 -48 -92.5t-69 -74t-92 -49t-118 -17.5h-163v90h186q46 0 83 16
t65.5 42t49 56.5t32.5 60.5zM239 590q-10 0 -23 9t-22.5 22.5t-9.5 23.5q0 11 9.5 23.5t22.5 22t23 9.5q11 0 23.5 -9.5t22 -22t9.5 -23.5q0 -10 -9.5 -23t-22.5 -22.5t-23 -9.5z" />
    <glyph glyph-name="uniFEA8" unicode="&#x62e;" horiz-adv-x="572" arabic-form="medial" 
d="M532 90h60v-90h-56q-30 0 -47 13.5t-28 42.5l-69 180q-24 58 -54 91.5t-74.5 48t-113.5 14.5q-19 0 -39.5 -1t-43.5 -3l-13 88q29 3 55.5 4.5t50.5 1.5q84 0 141.5 -21.5t96.5 -67.5t66 -121zM396 265l74 -32q-18 -50 -45.5 -92.5t-65 -74t-86 -49t-110.5 -17.5h-183v90
h216q40 0 72.5 16t57 42t42 56.5t28.5 60.5zM239 590q-10 0 -23 9t-22.5 22.5t-9.5 23.5q0 11 9.5 23.5t22.5 22t23 9.5q11 0 23.5 -9.5t22 -22t9.5 -23.5q0 -10 -9.5 -23t-22.5 -22.5t-23 -9.5z" />
    <glyph glyph-name="uniFEAA" unicode="&#x62f;" horiz-adv-x="493" arabic-form="final" 
d="M443 90h70v-90h-70v90zM20 0v90h347q-27 99 -49.5 160t-45.5 94t-53 45t-73 12q-17 0 -38 -2.5t-38 -7.5l-22 88q26 6 52 9t46 3q53 0 90.5 -7.5t66 -31t52.5 -69.5t49.5 -122.5t58.5 -190.5v-70h-443z" />
    <glyph glyph-name="uniFEAC" unicode="&#x630;" horiz-adv-x="493" arabic-form="final" 
d="M443 90h70v-90h-70v90zM20 0v90h347q-27 99 -49.5 160t-45.5 94t-53 45t-73 12q-17 0 -38 -2.5t-38 -7.5l-22 88q26 6 52 9t46 3q53 0 90.5 -7.5t66 -31t52.5 -69.5t49.5 -122.5t58.5 -190.5v-70h-443zM175 590q-10 0 -23 9t-22.5 22.5t-9.5 23.5q0 11 9.5 23.5t22.5 22
t23 9.5q11 0 23.5 -9.5t22 -22t9.5 -23.5q0 -10 -9.5 -23t-22.5 -22.5t-23 -9.5z" />
    <glyph glyph-name="uniFEAE" unicode="&#x631;" horiz-adv-x="310" arabic-form="final" 
d="M210 90h120v-90h-120v90zM62 -259l-34 70q39 19 61.5 43t32 59t9.5 87v470h80v-470q0 -66 -15 -114.5t-48 -83.5t-86 -61z" />
    <glyph glyph-name="uniFEB0" unicode="&#x632;" horiz-adv-x="310" arabic-form="final" 
d="M210 90h120v-90h-120v90zM62 -259l-34 70q39 19 61.5 43t32 59t9.5 87v470h80v-470q0 -66 -15 -114.5t-48 -83.5t-86 -61zM170 590q-10 0 -23 9t-22.5 22.5t-9.5 23.5q0 11 9.5 23.5t22.5 22t23 9.5q11 0 23.5 -9.5t22 -22t9.5 -23.5q0 -10 -9.5 -23t-22.5 -22.5
t-23 -9.5z" />
    <glyph glyph-name="uniFEB2" unicode="&#x633;" horiz-adv-x="1267" arabic-form="final" 
d="M1102 90h185v-90h-300zM300 -240q-77 0 -123 10t-69 34.5t-30.5 68t-7.5 111.5q0 37 3.5 77t9.5 77t15 65l79 -13q-12 -51 -19.5 -99t-7.5 -90q0 -47 2.5 -82.5t9.5 -68.5h183q77 0 106.5 10.5t29.5 42.5v477h80v-416q0 -62 -10 -102t-38 -62t-79 -31t-134 -9zM987 0
q-64 0 -104 8t-61.5 29t-29.5 58t-8 94v191h80v-237q0 -32 18 -42.5t60 -10.5h133q7 35 9.5 74.5t2.5 91.5q0 44 -7 95t-19 104l79 13q7 -26 13 -63.5t10 -76t4 -69.5q0 -99 -15 -155.5t-53.5 -80t-111.5 -23.5zM661 0h-100v90h145q42 0 60 10.5t18 42.5v237h80v-191
q0 -57 -7.5 -94t-29 -58t-61.5 -29t-105 -8z" />
    <glyph glyph-name="uniFEB3" unicode="&#x633;" horiz-adv-x="916" arabic-form="initial" 
d="M646 0q-64 0 -104 8t-61.5 29t-29.5 58t-8 94v191h80v-237q0 -32 18 -42.5t60 -10.5h133q7 35 9.5 74.5t2.5 91.5q0 44 -7 95t-19 104l79 13q7 -26 13 -63.5t10 -76t4 -69.5q0 -99 -15 -155.5t-53.5 -80t-111.5 -23.5zM320 0h-100v90h145q42 0 60 10.5t18 42.5v237h80
v-191q0 -57 -7.5 -94t-29 -58t-61.5 -29t-105 -8zM220 0h-240v90h160v290h80v-380z" />
    <glyph glyph-name="uniFEB4" unicode="&#x633;" horiz-adv-x="926" arabic-form="medial" 
d="M646 0q-64 0 -104 8t-61.5 29t-29.5 58t-8 94v191h80v-237q0 -32 18 -42.5t60 -10.5h133q7 35 9.5 74.5t2.5 91.5q0 44 -7 95t-19 104l79 13q7 -26 13 -63.5t10 -76t4 -69.5q0 -99 -15 -155.5t-53.5 -80t-111.5 -23.5zM320 0h-100v90h145q42 0 60 10.5t18 42.5v237h80
v-191q0 -57 -7.5 -94t-29 -58t-61.5 -29t-105 -8zM220 0h-240v90h160v290h80v-380zM761 90h185v-90h-300z" />
    <glyph glyph-name="uniFEB6" unicode="&#x634;" horiz-adv-x="1267" arabic-form="final" 
d="M1102 90h185v-90h-300zM300 -240q-77 0 -123 10t-69 34.5t-30.5 68t-7.5 111.5q0 37 3.5 77t9.5 77t15 65l79 -13q-12 -51 -19.5 -99t-7.5 -90q0 -47 2.5 -82.5t9.5 -68.5h183q77 0 106.5 10.5t29.5 42.5v477h80v-416q0 -62 -10 -102t-38 -62t-79 -31t-134 -9zM987 0
q-64 0 -104 8t-61.5 29t-29.5 58t-8 94v191h80v-237q0 -32 18 -42.5t60 -10.5h133q7 35 9.5 74.5t2.5 91.5q0 44 -7 95t-19 104l79 13q7 -26 13 -63.5t10 -76t4 -69.5q0 -99 -15 -155.5t-53.5 -80t-111.5 -23.5zM661 0h-100v90h145q42 0 60 10.5t18 42.5v237h80v-191
q0 -57 -7.5 -94t-29 -58t-61.5 -29t-105 -8zM762 590q-10 0 -23 9t-22.5 22.5t-9.5 23.5q0 11 9.5 23.5t22.5 22t23 9.5q11 0 23.5 -9.5t22 -22t9.5 -23.5q0 -10 -9.5 -23t-22.5 -22.5t-23 -9.5zM906 590q-10 0 -23 9t-22.5 22.5t-9.5 23.5q0 11 9.5 23.5t22.5 22t23 9.5
q11 0 23.5 -9.5t22 -22t9.5 -23.5q0 -10 -9.5 -23t-22.5 -22.5t-23 -9.5zM834 740q-10 0 -23 9t-22.5 22.5t-9.5 23.5q0 11 9.5 23.5t22.5 22t23 9.5q11 0 23.5 -9.5t22 -22t9.5 -23.5q0 -10 -9.5 -23t-22.5 -22.5t-23 -9.5z" />
    <glyph glyph-name="uniFEB7" unicode="&#x634;" horiz-adv-x="916" arabic-form="initial" 
d="M646 0q-64 0 -104 8t-61.5 29t-29.5 58t-8 94v191h80v-237q0 -32 18 -42.5t60 -10.5h133q7 35 9.5 74.5t2.5 91.5q0 44 -7 95t-19 104l79 13q7 -26 13 -63.5t10 -76t4 -69.5q0 -99 -15 -155.5t-53.5 -80t-111.5 -23.5zM320 0h-100v90h145q42 0 60 10.5t18 42.5v237h80
v-191q0 -57 -7.5 -94t-29 -58t-61.5 -29t-105 -8zM220 0h-240v90h160v290h80v-380zM421 590q-10 0 -23 9t-22.5 22.5t-9.5 23.5q0 11 9.5 23.5t22.5 22t23 9.5q11 0 23.5 -9.5t22 -22t9.5 -23.5q0 -10 -9.5 -23t-22.5 -22.5t-23 -9.5zM565 590q-10 0 -23 9t-22.5 22.5
t-9.5 23.5q0 11 9.5 23.5t22.5 22t23 9.5q11 0 23.5 -9.5t22 -22t9.5 -23.5q0 -10 -9.5 -23t-22.5 -22.5t-23 -9.5zM493 740q-10 0 -23 9t-22.5 22.5t-9.5 23.5q0 11 9.5 23.5t22.5 22t23 9.5q11 0 23.5 -9.5t22 -22t9.5 -23.5q0 -10 -9.5 -23t-22.5 -22.5t-23 -9.5z" />
    <glyph glyph-name="uniFEB8" unicode="&#x634;" horiz-adv-x="926" arabic-form="medial" 
d="M646 0q-64 0 -104 8t-61.5 29t-29.5 58t-8 94v191h80v-237q0 -32 18 -42.5t60 -10.5h133q7 35 9.5 74.5t2.5 91.5q0 44 -7 95t-19 104l79 13q7 -26 13 -63.5t10 -76t4 -69.5q0 -99 -15 -155.5t-53.5 -80t-111.5 -23.5zM320 0h-100v90h145q42 0 60 10.5t18 42.5v237h80
v-191q0 -57 -7.5 -94t-29 -58t-61.5 -29t-105 -8zM220 0h-240v90h160v290h80v-380zM761 90h185v-90h-300zM421 590q-10 0 -23 9t-22.5 22.5t-9.5 23.5q0 11 9.5 23.5t22.5 22t23 9.5q11 0 23.5 -9.5t22 -22t9.5 -23.5q0 -10 -9.5 -23t-22.5 -22.5t-23 -9.5zM565 590
q-10 0 -23 9t-22.5 22.5t-9.5 23.5q0 11 9.5 23.5t22.5 22t23 9.5q11 0 23.5 -9.5t22 -22t9.5 -23.5q0 -10 -9.5 -23t-22.5 -22.5t-23 -9.5zM493 740q-10 0 -23 9t-22.5 22.5t-9.5 23.5q0 11 9.5 23.5t22.5 22t23 9.5q11 0 23.5 -9.5t22 -22t9.5 -23.5q0 -10 -9.5 -23
t-22.5 -22.5t-23 -9.5z" />
    <glyph glyph-name="uniFEBA" unicode="&#x635;" horiz-adv-x="1155" arabic-form="final" 
d="M1053 90h122v-90h-122v90zM300 -240q-77 0 -123 10t-69 34.5t-30.5 68t-7.5 111.5q0 37 3.5 77t9.5 77t15 65l79 -13q-12 -51 -19.5 -99t-7.5 -90q0 -47 2.5 -82.5t9.5 -68.5h183q77 0 106.5 10.5t29.5 42.5v151h80v-90q0 -62 -10 -102t-38 -62t-79 -31t-134 -9zM1015 90
l38 -90h-524v90h486zM973 0v379q-16 5 -44.5 8t-66.5 3q-153 0 -227 -82.5t-74 -253.5h-80v416h80v-184q23 62 70 105.5t115 66t153 22.5q58 0 91.5 -11t48 -37t14.5 -72v-360h-80z" />
    <glyph glyph-name="uniFEBB" unicode="&#x635;" horiz-adv-x="807" arabic-form="initial" 
d="M712 90v-90h-732v90h732zM632 0v379q-35 11 -111 11q-153 0 -227 -82.5t-74 -253.5h-80v416h80v-184q23 62 70 105.5t115 66t153 22.5q58 0 91.5 -11t48 -37t14.5 -72v-360h-80z" />
    <glyph glyph-name="uniFEBC" unicode="&#x635;" horiz-adv-x="812" arabic-form="medial" 
d="M832 90v-90h-852v90h852zM632 54v325q-35 11 -111 11q-153 0 -227 -82.5t-74 -253.5h-80v416h80v-184q23 62 70 105.5t115 66t153 22.5q58 0 91.5 -11t48 -37t14.5 -72v-306h-80z" />
    <glyph glyph-name="uniFEBE" unicode="&#x636;" horiz-adv-x="1155" arabic-form="final" 
d="M1053 90h122v-90h-122v90zM300 -240q-77 0 -123 10t-69 34.5t-30.5 68t-7.5 111.5q0 37 3.5 77t9.5 77t15 65l79 -13q-12 -51 -19.5 -99t-7.5 -90q0 -47 2.5 -82.5t9.5 -68.5h183q77 0 106.5 10.5t29.5 42.5v151h80v-90q0 -62 -10 -102t-38 -62t-79 -31t-134 -9zM1015 90
l38 -90h-524v90h486zM973 0v379q-16 5 -44.5 8t-66.5 3q-153 0 -227 -82.5t-74 -253.5h-80v416h80v-184q23 62 70 105.5t115 66t153 22.5q58 0 91.5 -11t48 -37t14.5 -72v-360h-80zM823 590q-10 0 -23 9t-22.5 22.5t-9.5 23.5q0 11 9.5 23.5t22.5 22t23 9.5q11 0 23.5 -9.5
t22 -22t9.5 -23.5q0 -10 -9.5 -23t-22.5 -22.5t-23 -9.5z" />
    <glyph glyph-name="uniFEBF" unicode="&#x636;" horiz-adv-x="807" arabic-form="initial" 
d="M712 90v-90h-732v90h732zM632 0v379q-35 11 -111 11q-153 0 -227 -82.5t-74 -253.5h-80v416h80v-184q23 62 70 105.5t115 66t153 22.5q58 0 91.5 -11t48 -37t14.5 -72v-360h-80zM470 590q-10 0 -23 9t-22.5 22.5t-9.5 23.5q0 11 9.5 23.5t22.5 22t23 9.5q11 0 23.5 -9.5
t22 -22t9.5 -23.5q0 -10 -9.5 -23t-22.5 -22.5t-23 -9.5z" />
    <glyph glyph-name="uniFEC0" unicode="&#x636;" horiz-adv-x="812" arabic-form="medial" 
d="M832 90v-90h-852v90h852zM632 54v325q-35 11 -111 11q-153 0 -227 -82.5t-74 -253.5h-80v416h80v-184q23 62 70 105.5t115 66t153 22.5q58 0 91.5 -11t48 -37t14.5 -72v-306h-80zM470 590q-10 0 -23 9t-22.5 22.5t-9.5 23.5q0 11 9.5 23.5t22.5 22t23 9.5q11 0 23.5 -9.5
t22 -22t9.5 -23.5q0 -10 -9.5 -23t-22.5 -22.5t-23 -9.5z" />
    <glyph glyph-name="uniFEC2" unicode="&#x637;" horiz-adv-x="812" arabic-form="final" 
d="M712 90h120v-90h-120v90zM712 90v-90h-692v90h692zM632 0v379q-35 11 -111 11q-153 0 -227 -82.5t-74 -253.5h-80v576h80v-344q23 62 70 105.5t115 66t153 22.5q58 0 91.5 -11t48 -37t14.5 -72v-360h-80z" />
    <glyph glyph-name="uniFEC3" unicode="&#x637;" horiz-adv-x="807" arabic-form="initial" 
d="M632 90v-90h-652v90h652zM632 0v379q-35 11 -111 11q-153 0 -227 -82.5t-74 -253.5h-80v576h80v-344q23 62 70 105.5t115 66t153 22.5q58 0 91.5 -11t48 -37t14.5 -72v-360h-80z" />
    <glyph glyph-name="uniFEC4" unicode="&#x637;" horiz-adv-x="812" arabic-form="medial" 
d="M832 90v-90h-852v90h852zM632 0v379q-35 11 -111 11q-153 0 -227 -82.5t-74 -253.5h-80v576h80v-344q23 62 70 105.5t115 66t153 22.5q58 0 91.5 -11t48 -37t14.5 -72v-360h-80z" />
    <glyph glyph-name="uniFEC6" unicode="&#x638;" horiz-adv-x="812" arabic-form="final" 
d="M712 90h120v-90h-120v90zM712 90v-90h-692v90h692zM632 0v379q-35 11 -111 11q-153 0 -227 -82.5t-74 -253.5h-80v576h80v-344q23 62 70 105.5t115 66t153 22.5q58 0 91.5 -11t48 -37t14.5 -72v-360h-80zM500 590q-10 0 -23 9t-22.5 22.5t-9.5 23.5q0 11 9.5 23.5
t22.5 22t23 9.5q11 0 23.5 -9.5t22 -22t9.5 -23.5q0 -10 -9.5 -23t-22.5 -22.5t-23 -9.5z" />
    <glyph glyph-name="uniFEC7" unicode="&#x638;" horiz-adv-x="807" arabic-form="initial" 
d="M632 90v-90h-652v90h652zM632 0v379q-35 11 -111 11q-153 0 -227 -82.5t-74 -253.5h-80v576h80v-344q23 62 70 105.5t115 66t153 22.5q58 0 91.5 -11t48 -37t14.5 -72v-360h-80zM500 590q-10 0 -23 9t-22.5 22.5t-9.5 23.5q0 11 9.5 23.5t22.5 22t23 9.5q11 0 23.5 -9.5
t22 -22t9.5 -23.5q0 -10 -9.5 -23t-22.5 -22.5t-23 -9.5z" />
    <glyph glyph-name="uniFEC8" unicode="&#x638;" horiz-adv-x="812" arabic-form="medial" 
d="M832 90v-90h-852v90h852zM632 0v379q-35 11 -111 11q-153 0 -227 -82.5t-74 -253.5h-80v576h80v-344q23 62 70 105.5t115 66t153 22.5q58 0 91.5 -11t48 -37t14.5 -72v-360h-80zM500 590q-10 0 -23 9t-22.5 22.5t-9.5 23.5q0 11 9.5 23.5t22.5 22t23 9.5q11 0 23.5 -9.5
t22 -22t9.5 -23.5q0 -10 -9.5 -23t-22.5 -22.5t-23 -9.5z" />
    <glyph glyph-name="uniFECA" unicode="&#x639;" horiz-adv-x="626" arabic-form="final" 
d="M51 -132q0 44 8.5 75t28.5 54t54.5 43t87.5 43q-75 51 -118.5 128.5t-43.5 168.5q0 39 21.5 61t75 30.5t148.5 8.5q96 0 149 -8.5t74.5 -30.5t21.5 -61q0 -68 -20 -121t-53.5 -92.5t-74.5 -69.5q23 -3 46.5 -5t49.5 -2h140v-90h-140q-52 0 -101.5 9.5t-93.5 26.5
q-46 -18 -86 -36.5t-64.5 -36t-24.5 -34.5v-147q27 -4 62 -6.5t79 -2.5q35 0 73 5t96 17l13 -88q-33 -12 -85.5 -18t-124.5 -6q-58 0 -96.5 8.5t-61 29.5t-31.5 57t-9 90zM148 390q0 -78 23 -132t61 -88.5t81 -54.5q81 37 123 107t42 168h-330z" />
    <glyph glyph-name="uniFECB" unicode="&#x639;" horiz-adv-x="582" arabic-form="initial" 
d="M-20 0v90h257l77 -90h-334zM203 380v-216q-1 -40 22.5 -57t70.5 -17h236v-90h-218q-59 0 -97.5 12t-60 39.5t-30 75t-8.5 118.5q0 70 8 116t29.5 72t60 37t99.5 11q31 0 64 -3.5t63 -10.5t52 -16l-13 -84q-44 12 -87 18t-82 6q-33 0 -61 -2.5t-48 -8.5z" />
    <glyph glyph-name="uniFECC" unicode="&#x639;" horiz-adv-x="626" arabic-form="medial" 
d="M506 90h140v-90h-140v90zM148 390q0 -95 42 -162.5t122 -102.5t194 -35v-90q-92 0 -171.5 29t-139.5 81t-93.5 121t-33.5 149q0 39 21.5 61t75 30.5t148.5 8.5q96 0 149 -8.5t74.5 -30.5t21.5 -61q0 -80 -33.5 -149t-93.5 -121t-139.5 -81t-171.5 -29v90q114 0 194 35
t122 102.5t42 162.5h-330zM-20 90h140v-90h-140v90z" />
    <glyph glyph-name="uniFECE" unicode="&#x63a;" horiz-adv-x="626" arabic-form="final" 
d="M51 -132q0 44 8.5 75t28.5 54t54.5 43t87.5 43q-75 51 -118.5 128.5t-43.5 168.5q0 39 21.5 61t75 30.5t148.5 8.5q96 0 149 -8.5t74.5 -30.5t21.5 -61q0 -68 -20 -121t-53.5 -92.5t-74.5 -69.5q23 -3 46.5 -5t49.5 -2h140v-90h-140q-52 0 -101.5 9.5t-93.5 26.5
q-46 -18 -86 -36.5t-64.5 -36t-24.5 -34.5v-147q27 -4 62 -6.5t79 -2.5q35 0 73 5t96 17l13 -88q-33 -12 -85.5 -18t-124.5 -6q-58 0 -96.5 8.5t-61 29.5t-31.5 57t-9 90zM148 390q0 -78 23 -132t61 -88.5t81 -54.5q81 37 123 107t42 168h-330zM313 590q-10 0 -23 9
t-22.5 22.5t-9.5 23.5q0 11 9.5 23.5t22.5 22t23 9.5q11 0 23.5 -9.5t22 -22t9.5 -23.5q0 -10 -9.5 -23t-22.5 -22.5t-23 -9.5z" />
    <glyph glyph-name="uniFECF" unicode="&#x63a;" horiz-adv-x="582" arabic-form="initial" 
d="M-20 0v90h257l77 -90h-334zM203 380v-216q-1 -40 22.5 -57t70.5 -17h236v-90h-218q-59 0 -97.5 12t-60 39.5t-30 75t-8.5 118.5q0 70 8 116t29.5 72t60 37t99.5 11q31 0 64 -3.5t63 -10.5t52 -16l-13 -84q-44 12 -87 18t-82 6q-33 0 -61 -2.5t-48 -8.5zM325 590
q-10 0 -23 9t-22.5 22.5t-9.5 23.5q0 11 9.5 23.5t22.5 22t23 9.5q11 0 23.5 -9.5t22 -22t9.5 -23.5q0 -10 -9.5 -23t-22.5 -22.5t-23 -9.5z" />
    <glyph glyph-name="uniFED0" unicode="&#x63a;" horiz-adv-x="626" arabic-form="medial" 
d="M506 90h140v-90h-140v90zM148 390q0 -95 42 -162.5t122 -102.5t194 -35v-90q-92 0 -171.5 29t-139.5 81t-93.5 121t-33.5 149q0 39 21.5 61t75 30.5t148.5 8.5q96 0 149 -8.5t74.5 -30.5t21.5 -61q0 -80 -33.5 -149t-93.5 -121t-139.5 -81t-171.5 -29v90q114 0 194 35
t122 102.5t42 162.5h-330zM-20 90h140v-90h-140v90zM313 590q-10 0 -23 9t-22.5 22.5t-9.5 23.5q0 11 9.5 23.5t22.5 22t23 9.5q11 0 23.5 -9.5t22 -22t9.5 -23.5q0 -10 -9.5 -23t-22.5 -22.5t-23 -9.5z" />
    <glyph glyph-name="uniFED2" unicode="&#x641;" horiz-adv-x="984" arabic-form="final" 
d="M884 90h120v-90h-120v90zM210 0q-51 0 -82 20t-44.5 65.5t-13.5 120.5q0 45 7.5 94.5t20.5 83.5l76 -13q-12 -40 -18 -78t-6 -71q0 -41 3.5 -72.5t12.5 -59.5h309q-5 28 -7.5 67t-2.5 103q0 65 9 107.5t32 67t64 35t105 10.5q55 0 102 -7t107 -24v-449h-674zM758 90
q26 0 36 11t10 39v248h-208q-27 0 -36.5 -11t-9.5 -44v-243h208zM703 590q-10 0 -23 9t-22.5 22.5t-9.5 23.5q0 11 9.5 23.5t22.5 22t23 9.5q11 0 23.5 -9.5t22 -22t9.5 -23.5q0 -10 -9.5 -23t-22.5 -22.5t-23 -9.5z" />
    <glyph glyph-name="uniFED3" unicode="&#x641;" horiz-adv-x="649" arabic-form="initial" 
d="M-20 90h160q-5 28 -7.5 67t-2.5 103q0 65 9 107.5t32 67t64 35t105 10.5q55 0 102 -7t107 -24v-449h-569v90zM423 90q26 0 36 11t10 39v248h-208q-27 0 -36.5 -11t-9.5 -44v-243h208zM340 590q-10 0 -23 9t-22.5 22.5t-9.5 23.5q0 11 9.5 23.5t22.5 22t23 9.5
q11 0 23.5 -9.5t22 -22t9.5 -23.5q0 -10 -9.5 -23t-22.5 -22.5t-23 -9.5z" />
    <glyph glyph-name="uniFED4" unicode="&#x641;" horiz-adv-x="649" arabic-form="medial" 
d="M549 90h120v-90h-120v90zM-20 90h160q-5 28 -7.5 67t-2.5 103q0 65 9 107.5t32 67t64 35t105 10.5q55 0 102 -7t107 -24v-449h-569v90zM423 90q26 0 36 11t10 39v248h-208q-27 0 -36.5 -11t-9.5 -44v-243h208zM340 590q-10 0 -23 9t-22.5 22.5t-9.5 23.5q0 11 9.5 23.5
t22.5 22t23 9.5q11 0 23.5 -9.5t22 -22t9.5 -23.5q0 -10 -9.5 -23t-22.5 -22.5t-23 -9.5z" />
    <glyph glyph-name="uniFED6" unicode="&#x642;" horiz-adv-x="882" arabic-form="final" 
d="M782 90h120v-90h-120v90zM200 -260q-51 0 -82 23.5t-44.5 76.5t-13.5 141q0 36 3.5 75t10 75t14.5 63l76 -13q-12 -50 -18 -96.5t-6 -87.5q0 -52 3.5 -92t12.5 -75h546v170h80v-100q0 -88 -34.5 -124t-120.5 -36h-427zM508 0q-43 0 -71 11t-44 37.5t-23 73.5t-7 118
q0 73 9.5 119.5t32.5 73t64 37t104 10.5q64 0 111 -7t98 -24v-449h-274zM656 90q26 0 36 11t10 39v250h-208q-27 0 -36.5 -11t-9.5 -44v-245h208zM503 590q-10 0 -23 9t-22.5 22.5t-9.5 23.5q0 11 9.5 23.5t22.5 22t23 9.5q11 0 23.5 -9.5t22 -22t9.5 -23.5q0 -10 -9.5 -23
t-22.5 -22.5t-23 -9.5zM647 590q-10 0 -23 9t-22.5 22.5t-9.5 23.5q0 11 9.5 23.5t22.5 22t23 9.5q11 0 23.5 -9.5t22 -22t9.5 -23.5q0 -10 -9.5 -23t-22.5 -22.5t-23 -9.5z" />
    <glyph glyph-name="uniFED7" unicode="&#x642;" horiz-adv-x="649" arabic-form="initial" 
d="M-20 90h160q-5 28 -7.5 67t-2.5 103q0 65 9 107.5t32 67t64 35t105 10.5q55 0 102 -7t107 -24v-449h-569v90zM423 90q26 0 36 11t10 39v248h-208q-27 0 -36.5 -11t-9.5 -44v-243h208zM268 590q-10 0 -23 9t-22.5 22.5t-9.5 23.5q0 11 9.5 23.5t22.5 22t23 9.5
q11 0 23.5 -9.5t22 -22t9.5 -23.5q0 -10 -9.5 -23t-22.5 -22.5t-23 -9.5zM412 590q-10 0 -23 9t-22.5 22.5t-9.5 23.5q0 11 9.5 23.5t22.5 22t23 9.5q11 0 23.5 -9.5t22 -22t9.5 -23.5q0 -10 -9.5 -23t-22.5 -22.5t-23 -9.5z" />
    <glyph glyph-name="uniFED8" unicode="&#x642;" horiz-adv-x="649" arabic-form="medial" 
d="M549 90h120v-90h-120v90zM-20 90h160q-5 28 -7.5 67t-2.5 103q0 65 9 107.5t32 67t64 35t105 10.5q55 0 102 -7t107 -24v-449h-569v90zM423 90q26 0 36 11t10 39v248h-208q-27 0 -36.5 -11t-9.5 -44v-243h208zM268 590q-10 0 -23 9t-22.5 22.5t-9.5 23.5q0 11 9.5 23.5
t22.5 22t23 9.5q11 0 23.5 -9.5t22 -22t9.5 -23.5q0 -10 -9.5 -23t-22.5 -22.5t-23 -9.5zM412 590q-10 0 -23 9t-22.5 22.5t-9.5 23.5q0 11 9.5 23.5t22.5 22t23 9.5q11 0 23.5 -9.5t22 -22t9.5 -23.5q0 -10 -9.5 -23t-22.5 -22.5t-23 -9.5z" />
    <glyph glyph-name="uniFEDA" unicode="&#x643;" horiz-adv-x="884" arabic-form="final" 
d="M784 90h120v-90h-120v90zM166 90h538v540h80v-630h-574q-51 0 -82 20t-44.5 65.5t-13.5 120.5q0 45 7.5 94.5t20.5 83.5l76 -13q-12 -40 -18 -78t-6 -71q0 -41 3.5 -72.5t12.5 -59.5zM459 462l86 23v-46l-228 -61v46l44 12q-6 13 -9 30.5t-3 43.5q0 56 21.5 86t60.5 42
t90 12v-56q-28 0 -57 -6t-50 -18l-1 -88q0 -18 10.5 -22.5t35.5 2.5z" />
    <glyph glyph-name="uniFEDB" unicode="&#x643;" horiz-adv-x="702" arabic-form="initial" 
d="M-20 0v90h542v223h-341q-46 0 -70 21.5t-24 63.5q0 33 12 74t32.5 84.5t47 83t56.5 69.5l68 -36q-28 -30 -52 -63.5t-42.5 -68.5t-31 -70t-18.5 -68h333q43 0 66.5 -10t33.5 -33.5t10 -66.5v-293h-622z" />
    <glyph glyph-name="uniFEDC" unicode="&#x643;" horiz-adv-x="702" arabic-form="medial" 
d="M602 90h120v-90h-120v90zM-20 0v90h542v223h-341q-46 0 -70 21.5t-24 63.5q0 33 12 74t32.5 84.5t47 83t56.5 69.5l68 -36q-28 -30 -52 -63.5t-42.5 -68.5t-31 -70t-18.5 -68h333q43 0 66.5 -10t33.5 -33.5t10 -66.5v-293h-622z" />
    <glyph glyph-name="uniFEDE" unicode="&#x644;" horiz-adv-x="661" arabic-form="final" 
d="M561 90h120v-90h-120v90zM162 -150h183q77 0 106.5 10.5t29.5 42.5v727h80v-666q0 -62 -10 -102t-38 -62t-79 -31t-134 -9q-73 0 -118.5 10t-70 34.5t-33 68t-8.5 111.5q0 42 3.5 87.5t10.5 87.5t16 74l74 -13q-12 -59 -18 -114.5t-6 -104.5q0 -47 2.5 -82.5t9.5 -68.5z
" />
    <glyph glyph-name="uniFEDF" unicode="&#x644;" horiz-adv-x="320" arabic-form="initial" 
d="M220 0h-240v90h160v540h80v-630z" />
    <glyph glyph-name="uniFEE0" unicode="&#x644;" horiz-adv-x="320" arabic-form="medial" 
d="M220 90h120v-90h-360v90h160v540h80v-540z" />
    <glyph glyph-name="uniFEE2" unicode="&#x645;" horiz-adv-x="655" arabic-form="final" 
d="M555 90h120v-90h-120v90zM50 -334q-9 26 -15.5 61t-10.5 73.5t-4 74.5q0 79 11.5 126t38 68t70.5 21h335v289q-41 11 -111 11q-43 0 -91 -6.5t-88 -17.5l-31 74q39 18 97.5 29t119.5 11q68 0 108.5 -12.5t58 -41t17.5 -76.5v-350h-439q-8 -29 -12 -62.5t-4 -79.5
q0 -34 6.5 -76t21.5 -101zM156 33q-28 32 -37 84.5t-9 110.5q0 57 12.5 110t31.5 102l75 -23q-17 -51 -28 -96.5t-11 -92.5q0 -36 3.5 -70t13 -64t26.5 -54z" />
    <glyph glyph-name="uniFEE3" unicode="&#x645;" horiz-adv-x="651" arabic-form="initial" 
d="M371 480q68 0 108.5 -12.5t58 -41t17.5 -76.5v-350h-575v90h495v289q-24 6 -50 8.5t-61 2.5q-40 0 -88 -6t-91 -18l-31 74q28 14 64.5 22.5t76.5 13t76 4.5zM156 33q-28 32 -37 84.5t-9 110.5q0 57 12.5 110t31.5 102l75 -23q-17 -51 -28 -96.5t-11 -92.5q0 -36 3.5 -70
t13 -64t26.5 -54z" />
    <glyph glyph-name="uniFEE4" unicode="&#x645;" horiz-adv-x="655" arabic-form="medial" 
d="M555 90h120v-90h-120v90zM371 480q68 0 108.5 -12.5t58 -41t17.5 -76.5v-350h-575v90h495v289q-24 6 -50 8.5t-61 2.5q-40 0 -88 -6t-91 -18l-31 74q28 14 64.5 22.5t76.5 13t76 4.5zM156 33q-28 32 -37 84.5t-9 110.5q0 57 12.5 110t31.5 102l75 -23q-17 -51 -28 -96.5
t-11 -92.5q0 -36 3.5 -70t13 -64t26.5 -54z" />
    <glyph glyph-name="uniFEE6" unicode="&#x646;" horiz-adv-x="661" arabic-form="final" 
d="M561 90h120v-90h-120v90zM162 -150h183q77 0 106.5 10.5t29.5 42.5v567h80v-506q0 -62 -10 -102t-38 -62t-79 -31t-134 -9q-73 0 -118.5 10t-70 34.5t-33 68t-8.5 111.5q0 42 3.5 87.5t10.5 87.5t16 74l74 -13q-12 -59 -18 -114.5t-6 -104.5q0 -47 2.5 -82.5t9.5 -68.5z
M320 590q-10 0 -23 9t-22.5 22.5t-9.5 23.5q0 11 9.5 23.5t22.5 22t23 9.5q11 0 23.5 -9.5t22 -22t9.5 -23.5q0 -10 -9.5 -23t-22.5 -22.5t-23 -9.5z" />
    <glyph glyph-name="uniFEE7" unicode="&#x646;" horiz-adv-x="320" arabic-form="initial" 
d="M-20 0v90h160v380h80v-470h-240zM180 590q-10 0 -23 9t-22.5 22.5t-9.5 23.5q0 11 9.5 23.5t22.5 22t23 9.5q11 0 23.5 -9.5t22 -22t9.5 -23.5q0 -10 -9.5 -23t-22.5 -22.5t-23 -9.5z" />
    <glyph glyph-name="uniFEE8" unicode="&#x646;" horiz-adv-x="320" arabic-form="medial" 
d="M220 90h120v-90h-360v90h160v380h80v-380zM180 590q-10 0 -23 9t-22.5 22.5t-9.5 23.5q0 11 9.5 23.5t22.5 22t23 9.5q11 0 23.5 -9.5t22 -22t9.5 -23.5q0 -10 -9.5 -23t-22.5 -22.5t-23 -9.5z" />
    <glyph glyph-name="uniFEEA" unicode="&#x647;" horiz-adv-x="619" arabic-form="final" 
d="M529 90h110v-90h-110v90zM532 470v-470h-244q-64 0 -104.5 9t-61.5 34t-29 71t-8 121t8 121t29 71t61.5 34t104.5 9h244zM452 380h-213q-37 0 -53 -13t-16 -43v-178q0 -30 16 -43t53 -13h213v290z" />
    <glyph glyph-name="uniFEEB" unicode="&#x647;" horiz-adv-x="730" arabic-form="initial" 
d="M-20 0v90h613l-50 194q-18 69 -55.5 107.5t-97.5 54t-149 15.5l5 87q107 0 181 -19.5t120.5 -70t69.5 -143.5l63 -246v-69h-700zM94 70q0 79 5.5 126t22.5 70t51.5 30.5t91.5 7.5q61 0 97.5 -7.5t54.5 -30.5t23.5 -70t5.5 -126h-352zM376 239h-161q-28 0 -39.5 -8.5
t-11.5 -30.5v-130h212v169z" />
    <glyph glyph-name="uniFEEC" unicode="&#x647;" horiz-adv-x="730" arabic-form="medial" 
d="M640 89h110v-90h-110v90zM-20 0v90h613l-50 194q-18 69 -55.5 107.5t-97.5 54t-149 15.5l5 87q107 0 181 -19.5t120.5 -70t69.5 -143.5l63 -246v-69h-700zM94 70q0 79 5.5 126t22.5 70t51.5 30.5t91.5 7.5q61 0 97.5 -7.5t54.5 -30.5t23.5 -70t5.5 -126h-352zM376 239
h-161q-28 0 -39.5 -8.5t-11.5 -30.5v-130h212v169z" />
    <glyph glyph-name="uniFEEE" unicode="&#x648;" horiz-adv-x="614" arabic-form="final" 
d="M474 90h160v-90h-160v90zM230 0q-43 0 -71 11t-44 37.5t-23 73.5t-7 118q0 73 9.5 119.5t32.5 73t64 37t104 10.5q64 0 111 -7t98 -24v-359l-37 -90h-237zM378 90q26 0 36 11t10 39v250h-208q-27 0 -36.5 -11t-9.5 -44v-245h208zM292 -267l-50 62q37 29 69.5 66t58 77
t40 79.5t14.5 72.5h80q0 -42 -16.5 -91t-46 -98t-67.5 -92.5t-82 -75.5z" />
    <glyph glyph-name="uniFEF0" unicode="&#x649;" horiz-adv-x="861" arabic-form="final" 
d="M398 -275q-99 0 -163 5.5t-100 24.5t-50.5 57t-14.5 102q0 39 3.5 80.5t10.5 80.5t16 68l78 -14q-12 -52 -20 -101t-8 -92q0 -38 2.5 -65.5t9.5 -55.5h283q92 0 143 4.5t72 16t21 32.5v132h80v-81q0 -57 -15 -94.5t-54 -59.5t-110 -31t-184 -9zM631 0q-50 0 -105.5 8.5
t-93.5 21.5l13 84q46 -12 89 -18t80 -6h267v-90h-250z" />
    <glyph glyph-name="uniFEF2" unicode="&#x64a;" horiz-adv-x="861" arabic-form="final" 
d="M398 -275q-99 0 -163 5.5t-100 24.5t-50.5 57t-14.5 102q0 39 3.5 80.5t10.5 80.5t16 68l78 -14q-12 -52 -20 -101t-8 -92q0 -38 2.5 -65.5t9.5 -55.5h283q92 0 143 4.5t72 16t21 32.5v132h80v-81q0 -57 -15 -94.5t-54 -59.5t-110 -31t-184 -9zM631 0q-50 0 -105.5 8.5
t-93.5 21.5l13 84q46 -12 89 -18t80 -6h267v-90h-250zM359 -440q-10 0 -23 9t-22.5 22.5t-9.5 23.5q0 11 9.5 23.5t22.5 22t23 9.5q11 0 23.5 -9.5t22 -22t9.5 -23.5q0 -10 -9.5 -23t-22.5 -22.5t-23 -9.5zM503 -440q-10 0 -23 9t-22.5 22.5t-9.5 23.5q0 11 9.5 23.5
t22.5 22t23 9.5q11 0 23.5 -9.5t22 -22t9.5 -23.5q0 -10 -9.5 -23t-22.5 -22.5t-23 -9.5z" />
    <glyph glyph-name="uniFEF3" unicode="&#x64a;" horiz-adv-x="320" arabic-form="initial" 
d="M-20 0v90h160v380h80v-470h-240zM44 -170q-10 0 -23 9t-22.5 22.5t-9.5 23.5q0 11 9.5 23.5t22.5 22t23 9.5q11 0 23.5 -9.5t22 -22t9.5 -23.5q0 -10 -9.5 -23t-22.5 -22.5t-23 -9.5zM188 -170q-10 0 -23 9t-22.5 22.5t-9.5 23.5q0 11 9.5 23.5t22.5 22t23 9.5
q11 0 23.5 -9.5t22 -22t9.5 -23.5q0 -10 -9.5 -23t-22.5 -22.5t-23 -9.5z" />
    <glyph glyph-name="uniFEF4" unicode="&#x64a;" horiz-adv-x="320" arabic-form="medial" 
d="M220 90h120v-90h-360v90h160v380h80v-380zM103 -190q-10 0 -23 9t-22.5 22.5t-9.5 23.5q0 11 9.5 23.5t22.5 22t23 9.5q11 0 23.5 -9.5t22 -22t9.5 -23.5q0 -10 -9.5 -23t-22.5 -22.5t-23 -9.5zM247 -190q-10 0 -23 9t-22.5 22.5t-9.5 23.5q0 11 9.5 23.5t22.5 22t23 9.5
q11 0 23.5 -9.5t22 -22t9.5 -23.5q0 -10 -9.5 -23t-22.5 -22.5t-23 -9.5z" />
    <glyph glyph-name=".notdef" horiz-adv-x="600" 
d="M24 1012h524v-1012h-524v1012zM40 996v-979h492v979h-492z" />
    <glyph glyph-name=".null" 
 />
    <glyph glyph-name="nonmarkingreturn" horiz-adv-x="333" 
 />
    <glyph glyph-name="space" unicode=" " horiz-adv-x="250" 
 />
    <glyph glyph-name="exclam" unicode="!" horiz-adv-x="250" 
d="M93 196l-30 431q0 8 4.5 13t19.5 5h74q15 0 20 -5t5 -13l-30 -431h-63zM60 62q0 36 12.5 52.5t52.5 16.5t52.5 -16.5t12.5 -52.5q0 -37 -12.5 -52.5t-52.5 -15.5t-52.5 15.5t-12.5 52.5z" />
    <glyph glyph-name="quotedbl" unicode="&#x22;" horiz-adv-x="410" 
d="M275 390l-35 175v58q0 11 7.5 19t29.5 8h36q22 0 29.5 -8t7.5 -19v-58l-35 -175h-40zM95 390l-35 175v58q0 11 7.5 19t29.5 8h36q22 0 29.5 -8t7.5 -19v-58l-35 -175h-40z" />
    <glyph glyph-name="numbersign" unicode="#" horiz-adv-x="739" 
d="M323 -40l269 680q5 13 13.5 19t29.5 6h41l-269 -680q-5 -13 -13.5 -19t-29.5 -6h-41zM30 156l15 37q8 19 18 23.5t24 4.5h525l-15 -37q-8 -19 -17.5 -23.5t-23.5 -4.5h-526zM66 -40l269 680q5 13 13.5 19t29.5 6h41l-269 -680q-5 -13 -13.5 -19t-29.5 -6h-41zM130 402
l15 37q8 19 18 23.5t24 4.5h525l-15 -37q-8 -19 -17.5 -23.5t-23.5 -4.5h-526z" />
    <glyph glyph-name="dollar" unicode="$" horiz-adv-x="528" 
d="M197 -130l77 884h64l-77 -884h-64zM75 102q38 -10 89 -16t98 -6q23 0 46.5 1t60.5 4v178l-90 6q-64 5 -105 14.5t-64 28.5t-32.5 49.5t-9.5 77.5q0 68 18 108.5t57.5 58.5t105.5 18q50 0 96.5 -4.5t96.5 -13.5l-13 -75q-42 8 -82.5 11t-91.5 3q-28 0 -45 -1t-38 -3v-179
l106 -7q75 -5 117.5 -22.5t60 -54.5t17.5 -101q0 -66 -21 -104.5t-69 -55t-130 -16.5q-51 0 -97.5 5t-94.5 18z" />
    <glyph glyph-name="percent" unicode="%" horiz-adv-x="1161" 
d="M66 427q0 68 6.5 110t24.5 64.5t52.5 30.5t90.5 8t90 -8t52 -30t24.5 -64.5t6.5 -110.5q0 -69 -6 -111t-23.5 -64.5t-52 -30t-91.5 -7.5t-91.5 7.5t-52.5 30t-24 64.5t-6 111zM135 585v-281q0 -21 13 -27.5t54 -6.5h143v280q0 21 -14.5 28t-57.5 7h-138zM493 -15
q-7 -12 -14.5 -18.5t-28.5 -6.5h-21l239 680q5 13 13.5 19t29.5 6h21zM748 203q0 68 6.5 110t24.5 64.5t52.5 30.5t90.5 8t90 -8t52 -30t24.5 -64.5t6.5 -110.5q0 -69 -6 -111t-23.5 -64.5t-52 -30t-91.5 -7.5t-91.5 7.5t-52.5 30t-24 64.5t-6 111zM817 361v-281
q0 -21 13 -27.5t54 -6.5h143v280q0 21 -14.5 28t-57.5 7h-138z" />
    <glyph glyph-name="ampersand" unicode="&#x26;" horiz-adv-x="584" 
d="M169 272l42 79h359l-12 -79h-389zM115 363q2 82 13.5 135.5t36 84.5t66.5 44t105 13q24 0 50.5 -3t50 -7.5t38.5 -10.5l-13 -82q-18 5 -44.5 9t-54 6.5t-49.5 2.5q-54 0 -73.5 -16t-19.5 -60v-153l-39 -48v-137q0 -87 91 -87q46 0 86.5 7.5t92.5 24.5l14 -47
q-61 -21 -102 -33t-72 -16.5t-65 -4.5q-79 0 -115.5 44t-36.5 141q0 149 91 173v4zM401 278h101v-384l-53 -7z" />
    <glyph glyph-name="quotesingle" unicode="'" horiz-adv-x="230" 
d="M95 390l-35 175v58q0 11 7.5 19t29.5 8h36q22 0 29.5 -8t7.5 -19v-58l-35 -175h-40z" />
    <glyph glyph-name="parenleft" unicode="(" horiz-adv-x="306" 
d="M242 -106q-59 25 -105 75.5t-71.5 134.5t-25.5 208q0 125 25.5 208.5t71.5 134.5t105 75l14 -76q-25 -22 -46.5 -50t-37 -67t-24 -93.5t-8.5 -131.5q0 -76 8.5 -131t24 -94t37 -67t46.5 -50z" />
    <glyph glyph-name="parenright" unicode=")" horiz-adv-x="306" 
d="M64 -106l-14 76q26 22 47 50t36.5 67t24 94t8.5 131q0 77 -8.5 131.5t-24 93.5t-36.5 67t-47 50l14 76q60 -24 105.5 -75t71 -134.5t25.5 -208.5q0 -124 -25.5 -208t-71 -134.5t-105.5 -75.5z" />
    <glyph glyph-name="asterisk" unicode="*" horiz-adv-x="518" 
d="M339 335l-29 42l-65 141l28 21l115 -106l29 -41zM179 335l-78 57l29 41l115 106l28 -21l-65 -141zM254 512l-155 19l-49 15l30 91l49 -16l135 -76zM242 529l-31 153v51h96v-51l-31 -153h-34zM264 512l-10 33l135 76l49 16l30 -91l-49 -15z" />
    <glyph glyph-name="plus" unicode="+" horiz-adv-x="530" 
d="M80 352h370v-80h-370v80zM225 127v370h80v-370h-80zM80 352h370v-80h-370v80z" />
    <glyph glyph-name="comma" unicode="," horiz-adv-x="230" 
d="M116 -108l-45 14l20 90q-23 5 -32 19t-9 47q0 39 14.5 54t52.5 15q35 0 49 -15t14 -54q0 -11 -2.5 -23.5t-8 -28t-15.5 -37.5z" />
    <glyph glyph-name="hyphen" unicode="-" horiz-adv-x="350" 
d="M33 283q0 24 12.5 29t38.5 5h233v-50q0 -24 -12.5 -29t-38.5 -5h-233v50z" />
    <glyph glyph-name="period" unicode="." horiz-adv-x="230" 
d="M50 62q0 36 12.5 52.5t52.5 16.5t52.5 -16.5t12.5 -52.5q0 -37 -12.5 -52.5t-52.5 -15.5t-52.5 15.5t-12.5 52.5z" />
    <glyph glyph-name="slash" unicode="/" horiz-adv-x="404" 
d="M74 -15q-7 -15 -16.5 -20t-26.5 -5h-31l330 680q8 15 17 20t26 5h31z" />
    <glyph glyph-name="zero" unicode="0" horiz-adv-x="623" 
d="M60 312q0 105 9.5 169.5t36 99t76 47t130.5 12.5q80 0 129.5 -12.5t76 -46.5t36 -99t9.5 -170q0 -85 -5.5 -143.5t-20 -94.5t-42.5 -55.5t-73 -26.5t-110 -7t-110 7t-73 26.5t-43 56t-20.5 94.5t-5.5 143zM167 555v-432q0 -32 18 -42.5t75 -10.5h196v432q0 32 -20 42.5
t-79 10.5h-190z" />
    <glyph glyph-name="one" unicode="1" horiz-adv-x="435" 
d="M35 0v83h148v457l-158 -18v88l258 30v-557h122v-83h-370z" />
    <glyph glyph-name="two" unicode="2" horiz-adv-x="550" 
d="M55 0v85q0 47 5.5 80.5t23.5 59t54 50t95.5 52t149.5 64.5v157q-16 4 -37.5 5.5t-56.5 1.5q-47 0 -101.5 -5t-104.5 -14l-13 78q43 13 96.5 19.5t109.5 6.5q111 0 162.5 -38t51.5 -121q0 -39 -6.5 -67.5t-25.5 -52.5t-56.5 -47.5t-99 -51.5t-152.5 -66v-113h329v-83h-424
z" />
    <glyph glyph-name="three" unicode="3" horiz-adv-x="501" 
d="M222 -15q-55 0 -104.5 6.5t-87.5 19.5l12 78q41 -9 93.5 -14t99.5 -5q81 0 109 7v191l-174 22v53l174 28v177q-27 7 -88 7q-47 0 -99.5 -5t-93.5 -14l-11 78q40 13 91.5 19.5t108.5 6.5q100 0 149.5 -42t49.5 -127q0 -52 -20 -92t-58 -60v-5q41 -22 59.5 -58.5
t18.5 -92.5q0 -66 -22 -105t-72 -56t-135 -17z" />
    <glyph glyph-name="four" unicode="4" horiz-adv-x="574" 
d="M359 139h-329v50l228 436h201v-403h65v-83h-65v-139h-100v139zM148 222h211v328h-39z" />
    <glyph glyph-name="five" unicode="5" horiz-adv-x="530" 
d="M266 -15q-58 0 -111.5 6.5t-94.5 19.5l13 78q47 -9 99 -14t97 -5q38 0 62.5 1.5t41.5 5.5v167l-83 8q-66 7 -107 15.5t-63.5 22.5t-31 35t-8.5 54l10 246h362l-8 -83h-254v-192l59 -6q90 -9 140 -28t70.5 -55t20.5 -97q0 -93 -51.5 -136t-162.5 -43z" />
    <glyph glyph-name="six" unicode="6" horiz-adv-x="564" 
d="M402 286h-177q-38 0 -50.5 -8t-12.5 -34v-180h177q38 0 50.5 8.5t12.5 33.5v180zM509 185q0 -74 -22 -118t-71.5 -63t-133.5 -19q-71 0 -115.5 13t-69 48t-33.5 99.5t-9 166.5q0 98 11.5 162t39 100t76 51t123.5 15q25 0 59.5 -4t67.5 -9.5t51 -12.5l-13 -78
q-35 8 -85.5 13.5t-92.5 5.5q-43 0 -80 -2t-50 -5v-183h146q105 0 153 -42.5t48 -137.5z" />
    <glyph glyph-name="seven" unicode="7" horiz-adv-x="467" 
d="M217 0h-101l202 542h-285l-8 83h402v-62z" />
    <glyph glyph-name="eight" unicode="8" horiz-adv-x="580" 
d="M291 640q82 0 131 -16.5t71 -54t22 -100.5q0 -50 -12 -95t-32 -72v-7q25 -16 39.5 -50t14.5 -74q0 -56 -10.5 -92.5t-36 -57t-71 -28.5t-116.5 -8t-117 8.5t-72 29t-36.5 56.5t-10.5 92q0 50 16 93t42 65v7q-22 20 -35 55t-13 78q0 62 22.5 99.5t72 54.5t131.5 17z
M197 301q-15 6 -23 6q-12 0 -12 -17v-226h185q42 0 56 8.5t14 33.5l1 120zM378 334q5 -1 9.5 -2.5t7.5 -1.5q10 0 16.5 5.5t6.5 12.5v213h-186q-42 0 -56 -8t-14 -34v-111z" />
    <glyph glyph-name="nine" unicode="9" horiz-adv-x="564" 
d="M162 562v-179q0 -25 10.5 -33.5t42.5 -8.5h187v179q0 26 -10.5 34t-42.5 8h-187zM55 441q0 74 22 117.5t71.5 62.5t133.5 19q71 0 115.5 -13t69 -48t33.5 -99t9 -166q0 -98 -11.5 -162t-39.5 -100.5t-76.5 -51.5t-123.5 -15q-26 0 -62.5 4t-70.5 10t-54 13l12 78
q38 -8 91 -13.5t97 -5.5q43 0 80.5 2t50.5 5v183h-146q-105 0 -153 43t-48 137z" />
    <glyph glyph-name="colon" unicode=":" horiz-adv-x="221" 
d="M50 62q0 36 12.5 52.5t52.5 16.5t52.5 -16.5t12.5 -52.5q0 -37 -12.5 -52.5t-52.5 -15.5t-52.5 15.5t-12.5 52.5zM50 436q0 36 12.5 52.5t52.5 16.5t52.5 -16.5t12.5 -52.5q0 -37 -12.5 -52.5t-52.5 -15.5t-52.5 15.5t-12.5 52.5z" />
    <glyph glyph-name="semicolon" unicode=";" horiz-adv-x="221" 
d="M116 -108l-45 14l20 90q-23 5 -32 19t-9 47q0 39 14.5 54t52.5 15q35 0 49 -15t14 -54q0 -11 -2.5 -23.5t-8 -28t-15.5 -37.5zM50 436q0 36 12.5 52.5t52.5 16.5t52.5 -16.5t12.5 -52.5q0 -37 -12.5 -52.5t-52.5 -15.5t-52.5 15.5t-12.5 52.5z" />
    <glyph glyph-name="less" unicode="&#x3c;" horiz-adv-x="530" 
d="M450 130l-370 130v104l370 130v-82l-327 -112v24l327 -112v-82z" />
    <glyph glyph-name="equal" unicode="=" horiz-adv-x="530" 
d="M80 252h370v-80h-370v80zM80 452h370v-80h-370v80z" />
    <glyph glyph-name="greater" unicode="&#x3e;" horiz-adv-x="530" 
d="M80 494l370 -130v-104l-370 -130v82l327 112v-24l-327 112v82z" />
    <glyph glyph-name="question" unicode="?" horiz-adv-x="418" 
d="M142 196l-11 169q-1 14 12.5 22.5t52.5 21.5l95 33v117q-20 3 -43 4.5t-46 1.5q-27 0 -68 -5t-88 -15l-13 68q44 14 86.5 20.5t80.5 6.5q72 0 115 -13.5t62 -43.5t19 -80q0 -34 -6.5 -57.5t-25 -41t-55.5 -34.5t-99 -38l-5 -136h-63zM109 62q0 36 12.5 52.5t52.5 16.5
t52.5 -16.5t12.5 -52.5q0 -37 -12.5 -52.5t-52.5 -15.5t-52.5 15.5t-12.5 52.5z" />
    <glyph glyph-name="at" unicode="@" horiz-adv-x="811" 
d="M627 473q-19 3 -50.5 5t-67 3.5t-68.5 1.5q-46 0 -93 -4t-86 -20t-63 -51.5t-24 -97.5v-226q0 -58 19.5 -91.5t52.5 -49t74.5 -19.5t85.5 -4h193v-68q-43 -8 -83.5 -12.5t-82.5 -4.5q-95 0 -165.5 17t-116.5 56t-69 105.5t-23 164.5v81q0 95 26 157.5t73.5 98t113 50.5
t143.5 15q163 0 236.5 -45.5t73.5 -141.5v-393h-46l-27 50q-36 -31 -79.5 -45.5t-99.5 -14.5q-82 0 -117.5 34.5t-35.5 115.5q0 52 10 83.5t39.5 48t87.5 22t153 5.5h45v-65h-163q-47 0 -64 -12t-17 -46v-109h134q47 0 63.5 12t16.5 46z" />
    <glyph glyph-name="A" unicode="A" horiz-adv-x="551" 
d="M15 0l185 625h151l185 -625h-100l-156 533h-9l-156 -533h-100zM107 140v79h339v-79h-339z" />
    <glyph glyph-name="B" unicode="B" horiz-adv-x="582" 
d="M90 625h240q88 0 129.5 -37.5t41.5 -117.5q0 -55 -14.5 -90t-46.5 -58v-6q44 -15 68 -51.5t24 -88.5q0 -85 -43.5 -130.5t-126.5 -45.5h-272v625zM190 28l-45 45h203q45 0 64.5 25.5t19.5 83.5q0 53 -19 75.5t-64 22.5h-175v70h147q45 0 62.5 22t17.5 78q0 58 -17 80
t-62 22h-177l45 45v-569z" />
    <glyph glyph-name="C" unicode="C" horiz-adv-x="489" 
d="M464 11q-37 -14 -77 -20t-93 -6q-70 0 -114.5 15.5t-69.5 52t-35 100t-10 159.5q0 98 10.5 161.5t36.5 100t72.5 51.5t119.5 15q21 0 48.5 -2.5t54 -7t44.5 -11.5l-13 -82q-25 6 -55 10t-57 6t-44 2q-58 0 -84 -13.5t-26 -62.5v-396q26 -7 56.5 -11t62.5 -4q42 0 83.5 7
t79.5 18z" />
    <glyph glyph-name="D" unicode="D" horiz-adv-x="624" 
d="M90 625h224q76 0 124 -12.5t74.5 -46.5t36.5 -95t10 -159q0 -97 -10 -158.5t-36.5 -95t-74.5 -46t-124 -12.5h-224v625zM190 542v-459h183q44 0 61 16t17 57v313q0 41 -17 57t-61 16h-183z" />
    <glyph glyph-name="E" unicode="E" horiz-adv-x="515" 
d="M190 273v-190h275v-83h-375v625h372l-12 -83h-260v-190h237v-79h-237z" />
    <glyph glyph-name="F" unicode="F" horiz-adv-x="450" 
d="M190 260v-260h-100v625h340l-11 -83h-229v-203h200v-79h-200z" />
    <glyph glyph-name="G" unicode="G" horiz-adv-x="570" 
d="M278 -15q-65 0 -107 13t-65 47.5t-32 99t-9 167.5q0 98 10.5 161.5t37.5 100t74.5 51.5t122.5 15q25 0 56.5 -2.5t62.5 -7t52 -11.5l-13 -82q-29 6 -64 10t-67 6t-52 2q-60 0 -87 -13.5t-27 -62.5v-414h321l13 -45q-49 -19 -102.5 -27t-124.5 -8zM416 30v235h-95v79h184
v-324z" />
    <glyph glyph-name="H" unicode="H" horiz-adv-x="640" 
d="M190 0h-100v625h100v-625zM450 625h100v-625h-100v625zM466 270h-292v79h292v-79z" />
    <glyph glyph-name="I" unicode="I" horiz-adv-x="280" 
d="M90 625h100v-625h-100v625z" />
    <glyph glyph-name="J" unicode="J" horiz-adv-x="351" 
d="M20 80h93q20 0 34 4.5t14 25.5v432h-100v83h200v-490q0 -54 -18 -83t-52.5 -40.5t-84.5 -11.5h-74z" />
    <glyph glyph-name="K" unicode="K" horiz-adv-x="553" 
d="M432 0l-73 155q-14 29 -27 61.5t-13 65.5h-145v78h145q0 33 12.5 65.5t27.5 61.5l68 138h111l-150 -304l155 -321h-111zM90 0v625h100v-625h-100z" />
    <glyph glyph-name="L" unicode="L" horiz-adv-x="430" 
d="M90 0v625h100v-542h230v-83h-330z" />
    <glyph glyph-name="M" unicode="M" horiz-adv-x="795" 
d="M75 0l42 625h138l139 -468h7l139 468h138l42 -625h-99l-32 493h-6l-145 -493h-81l-145 493h-6l-32 -493h-99z" />
    <glyph glyph-name="N" unicode="N" horiz-adv-x="661" 
d="M95 0v625h97l242 -390q15 -25 20 -35.5t6 -26.5h6v452h100v-625h-97l-242 390q-15 25 -19.5 35.5t-6.5 26.5h-6v-452h-100z" />
    <glyph glyph-name="O" unicode="O" horiz-adv-x="636" 
d="M65 312q0 102 10.5 166.5t37.5 99.5t76.5 48.5t128.5 13.5q78 0 128 -13.5t77 -49t37.5 -99.5t10.5 -166t-10.5 -166t-37.5 -99t-77 -48.5t-128 -13.5q-79 0 -128.5 13.5t-76.5 48.5t-37.5 99t-10.5 166zM172 70h206q48 0 67 16t19 57v412h-207q-48 0 -66.5 -16
t-18.5 -57v-412z" />
    <glyph glyph-name="P" unicode="P" horiz-adv-x="530" 
d="M190 206v-206h-100v625h245q66 0 104 -20t54.5 -66t16.5 -125q0 -112 -37 -160t-123 -48h-160zM190 285h146q39 0 54 9t15 33v173q0 24 -15 33t-54 9h-146v-257z" />
    <glyph glyph-name="Q" unicode="Q" horiz-adv-x="626" 
d="M313 -15q-77 0 -125.5 13.5t-75.5 48.5t-37 99t-10 166t10 166t37 99.5t75.5 49t125.5 13.5t125.5 -13.5t75 -49t37 -100t10.5 -165.5q0 -96 -9.5 -156t-31.5 -92.5t-61 -48.5l-89 -2zM173 70h197q47 0 65 16t18 57v412h-198q-46 0 -64 -16t-18 -57v-412zM543 -72
l-173 57v28l87 40l111 -70z" />
    <glyph glyph-name="R" unicode="R" horiz-adv-x="580" 
d="M190 221v-221h-100v625h250q66 0 104 -20t54.5 -66t16.5 -125q0 -103 -37 -148t-123 -45h-165zM190 300h151q39 0 54 9t15 33v158q0 24 -15 33t-54 9h-151v-242zM415 268l130 -268h-109l-118 250z" />
    <glyph glyph-name="S" unicode="S" horiz-adv-x="519" 
d="M61 91q40 -10 93.5 -16.5t102.5 -6.5q25 0 49.5 1t63.5 5v186l-95 7q-67 5 -110 15.5t-67.5 30t-34 51.5t-9.5 81q0 72 18.5 114.5t60.5 61.5t111 19q52 0 101 -4.5t101 -14.5l-13 -79q-44 8 -87 11.5t-96 3.5q-29 0 -47 -1t-40 -4v-188l111 -7q79 -5 123.5 -23.5
t63 -57.5t18.5 -106q0 -69 -22 -109.5t-72.5 -58t-136.5 -17.5q-53 0 -102 5.5t-100 18.5z" />
    <glyph glyph-name="T" unicode="T" horiz-adv-x="460" 
d="M280 542v-542h-100v542h-165v83h430v-83h-165z" />
    <glyph glyph-name="U" unicode="U" horiz-adv-x="638" 
d="M319 -15q-73 0 -119.5 9t-72.5 31t-36.5 62t-10.5 102v436h100v-555h144q55 0 83.5 4.5t39.5 16t11 32.5v502h100v-436q0 -62 -10.5 -102t-36.5 -62t-72.5 -31t-119.5 -9z" />
    <glyph glyph-name="V" unicode="V" horiz-adv-x="521" 
d="M10 625h100l146 -533h9l146 533h100l-175 -625h-151z" />
    <glyph glyph-name="W" unicode="W" horiz-adv-x="802" 
d="M25 625h100l86 -533h9l128 533h83l-145 -625h-156zM777 625l-105 -625h-156l-145 625h83l128 -533h9l86 533h100z" />
    <glyph glyph-name="X" unicode="X" horiz-adv-x="530" 
d="M520 0h-112l-390 625h112zM281 273l-162 -273h-109l220 365zM241 352l162 273h109l-219 -365z" />
    <glyph glyph-name="Y" unicode="Y" horiz-adv-x="490" 
d="M227 277l149 348h104l-185 -410v-215h-100v215l-185 410h104l149 -348h-36z" />
    <glyph glyph-name="Z" unicode="Z" horiz-adv-x="545" 
d="M35 0v67l342 469l-3 6h-289l-12 83h437v-67l-342 -469l3 -6h323v-83h-459z" />
    <glyph glyph-name="bracketleft" unicode="[" horiz-adv-x="279" 
d="M70 625q0 40 16 62.5t53.5 32.5t102.5 10l7 -77l-83 -8v-665l83 -8l-7 -77q-65 0 -102.5 10t-53.5 33t-16 62v625z" />
    <glyph glyph-name="backslash" unicode="\" horiz-adv-x="413" 
d="M0 665h41q21 0 28.5 -6.5t14.5 -18.5l329 -680h-41q-21 0 -28.5 6.5t-14.5 18.5z" />
    <glyph glyph-name="bracketright" unicode="]" horiz-adv-x="279" 
d="M209 625v-625q0 -39 -16 -62t-53.5 -33t-102.5 -10l-7 77l83 8v665l-83 8l7 77q65 0 102.5 -10t53.5 -32.5t16 -62.5z" />
    <glyph glyph-name="asciicircum" unicode="^" horiz-adv-x="530" 
d="M63 120l150 384h104l150 -384h-82l-130 341h20l-130 -341h-82z" />
    <glyph glyph-name="underscore" unicode="_" horiz-adv-x="495" 
d="M25 -37q0 29 14.5 35.5t44.5 6.5h386v-42q0 -29 -14.5 -35.5t-44.5 -6.5h-386v42z" />
    <glyph glyph-name="grave" unicode="`" horiz-adv-x="600" 
d="M269 554l-140 35q-14 4 -22 10l-27 22q-7 6 -7 11q0 4 7 12l43 53q4 5 8 5q3 0 8 -4l152 -110z" />
    <glyph glyph-name="a" unicode="a" horiz-adv-x="545" 
d="M208 -10q-82 0 -117.5 34.5t-35.5 115.5q0 52 10 83.5t39.5 48t87.5 22t153 5.5h45v-65h-163q-47 0 -64 -12t-17 -46v-109h134q47 0 63.5 12t16.5 46v295q-37 11 -101 11q-39 0 -82 -6t-87 -18l-13 73q25 9 58 16t70 10.5t71 3.5q68 0 108.5 -13.5t58 -44t17.5 -82.5
v-370h-46l-27 50q-36 -31 -79.5 -45.5t-99.5 -14.5z" />
    <glyph glyph-name="b" unicode="b" horiz-adv-x="569" 
d="M329 515q54 0 89 -11.5t55 -41t28 -81t8 -131.5q0 -79 -8.5 -129.5t-30.5 -79t-61 -40t-100 -11.5q-58 0 -94.5 10t-56 37.5t-26.5 79t-7 133.5q0 84 8 136t29.5 80t62 38.5t104.5 10.5zM404 433h-168q-27 0 -36.5 -5t-9.5 -20v-336h168q26 0 36 4.5t10 15.5v341zM90 665
l100 12v-577v-48l119 -62q-61 0 -111 7.5t-108 23.5v644z" />
    <glyph glyph-name="c" unicode="c" horiz-adv-x="453" 
d="M240 -10q-54 0 -89 11.5t-55 40.5t-28 79.5t-8 128.5t8 129t28 79.5t55 40t89 11.5q27 0 56.5 -2t57 -6t48.5 -10l-12 -76q-36 8 -70 11.5t-69 3.5q-49 0 -68 -18.5t-19 -65.5v-267q36 -11 102 -11q32 0 62.5 5.5t73.5 18.5l11 -73q-34 -14 -79.5 -22t-93.5 -8z" />
    <glyph glyph-name="d" unicode="d" horiz-adv-x="569" 
d="M240 510q65 0 105 -10.5t61.5 -38t29.5 -78.5t8 -133q0 -84 -8 -136.5t-29.5 -80.5t-61.5 -38t-105 -10q-55 0 -90 12t-54.5 41t-27.5 80.5t-8 131.5q0 78 8 129t28 79.5t55 40t89 11.5zM379 428h-168q-27 0 -36.5 -5t-9.5 -20v-336h168q27 0 36.5 5t9.5 20v336zM479 677
v-677h-46l-54 100v565z" />
    <glyph glyph-name="e" unicode="e" horiz-adv-x="541" 
d="M254 -10q-57 0 -95 12t-59.5 41t-30.5 79.5t-9 127.5q0 99 19 156t65.5 80.5t126.5 23.5q79 0 122.5 -13t60.5 -45.5t17 -91.5q0 -52 -10.5 -83.5t-42 -48t-92 -22t-161.5 -5.5h-30v65h162q49 0 66.5 12t17.5 46v104h-133q-48 0 -65.5 -12t-17.5 -46v-290q22 -6 47 -8.5
t60 -2.5q40 0 79 5.5t94 18.5l13 -73q-37 -14 -91.5 -22t-112.5 -8z" />
    <glyph glyph-name="f" unicode="f" horiz-adv-x="333" 
d="M220 0h-100v494q4 70 15.5 109.5t37 55.5t68.5 16q23 0 46 -2.5t46 -7.5l-6 -72l-107 9v-602zM300 500v-69h-250v69h250z" />
    <glyph glyph-name="g" unicode="g" horiz-adv-x="506" 
d="M242 146q-74 0 -117.5 17t-61.5 57t-18 110t18 110t61.5 57.5t117.5 17.5q75 0 118 -17.5t61.5 -57.5t18.5 -110q0 -69 -18 -109.5t-61.5 -57.5t-118.5 -17zM144 212h124q41 0 57 13.5t16 48.5v175h-124q-41 0 -57 -13.5t-16 -48.5v-175zM446 -39q0 -46 -19 -74
t-62.5 -40t-117.5 -12q-54 0 -105.5 8t-88.5 22l13 76q51 -13 88 -18.5t75 -5.5q41 0 70.5 2.5t57.5 8.5v74q-102 6 -145 16t-43 27l30 115h64l-6 -86q60 -7 97.5 -14.5t57 -19.5t27 -31t7.5 -48zM405 415l-59 72l85 65l50 -49z" />
    <glyph glyph-name="h" unicode="h" horiz-adv-x="576" 
d="M90 0v657l98 8v-198q32 23 70.5 33t90.5 10q70 0 106 -21.5t36 -63.5v-425h-100v428h-116q-49 0 -67 -12t-18 -46v-370h-100z" />
    <glyph glyph-name="i" unicode="i" horiz-adv-x="280" 
d="M90 493l100 15v-508h-100v493zM141 587q-37 0 -49.5 12.5t-12.5 47.5q0 36 13 49t49 13q35 0 47.5 -13t12.5 -49q0 -35 -12 -47.5t-48 -12.5z" />
    <glyph glyph-name="j" unicode="j" horiz-adv-x="280" 
d="M66 -175q-19 0 -40 3t-37 8l6 58q40 0 60.5 4.5t27.5 17.5t7 39v538l100 15v-568q0 -58 -30 -86.5t-94 -28.5zM141 587q-37 0 -49.5 12.5t-12.5 47.5q0 36 13 49t49 13q35 0 47.5 -13t12.5 -49q0 -35 -12 -47.5t-48 -12.5z" />
    <glyph glyph-name="k" unicode="k" horiz-adv-x="495" 
d="M269 232h-79v-232h-100v650l100 15v-363h79l106 198h105l-128 -233l133 -267h-103z" />
    <glyph glyph-name="l" unicode="l" horiz-adv-x="271" 
d="M185 74q9 -1 21.5 -2.5t24.5 -2.5l-6 -68q-20 -6 -35.5 -8.5t-30.5 -2.5q-37 0 -55.5 18.5t-18.5 56.5v585l100 15v-591z" />
    <glyph glyph-name="m" unicode="m" horiz-adv-x="856" 
d="M90 0v500h46l27 -50q36 31 78.5 45.5t97.5 14.5q70 0 106 -21.5t36 -63.5v-425h-100v428h-106q-49 0 -67 -12t-18 -46v-370h-100zM381 0v500l72 -50q36 31 78.5 45.5t97.5 14.5q70 0 106 -21.5t36 -63.5v-425h-100v428h-106q-49 0 -67 -12t-18 -46v-370h-99z" />
    <glyph glyph-name="n" unicode="n" horiz-adv-x="576" 
d="M90 0v500h46l27 -50q38 31 83 45.5t103 14.5q70 0 106 -21.5t36 -63.5v-425h-100v428h-116q-49 0 -67 -12t-18 -46v-370h-100z" />
    <glyph glyph-name="o" unicode="o" horiz-adv-x="554" 
d="M277 -10q-65 0 -107.5 11.5t-66.5 40t-33.5 79.5t-9.5 129t9.5 129t33.5 79.5t66.5 40t107.5 11.5q66 0 108.5 -11.5t66 -40t33 -79t9.5 -129.5q0 -78 -9.5 -129t-33.5 -79.5t-66.5 -40t-107.5 -11.5zM164 72h178q29 0 38.5 5t9.5 20v331h-178q-28 0 -38 -5t-10 -20v-331
z" />
    <glyph glyph-name="p" unicode="p" horiz-adv-x="569" 
d="M329 -15q-64 0 -104.5 10.5t-62 38.5t-29.5 80t-8 136q0 83 8 134t29.5 78.5t62 37.5t104.5 10q55 0 90 -11.5t54.5 -40t27.5 -79t8 -129.5t-8 -131t-28 -81t-55 -41t-89 -12zM190 67h168q27 0 36.5 5t9.5 20v336h-168q-26 0 -36 -4.5t-10 -15.5v-341zM90 -177v677h46
l54 -100v-565z" />
    <glyph glyph-name="q" unicode="q" horiz-adv-x="569" 
d="M240 -15q-54 0 -89 12t-55 41t-28 81t-8 131t8 129.5t27.5 79t54.5 40t90 11.5q65 0 105 -10t61.5 -37.5t29.5 -78.5t8 -134q0 -84 -8 -136t-29.5 -80t-61.5 -38.5t-105 -10.5zM165 67h168q27 0 36.5 5t9.5 20v336h-168q-26 0 -36 -4.5t-10 -15.5v-341zM479 -165
l-100 -12v577l54 100h46v-665z" />
    <glyph glyph-name="r" unicode="r" horiz-adv-x="334" 
d="M137 500l35 -79q45 41 77 62.5t60 31.5l10 -98q-21 -6 -45 -16.5t-45.5 -22.5t-38.5 -25v-353h-100v500h47z" />
    <glyph glyph-name="s" unicode="s" horiz-adv-x="481" 
d="M56 366q0 77 46 113t143 36q45 0 85.5 -5.5t80.5 -16.5l-14 -73q-25 7 -58.5 11.5t-63.5 4.5q-32 0 -61.5 -2.5t-52.5 -6.5v-118q87 -12 141 -24.5t83 -30.5t40 -45t11 -68q0 -56 -20.5 -90.5t-66.5 -50t-123 -15.5q-44 0 -89 7.5t-92 21.5l16 80q77 -30 164 -30
q30 0 52.5 3t53.5 11v118q-92 13 -147 25t-82.5 29.5t-36.5 45t-9 70.5z" />
    <glyph glyph-name="t" unicode="t" horiz-adv-x="354" 
d="M194 -10q-37 0 -55.5 18.5t-18.5 56.5v542l100 25v-558q14 -1 30 -2.5t41 -2.5l-6 -68q-31 -6 -53 -8.5t-38 -2.5zM50 431v69h259v-69h-259z" />
    <glyph glyph-name="u" unicode="u" horiz-adv-x="576" 
d="M486 500v-500h-46l-27 50q-40 -31 -87.5 -45.5t-108.5 -14.5q-68 0 -100 25.5t-32 79.5v405h100v-433h116q50 0 67.5 12t17.5 46v375h100z" />
    <glyph glyph-name="v" unicode="v" horiz-adv-x="460" 
d="M6 500h99l120 -415h10l120 415h99l-148 -500h-152z" />
    <glyph glyph-name="w" unicode="w" horiz-adv-x="702" 
d="M435 0l-118 500h80l95 -415h10l95 415h99l-123 -500h-138zM129 0l-123 500h99l95 -415h10l95 415h80l-118 -500h-138z" />
    <glyph glyph-name="x" unicode="x" horiz-adv-x="506" 
d="M373 0l-342 500h107l342 -500h-107zM26 0l178 273l59 -65l-131 -208h-106zM296 227l-58 65l131 208h106z" />
    <glyph glyph-name="y" unicode="y" horiz-adv-x="450" 
d="M149 30l-143 470h99l115 -385h10l115 385h99l-143 -470h-152zM93 -175q-22 0 -45.5 3t-41.5 8l4 53l69 9q38 5 59.5 14.5t34 30t23.5 57.5l9 30h96q-23 -77 -50.5 -122t-65 -64t-92.5 -19z" />
    <glyph glyph-name="z" unicode="z" horiz-adv-x="473" 
d="M309 422l-4 6h-237l-8 72h373v-55l-269 -367l3 -6h261v-72h-388v55z" />
    <glyph glyph-name="braceleft" unicode="{" horiz-adv-x="316" 
d="M183 -20l83 -7l-6 -78q-43 0 -76 2.5t-54.5 13t-31.5 33t-8 62.5l15 250l-65 17v76l65 17l-15 253q-2 40 6.5 62.5t29.5 33t54 13t80 2.5l6 -78l-83 -7l18 -198q5 -46 -9.5 -78t-46.5 -52v-12q32 -20 46.5 -52t9.5 -78z" />
    <glyph glyph-name="bar" unicode="|" horiz-adv-x="260" 
d="M100 704h60v-884h-60v884z" />
    <glyph glyph-name="braceright" unicode="}" horiz-adv-x="316" 
d="M133 -20l-18 195q-4 46 10.5 78t45.5 52v12q-31 20 -45.5 52t-10.5 78l18 198l-83 7l6 78q47 0 80 -2.5t54 -13t29.5 -33t6.5 -62.5l-15 -253l65 -17v-76l-65 -17l15 -250q2 -40 -8 -62.5t-31.5 -33t-54 -13t-76.5 -2.5l-6 78z" />
    <glyph glyph-name="asciitilde" unicode="~" horiz-adv-x="530" 
d="M450 273q-20 -18 -39.5 -25.5t-39.5 -7.5q-27 0 -53.5 10.5t-53 24.5t-53 24.5t-53.5 10.5q-19 0 -38.5 -7.5t-39.5 -24.5v75q20 17 39.5 24.5t38.5 7.5q27 0 53.5 -10.5t53 -24.5t53 -24.5t53.5 -10.5q20 0 39.5 7.5t39.5 25.5v-75z" />
    <glyph glyph-name="uni00A0" unicode="&#xa0;" horiz-adv-x="250" 
 />
    <glyph glyph-name="exclamdown" unicode="&#xa1;" horiz-adv-x="250" 
d="M157 313l30 -431q0 -7 -4.5 -12.5t-19.5 -5.5h-74q-15 0 -20 5.5t-5 12.5l30 431h63zM190 447q0 -36 -12 -52.5t-53 -16.5q-40 0 -52.5 16.5t-12.5 52.5q0 37 12.5 52.5t52.5 15.5q41 0 53 -15.5t12 -52.5z" />
    <glyph glyph-name="cent" unicode="&#xa2;" horiz-adv-x="453" 
d="M264 89l-18 -219h-64l18 219h64zM241 552l18 202h64l-18 -202h-64zM240 55q-54 0 -89 11.5t-55 40.5t-28 79.5t-8 128.5t8 129t28 79.5t55 40t89 11.5q27 0 56.5 -2t57 -6t48.5 -10l-12 -76q-36 8 -70 11.5t-69 3.5q-49 0 -68 -18.5t-19 -65.5v-267q36 -11 102 -11
q32 0 62.5 5.5t73.5 18.5l11 -73q-34 -14 -79.5 -22t-93.5 -8z" />
    <glyph glyph-name="sterling" unicode="&#xa3;" horiz-adv-x="526" 
d="M109 49l29 342q8 92 32 146.5t70 78.5t119 24q17 0 41 -3t49.5 -7.5t45.5 -10.5l-21 -82q-27 8 -65 13t-69 5q-48 0 -67.5 -21t-25.5 -79l-32 -381zM60 0v48l64 35h349l13 -83h-426zM60 287v57h327l-5 -57h-322z" />
    <glyph glyph-name="currency" unicode="&#xa4;" horiz-adv-x="680" 
d="M341 129q-66 0 -107.5 9t-64 32t-31 65t-8.5 108t9 108t32 65.5t64.5 32.5t105.5 9t105 -9t63.5 -32.5t31.5 -65.5t9 -108t-8.5 -108t-31.5 -65t-63.5 -32t-105.5 -9zM124 0l-57 35l122 168l57 -32zM304 211h143v227q0 23 -15.5 31t-60.5 8h-138v-229q0 -22 14 -29.5
t57 -7.5zM491 482l-57 31l123 173l56 -35zM556 0l-122 171l57 32l122 -168zM189 482l-122 169l56 35l123 -173z" />
    <glyph glyph-name="yen" unicode="&#xa5;" horiz-adv-x="490" 
d="M60 150v57h380v-57h-380zM60 287v57h141v-57h-141zM299 287v57h141v-57h-141zM227 277l149 348h104l-185 -410v-215h-100v215l-185 410h104l149 -348h-36z" />
    <glyph glyph-name="brokenbar" unicode="&#xa6;" horiz-adv-x="260" 
d="M100 704h60v-336h-60v336zM100 156h60v-336h-60v336z" />
    <glyph glyph-name="section" unicode="&#xa7;" horiz-adv-x="477" 
d="M162 371v-178q87 -12 141.5 -24t83.5 -28.5t39.5 -42t10.5 -63.5q0 -56 -20.5 -90.5t-66.5 -50t-123 -15.5q-43 0 -88 7.5t-93 21.5l16 80q77 -30 164 -30q32 0 54.5 3t51.5 11v118q-92 14 -147 27t-82.5 31t-36.5 47t-9 75q0 47 19 76.5t58 44.5zM332 121v188
q-92 13 -147 25t-82.5 28t-36.5 41.5t-9 65.5q0 77 46 113t143 36q45 0 85.5 -5.5t80.5 -16.5l-14 -73q-25 8 -58.5 12t-63.5 4t-60 -2t-54 -7v-118q86 -13 140 -26.5t83.5 -32.5t40.5 -47.5t11 -71.5q0 -50 -18 -80t-57 -46z" />
    <glyph glyph-name="dieresis" unicode="&#xa8;" horiz-adv-x="600" 
d="M285 575q-33 0 -42.5 13t-9.5 44q0 32 9.5 45t42.5 13q32 0 41.5 -13t9.5 -45q0 -31 -9.5 -44t-41.5 -13zM102 575q-33 0 -42.5 13t-9.5 44q0 32 9.5 45t42.5 13q32 0 41.5 -13t9.5 -45q0 -31 -9.5 -44t-41.5 -13z" />
    <glyph glyph-name="copyright" unicode="&#xa9;" horiz-adv-x="563" 
d="M282 179q-130 0 -191 61t-61 191t61 190.5t191 60.5t190.5 -60.5t60.5 -190.5t-60.5 -191t-190.5 -61zM289 274q-67 0 -94.5 35t-27.5 120q0 86 27.5 121.5t94.5 35.5q20 0 44.5 -3.5t35.5 -8.5l-12 -60q-28 7 -61 7q-25 0 -35 -5t-10 -19v-152q8 -2 17.5 -3t20.5 -1
q18 0 38 3t36 8l6 -66q-15 -7 -33.5 -9.5t-46.5 -2.5zM282 210q80 0 127 21.5t68 70t21 129.5t-21 129.5t-68 69.5t-127 21t-127.5 -21t-68.5 -69.5t-21 -129.5t21 -129.5t68.5 -70t127.5 -21.5z" />
    <glyph glyph-name="ordfeminine" unicode="&#xaa;" horiz-adv-x="396" 
d="M150 342q-65 0 -93.5 27.5t-28.5 90.5q0 39 8 62.5t31.5 36t68.5 17t118 4.5h36v-49h-121q-36 0 -49.5 -9t-13.5 -35v-80h98q36 0 49 9t13 34v223q-16 4 -34 5.5t-41 1.5q-30 0 -64 -5t-70 -13l-11 62q31 11 75 17t84 6q81 0 114.5 -25t33.5 -87l-1 -285h-40l-23 39
q-56 -47 -139 -47zM45 247q0 26 9 34t36 8h245v-29q0 -25 -8.5 -33t-36.5 -8h-245v28z" />
    <glyph glyph-name="guillemotleft" unicode="&#xab;" horiz-adv-x="432" 
d="M372 56l-151 153v81l151 154l35 -27l-96 -167l96 -167zM176 56l-151 153v81l151 154l35 -27l-96 -167l96 -167z" />
    <glyph glyph-name="logicalnot" unicode="&#xac;" horiz-adv-x="530" 
d="M380 152v120h70v-120h-70zM80 352h370v-80h-370v80z" />
    <glyph glyph-name="registered" unicode="&#xae;" horiz-adv-x="563" 
d="M30 431q0 130 61 190.5t191 60.5t190.5 -60.5t60.5 -190.5t-60.5 -191t-190.5 -61t-191 61t-61 191zM65 431q0 -81 21 -129.5t68.5 -70t127.5 -21.5t127 21.5t68 70t21 129.5t-21 129.5t-68 69.5t-127 21t-127.5 -21t-68.5 -69.5t-21 -129.5zM326 281l-42 97h-37v-97h-77
v300h132q100 0 100 -101q0 -69 -45 -91l56 -108h-87zM247 437h41q19 0 26 4.5t7 16.5v41q0 12 -6.5 16t-26.5 4h-41v-82z" />
    <glyph glyph-name="macron" unicode="&#xaf;" horiz-adv-x="600" 
d="M123 586q-31 0 -38 10.5t-7 35.5v35h199q31 0 37.5 -9.5t6.5 -35.5v-36h-198z" />
    <glyph glyph-name="degree" unicode="&#xb0;" horiz-adv-x="407" 
d="M56 531q0 73 34.5 110t113.5 37t113 -37t34 -110t-34 -110.5t-113 -37.5t-113.5 37.5t-34.5 110.5zM140 461h63q28 0 45 5.5t17 33.5v100h-57q-31 0 -49.5 -5t-18.5 -33v-101z" />
    <glyph glyph-name="plusminus" unicode="&#xb1;" horiz-adv-x="531" 
d="M81 402h370v-80h-370v80zM226 177v370h80v-370h-80zM80 80h370v-80h-370v80zM81 402h370v-80h-370v80zM80 80h370v-80h-370v80z" />
    <glyph glyph-name="uni00B2" unicode="&#xb2;" horiz-adv-x="429" 
d="M64 324v55q0 38 6.5 63t29 44.5t69 40.5t126.5 51v102q-11 2 -27 3.5t-39 1.5q-32 0 -71 -3.5t-75 -9.5l-8 51q29 8 66 12.5t75 4.5q77 0 112 -25t35 -78q0 -31 -6.5 -52t-29.5 -39.5t-71 -40.5t-131 -54v-73h230v-54h-291z" />
    <glyph glyph-name="uni00B3" unicode="&#xb3;" horiz-adv-x="400" 
d="M180 314q-37 0 -70.5 4.5t-59.5 12.5l7 51q32 -6 68.5 -9t67.5 -3q29 0 48 1t29 3v124l-122 15v34l122 18v115q-10 2 -24 3.5t-37 1.5q-31 0 -68 -3.5t-68 -9.5l-7 51q27 8 62.5 12.5t74.5 4.5q135 0 135 -110q0 -34 -13.5 -59.5t-39.5 -39.5v-3q28 -14 40.5 -37.5
t12.5 -60.5q0 -38 -12 -64t-46 -39t-100 -13z" />
    <glyph glyph-name="acute" unicode="&#xb4;" horiz-adv-x="600" 
d="M154 564l-22 34l152 110q5 4 8 4q4 0 8 -5l43 -53q7 -8 7 -12q0 -5 -7 -11l-27 -22q-4 -4 -8.5 -6t-13.5 -4z" />
    <glyph glyph-name="uni03BC" unicode="&#xb5;" horiz-adv-x="581" 
d="M90 -165v665h100v-433h104q24 0 46.5 5t36.5 21.5t14 51.5v355h100v-500h-47l-26 50q-18 -19 -43 -30t-51 -15.5t-48 -4.5h-103l-32 -165h-51z" />
    <glyph glyph-name="paragraph" unicode="&#xb6;" horiz-adv-x="604" 
d="M110 35l95 32v230q-67 9 -101 50t-34 111q0 167 187 167h267v-83h-50v-542h-95v542h-110v-542h-159v35z" />
    <glyph glyph-name="periodcentered" unicode="&#xb7;" horiz-adv-x="230" 
d="M50 236q0 36 12.5 52.5t52.5 16.5t52.5 -16.5t12.5 -52.5q0 -37 -12.5 -52.5t-52.5 -15.5t-52.5 15.5t-12.5 52.5z" />
    <glyph glyph-name="cedilla" unicode="&#xb8;" horiz-adv-x="600" 
d="M65 -172q-33 0 -68 16l7 49h35q24 0 33.5 7t9.5 25v96h20q26 -14 42.5 -45t16.5 -67q0 -37 -26 -59t-70 -22z" />
    <glyph glyph-name="uni00B9" unicode="&#xb9;" horiz-adv-x="355" 
d="M53 324v54h103v297l-110 -12v58l173 19v-362h86v-54h-252z" />
    <glyph glyph-name="ordmasculine" unicode="&#xba;" horiz-adv-x="500" 
d="M250 352q-54 0 -89 9.5t-55 32.5t-28 63.5t-8 102.5t8 102.5t28 63.5t55 32.5t89 9.5q55 0 90 -9.5t54.5 -32.5t27.5 -63.5t8 -102.5t-8 -102.5t-27.5 -63.5t-55 -32.5t-89.5 -9.5zM159 422h143q23 0 31 4t8 16v256h-143q-22 0 -30.5 -4t-8.5 -16v-256zM92 248
q0 26 10 34t39 8h268v-29q0 -25 -9.5 -33t-39.5 -8h-268v28z" />
    <glyph glyph-name="guillemotright" unicode="&#xbb;" horiz-adv-x="432" 
d="M60 444l151 -153v-81l-151 -154l-35 27l96 167l-96 167zM256 444l151 -153v-81l-151 -154l-35 27l96 167l-96 167z" />
    <glyph glyph-name="onequarter" unicode="&#xbc;" horiz-adv-x="969" 
d="M53 224v54h103v297l-110 -12v58l173 19v-362h86v-54h-252zM369 -15q-7 -12 -14.5 -18.5t-28.5 -6.5h-21l239 680q5 13 13.5 19t29.5 6h21zM799 90h-231v33l163 283h131v-262h46v-54h-46v-90h-63v90zM645 144h154v214h-28z" />
    <glyph glyph-name="onehalf" unicode="&#xbd;" horiz-adv-x="987" 
d="M53 224v54h103v297l-110 -12v58l173 19v-362h86v-54h-252zM369 -15q-7 -12 -14.5 -18.5t-28.5 -6.5h-21l239 680q5 13 13.5 19t29.5 6h21zM622 0v55q0 38 6.5 63t29 44.5t69 40.5t126.5 51v102q-11 2 -27 3.5t-39 1.5q-32 0 -71 -3.5t-75 -9.5l-8 51q29 8 66 12.5t75 4.5
q77 0 112 -25t35 -78q0 -31 -6.5 -52t-29.5 -39.5t-71 -40.5t-131 -54v-73h230v-54h-291z" />
    <glyph glyph-name="threequarters" unicode="&#xbe;" horiz-adv-x="1014" 
d="M180 214q-37 0 -70.5 4.5t-59.5 12.5l7 51q32 -6 68.5 -9t67.5 -3q29 0 48 1t29 3v124l-122 15v34l122 18v115q-10 2 -24 3.5t-37 1.5q-31 0 -68 -3.5t-68 -9.5l-7 51q27 8 62.5 12.5t74.5 4.5q135 0 135 -110q0 -34 -13.5 -59.5t-39.5 -39.5v-3q28 -14 40.5 -37.5
t12.5 -60.5q0 -38 -12 -64t-46 -39t-100 -13zM414 -15q-7 -12 -14.5 -18.5t-28.5 -6.5h-21l239 680q5 13 13.5 19t29.5 6h21zM844 90h-231v33l163 283h131v-262h46v-54h-46v-90h-63v90zM690 144h154v214h-28z" />
    <glyph glyph-name="questiondown" unicode="&#xbf;" horiz-adv-x="418" 
d="M276 313l11 -169q1 -13 -12.5 -21.5t-52.5 -22.5l-95 -33v-117q20 -3 43 -4.5t46 -1.5q27 0 68 5t88 15l13 -68q-44 -13 -86.5 -20t-80.5 -7q-71 0 -114.5 13.5t-62.5 43.5t-19 80q0 35 6.5 58t25 40.5t56 34.5t98.5 38l5 136h63zM309 447q0 -36 -12 -52.5t-53 -16.5
q-40 0 -52.5 16.5t-12.5 52.5q0 37 12.5 52.5t52.5 15.5q41 0 53 -15.5t12 -52.5z" />
    <glyph glyph-name="Agrave" unicode="&#xc0;" horiz-adv-x="551" 
d="M15 0l185 625h151l185 -625h-100l-156 533h-9l-156 -533h-100zM107 140v79h339v-79h-339zM363 679l-140 35q-14 4 -22 10l-27 22q-7 6 -7 11q0 4 7 12l43 53q4 5 8 5q3 0 8 -4l152 -110z" />
    <glyph glyph-name="Aacute" unicode="&#xc1;" horiz-adv-x="551" 
d="M15 0l185 625h151l185 -625h-100l-156 533h-9l-156 -533h-100zM107 140v79h339v-79h-339zM213 689l-22 34l152 110q5 4 8 4q4 0 8 -5l43 -53q7 -8 7 -12q0 -5 -7 -11l-27 -22q-4 -4 -8.5 -6t-13.5 -4z" />
    <glyph glyph-name="Acircumflex" unicode="&#xc2;" horiz-adv-x="551" 
d="M15 0l185 625h151l185 -625h-100l-156 533h-9l-156 -533h-100zM107 140v79h339v-79h-339zM193 681l-35 34l99 116q5 6 10 6h18q6 0 10 -6l99 -116l-35 -34l-83 64z" />
    <glyph glyph-name="Atilde" unicode="&#xc3;" horiz-adv-x="551" 
d="M15 0l185 625h151l185 -625h-100l-156 533h-9l-156 -533h-100zM107 140v79h339v-79h-339zM297 689q-9 0 -17.5 3t-20 12.5t-32.5 27.5l-66 -33l-28 46q39 29 61.5 44t36.5 20.5t24 5.5q9 0 16.5 -3t19.5 -12t34 -28l66 33l28 -46q-34 -26 -57 -41.5t-38 -22t-27 -6.5z
" />
    <glyph glyph-name="Adieresis" unicode="&#xc4;" horiz-adv-x="551" 
d="M15 0l185 625h151l185 -625h-100l-156 533h-9l-156 -533h-100zM107 140v79h339v-79h-339zM368 700q-33 0 -42.5 13t-9.5 44q0 32 9.5 45t42.5 13q32 0 41.5 -13t9.5 -45q0 -31 -9.5 -44t-41.5 -13zM185 700q-33 0 -42.5 13t-9.5 44q0 32 9.5 45t42.5 13q32 0 41.5 -13
t9.5 -45q0 -31 -9.5 -44t-41.5 -13z" />
    <glyph glyph-name="Aring" unicode="&#xc5;" horiz-adv-x="551" 
d="M15 0l185 625h151l185 -625h-100l-156 533h-9l-156 -533h-100zM107 140v79h339v-79h-339zM276 664q-53 0 -76 25t-23 74t23 73.5t76 24.5t75.5 -24.5t22.5 -73.5t-22.5 -74t-75.5 -25zM233 716h42q19 0 30.5 3.5t11.5 22.5v67h-39q-20 0 -32.5 -3.5t-12.5 -21.5v-68z" />
    <glyph glyph-name="AE" unicode="&#xc6;" horiz-adv-x="758" 
d="M15 0l162 625h481l-15 -90h-254l48 -184h179v-85h-157l45 -176h204v-90h-286l-34 137h-234l-33 -137h-106zM176 227h190l-74 306h-41z" />
    <glyph glyph-name="Ccedilla" unicode="&#xc7;" horiz-adv-x="489" 
d="M464 11q-37 -14 -77 -20t-93 -6q-70 0 -114.5 15.5t-69.5 52t-35 100t-10 159.5q0 98 10.5 161.5t36.5 100t72.5 51.5t119.5 15q21 0 48.5 -2.5t54 -7t44.5 -11.5l-13 -82q-25 6 -55 10t-57 6t-44 2q-58 0 -84 -13.5t-26 -62.5v-396q26 -7 56.5 -11t62.5 -4q42 0 83.5 7
t79.5 18zM228 -172q-33 0 -68 16l7 49h35q24 0 33.5 7t9.5 25v96h20q26 -14 42.5 -45t16.5 -67q0 -37 -26 -59t-70 -22z" />
    <glyph glyph-name="Egrave" unicode="&#xc8;" horiz-adv-x="515" 
d="M190 273v-190h275v-83h-375v625h372l-12 -83h-260v-190h237v-79h-237zM368 679l-140 35q-14 4 -22 10l-27 22q-7 6 -7 11q0 4 7 12l43 53q4 5 8 5q3 0 8 -4l152 -110z" />
    <glyph glyph-name="Eacute" unicode="&#xc9;" horiz-adv-x="515" 
d="M190 273v-190h275v-83h-375v625h372l-12 -83h-260v-190h237v-79h-237zM218 689l-22 34l152 110q5 4 8 4q4 0 8 -5l43 -53q7 -8 7 -12q0 -5 -7 -11l-27 -22q-4 -4 -8.5 -6t-13.5 -4z" />
    <glyph glyph-name="Ecircumflex" unicode="&#xca;" horiz-adv-x="515" 
d="M190 273v-190h275v-83h-375v625h372l-12 -83h-260v-190h237v-79h-237zM198 681l-35 34l99 116q5 6 10 6h18q6 0 10 -6l99 -116l-35 -34l-83 64z" />
    <glyph glyph-name="Edieresis" unicode="&#xcb;" horiz-adv-x="515" 
d="M190 273v-190h275v-83h-375v625h372l-12 -83h-260v-190h237v-79h-237zM373 700q-33 0 -42.5 13t-9.5 44q0 32 9.5 45t42.5 13q32 0 41.5 -13t9.5 -45q0 -31 -9.5 -44t-41.5 -13zM190 700q-33 0 -42.5 13t-9.5 44q0 32 9.5 45t42.5 13q32 0 41.5 -13t9.5 -45
q0 -31 -9.5 -44t-41.5 -13z" />
    <glyph glyph-name="Igrave" unicode="&#xcc;" horiz-adv-x="280" 
d="M90 625h100v-625h-100v625zM227 679l-140 35q-14 4 -22 10l-27 22q-7 6 -7 11q0 4 7 12l43 53q4 5 8 5q3 0 8 -4l152 -110z" />
    <glyph glyph-name="Iacute" unicode="&#xcd;" horiz-adv-x="280" 
d="M90 625h100v-625h-100v625zM77 689l-22 34l152 110q5 4 8 4q4 0 8 -5l43 -53q7 -8 7 -12q0 -5 -7 -11l-27 -22q-4 -4 -8.5 -6t-13.5 -4z" />
    <glyph glyph-name="Icircumflex" unicode="&#xce;" horiz-adv-x="280" 
d="M90 625h100v-625h-100v625zM57 681l-35 34l99 116q5 6 10 6h18q6 0 10 -6l99 -116l-35 -34l-83 64z" />
    <glyph glyph-name="Idieresis" unicode="&#xcf;" horiz-adv-x="280" 
d="M90 625h100v-625h-100v625zM232 700q-33 0 -42.5 13t-9.5 44q0 32 9.5 45t42.5 13q32 0 41.5 -13t9.5 -45q0 -31 -9.5 -44t-41.5 -13zM49 700q-33 0 -42.5 13t-9.5 44q0 32 9.5 45t42.5 13q32 0 41.5 -13t9.5 -45q0 -31 -9.5 -44t-41.5 -13z" />
    <glyph glyph-name="Eth" unicode="&#xd0;" horiz-adv-x="624" 
d="M90 625h224q76 0 124 -12.5t74.5 -46.5t36.5 -95t10 -159q0 -97 -10 -158.5t-36.5 -95t-74.5 -46t-124 -12.5h-224v625zM190 542v-459h183q44 0 61 16t17 57v313q0 41 -17 57t-61 16h-183zM28 306q0 26 8 34t33 8h223v-29q0 -25 -7.5 -33t-33.5 -8h-223v28z" />
    <glyph glyph-name="Ntilde" unicode="&#xd1;" horiz-adv-x="661" 
d="M95 0v625h97l242 -390q15 -25 20 -35.5t6 -26.5h6v452h100v-625h-97l-242 390q-15 25 -19.5 35.5t-6.5 26.5h-6v-452h-100zM362 689q-9 0 -17.5 3t-20 12.5t-32.5 27.5l-66 -33l-28 46q39 29 61.5 44t36.5 20.5t24 5.5q9 0 16.5 -3t19.5 -12t34 -28l66 33l28 -46
q-34 -26 -57 -41.5t-38 -22t-27 -6.5z" />
    <glyph glyph-name="Ograve" unicode="&#xd2;" horiz-adv-x="636" 
d="M65 312q0 102 10.5 166.5t37.5 99.5t76.5 48.5t128.5 13.5q78 0 128 -13.5t77 -49t37.5 -99.5t10.5 -166t-10.5 -166t-37.5 -99t-77 -48.5t-128 -13.5q-79 0 -128.5 13.5t-76.5 48.5t-37.5 99t-10.5 166zM172 70h206q48 0 67 16t19 57v412h-207q-48 0 -66.5 -16
t-18.5 -57v-412zM405 679l-140 35q-14 4 -22 10l-27 22q-7 6 -7 11q0 4 7 12l43 53q4 5 8 5q3 0 8 -4l152 -110z" />
    <glyph glyph-name="Oacute" unicode="&#xd3;" horiz-adv-x="636" 
d="M65 312q0 102 10.5 166.5t37.5 99.5t76.5 48.5t128.5 13.5q78 0 128 -13.5t77 -49t37.5 -99.5t10.5 -166t-10.5 -166t-37.5 -99t-77 -48.5t-128 -13.5q-79 0 -128.5 13.5t-76.5 48.5t-37.5 99t-10.5 166zM172 70h206q48 0 67 16t19 57v412h-207q-48 0 -66.5 -16
t-18.5 -57v-412zM255 689l-22 34l152 110q5 4 8 4q4 0 8 -5l43 -53q7 -8 7 -12q0 -5 -7 -11l-27 -22q-4 -4 -8.5 -6t-13.5 -4z" />
    <glyph glyph-name="Ocircumflex" unicode="&#xd4;" horiz-adv-x="636" 
d="M65 312q0 102 10.5 166.5t37.5 99.5t76.5 48.5t128.5 13.5q78 0 128 -13.5t77 -49t37.5 -99.5t10.5 -166t-10.5 -166t-37.5 -99t-77 -48.5t-128 -13.5q-79 0 -128.5 13.5t-76.5 48.5t-37.5 99t-10.5 166zM172 70h206q48 0 67 16t19 57v412h-207q-48 0 -66.5 -16
t-18.5 -57v-412zM235 681l-35 34l99 116q5 6 10 6h18q6 0 10 -6l99 -116l-35 -34l-83 64z" />
    <glyph glyph-name="Otilde" unicode="&#xd5;" horiz-adv-x="636" 
d="M65 312q0 102 10.5 166.5t37.5 99.5t76.5 48.5t128.5 13.5q78 0 128 -13.5t77 -49t37.5 -99.5t10.5 -166t-10.5 -166t-37.5 -99t-77 -48.5t-128 -13.5q-79 0 -128.5 13.5t-76.5 48.5t-37.5 99t-10.5 166zM172 70h206q48 0 67 16t19 57v412h-207q-48 0 -66.5 -16
t-18.5 -57v-412zM339 689q-9 0 -17.5 3t-20 12.5t-32.5 27.5l-66 -33l-28 46q39 29 61.5 44t36.5 20.5t24 5.5q9 0 16.5 -3t19.5 -12t34 -28l66 33l28 -46q-34 -26 -57 -41.5t-38 -22t-27 -6.5z" />
    <glyph glyph-name="Odieresis" unicode="&#xd6;" horiz-adv-x="636" 
d="M65 312q0 102 10.5 166.5t37.5 99.5t76.5 48.5t128.5 13.5q78 0 128 -13.5t77 -49t37.5 -99.5t10.5 -166t-10.5 -166t-37.5 -99t-77 -48.5t-128 -13.5q-79 0 -128.5 13.5t-76.5 48.5t-37.5 99t-10.5 166zM172 70h206q48 0 67 16t19 57v412h-207q-48 0 -66.5 -16
t-18.5 -57v-412zM410 700q-33 0 -42.5 13t-9.5 44q0 32 9.5 45t42.5 13q32 0 41.5 -13t9.5 -45q0 -31 -9.5 -44t-41.5 -13zM227 700q-33 0 -42.5 13t-9.5 44q0 32 9.5 45t42.5 13q32 0 41.5 -13t9.5 -45q0 -31 -9.5 -44t-41.5 -13z" />
    <glyph glyph-name="multiply" unicode="&#xd7;" horiz-adv-x="530" 
d="M85 188l304 304l56 -56l-304 -304zM389 132l-304 304l56 56l304 -304z" />
    <glyph glyph-name="Oslash" unicode="&#xd8;" horiz-adv-x="636" 
d="M190 -47q-7 -17 -16.5 -22.5t-26.5 -5.5h-31l330 748q8 17 17 22.5t26 5.5h31zM65 312q0 102 10.5 166.5t37.5 99.5t76.5 48.5t128.5 13.5q78 0 128 -13.5t77 -49t37.5 -99.5t10.5 -166t-10.5 -166t-37.5 -99t-77 -48.5t-128 -13.5q-79 0 -128.5 13.5t-76.5 48.5
t-37.5 99t-10.5 166zM172 70h206q48 0 67 16t19 57v412h-207q-48 0 -66.5 -16t-18.5 -57v-412z" />
    <glyph glyph-name="Ugrave" unicode="&#xd9;" horiz-adv-x="638" 
d="M319 -15q-73 0 -119.5 9t-72.5 31t-36.5 62t-10.5 102v436h100v-555h144q55 0 83.5 4.5t39.5 16t11 32.5v502h100v-436q0 -62 -10.5 -102t-36.5 -62t-72.5 -31t-119.5 -9zM407 679l-140 35q-14 4 -22 10l-27 22q-7 6 -7 11q0 4 7 12l43 53q4 5 8 5q3 0 8 -4l152 -110z
" />
    <glyph glyph-name="Uacute" unicode="&#xda;" horiz-adv-x="638" 
d="M319 -15q-73 0 -119.5 9t-72.5 31t-36.5 62t-10.5 102v436h100v-555h144q55 0 83.5 4.5t39.5 16t11 32.5v502h100v-436q0 -62 -10.5 -102t-36.5 -62t-72.5 -31t-119.5 -9zM257 689l-22 34l152 110q5 4 8 4q4 0 8 -5l43 -53q7 -8 7 -12q0 -5 -7 -11l-27 -22q-4 -4 -8.5 -6
t-13.5 -4z" />
    <glyph glyph-name="Ucircumflex" unicode="&#xdb;" horiz-adv-x="638" 
d="M319 -15q-73 0 -119.5 9t-72.5 31t-36.5 62t-10.5 102v436h100v-555h144q55 0 83.5 4.5t39.5 16t11 32.5v502h100v-436q0 -62 -10.5 -102t-36.5 -62t-72.5 -31t-119.5 -9zM237 681l-35 34l99 116q5 6 10 6h18q6 0 10 -6l99 -116l-35 -34l-83 64z" />
    <glyph glyph-name="Udieresis" unicode="&#xdc;" horiz-adv-x="638" 
d="M319 -15q-73 0 -119.5 9t-72.5 31t-36.5 62t-10.5 102v436h100v-555h144q55 0 83.5 4.5t39.5 16t11 32.5v502h100v-436q0 -62 -10.5 -102t-36.5 -62t-72.5 -31t-119.5 -9zM412 700q-33 0 -42.5 13t-9.5 44q0 32 9.5 45t42.5 13q32 0 41.5 -13t9.5 -45q0 -31 -9.5 -44
t-41.5 -13zM229 700q-33 0 -42.5 13t-9.5 44q0 32 9.5 45t42.5 13q32 0 41.5 -13t9.5 -45q0 -31 -9.5 -44t-41.5 -13z" />
    <glyph glyph-name="Yacute" unicode="&#xdd;" horiz-adv-x="490" 
d="M227 277l149 348h104l-185 -410v-215h-100v215l-185 410h104l149 -348h-36zM182 689l-22 34l152 110q5 4 8 4q4 0 8 -5l43 -53q7 -8 7 -12q0 -5 -7 -11l-27 -22q-4 -4 -8.5 -6t-13.5 -4z" />
    <glyph glyph-name="Thorn" unicode="&#xde;" horiz-adv-x="530" 
d="M335 522q66 0 104 -20t54.5 -66t16.5 -125q0 -112 -37 -160t-123 -48h-160v-103h-100v625h100v-103h145zM405 224v177q0 24 -15 33t-54 9h-146v-261h146q39 0 54 9t15 33z" />
    <glyph glyph-name="germandbls" unicode="&#xdf;" horiz-adv-x="630" 
d="M400 -15q-32 0 -68.5 6t-73.5 17l16 80q32 -11 68 -17.5t68 -6.5q26 0 44 1.5t31 5.5v125q-54 25 -86.5 41.5t-49 28.5t-22 23t-5.5 26q0 26 15 47t34 42t34 47t15 60q0 44 -29 64.5t-91 20.5q-16 0 -35.5 -1.5t-44.5 -6.5v-588h-100v431h-70v69h70q5 65 25.5 103
t60.5 55t106 17q106 0 157 -37t51 -113q0 -30 -10.5 -59t-34.5 -63t-65 -79q69 -30 107 -56.5t53 -57t15 -74.5q0 -79 -44.5 -115t-140.5 -36z" />
    <glyph glyph-name="agrave" unicode="&#xe0;" horiz-adv-x="545" 
d="M208 -10q-82 0 -117.5 34.5t-35.5 115.5q0 52 10 83.5t39.5 48t87.5 22t153 5.5h45v-65h-163q-47 0 -64 -12t-17 -46v-109h134q47 0 63.5 12t16.5 46v295q-37 11 -101 11q-39 0 -82 -6t-87 -18l-13 73q25 9 58 16t70 10.5t71 3.5q68 0 108.5 -13.5t58 -44t17.5 -82.5
v-370h-46l-27 50q-36 -31 -79.5 -45.5t-99.5 -14.5zM363 554l-140 35q-14 4 -22 10l-27 22q-7 6 -7 11q0 4 7 12l43 53q4 5 8 5q3 0 8 -4l152 -110z" />
    <glyph glyph-name="aacute" unicode="&#xe1;" horiz-adv-x="545" 
d="M208 -10q-82 0 -117.5 34.5t-35.5 115.5q0 52 10 83.5t39.5 48t87.5 22t153 5.5h45v-65h-163q-47 0 -64 -12t-17 -46v-109h134q47 0 63.5 12t16.5 46v295q-37 11 -101 11q-39 0 -82 -6t-87 -18l-13 73q25 9 58 16t70 10.5t71 3.5q68 0 108.5 -13.5t58 -44t17.5 -82.5
v-370h-46l-27 50q-36 -31 -79.5 -45.5t-99.5 -14.5zM213 564l-22 34l152 110q5 4 8 4q4 0 8 -5l43 -53q7 -8 7 -12q0 -5 -7 -11l-27 -22q-4 -4 -8.5 -6t-13.5 -4z" />
    <glyph glyph-name="acircumflex" unicode="&#xe2;" horiz-adv-x="545" 
d="M208 -10q-82 0 -117.5 34.5t-35.5 115.5q0 52 10 83.5t39.5 48t87.5 22t153 5.5h45v-65h-163q-47 0 -64 -12t-17 -46v-109h134q47 0 63.5 12t16.5 46v295q-37 11 -101 11q-39 0 -82 -6t-87 -18l-13 73q25 9 58 16t70 10.5t71 3.5q68 0 108.5 -13.5t58 -44t17.5 -82.5
v-370h-46l-27 50q-36 -31 -79.5 -45.5t-99.5 -14.5zM193 556l-35 34l99 116q5 6 10 6h18q6 0 10 -6l99 -116l-35 -34l-83 64z" />
    <glyph glyph-name="atilde" unicode="&#xe3;" horiz-adv-x="545" 
d="M208 -10q-82 0 -117.5 34.5t-35.5 115.5q0 52 10 83.5t39.5 48t87.5 22t153 5.5h45v-65h-163q-47 0 -64 -12t-17 -46v-109h134q47 0 63.5 12t16.5 46v295q-37 11 -101 11q-39 0 -82 -6t-87 -18l-13 73q25 9 58 16t70 10.5t71 3.5q68 0 108.5 -13.5t58 -44t17.5 -82.5
v-370h-46l-27 50q-36 -31 -79.5 -45.5t-99.5 -14.5zM297 564q-9 0 -17.5 3t-20 12.5t-32.5 27.5l-66 -33l-28 46q39 29 61.5 44t36.5 20.5t24 5.5q9 0 16.5 -3t19.5 -12t34 -28l66 33l28 -46q-34 -26 -57 -41.5t-38 -22t-27 -6.5z" />
    <glyph glyph-name="adieresis" unicode="&#xe4;" horiz-adv-x="545" 
d="M208 -10q-82 0 -117.5 34.5t-35.5 115.5q0 52 10 83.5t39.5 48t87.5 22t153 5.5h45v-65h-163q-47 0 -64 -12t-17 -46v-109h134q47 0 63.5 12t16.5 46v295q-37 11 -101 11q-39 0 -82 -6t-87 -18l-13 73q25 9 58 16t70 10.5t71 3.5q68 0 108.5 -13.5t58 -44t17.5 -82.5
v-370h-46l-27 50q-36 -31 -79.5 -45.5t-99.5 -14.5zM368 575q-33 0 -42.5 13t-9.5 44q0 32 9.5 45t42.5 13q32 0 41.5 -13t9.5 -45q0 -31 -9.5 -44t-41.5 -13zM185 575q-33 0 -42.5 13t-9.5 44q0 32 9.5 45t42.5 13q32 0 41.5 -13t9.5 -45q0 -31 -9.5 -44t-41.5 -13z" />
    <glyph glyph-name="aring" unicode="&#xe5;" horiz-adv-x="545" 
d="M208 -10q-82 0 -117.5 34.5t-35.5 115.5q0 52 10 83.5t39.5 48t87.5 22t153 5.5h45v-65h-163q-47 0 -64 -12t-17 -46v-109h134q47 0 63.5 12t16.5 46v295q-37 11 -101 11q-39 0 -82 -6t-87 -18l-13 73q25 9 58 16t70 10.5t71 3.5q68 0 108.5 -13.5t58 -44t17.5 -82.5
v-370h-46l-27 50q-36 -31 -79.5 -45.5t-99.5 -14.5zM276 539q-53 0 -76 25t-23 74t23 73.5t76 24.5t75.5 -24.5t22.5 -73.5t-22.5 -74t-75.5 -25zM233 591h42q19 0 30.5 3.5t11.5 22.5v67h-39q-20 0 -32.5 -3.5t-12.5 -21.5v-68z" />
    <glyph glyph-name="ae" unicode="&#xe6;" horiz-adv-x="837" 
d="M208 -10q-82 0 -117.5 34.5t-35.5 115.5q0 52 10 83.5t39.5 48t87.5 22t153 5.5h45v-65h-163q-47 0 -64 -12t-17 -46v-109h134q47 0 63.5 12t16.5 46v295q-37 11 -101 11q-39 0 -82 -6t-87 -18l-13 73q25 9 58 16t70 10.5t71 3.5q68 0 108.5 -13.5t58.5 -44t18 -82.5
v-320l-66 7q-37 -34 -82.5 -50.5t-104.5 -16.5zM550 -10q-76 0 -115 20t-58 67l20 372q23 32 63 46.5t107 14.5q79 0 122.5 -13t60.5 -45.5t17 -91.5q0 -52 -10.5 -83.5t-42 -48t-92 -22t-161.5 -5.5h-30v65h162q49 0 66.5 12t17.5 46v104h-133q-48 0 -65.5 -12t-17.5 -46
v-290q23 -6 48 -8.5t59 -2.5q40 0 79 5.5t94 18.5l13 -73q-39 -14 -93.5 -22t-110.5 -8z" />
    <glyph glyph-name="ccedilla" unicode="&#xe7;" horiz-adv-x="453" 
d="M240 -10q-54 0 -89 11.5t-55 40.5t-28 79.5t-8 128.5t8 129t28 79.5t55 40t89 11.5q27 0 56.5 -2t57 -6t48.5 -10l-12 -76q-36 8 -70 11.5t-69 3.5q-49 0 -68 -18.5t-19 -65.5v-267q36 -11 102 -11q32 0 62.5 5.5t73.5 18.5l11 -73q-34 -14 -79.5 -22t-93.5 -8zM200 -172
q-33 0 -68 16l7 49h35q24 0 33.5 7t9.5 25v96h20q26 -14 42.5 -45t16.5 -67q0 -37 -26 -59t-70 -22z" />
    <glyph glyph-name="egrave" unicode="&#xe8;" horiz-adv-x="541" 
d="M254 -10q-57 0 -95 12t-59.5 41t-30.5 79.5t-9 127.5q0 99 19 156t65.5 80.5t126.5 23.5q79 0 122.5 -13t60.5 -45.5t17 -91.5q0 -52 -10.5 -83.5t-42 -48t-92 -22t-161.5 -5.5h-30v65h162q49 0 66.5 12t17.5 46v104h-133q-48 0 -65.5 -12t-17.5 -46v-290q22 -6 47 -8.5
t60 -2.5q40 0 79 5.5t94 18.5l13 -73q-37 -14 -91.5 -22t-112.5 -8zM358 554l-140 35q-14 4 -22 10l-27 22q-7 6 -7 11q0 4 7 12l43 53q4 5 8 5q3 0 8 -4l152 -110z" />
    <glyph glyph-name="eacute" unicode="&#xe9;" horiz-adv-x="541" 
d="M254 -10q-57 0 -95 12t-59.5 41t-30.5 79.5t-9 127.5q0 99 19 156t65.5 80.5t126.5 23.5q79 0 122.5 -13t60.5 -45.5t17 -91.5q0 -52 -10.5 -83.5t-42 -48t-92 -22t-161.5 -5.5h-30v65h162q49 0 66.5 12t17.5 46v104h-133q-48 0 -65.5 -12t-17.5 -46v-290q22 -6 47 -8.5
t60 -2.5q40 0 79 5.5t94 18.5l13 -73q-37 -14 -91.5 -22t-112.5 -8zM208 564l-22 34l152 110q5 4 8 4q4 0 8 -5l43 -53q7 -8 7 -12q0 -5 -7 -11l-27 -22q-4 -4 -8.5 -6t-13.5 -4z" />
    <glyph glyph-name="ecircumflex" unicode="&#xea;" horiz-adv-x="541" 
d="M254 -10q-57 0 -95 12t-59.5 41t-30.5 79.5t-9 127.5q0 99 19 156t65.5 80.5t126.5 23.5q79 0 122.5 -13t60.5 -45.5t17 -91.5q0 -52 -10.5 -83.5t-42 -48t-92 -22t-161.5 -5.5h-30v65h162q49 0 66.5 12t17.5 46v104h-133q-48 0 -65.5 -12t-17.5 -46v-290q22 -6 47 -8.5
t60 -2.5q40 0 79 5.5t94 18.5l13 -73q-37 -14 -91.5 -22t-112.5 -8zM188 556l-35 34l99 116q5 6 10 6h18q6 0 10 -6l99 -116l-35 -34l-83 64z" />
    <glyph glyph-name="edieresis" unicode="&#xeb;" horiz-adv-x="541" 
d="M254 -10q-57 0 -95 12t-59.5 41t-30.5 79.5t-9 127.5q0 99 19 156t65.5 80.5t126.5 23.5q79 0 122.5 -13t60.5 -45.5t17 -91.5q0 -52 -10.5 -83.5t-42 -48t-92 -22t-161.5 -5.5h-30v65h162q49 0 66.5 12t17.5 46v104h-133q-48 0 -65.5 -12t-17.5 -46v-290q22 -6 47 -8.5
t60 -2.5q40 0 79 5.5t94 18.5l13 -73q-37 -14 -91.5 -22t-112.5 -8zM363 575q-33 0 -42.5 13t-9.5 44q0 32 9.5 45t42.5 13q32 0 41.5 -13t9.5 -45q0 -31 -9.5 -44t-41.5 -13zM180 575q-33 0 -42.5 13t-9.5 44q0 32 9.5 45t42.5 13q32 0 41.5 -13t9.5 -45q0 -31 -9.5 -44
t-41.5 -13z" />
    <glyph glyph-name="igrave" unicode="&#xec;" horiz-adv-x="280" 
d="M90 493l100 15v-508h-100v493zM227 554l-140 35q-14 4 -22 10l-27 22q-7 6 -7 11q0 4 7 12l43 53q4 5 8 5q3 0 8 -4l152 -110z" />
    <glyph glyph-name="iacute" unicode="&#xed;" horiz-adv-x="280" 
d="M90 493l100 15v-508h-100v493zM77 564l-22 34l152 110q5 4 8 4q4 0 8 -5l43 -53q7 -8 7 -12q0 -5 -7 -11l-27 -22q-4 -4 -8.5 -6t-13.5 -4z" />
    <glyph glyph-name="icircumflex" unicode="&#xee;" horiz-adv-x="280" 
d="M90 493l100 15v-508h-100v493zM57 556l-35 34l99 116q5 6 10 6h18q6 0 10 -6l99 -116l-35 -34l-83 64z" />
    <glyph glyph-name="idieresis" unicode="&#xef;" horiz-adv-x="280" 
d="M90 493l100 15v-508h-100v493zM232 575q-33 0 -42.5 13t-9.5 44q0 32 9.5 45t42.5 13q32 0 41.5 -13t9.5 -45q0 -31 -9.5 -44t-41.5 -13zM49 575q-33 0 -42.5 13t-9.5 44q0 32 9.5 45t42.5 13q32 0 41.5 -13t9.5 -45q0 -31 -9.5 -44t-41.5 -13z" />
    <glyph glyph-name="eth" unicode="&#xf0;" horiz-adv-x="557" 
d="M277 -10q-64 0 -105 10t-64.5 35t-33 69t-9.5 111q0 68 9.5 111.5t33 68.5t64.5 35t105 10h141l71 -82v-143q0 -67 -9.5 -111t-33 -69t-64.5 -35t-105 -10zM170 72h168q27 0 36.5 5t9.5 20v261h-168q-27 0 -36.5 -5t-9.5 -20v-261zM394 358q0 69 -28 144.5t-81 150.5
l86 24q36 -48 62.5 -104t41 -111.5t14.5 -103.5h-95zM276 495l-9 27q-6 18 -6 29q0 15 17 21l220 73l9 -27q6 -18 6 -29q0 -15 -17 -21z" />
    <glyph glyph-name="ntilde" unicode="&#xf1;" horiz-adv-x="576" 
d="M90 0v500h46l27 -50q38 31 83 45.5t103 14.5q70 0 106 -21.5t36 -63.5v-425h-100v428h-116q-49 0 -67 -12t-18 -46v-370h-100zM319 564q-9 0 -17.5 3t-20 12.5t-32.5 27.5l-66 -33l-28 46q39 29 61.5 44t36.5 20.5t24 5.5q9 0 16.5 -3t19.5 -12t34 -28l66 33l28 -46
q-34 -26 -57 -41.5t-38 -22t-27 -6.5z" />
    <glyph glyph-name="ograve" unicode="&#xf2;" horiz-adv-x="554" 
d="M277 -10q-65 0 -107.5 11.5t-66.5 40t-33.5 79.5t-9.5 129t9.5 129t33.5 79.5t66.5 40t107.5 11.5q66 0 108.5 -11.5t66 -40t33 -79t9.5 -129.5q0 -78 -9.5 -129t-33.5 -79.5t-66.5 -40t-107.5 -11.5zM164 72h178q29 0 38.5 5t9.5 20v331h-178q-28 0 -38 -5t-10 -20v-331
zM364 554l-140 35q-14 4 -22 10l-27 22q-7 6 -7 11q0 4 7 12l43 53q4 5 8 5q3 0 8 -4l152 -110z" />
    <glyph glyph-name="oacute" unicode="&#xf3;" horiz-adv-x="554" 
d="M277 -10q-65 0 -107.5 11.5t-66.5 40t-33.5 79.5t-9.5 129t9.5 129t33.5 79.5t66.5 40t107.5 11.5q66 0 108.5 -11.5t66 -40t33 -79t9.5 -129.5q0 -78 -9.5 -129t-33.5 -79.5t-66.5 -40t-107.5 -11.5zM164 72h178q29 0 38.5 5t9.5 20v331h-178q-28 0 -38 -5t-10 -20v-331
zM214 564l-22 34l152 110q5 4 8 4q4 0 8 -5l43 -53q7 -8 7 -12q0 -5 -7 -11l-27 -22q-4 -4 -8.5 -6t-13.5 -4z" />
    <glyph glyph-name="ocircumflex" unicode="&#xf4;" horiz-adv-x="554" 
d="M277 -10q-65 0 -107.5 11.5t-66.5 40t-33.5 79.5t-9.5 129t9.5 129t33.5 79.5t66.5 40t107.5 11.5q66 0 108.5 -11.5t66 -40t33 -79t9.5 -129.5q0 -78 -9.5 -129t-33.5 -79.5t-66.5 -40t-107.5 -11.5zM164 72h178q29 0 38.5 5t9.5 20v331h-178q-28 0 -38 -5t-10 -20v-331
zM194 556l-35 34l99 116q5 6 10 6h18q6 0 10 -6l99 -116l-35 -34l-83 64z" />
    <glyph glyph-name="otilde" unicode="&#xf5;" horiz-adv-x="554" 
d="M277 -10q-65 0 -107.5 11.5t-66.5 40t-33.5 79.5t-9.5 129t9.5 129t33.5 79.5t66.5 40t107.5 11.5q66 0 108.5 -11.5t66 -40t33 -79t9.5 -129.5q0 -78 -9.5 -129t-33.5 -79.5t-66.5 -40t-107.5 -11.5zM164 72h178q29 0 38.5 5t9.5 20v331h-178q-28 0 -38 -5t-10 -20v-331
zM298 564q-9 0 -17.5 3t-20 12.5t-32.5 27.5l-66 -33l-28 46q39 29 61.5 44t36.5 20.5t24 5.5q9 0 16.5 -3t19.5 -12t34 -28l66 33l28 -46q-34 -26 -57 -41.5t-38 -22t-27 -6.5z" />
    <glyph glyph-name="odieresis" unicode="&#xf6;" horiz-adv-x="554" 
d="M277 -10q-65 0 -107.5 11.5t-66.5 40t-33.5 79.5t-9.5 129t9.5 129t33.5 79.5t66.5 40t107.5 11.5q66 0 108.5 -11.5t66 -40t33 -79t9.5 -129.5q0 -78 -9.5 -129t-33.5 -79.5t-66.5 -40t-107.5 -11.5zM164 72h178q29 0 38.5 5t9.5 20v331h-178q-28 0 -38 -5t-10 -20v-331
zM369 575q-33 0 -42.5 13t-9.5 44q0 32 9.5 45t42.5 13q32 0 41.5 -13t9.5 -45q0 -31 -9.5 -44t-41.5 -13zM186 575q-33 0 -42.5 13t-9.5 44q0 32 9.5 45t42.5 13q32 0 41.5 -13t9.5 -45q0 -31 -9.5 -44t-41.5 -13z" />
    <glyph glyph-name="divide" unicode="&#xf7;" horiz-adv-x="530" 
d="M217 133q0 27 9 39t39 12t39.5 -12t9.5 -39q0 -28 -9.5 -39.5t-39.5 -11.5t-39 11.5t-9 39.5zM217 474q0 27 9 39t39 12t39.5 -12t9.5 -39q0 -28 -9.5 -39.5t-39.5 -11.5t-39 11.5t-9 39.5zM80 352h370v-80h-370v80z" />
    <glyph glyph-name="oslash" unicode="&#xf8;" horiz-adv-x="554" 
d="M277 -10q-65 0 -107.5 11.5t-66.5 40t-33.5 79.5t-9.5 129t9.5 129t33.5 79.5t66.5 40t107.5 11.5q66 0 108.5 -11.5t66 -40t33 -79t9.5 -129.5q0 -78 -9.5 -129t-33.5 -79.5t-66.5 -40t-107.5 -11.5zM164 72h178q29 0 38.5 5t9.5 20v331h-178q-28 0 -38 -5t-10 -20v-331
zM149 -78q-7 -15 -16.5 -20t-26.5 -5h-31l330 680q8 15 17 20t26 5h31z" />
    <glyph glyph-name="ugrave" unicode="&#xf9;" horiz-adv-x="576" 
d="M486 500v-500h-46l-27 50q-40 -31 -87.5 -45.5t-108.5 -14.5q-68 0 -100 25.5t-32 79.5v405h100v-433h116q50 0 67.5 12t17.5 46v375h100zM375 554l-140 35q-14 4 -22 10l-27 22q-7 6 -7 11q0 4 7 12l43 53q4 5 8 5q3 0 8 -4l152 -110z" />
    <glyph glyph-name="uacute" unicode="&#xfa;" horiz-adv-x="576" 
d="M486 500v-500h-46l-27 50q-40 -31 -87.5 -45.5t-108.5 -14.5q-68 0 -100 25.5t-32 79.5v405h100v-433h116q50 0 67.5 12t17.5 46v375h100zM225 564l-22 34l152 110q5 4 8 4q4 0 8 -5l43 -53q7 -8 7 -12q0 -5 -7 -11l-27 -22q-4 -4 -8.5 -6t-13.5 -4z" />
    <glyph glyph-name="ucircumflex" unicode="&#xfb;" horiz-adv-x="576" 
d="M486 500v-500h-46l-27 50q-40 -31 -87.5 -45.5t-108.5 -14.5q-68 0 -100 25.5t-32 79.5v405h100v-433h116q50 0 67.5 12t17.5 46v375h100zM205 556l-35 34l99 116q5 6 10 6h18q6 0 10 -6l99 -116l-35 -34l-83 64z" />
    <glyph glyph-name="udieresis" unicode="&#xfc;" horiz-adv-x="576" 
d="M486 500v-500h-46l-27 50q-40 -31 -87.5 -45.5t-108.5 -14.5q-68 0 -100 25.5t-32 79.5v405h100v-433h116q50 0 67.5 12t17.5 46v375h100zM380 575q-33 0 -42.5 13t-9.5 44q0 32 9.5 45t42.5 13q32 0 41.5 -13t9.5 -45q0 -31 -9.5 -44t-41.5 -13zM197 575q-33 0 -42.5 13
t-9.5 44q0 32 9.5 45t42.5 13q32 0 41.5 -13t9.5 -45q0 -31 -9.5 -44t-41.5 -13z" />
    <glyph glyph-name="yacute" unicode="&#xfd;" horiz-adv-x="450" 
d="M149 30l-143 470h99l115 -385h10l115 385h99l-143 -470h-152zM93 -175q-22 0 -45.5 3t-41.5 8l4 53l69 9q38 5 59.5 14.5t34 30t23.5 57.5l9 30h96q-23 -77 -50.5 -122t-65 -64t-92.5 -19zM162 564l-22 34l152 110q5 4 8 4q4 0 8 -5l43 -53q7 -8 7 -12q0 -5 -7 -11
l-27 -22q-4 -4 -8.5 -6t-13.5 -4z" />
    <glyph glyph-name="thorn" unicode="&#xfe;" horiz-adv-x="569" 
d="M329 -15q-64 0 -104.5 10.5t-62 38.5t-29.5 80t-8 136q0 83 8 134t29.5 78.5t62 37.5t104.5 10q55 0 90 -11.5t54.5 -40t27.5 -79t8 -129.5t-8 -131t-28 -81t-55 -41t-89 -12zM190 67h168q27 0 36.5 5t9.5 20v336h-168q-26 0 -36 -4.5t-10 -15.5v-341zM90 -177v827
l100 15v-830z" />
    <glyph glyph-name="ydieresis" unicode="&#xff;" horiz-adv-x="450" 
d="M149 30l-143 470h99l115 -385h10l115 385h99l-143 -470h-152zM93 -175q-22 0 -45.5 3t-41.5 8l4 53l69 9q38 5 59.5 14.5t34 30t23.5 57.5l9 30h96q-23 -77 -50.5 -122t-65 -64t-92.5 -19zM317 575q-33 0 -42.5 13t-9.5 44q0 32 9.5 45t42.5 13q32 0 41.5 -13t9.5 -45
q0 -31 -9.5 -44t-41.5 -13zM134 575q-33 0 -42.5 13t-9.5 44q0 32 9.5 45t42.5 13q32 0 41.5 -13t9.5 -45q0 -31 -9.5 -44t-41.5 -13z" />
    <glyph glyph-name="Amacron" unicode="&#x100;" horiz-adv-x="551" 
d="M15 0l185 625h151l185 -625h-100l-156 533h-9l-156 -533h-100zM107 140v79h339v-79h-339zM199 711q-31 0 -38 10.5t-7 35.5v35h199q31 0 37.5 -9.5t6.5 -35.5v-36h-198z" />
    <glyph glyph-name="amacron" unicode="&#x101;" horiz-adv-x="545" 
d="M208 -10q-82 0 -117.5 34.5t-35.5 115.5q0 52 10 83.5t39.5 48t87.5 22t153 5.5h45v-65h-163q-47 0 -64 -12t-17 -46v-109h134q47 0 63.5 12t16.5 46v295q-37 11 -101 11q-39 0 -82 -6t-87 -18l-13 73q25 9 58 16t70 10.5t71 3.5q68 0 108.5 -13.5t58 -44t17.5 -82.5
v-370h-46l-27 50q-36 -31 -79.5 -45.5t-99.5 -14.5zM199 586q-31 0 -38 10.5t-7 35.5v35h199q31 0 37.5 -9.5t6.5 -35.5v-36h-198z" />
    <glyph glyph-name="Abreve" unicode="&#x102;" horiz-adv-x="551" 
d="M15 0l185 625h151l185 -625h-100l-156 533h-9l-156 -533h-100zM107 140v79h339v-79h-339zM276 692q-42 0 -73.5 24.5t-44.5 83.5l65 11q6 -22 21.5 -34t31.5 -12q17 0 32 12t21 34l65 -11q-13 -55 -45 -81.5t-73 -26.5z" />
    <glyph glyph-name="abreve" unicode="&#x103;" horiz-adv-x="545" 
d="M208 -10q-82 0 -117.5 34.5t-35.5 115.5q0 52 10 83.5t39.5 48t87.5 22t153 5.5h45v-65h-163q-47 0 -64 -12t-17 -46v-109h134q47 0 63.5 12t16.5 46v295q-37 11 -101 11q-39 0 -82 -6t-87 -18l-13 73q25 9 58 16t70 10.5t71 3.5q68 0 108.5 -13.5t58 -44t17.5 -82.5
v-370h-46l-27 50q-36 -31 -79.5 -45.5t-99.5 -14.5zM276 567q-42 0 -73.5 24.5t-44.5 83.5l65 11q6 -22 21.5 -34t31.5 -12q17 0 32 12t21 34l65 -11q-13 -55 -45 -81.5t-73 -26.5z" />
    <glyph glyph-name="Aogonek" unicode="&#x104;" horiz-adv-x="551" 
d="M15 0l185 625h151l185 -625h-100l-156 533h-9l-156 -533h-100zM107 140v79h339v-79h-339zM484 -172q-42 0 -66.5 24t-24.5 65t37.5 70.5t95.5 36.5l10 -24l-20 -4q-28 -7 -36 -16t-8 -32v-21q0 -16 7.5 -25t21.5 -9h51l8 -48q-19 -8 -37.5 -12.5t-38.5 -4.5z" />
    <glyph glyph-name="aogonek" unicode="&#x105;" horiz-adv-x="545" 
d="M208 -10q-82 0 -117.5 34.5t-35.5 115.5q0 52 10 83.5t39.5 48t87.5 22t153 5.5h45v-65h-163q-47 0 -64 -12t-17 -46v-109h134q47 0 63.5 12t16.5 46v295q-37 11 -101 11q-39 0 -82 -6t-87 -18l-13 73q25 9 58 16t70 10.5t71 3.5q68 0 108.5 -13.5t58 -44t17.5 -82.5
v-370h-46l-27 50q-36 -31 -79.5 -45.5t-99.5 -14.5zM408 -172q-42 0 -66.5 24t-24.5 65t37.5 70.5t95.5 36.5l10 -24l-20 -4q-28 -7 -36 -16t-8 -32v-21q0 -16 7.5 -25t21.5 -9h51l8 -48q-19 -8 -37.5 -12.5t-38.5 -4.5z" />
    <glyph glyph-name="Cacute" unicode="&#x106;" horiz-adv-x="489" 
d="M464 11q-37 -14 -77 -20t-93 -6q-70 0 -114.5 15.5t-69.5 52t-35 100t-10 159.5q0 98 10.5 161.5t36.5 100t72.5 51.5t119.5 15q21 0 48.5 -2.5t54 -7t44.5 -11.5l-13 -82q-25 6 -55 10t-57 6t-44 2q-58 0 -84 -13.5t-26 -62.5v-396q26 -7 56.5 -11t62.5 -4q42 0 83.5 7
t79.5 18zM222 689l-22 34l152 110q5 4 8 4q4 0 8 -5l43 -53q7 -8 7 -12q0 -5 -7 -11l-27 -22q-4 -4 -8.5 -6t-13.5 -4z" />
    <glyph glyph-name="cacute" unicode="&#x107;" horiz-adv-x="453" 
d="M240 -10q-54 0 -89 11.5t-55 40.5t-28 79.5t-8 128.5t8 129t28 79.5t55 40t89 11.5q27 0 56.5 -2t57 -6t48.5 -10l-12 -76q-36 8 -70 11.5t-69 3.5q-49 0 -68 -18.5t-19 -65.5v-267q36 -11 102 -11q32 0 62.5 5.5t73.5 18.5l11 -73q-34 -14 -79.5 -22t-93.5 -8zM184 564
l-22 34l152 110q5 4 8 4q4 0 8 -5l43 -53q7 -8 7 -12q0 -5 -7 -11l-27 -22q-4 -4 -8.5 -6t-13.5 -4z" />
    <glyph glyph-name="Ccircumflex" unicode="&#x108;" horiz-adv-x="489" 
d="M464 11q-37 -14 -77 -20t-93 -6q-70 0 -114.5 15.5t-69.5 52t-35 100t-10 159.5q0 98 10.5 161.5t36.5 100t72.5 51.5t119.5 15q21 0 48.5 -2.5t54 -7t44.5 -11.5l-13 -82q-25 6 -55 10t-57 6t-44 2q-58 0 -84 -13.5t-26 -62.5v-396q26 -7 56.5 -11t62.5 -4q42 0 83.5 7
t79.5 18zM202 681l-35 34l99 116q5 6 10 6h18q6 0 10 -6l99 -116l-35 -34l-83 64z" />
    <glyph glyph-name="ccircumflex" unicode="&#x109;" horiz-adv-x="453" 
d="M240 -10q-54 0 -89 11.5t-55 40.5t-28 79.5t-8 128.5t8 129t28 79.5t55 40t89 11.5q27 0 56.5 -2t57 -6t48.5 -10l-12 -76q-36 8 -70 11.5t-69 3.5q-49 0 -68 -18.5t-19 -65.5v-267q36 -11 102 -11q32 0 62.5 5.5t73.5 18.5l11 -73q-34 -14 -79.5 -22t-93.5 -8zM164 556
l-35 34l99 116q5 6 10 6h18q6 0 10 -6l99 -116l-35 -34l-83 64z" />
    <glyph glyph-name="Cdotaccent" unicode="&#x10a;" horiz-adv-x="489" 
d="M464 11q-37 -14 -77 -20t-93 -6q-70 0 -114.5 15.5t-69.5 52t-35 100t-10 159.5q0 98 10.5 161.5t36.5 100t72.5 51.5t119.5 15q21 0 48.5 -2.5t54 -7t44.5 -11.5l-13 -82q-25 6 -55 10t-57 6t-44 2q-58 0 -84 -13.5t-26 -62.5v-396q26 -7 56.5 -11t62.5 -4q42 0 83.5 7
t79.5 18zM286 712q-37 0 -49.5 12.5t-12.5 47.5q0 36 13 49t49 13q35 0 47.5 -13t12.5 -49q0 -35 -12 -47.5t-48 -12.5z" />
    <glyph glyph-name="cdotaccent" unicode="&#x10b;" horiz-adv-x="453" 
d="M240 -10q-54 0 -89 11.5t-55 40.5t-28 79.5t-8 128.5t8 129t28 79.5t55 40t89 11.5q27 0 56.5 -2t57 -6t48.5 -10l-12 -76q-36 8 -70 11.5t-69 3.5q-49 0 -68 -18.5t-19 -65.5v-267q36 -11 102 -11q32 0 62.5 5.5t73.5 18.5l11 -73q-34 -14 -79.5 -22t-93.5 -8zM248 587
q-37 0 -49.5 12.5t-12.5 47.5q0 36 13 49t49 13q35 0 47.5 -13t12.5 -49q0 -35 -12 -47.5t-48 -12.5z" />
    <glyph glyph-name="Ccaron" unicode="&#x10c;" horiz-adv-x="489" 
d="M464 11q-37 -14 -77 -20t-93 -6q-70 0 -114.5 15.5t-69.5 52t-35 100t-10 159.5q0 98 10.5 161.5t36.5 100t72.5 51.5t119.5 15q21 0 48.5 -2.5t54 -7t44.5 -11.5l-13 -82q-25 6 -55 10t-57 6t-44 2q-58 0 -84 -13.5t-26 -62.5v-396q26 -7 56.5 -11t62.5 -4q42 0 83.5 7
t79.5 18zM202 837l83 -64l83 64l35 -34l-99 -116q-4 -6 -10 -6h-18q-5 0 -10 6l-99 116z" />
    <glyph glyph-name="ccaron" unicode="&#x10d;" horiz-adv-x="453" 
d="M240 -10q-54 0 -89 11.5t-55 40.5t-28 79.5t-8 128.5t8 129t28 79.5t55 40t89 11.5q27 0 56.5 -2t57 -6t48.5 -10l-12 -76q-36 8 -70 11.5t-69 3.5q-49 0 -68 -18.5t-19 -65.5v-267q36 -11 102 -11q32 0 62.5 5.5t73.5 18.5l11 -73q-34 -14 -79.5 -22t-93.5 -8zM164 712
l83 -64l83 64l35 -34l-99 -116q-4 -6 -10 -6h-18q-5 0 -10 6l-99 116z" />
    <glyph glyph-name="Dcaron" unicode="&#x10e;" horiz-adv-x="624" 
d="M90 625h224q76 0 124 -12.5t74.5 -46.5t36.5 -95t10 -159q0 -97 -10 -158.5t-36.5 -95t-74.5 -46t-124 -12.5h-224v625zM190 542v-459h183q44 0 61 16t17 57v313q0 41 -17 57t-61 16h-183zM229 837l83 -64l83 64l35 -34l-99 -116q-4 -6 -10 -6h-18q-5 0 -10 6l-99 116z
" />
    <glyph glyph-name="dcaron" unicode="&#x10f;" horiz-adv-x="655" 
d="M240 510q65 0 105 -10.5t61.5 -38t29.5 -78.5t8 -133q0 -84 -8 -136.5t-29.5 -80.5t-61.5 -38t-105 -10q-55 0 -90 12t-54.5 41t-27.5 80.5t-8 131.5q0 78 8 129t28 79.5t55 40t89 11.5zM379 428h-168q-27 0 -36.5 -5t-9.5 -20v-336h168q27 0 36.5 5t9.5 20v336zM479 677
v-677h-46l-54 100v565zM592 454l-43 13l21 98q-26 3 -38.5 17t-12.5 49q0 39 16 54t52 15t52 -15t16 -54q0 -36 -8.5 -59t-23.5 -54z" />
    <glyph glyph-name="Dcroat" unicode="&#x110;" horiz-adv-x="624" 
d="M90 625h224q76 0 124 -12.5t74.5 -46.5t36.5 -95t10 -159q0 -97 -10 -158.5t-36.5 -95t-74.5 -46t-124 -12.5h-224v625zM190 542v-459h183q44 0 61 16t17 57v313q0 41 -17 57t-61 16h-183zM28 306q0 26 8 34t33 8h223v-29q0 -25 -7.5 -33t-33.5 -8h-223v28z" />
    <glyph glyph-name="dcroat" unicode="&#x111;" horiz-adv-x="569" 
d="M310 585q0 14 7.5 18.5t29.5 4.5h201v-16q0 -14 -7 -18t-30 -4h-201v15zM240 510q65 0 105 -10.5t61.5 -38t29.5 -78.5t8 -133q0 -84 -8 -136.5t-29.5 -80.5t-61.5 -38t-105 -10q-55 0 -90 12t-54.5 41t-27.5 80.5t-8 131.5q0 78 8 129t28 79.5t55 40t89 11.5zM379 428
h-168q-27 0 -36.5 -5t-9.5 -20v-336h168q27 0 36.5 5t9.5 20v336zM479 677v-677h-46l-54 100v565z" />
    <glyph glyph-name="Emacron" unicode="&#x112;" horiz-adv-x="515" 
d="M190 273v-190h275v-83h-375v625h372l-12 -83h-260v-190h237v-79h-237zM204 711q-31 0 -38 10.5t-7 35.5v35h199q31 0 37.5 -9.5t6.5 -35.5v-36h-198z" />
    <glyph glyph-name="emacron" unicode="&#x113;" horiz-adv-x="541" 
d="M254 -10q-57 0 -95 12t-59.5 41t-30.5 79.5t-9 127.5q0 99 19 156t65.5 80.5t126.5 23.5q79 0 122.5 -13t60.5 -45.5t17 -91.5q0 -52 -10.5 -83.5t-42 -48t-92 -22t-161.5 -5.5h-30v65h162q49 0 66.5 12t17.5 46v104h-133q-48 0 -65.5 -12t-17.5 -46v-290q22 -6 47 -8.5
t60 -2.5q40 0 79 5.5t94 18.5l13 -73q-37 -14 -91.5 -22t-112.5 -8zM194 586q-31 0 -38 10.5t-7 35.5v35h199q31 0 37.5 -9.5t6.5 -35.5v-36h-198z" />
    <glyph glyph-name="Ebreve" unicode="&#x114;" horiz-adv-x="515" 
d="M190 273v-190h275v-83h-375v625h372l-12 -83h-260v-190h237v-79h-237zM281 692q-42 0 -73.5 24.5t-44.5 83.5l65 11q6 -22 21.5 -34t31.5 -12q17 0 32 12t21 34l65 -11q-13 -55 -45 -81.5t-73 -26.5z" />
    <glyph glyph-name="ebreve" unicode="&#x115;" horiz-adv-x="541" 
d="M254 -10q-57 0 -95 12t-59.5 41t-30.5 79.5t-9 127.5q0 99 19 156t65.5 80.5t126.5 23.5q79 0 122.5 -13t60.5 -45.5t17 -91.5q0 -52 -10.5 -83.5t-42 -48t-92 -22t-161.5 -5.5h-30v65h162q49 0 66.5 12t17.5 46v104h-133q-48 0 -65.5 -12t-17.5 -46v-290q22 -6 47 -8.5
t60 -2.5q40 0 79 5.5t94 18.5l13 -73q-37 -14 -91.5 -22t-112.5 -8zM271 567q-42 0 -73.5 24.5t-44.5 83.5l65 11q6 -22 21.5 -34t31.5 -12q17 0 32 12t21 34l65 -11q-13 -55 -45 -81.5t-73 -26.5z" />
    <glyph glyph-name="Edotaccent" unicode="&#x116;" horiz-adv-x="515" 
d="M190 273v-190h275v-83h-375v625h372l-12 -83h-260v-190h237v-79h-237zM282 712q-37 0 -49.5 12.5t-12.5 47.5q0 36 13 49t49 13q35 0 47.5 -13t12.5 -49q0 -35 -12 -47.5t-48 -12.5z" />
    <glyph glyph-name="edotaccent" unicode="&#x117;" horiz-adv-x="541" 
d="M254 -10q-57 0 -95 12t-59.5 41t-30.5 79.5t-9 127.5q0 99 19 156t65.5 80.5t126.5 23.5q79 0 122.5 -13t60.5 -45.5t17 -91.5q0 -52 -10.5 -83.5t-42 -48t-92 -22t-161.5 -5.5h-30v65h162q49 0 66.5 12t17.5 46v104h-133q-48 0 -65.5 -12t-17.5 -46v-290q22 -6 47 -8.5
t60 -2.5q40 0 79 5.5t94 18.5l13 -73q-37 -14 -91.5 -22t-112.5 -8zM272 587q-37 0 -49.5 12.5t-12.5 47.5q0 36 13 49t49 13q35 0 47.5 -13t12.5 -49q0 -35 -12 -47.5t-48 -12.5z" />
    <glyph glyph-name="Eogonek" unicode="&#x118;" horiz-adv-x="515" 
d="M190 273v-190h275v-83h-375v625h372l-12 -83h-260v-190h237v-79h-237zM413 -172q-42 0 -66.5 24t-24.5 65t37.5 70.5t95.5 36.5l10 -24l-20 -4q-28 -7 -36 -16t-8 -32v-21q0 -16 7.5 -25t21.5 -9h51l8 -48q-19 -8 -37.5 -12.5t-38.5 -4.5z" />
    <glyph glyph-name="eogonek" unicode="&#x119;" horiz-adv-x="541" 
d="M254 -10q-57 0 -95 12t-59.5 41t-30.5 79.5t-9 127.5q0 99 19 156t65.5 80.5t126.5 23.5q79 0 122.5 -13t60.5 -45.5t17 -91.5q0 -52 -10.5 -83.5t-42 -48t-92 -22t-161.5 -5.5h-30v65h162q49 0 66.5 12t17.5 46v104h-133q-48 0 -65.5 -12t-17.5 -46v-290q22 -6 47 -8.5
t60 -2.5q40 0 79 5.5t94 18.5l13 -73q-37 -14 -91.5 -22t-112.5 -8zM406 -152q-42 0 -66.5 24t-24.5 65t37.5 70.5t95.5 36.5l10 -24l-20 -4q-28 -7 -36 -16t-8 -32v-21q0 -16 7.5 -25t21.5 -9h51l8 -48q-19 -8 -37.5 -12.5t-38.5 -4.5z" />
    <glyph glyph-name="Ecaron" unicode="&#x11a;" horiz-adv-x="515" 
d="M190 273v-190h275v-83h-375v625h372l-12 -83h-260v-190h237v-79h-237zM198 837l83 -64l83 64l35 -34l-99 -116q-4 -6 -10 -6h-18q-5 0 -10 6l-99 116z" />
    <glyph glyph-name="ecaron" unicode="&#x11b;" horiz-adv-x="541" 
d="M254 -10q-57 0 -95 12t-59.5 41t-30.5 79.5t-9 127.5q0 99 19 156t65.5 80.5t126.5 23.5q79 0 122.5 -13t60.5 -45.5t17 -91.5q0 -52 -10.5 -83.5t-42 -48t-92 -22t-161.5 -5.5h-30v65h162q49 0 66.5 12t17.5 46v104h-133q-48 0 -65.5 -12t-17.5 -46v-290q22 -6 47 -8.5
t60 -2.5q40 0 79 5.5t94 18.5l13 -73q-37 -14 -91.5 -22t-112.5 -8zM188 712l83 -64l83 64l35 -34l-99 -116q-4 -6 -10 -6h-18q-5 0 -10 6l-99 116z" />
    <glyph glyph-name="Gcircumflex" unicode="&#x11c;" horiz-adv-x="570" 
d="M278 -15q-65 0 -107 13t-65 47.5t-32 99t-9 167.5q0 98 10.5 161.5t37.5 100t74.5 51.5t122.5 15q25 0 56.5 -2.5t62.5 -7t52 -11.5l-13 -82q-29 6 -64 10t-67 6t-52 2q-60 0 -87 -13.5t-27 -62.5v-414h321l13 -45q-49 -19 -102.5 -27t-124.5 -8zM416 30v235h-95v79h184
v-324zM230 681l-35 34l99 116q5 6 10 6h18q6 0 10 -6l99 -116l-35 -34l-83 64z" />
    <glyph glyph-name="gcircumflex" unicode="&#x11d;" horiz-adv-x="506" 
d="M242 146q-74 0 -117.5 17t-61.5 57t-18 110t18 110t61.5 57.5t117.5 17.5q75 0 118 -17.5t61.5 -57.5t18.5 -110q0 -69 -18 -109.5t-61.5 -57.5t-118.5 -17zM144 212h124q41 0 57 13.5t16 48.5v175h-124q-41 0 -57 -13.5t-16 -48.5v-175zM446 -39q0 -46 -19 -74
t-62.5 -40t-117.5 -12q-54 0 -105.5 8t-88.5 22l13 76q51 -13 88 -18.5t75 -5.5q41 0 70.5 2.5t57.5 8.5v74q-102 6 -145 16t-43 27l30 115h64l-6 -86q60 -7 97.5 -14.5t57 -19.5t27 -31t7.5 -48zM405 415l-59 72l85 65l50 -49zM170 556l-35 34l99 116q5 6 10 6h18
q6 0 10 -6l99 -116l-35 -34l-83 64z" />
    <glyph glyph-name="Gbreve" unicode="&#x11e;" horiz-adv-x="570" 
d="M278 -15q-65 0 -107 13t-65 47.5t-32 99t-9 167.5q0 98 10.5 161.5t37.5 100t74.5 51.5t122.5 15q25 0 56.5 -2.5t62.5 -7t52 -11.5l-13 -82q-29 6 -64 10t-67 6t-52 2q-60 0 -87 -13.5t-27 -62.5v-414h321l13 -45q-49 -19 -102.5 -27t-124.5 -8zM416 30v235h-95v79h184
v-324zM313 692q-42 0 -73.5 24.5t-44.5 83.5l65 11q6 -22 21.5 -34t31.5 -12q17 0 32 12t21 34l65 -11q-13 -55 -45 -81.5t-73 -26.5z" />
    <glyph glyph-name="gbreve" unicode="&#x11f;" horiz-adv-x="506" 
d="M242 146q-74 0 -117.5 17t-61.5 57t-18 110t18 110t61.5 57.5t117.5 17.5q75 0 118 -17.5t61.5 -57.5t18.5 -110q0 -69 -18 -109.5t-61.5 -57.5t-118.5 -17zM144 212h124q41 0 57 13.5t16 48.5v175h-124q-41 0 -57 -13.5t-16 -48.5v-175zM446 -39q0 -46 -19 -74
t-62.5 -40t-117.5 -12q-54 0 -105.5 8t-88.5 22l13 76q51 -13 88 -18.5t75 -5.5q41 0 70.5 2.5t57.5 8.5v74q-102 6 -145 16t-43 27l30 115h64l-6 -86q60 -7 97.5 -14.5t57 -19.5t27 -31t7.5 -48zM405 415l-59 72l85 65l50 -49zM253 567q-42 0 -73.5 24.5t-44.5 83.5l65 11
q6 -22 21.5 -34t31.5 -12q17 0 32 12t21 34l65 -11q-13 -55 -45 -81.5t-73 -26.5z" />
    <glyph glyph-name="Gdotaccent" unicode="&#x120;" horiz-adv-x="570" 
d="M278 -15q-65 0 -107 13t-65 47.5t-32 99t-9 167.5q0 98 10.5 161.5t37.5 100t74.5 51.5t122.5 15q25 0 56.5 -2.5t62.5 -7t52 -11.5l-13 -82q-29 6 -64 10t-67 6t-52 2q-60 0 -87 -13.5t-27 -62.5v-414h321l13 -45q-49 -19 -102.5 -27t-124.5 -8zM416 30v235h-95v79h184
v-324zM314 712q-37 0 -49.5 12.5t-12.5 47.5q0 36 13 49t49 13q35 0 47.5 -13t12.5 -49q0 -35 -12 -47.5t-48 -12.5z" />
    <glyph glyph-name="gdotaccent" unicode="&#x121;" horiz-adv-x="506" 
d="M242 146q-74 0 -117.5 17t-61.5 57t-18 110t18 110t61.5 57.5t117.5 17.5q75 0 118 -17.5t61.5 -57.5t18.5 -110q0 -69 -18 -109.5t-61.5 -57.5t-118.5 -17zM144 212h124q41 0 57 13.5t16 48.5v175h-124q-41 0 -57 -13.5t-16 -48.5v-175zM446 -39q0 -46 -19 -74
t-62.5 -40t-117.5 -12q-54 0 -105.5 8t-88.5 22l13 76q51 -13 88 -18.5t75 -5.5q41 0 70.5 2.5t57.5 8.5v74q-102 6 -145 16t-43 27l30 115h64l-6 -86q60 -7 97.5 -14.5t57 -19.5t27 -31t7.5 -48zM405 415l-59 72l85 65l50 -49zM254 587q-37 0 -49.5 12.5t-12.5 47.5
q0 36 13 49t49 13q35 0 47.5 -13t12.5 -49q0 -35 -12 -47.5t-48 -12.5z" />
    <glyph glyph-name="uni0122" unicode="&#x122;" horiz-adv-x="570" 
d="M278 -15q-65 0 -107 13t-65 47.5t-32 99t-9 167.5q0 98 10.5 161.5t37.5 100t74.5 51.5t122.5 15q25 0 56.5 -2.5t62.5 -7t52 -11.5l-13 -82q-29 6 -64 10t-67 6t-52 2q-60 0 -87 -13.5t-27 -62.5v-414h321l13 -45q-49 -19 -102.5 -27t-124.5 -8zM416 30v235h-95v79h184
v-324zM298 -286l-43 13l21 98q-26 3 -38.5 17t-12.5 49q0 39 16 54t52 15t52 -15t16 -54q0 -36 -8.5 -59t-23.5 -54z" />
    <glyph glyph-name="uni0123" unicode="&#x123;" horiz-adv-x="506" 
d="M242 146q-74 0 -117.5 17t-61.5 57t-18 110t18 110t61.5 57.5t117.5 17.5q75 0 118 -17.5t61.5 -57.5t18.5 -110q0 -69 -18 -109.5t-61.5 -57.5t-118.5 -17zM144 212h124q41 0 57 13.5t16 48.5v175h-124q-41 0 -57 -13.5t-16 -48.5v-175zM446 -39q0 -46 -19 -74
t-62.5 -40t-117.5 -12q-54 0 -105.5 8t-88.5 22l13 76q51 -13 88 -18.5t75 -5.5q41 0 70.5 2.5t57.5 8.5v74q-102 6 -145 16t-43 27l30 115h64l-6 -86q60 -7 97.5 -14.5t57 -19.5t27 -31t7.5 -48zM405 415l-59 72l85 65l50 -49zM248 817l43 -13l-21 -98q26 -3 38.5 -17
t12.5 -49q0 -39 -16 -54t-52 -15t-52 15t-16 54q0 36 8.5 59t23.5 54z" />
    <glyph glyph-name="Hcircumflex" unicode="&#x124;" horiz-adv-x="640" 
d="M190 0h-100v625h100v-625zM450 625h100v-625h-100v625zM466 270h-292v79h292v-79zM237 681l-35 34l99 116q5 6 10 6h18q6 0 10 -6l99 -116l-35 -34l-83 64z" />
    <glyph glyph-name="hcircumflex" unicode="&#x125;" horiz-adv-x="576" 
d="M90 0v657l98 8v-198q32 23 70.5 33t90.5 10q70 0 106 -21.5t36 -63.5v-425h-100v428h-116q-49 0 -67 -12t-18 -46v-370h-100zM57 681l-35 34l99 116q5 6 10 6h18q6 0 10 -6l99 -116l-35 -34l-83 64z" />
    <glyph glyph-name="Hbar" unicode="&#x126;" horiz-adv-x="640" 
d="M190 0h-100v625h100v-625zM450 625h100v-625h-100v625zM466 270h-292v79h292v-79zM28 476q0 26 8 34t33 8h543v-29q0 -25 -7.5 -33t-33.5 -8h-543v28z" />
    <glyph glyph-name="hbar" unicode="&#x127;" horiz-adv-x="576" 
d="M21 573q0 14 7.5 18.5t29.5 4.5h201v-16q0 -14 -7 -18t-30 -4h-201v15zM90 0v657l98 8v-198q32 23 70.5 33t90.5 10q70 0 106 -21.5t36 -63.5v-425h-100v428h-116q-49 0 -67 -12t-18 -46v-370h-100z" />
    <glyph glyph-name="Itilde" unicode="&#x128;" horiz-adv-x="280" 
d="M90 625h100v-625h-100v625zM161 689q-9 0 -17.5 3t-20 12.5t-32.5 27.5l-66 -33l-28 46q39 29 61.5 44t36.5 20.5t24 5.5q9 0 16.5 -3t19.5 -12t34 -28l66 33l28 -46q-34 -26 -57 -41.5t-38 -22t-27 -6.5z" />
    <glyph glyph-name="itilde" unicode="&#x129;" horiz-adv-x="280" 
d="M90 493l100 15v-508h-100v493zM161 564q-9 0 -17.5 3t-20 12.5t-32.5 27.5l-66 -33l-28 46q39 29 61.5 44t36.5 20.5t24 5.5q9 0 16.5 -3t19.5 -12t34 -28l66 33l28 -46q-34 -26 -57 -41.5t-38 -22t-27 -6.5z" />
    <glyph glyph-name="Imacron" unicode="&#x12a;" horiz-adv-x="280" 
d="M90 625h100v-625h-100v625zM63 711q-31 0 -38 10.5t-7 35.5v35h199q31 0 37.5 -9.5t6.5 -35.5v-36h-198z" />
    <glyph glyph-name="imacron" unicode="&#x12b;" horiz-adv-x="280" 
d="M90 493l100 15v-508h-100v493zM63 586q-31 0 -38 10.5t-7 35.5v35h199q31 0 37.5 -9.5t6.5 -35.5v-36h-198z" />
    <glyph glyph-name="Ibreve" unicode="&#x12c;" horiz-adv-x="280" 
d="M90 625h100v-625h-100v625zM140 692q-42 0 -73.5 24.5t-44.5 83.5l65 11q6 -22 21.5 -34t31.5 -12q17 0 32 12t21 34l65 -11q-13 -55 -45 -81.5t-73 -26.5z" />
    <glyph glyph-name="ibreve" unicode="&#x12d;" horiz-adv-x="280" 
d="M90 493l100 15v-508h-100v493zM140 567q-42 0 -73.5 24.5t-44.5 83.5l65 11q6 -22 21.5 -34t31.5 -12q17 0 32 12t21 34l65 -11q-13 -55 -45 -81.5t-73 -26.5z" />
    <glyph glyph-name="Iogonek" unicode="&#x12e;" horiz-adv-x="280" 
d="M90 625h100v-625h-100v625zM138 -172q-42 0 -66.5 24t-24.5 65t37.5 70.5t95.5 36.5l10 -24l-20 -4q-28 -7 -36 -16t-8 -32v-21q0 -16 7.5 -25t21.5 -9h51l8 -48q-19 -8 -37.5 -12.5t-38.5 -4.5z" />
    <glyph glyph-name="iogonek" unicode="&#x12f;" horiz-adv-x="280" 
d="M90 493l100 15v-508h-100v493zM141 587q-37 0 -49.5 12.5t-12.5 47.5q0 36 13 49t49 13q35 0 47.5 -13t12.5 -49q0 -35 -12 -47.5t-48 -12.5zM138 -172q-42 0 -66.5 24t-24.5 65t37.5 70.5t95.5 36.5l10 -24l-20 -4q-28 -7 -36 -16t-8 -32v-21q0 -16 7.5 -25t21.5 -9h51
l8 -48q-19 -8 -37.5 -12.5t-38.5 -4.5z" />
    <glyph glyph-name="Idotaccent" unicode="&#x130;" horiz-adv-x="280" 
d="M90 625h100v-625h-100v625zM141 712q-37 0 -49.5 12.5t-12.5 47.5q0 36 13 49t49 13q35 0 47.5 -13t12.5 -49q0 -35 -12 -47.5t-48 -12.5z" />
    <glyph glyph-name="dotlessi" unicode="&#x131;" horiz-adv-x="280" 
d="M90 493l100 15v-508h-100v493z" />
    <glyph glyph-name="IJ" unicode="&#x132;" horiz-adv-x="631" 
d="M90 625h100v-625h-100v625zM300 80h93q20 0 34 4.5t14 25.5v432h-100v83h200v-490q0 -54 -18 -83t-52.5 -40.5t-84.5 -11.5h-74z" />
    <glyph glyph-name="ij" unicode="&#x133;" horiz-adv-x="560" 
d="M90 493l100 15v-508h-100v493zM141 587q-37 0 -49.5 12.5t-12.5 47.5q0 36 13 49t49 13q35 0 47.5 -13t12.5 -49q0 -35 -12 -47.5t-48 -12.5zM346 -175q-19 0 -40 3t-37 8l6 58q40 0 60.5 4.5t27.5 17.5t7 39v538l100 15v-568q0 -58 -30 -86.5t-94 -28.5zM421 587
q-37 0 -49.5 12.5t-12.5 47.5q0 36 13 49t49 13q35 0 47.5 -13t12.5 -49q0 -35 -12 -47.5t-48 -12.5z" />
    <glyph glyph-name="Jcircumflex" unicode="&#x134;" horiz-adv-x="351" 
d="M20 80h93q20 0 34 4.5t14 25.5v432h-100v83h200v-490q0 -54 -18 -83t-52.5 -40.5t-84.5 -11.5h-74zM93 681l-35 34l99 116q5 6 10 6h18q6 0 10 -6l99 -116l-35 -34l-83 64z" />
    <glyph glyph-name="jcircumflex" unicode="&#x135;" horiz-adv-x="280" 
d="M66 -175q-19 0 -40 3t-37 8l6 58q40 0 60.5 4.5t27.5 17.5t7 39v538l100 15v-568q0 -58 -30 -86.5t-94 -28.5zM57 556l-35 34l99 116q5 6 10 6h18q6 0 10 -6l99 -116l-35 -34l-83 64z" />
    <glyph glyph-name="uni0136" unicode="&#x136;" horiz-adv-x="553" 
d="M432 0l-73 155q-14 29 -27 61.5t-13 65.5h-145v78h145q0 33 12.5 65.5t27.5 61.5l68 138h111l-150 -304l155 -321h-111zM90 0v625h100v-625h-100zM302 -286l-43 13l21 98q-26 3 -38.5 17t-12.5 49q0 39 16 54t52 15t52 -15t16 -54q0 -36 -8.5 -59t-23.5 -54z" />
    <glyph glyph-name="uni0137" unicode="&#x137;" horiz-adv-x="495" 
d="M269 232h-79v-232h-100v650l100 15v-363h79l106 198h105l-128 -233l133 -267h-103zM273 -286l-43 13l21 98q-26 3 -38.5 17t-12.5 49q0 39 16 54t52 15t52 -15t16 -54q0 -36 -8.5 -59t-23.5 -54z" />
    <glyph glyph-name="kgreenlandic" unicode="&#x138;" horiz-adv-x="510" 
d="M284 215h-94v-215h-100v500h100v-215h94l106 215h105l-128 -250l133 -250h-103z" />
    <glyph glyph-name="Lacute" unicode="&#x139;" horiz-adv-x="430" 
d="M90 0v625h100v-542h230v-83h-330zM77 689l-22 34l152 110q5 4 8 4q4 0 8 -5l43 -53q7 -8 7 -12q0 -5 -7 -11l-27 -22q-4 -4 -8.5 -6t-13.5 -4z" />
    <glyph glyph-name="lacute" unicode="&#x13a;" horiz-adv-x="271" 
d="M185 74q9 -1 21.5 -2.5t24.5 -2.5l-6 -68q-20 -6 -35.5 -8.5t-30.5 -2.5q-37 0 -55.5 18.5t-18.5 56.5v585l100 15v-591zM72 689l-22 34l152 110q5 4 8 4q4 0 8 -5l43 -53q7 -8 7 -12q0 -5 -7 -11l-27 -22q-4 -4 -8.5 -6t-13.5 -4z" />
    <glyph glyph-name="uni013B" unicode="&#x13b;" horiz-adv-x="430" 
d="M90 0v625h100v-542h230v-83h-330zM255 -286l-43 13l21 98q-26 3 -38.5 17t-12.5 49q0 39 16 54t52 15t52 -15t16 -54q0 -36 -8.5 -59t-23.5 -54z" />
    <glyph glyph-name="uni013C" unicode="&#x13c;" horiz-adv-x="271" 
d="M185 74q9 -1 21.5 -2.5t24.5 -2.5l-6 -68q-20 -6 -35.5 -8.5t-30.5 -2.5q-37 0 -55.5 18.5t-18.5 56.5v585l100 15v-591zM140 -286l-43 13l21 98q-26 3 -38.5 17t-12.5 49q0 39 16 54t52 15t52 -15t16 -54q0 -36 -8.5 -59t-23.5 -54z" />
    <glyph glyph-name="Lcaron" unicode="&#x13d;" horiz-adv-x="430" 
d="M90 0v625h100v-542h230v-83h-330zM255 -286l-43 13l21 98q-26 3 -38.5 17t-12.5 49q0 39 16 54t52 15t52 -15t16 -54q0 -36 -8.5 -59t-23.5 -54z" />
    <glyph glyph-name="lcaron" unicode="&#x13e;" horiz-adv-x="336" 
d="M185 74q9 -1 21.5 -2.5t24.5 -2.5l-6 -68q-20 -6 -35.5 -8.5t-30.5 -2.5q-37 0 -55.5 18.5t-18.5 56.5v585l100 15v-591zM293 454l-43 13l21 98q-26 3 -38.5 17t-12.5 49q0 39 16 54t52 15t52 -15t16 -54q0 -36 -8.5 -59t-23.5 -54z" />
    <glyph glyph-name="Ldot" unicode="&#x13f;" horiz-adv-x="430" 
d="M283 333q0 29 10 42t42 13t42 -13t10 -42q0 -30 -10 -42.5t-42 -12.5t-42 12.5t-10 42.5zM90 0v625h100v-542h230v-83h-330z" />
    <glyph glyph-name="ldot" unicode="&#x140;" horiz-adv-x="344" 
d="M185 74q9 -1 21.5 -2.5t24.5 -2.5l-6 -68q-20 -6 -35.5 -8.5t-30.5 -2.5q-37 0 -55.5 18.5t-18.5 56.5v585l100 15v-591zM234 335q0 36 12.5 52.5t52.5 16.5t52.5 -16.5t12.5 -52.5q0 -37 -12.5 -52.5t-52.5 -15.5t-52.5 15.5t-12.5 52.5z" />
    <glyph glyph-name="Lslash" unicode="&#x141;" horiz-adv-x="430" 
d="M90 0v625h100v-542h230v-83h-330zM29 258l-9 27q-6 18 -6 29q0 15 17 21l220 73l9 -27q6 -18 6 -29q0 -15 -17 -21z" />
    <glyph glyph-name="lslash" unicode="&#x142;" horiz-adv-x="271" 
d="M185 74q9 -1 21.5 -2.5t24.5 -2.5l-6 -68q-20 -6 -35.5 -8.5t-30.5 -2.5q-37 0 -55.5 18.5t-18.5 56.5v585l100 15v-591zM24 255l-9 27q-6 18 -6 29q0 15 17 21l220 73l9 -27q6 -18 6 -29q0 -15 -17 -21z" />
    <glyph glyph-name="Nacute" unicode="&#x143;" horiz-adv-x="661" 
d="M95 0v625h97l242 -390q15 -25 20 -35.5t6 -26.5h6v452h100v-625h-97l-242 390q-15 25 -19.5 35.5t-6.5 26.5h-6v-452h-100zM278 689l-22 34l152 110q5 4 8 4q4 0 8 -5l43 -53q7 -8 7 -12q0 -5 -7 -11l-27 -22q-4 -4 -8.5 -6t-13.5 -4z" />
    <glyph glyph-name="nacute" unicode="&#x144;" horiz-adv-x="576" 
d="M90 0v500h46l27 -50q38 31 83 45.5t103 14.5q70 0 106 -21.5t36 -63.5v-425h-100v428h-116q-49 0 -67 -12t-18 -46v-370h-100zM235 564l-22 34l152 110q5 4 8 4q4 0 8 -5l43 -53q7 -8 7 -12q0 -5 -7 -11l-27 -22q-4 -4 -8.5 -6t-13.5 -4z" />
    <glyph glyph-name="uni0145" unicode="&#x145;" horiz-adv-x="661" 
d="M95 0v625h97l242 -390q15 -25 20 -35.5t6 -26.5h6v452h100v-625h-97l-242 390q-15 25 -19.5 35.5t-6.5 26.5h-6v-452h-100zM336 -286l-43 13l21 98q-26 3 -38.5 17t-12.5 49q0 39 16 54t52 15t52 -15t16 -54q0 -36 -8.5 -59t-23.5 -54z" />
    <glyph glyph-name="uni0146" unicode="&#x146;" horiz-adv-x="576" 
d="M90 0v500h46l27 -50q38 31 83 45.5t103 14.5q70 0 106 -21.5t36 -63.5v-425h-100v428h-116q-49 0 -67 -12t-18 -46v-370h-100zM293 -286l-43 13l21 98q-26 3 -38.5 17t-12.5 49q0 39 16 54t52 15t52 -15t16 -54q0 -36 -8.5 -59t-23.5 -54z" />
    <glyph glyph-name="Ncaron" unicode="&#x147;" horiz-adv-x="661" 
d="M95 0v625h97l242 -390q15 -25 20 -35.5t6 -26.5h6v452h100v-625h-97l-242 390q-15 25 -19.5 35.5t-6.5 26.5h-6v-452h-100zM258 837l83 -64l83 64l35 -34l-99 -116q-4 -6 -10 -6h-18q-5 0 -10 6l-99 116z" />
    <glyph glyph-name="ncaron" unicode="&#x148;" horiz-adv-x="576" 
d="M90 0v500h46l27 -50q38 31 83 45.5t103 14.5q70 0 106 -21.5t36 -63.5v-425h-100v428h-116q-49 0 -67 -12t-18 -46v-370h-100zM215 712l83 -64l83 64l35 -34l-99 -116q-4 -6 -10 -6h-18q-5 0 -10 6l-99 116z" />
    <glyph glyph-name="Eng" unicode="&#x14a;" horiz-adv-x="661" 
d="M95 0v625h97l242 -390q15 -25 20 -35.5t6 -26.5h6v452h100v-625h-97l-242 390q-15 25 -19.5 35.5t-6.5 26.5h-6v-452h-100zM442 -175q-19 0 -40 3t-37 8l6 58q40 0 60.5 4.5t27.5 17.5t7 39v538l100 15v-568q0 -58 -30 -86.5t-94 -28.5z" />
    <glyph glyph-name="eng" unicode="&#x14b;" horiz-adv-x="576" 
d="M367 -175q-18 0 -39 3t-38 8l6 48q41 1 61 5.5t27 17.5t7 38v85h100v-90q0 -58 -30 -86.5t-94 -28.5zM90 0v500h46l27 -50q38 31 83 45.5t103 14.5q70 0 106 -21.5t36 -63.5v-425h-100v428h-116q-49 0 -67 -12t-18 -46v-370h-100z" />
    <glyph glyph-name="Omacron" unicode="&#x14c;" horiz-adv-x="636" 
d="M65 312q0 102 10.5 166.5t37.5 99.5t76.5 48.5t128.5 13.5q78 0 128 -13.5t77 -49t37.5 -99.5t10.5 -166t-10.5 -166t-37.5 -99t-77 -48.5t-128 -13.5q-79 0 -128.5 13.5t-76.5 48.5t-37.5 99t-10.5 166zM172 70h206q48 0 67 16t19 57v412h-207q-48 0 -66.5 -16
t-18.5 -57v-412zM241 711q-31 0 -38 10.5t-7 35.5v35h199q31 0 37.5 -9.5t6.5 -35.5v-36h-198z" />
    <glyph glyph-name="omacron" unicode="&#x14d;" horiz-adv-x="554" 
d="M277 -10q-65 0 -107.5 11.5t-66.5 40t-33.5 79.5t-9.5 129t9.5 129t33.5 79.5t66.5 40t107.5 11.5q66 0 108.5 -11.5t66 -40t33 -79t9.5 -129.5q0 -78 -9.5 -129t-33.5 -79.5t-66.5 -40t-107.5 -11.5zM164 72h178q29 0 38.5 5t9.5 20v331h-178q-28 0 -38 -5t-10 -20v-331
zM200 586q-31 0 -38 10.5t-7 35.5v35h199q31 0 37.5 -9.5t6.5 -35.5v-36h-198z" />
    <glyph glyph-name="Obreve" unicode="&#x14e;" horiz-adv-x="636" 
d="M65 312q0 102 10.5 166.5t37.5 99.5t76.5 48.5t128.5 13.5q78 0 128 -13.5t77 -49t37.5 -99.5t10.5 -166t-10.5 -166t-37.5 -99t-77 -48.5t-128 -13.5q-79 0 -128.5 13.5t-76.5 48.5t-37.5 99t-10.5 166zM172 70h206q48 0 67 16t19 57v412h-207q-48 0 -66.5 -16
t-18.5 -57v-412zM318 692q-42 0 -73.5 24.5t-44.5 83.5l65 11q6 -22 21.5 -34t31.5 -12q17 0 32 12t21 34l65 -11q-13 -55 -45 -81.5t-73 -26.5z" />
    <glyph glyph-name="obreve" unicode="&#x14f;" horiz-adv-x="554" 
d="M277 -10q-65 0 -107.5 11.5t-66.5 40t-33.5 79.5t-9.5 129t9.5 129t33.5 79.5t66.5 40t107.5 11.5q66 0 108.5 -11.5t66 -40t33 -79t9.5 -129.5q0 -78 -9.5 -129t-33.5 -79.5t-66.5 -40t-107.5 -11.5zM164 72h178q29 0 38.5 5t9.5 20v331h-178q-28 0 -38 -5t-10 -20v-331
zM277 567q-42 0 -73.5 24.5t-44.5 83.5l65 11q6 -22 21.5 -34t31.5 -12q17 0 32 12t21 34l65 -11q-13 -55 -45 -81.5t-73 -26.5z" />
    <glyph glyph-name="Ohungarumlaut" unicode="&#x150;" horiz-adv-x="636" 
d="M65 312q0 102 10.5 166.5t37.5 99.5t76.5 48.5t128.5 13.5q78 0 128 -13.5t77 -49t37.5 -99.5t10.5 -166t-10.5 -166t-37.5 -99t-77 -48.5t-128 -13.5q-79 0 -128.5 13.5t-76.5 48.5t-37.5 99t-10.5 166zM172 70h206q48 0 67 16t19 57v412h-207q-48 0 -66.5 -16
t-18.5 -57v-412zM371 694l-22 34l133 105q5 4 8 4q2 0 3.5 -0.5t4.5 -4.5l44 -54q2 -3 4 -5.5t2 -5.5q0 -1 -0.5 -3t-3.5 -5l-30 -25q-4 -3 -8 -5.5t-14 -4.5zM150 694l-22 34l133 105q5 4 8 4q2 0 3.5 -0.5t4.5 -4.5l44 -54q2 -3 4 -5.5t2 -5.5q0 -1 -0.5 -3t-3.5 -5
l-30 -25q-4 -3 -8 -5.5t-14 -4.5z" />
    <glyph glyph-name="ohungarumlaut" unicode="&#x151;" horiz-adv-x="554" 
d="M277 -10q-65 0 -107.5 11.5t-66.5 40t-33.5 79.5t-9.5 129t9.5 129t33.5 79.5t66.5 40t107.5 11.5q66 0 108.5 -11.5t66 -40t33 -79t9.5 -129.5q0 -78 -9.5 -129t-33.5 -79.5t-66.5 -40t-107.5 -11.5zM164 72h178q29 0 38.5 5t9.5 20v331h-178q-28 0 -38 -5t-10 -20v-331
zM330 569l-22 34l133 105q5 4 8 4q2 0 3.5 -0.5t4.5 -4.5l44 -54q2 -3 4 -5.5t2 -5.5q0 -1 -0.5 -3t-3.5 -5l-30 -25q-4 -3 -8 -5.5t-14 -4.5zM109 569l-22 34l133 105q5 4 8 4q2 0 3.5 -0.5t4.5 -4.5l44 -54q2 -3 4 -5.5t2 -5.5q0 -1 -0.5 -3t-3.5 -5l-30 -25
q-4 -3 -8 -5.5t-14 -4.5z" />
    <glyph glyph-name="OE" unicode="&#x152;" horiz-adv-x="889" 
d="M564 273v-190h275v-83h-375v625h372l-12 -83h-260v-190h237v-79h-237zM65 312q0 97 10.5 158.5t37.5 95t77 46.5t128 13h156v-625h-156q-79 0 -128.5 12.5t-76.5 46t-37.5 95t-10.5 158.5zM172 83h206q48 0 67 16t19 57v386h-207q-48 0 -66.5 -16t-18.5 -57v-386z" />
    <glyph glyph-name="oe" unicode="&#x153;" horiz-adv-x="869" 
d="M277 -10q-65 0 -107.5 11.5t-66.5 40t-33.5 79.5t-9.5 129t9.5 129t33.5 79.5t66.5 40t107.5 11.5q63 0 103.5 -11t63 -39.5t31.5 -79.5t9 -130q0 -78 -9 -129t-32 -79.5t-63.5 -40t-102.5 -11.5zM164 72h178q29 0 38.5 5t9.5 20v331h-178q-28 0 -38 -5t-10 -20v-331z
M582 -10q-54 0 -90 12t-56.5 41.5t-29 80t-8.5 126.5q0 100 18 156.5t62 80t121 23.5q79 0 122.5 -13t60.5 -45.5t17 -91.5q0 -52 -10.5 -83.5t-42 -48t-92 -22t-161.5 -5.5h-30v65h162q49 0 66.5 12t17.5 46v104h-133q-48 0 -65.5 -12t-17.5 -46v-290q23 -6 48 -8.5
t59 -2.5q40 0 79 5.5t94 18.5l13 -73q-39 -14 -93.5 -22t-110.5 -8z" />
    <glyph glyph-name="Racute" unicode="&#x154;" horiz-adv-x="580" 
d="M190 221v-221h-100v625h250q66 0 104 -20t54.5 -66t16.5 -125q0 -103 -37 -148t-123 -45h-165zM190 300h151q39 0 54 9t15 33v158q0 24 -15 33t-54 9h-151v-242zM415 268l130 -268h-109l-118 250zM237 689l-22 34l152 110q5 4 8 4q4 0 8 -5l43 -53q7 -8 7 -12
q0 -5 -7 -11l-27 -22q-4 -4 -8.5 -6t-13.5 -4z" />
    <glyph glyph-name="racute" unicode="&#x155;" horiz-adv-x="334" 
d="M137 500l35 -79q45 41 77 62.5t60 31.5l10 -98q-21 -6 -45 -16.5t-45.5 -22.5t-38.5 -25v-353h-100v500h47zM134 564l-22 34l152 110q5 4 8 4q4 0 8 -5l43 -53q7 -8 7 -12q0 -5 -7 -11l-27 -22q-4 -4 -8.5 -6t-13.5 -4z" />
    <glyph glyph-name="uni0156" unicode="&#x156;" horiz-adv-x="580" 
d="M190 221v-221h-100v625h250q66 0 104 -20t54.5 -66t16.5 -125q0 -103 -37 -148t-123 -45h-165zM190 300h151q39 0 54 9t15 33v158q0 24 -15 33t-54 9h-151v-242zM415 268l130 -268h-109l-118 250zM295 -286l-43 13l21 98q-26 3 -38.5 17t-12.5 49q0 39 16 54t52 15
t52 -15t16 -54q0 -36 -8.5 -59t-23.5 -54z" />
    <glyph glyph-name="uni0157" unicode="&#x157;" horiz-adv-x="334" 
d="M137 500l35 -79q45 41 77 62.5t60 31.5l10 -98q-21 -6 -45 -16.5t-45.5 -22.5t-38.5 -25v-353h-100v500h47zM145 -286l-43 13l21 98q-26 3 -38.5 17t-12.5 49q0 39 16 54t52 15t52 -15t16 -54q0 -36 -8.5 -59t-23.5 -54z" />
    <glyph glyph-name="Rcaron" unicode="&#x158;" horiz-adv-x="580" 
d="M190 221v-221h-100v625h250q66 0 104 -20t54.5 -66t16.5 -125q0 -103 -37 -148t-123 -45h-165zM190 300h151q39 0 54 9t15 33v158q0 24 -15 33t-54 9h-151v-242zM415 268l130 -268h-109l-118 250zM217 837l83 -64l83 64l35 -34l-99 -116q-4 -6 -10 -6h-18q-5 0 -10 6
l-99 116z" />
    <glyph glyph-name="rcaron" unicode="&#x159;" horiz-adv-x="334" 
d="M137 500l35 -79q45 41 77 62.5t60 31.5l10 -98q-21 -6 -45 -16.5t-45.5 -22.5t-38.5 -25v-353h-100v500h47zM114 712l83 -64l83 64l35 -34l-99 -116q-4 -6 -10 -6h-18q-5 0 -10 6l-99 116z" />
    <glyph glyph-name="Sacute" unicode="&#x15a;" horiz-adv-x="519" 
d="M61 91q40 -10 93.5 -16.5t102.5 -6.5q25 0 49.5 1t63.5 5v186l-95 7q-67 5 -110 15.5t-67.5 30t-34 51.5t-9.5 81q0 72 18.5 114.5t60.5 61.5t111 19q52 0 101 -4.5t101 -14.5l-13 -79q-44 8 -87 11.5t-96 3.5q-29 0 -47 -1t-40 -4v-188l111 -7q79 -5 123.5 -23.5
t63 -57.5t18.5 -106q0 -69 -22 -109.5t-72.5 -58t-136.5 -17.5q-53 0 -102 5.5t-100 18.5zM196 689l-22 34l152 110q5 4 8 4q4 0 8 -5l43 -53q7 -8 7 -12q0 -5 -7 -11l-27 -22q-4 -4 -8.5 -6t-13.5 -4z" />
    <glyph glyph-name="sacute" unicode="&#x15b;" horiz-adv-x="481" 
d="M56 366q0 77 46 113t143 36q45 0 85.5 -5.5t80.5 -16.5l-14 -73q-25 7 -58.5 11.5t-63.5 4.5q-32 0 -61.5 -2.5t-52.5 -6.5v-118q87 -12 141 -24.5t83 -30.5t40 -45t11 -68q0 -56 -20.5 -90.5t-66.5 -50t-123 -15.5q-44 0 -89 7.5t-92 21.5l16 80q77 -30 164 -30
q30 0 52.5 3t53.5 11v118q-92 13 -147 25t-82.5 29.5t-36.5 45t-9 70.5zM183 564l-22 34l152 110q5 4 8 4q4 0 8 -5l43 -53q7 -8 7 -12q0 -5 -7 -11l-27 -22q-4 -4 -8.5 -6t-13.5 -4z" />
    <glyph glyph-name="Scircumflex" unicode="&#x15c;" horiz-adv-x="519" 
d="M61 91q40 -10 93.5 -16.5t102.5 -6.5q25 0 49.5 1t63.5 5v186l-95 7q-67 5 -110 15.5t-67.5 30t-34 51.5t-9.5 81q0 72 18.5 114.5t60.5 61.5t111 19q52 0 101 -4.5t101 -14.5l-13 -79q-44 8 -87 11.5t-96 3.5q-29 0 -47 -1t-40 -4v-188l111 -7q79 -5 123.5 -23.5
t63 -57.5t18.5 -106q0 -69 -22 -109.5t-72.5 -58t-136.5 -17.5q-53 0 -102 5.5t-100 18.5zM176 681l-35 34l99 116q5 6 10 6h18q6 0 10 -6l99 -116l-35 -34l-83 64z" />
    <glyph glyph-name="scircumflex" unicode="&#x15d;" horiz-adv-x="481" 
d="M56 366q0 77 46 113t143 36q45 0 85.5 -5.5t80.5 -16.5l-14 -73q-25 7 -58.5 11.5t-63.5 4.5q-32 0 -61.5 -2.5t-52.5 -6.5v-118q87 -12 141 -24.5t83 -30.5t40 -45t11 -68q0 -56 -20.5 -90.5t-66.5 -50t-123 -15.5q-44 0 -89 7.5t-92 21.5l16 80q77 -30 164 -30
q30 0 52.5 3t53.5 11v118q-92 13 -147 25t-82.5 29.5t-36.5 45t-9 70.5zM163 556l-35 34l99 116q5 6 10 6h18q6 0 10 -6l99 -116l-35 -34l-83 64z" />
    <glyph glyph-name="Scedilla" unicode="&#x15e;" horiz-adv-x="519" 
d="M61 91q40 -10 93.5 -16.5t102.5 -6.5q25 0 49.5 1t63.5 5v186l-95 7q-67 5 -110 15.5t-67.5 30t-34 51.5t-9.5 81q0 72 18.5 114.5t60.5 61.5t111 19q52 0 101 -4.5t101 -14.5l-13 -79q-44 8 -87 11.5t-96 3.5q-29 0 -47 -1t-40 -4v-188l111 -7q79 -5 123.5 -23.5
t63 -57.5t18.5 -106q0 -69 -22 -109.5t-72.5 -58t-136.5 -17.5q-53 0 -102 5.5t-100 18.5zM222 -172q-33 0 -68 16l7 49h35q24 0 33.5 7t9.5 25v96h20q26 -14 42.5 -45t16.5 -67q0 -37 -26 -59t-70 -22z" />
    <glyph glyph-name="scedilla" unicode="&#x15f;" horiz-adv-x="481" 
d="M56 366q0 77 46 113t143 36q45 0 85.5 -5.5t80.5 -16.5l-14 -73q-25 7 -58.5 11.5t-63.5 4.5q-32 0 -61.5 -2.5t-52.5 -6.5v-118q87 -12 141 -24.5t83 -30.5t40 -45t11 -68q0 -56 -20.5 -90.5t-66.5 -50t-123 -15.5q-44 0 -89 7.5t-92 21.5l16 80q77 -30 164 -30
q30 0 52.5 3t53.5 11v118q-92 13 -147 25t-82.5 29.5t-36.5 45t-9 70.5zM204 -172q-33 0 -68 16l7 49h35q24 0 33.5 7t9.5 25v96h20q26 -14 42.5 -45t16.5 -67q0 -37 -26 -59t-70 -22z" />
    <glyph glyph-name="Scaron" unicode="&#x160;" horiz-adv-x="519" 
d="M61 91q40 -10 93.5 -16.5t102.5 -6.5q25 0 49.5 1t63.5 5v186l-95 7q-67 5 -110 15.5t-67.5 30t-34 51.5t-9.5 81q0 72 18.5 114.5t60.5 61.5t111 19q52 0 101 -4.5t101 -14.5l-13 -79q-44 8 -87 11.5t-96 3.5q-29 0 -47 -1t-40 -4v-188l111 -7q79 -5 123.5 -23.5
t63 -57.5t18.5 -106q0 -69 -22 -109.5t-72.5 -58t-136.5 -17.5q-53 0 -102 5.5t-100 18.5zM176 837l83 -64l83 64l35 -34l-99 -116q-4 -6 -10 -6h-18q-5 0 -10 6l-99 116z" />
    <glyph glyph-name="scaron" unicode="&#x161;" horiz-adv-x="481" 
d="M56 366q0 77 46 113t143 36q45 0 85.5 -5.5t80.5 -16.5l-14 -73q-25 7 -58.5 11.5t-63.5 4.5q-32 0 -61.5 -2.5t-52.5 -6.5v-118q87 -12 141 -24.5t83 -30.5t40 -45t11 -68q0 -56 -20.5 -90.5t-66.5 -50t-123 -15.5q-44 0 -89 7.5t-92 21.5l16 80q77 -30 164 -30
q30 0 52.5 3t53.5 11v118q-92 13 -147 25t-82.5 29.5t-36.5 45t-9 70.5zM163 712l83 -64l83 64l35 -34l-99 -116q-4 -6 -10 -6h-18q-5 0 -10 6l-99 116z" />
    <glyph glyph-name="uni0162" unicode="&#x162;" horiz-adv-x="460" 
d="M280 542v-542h-100v542h-165v83h430v-83h-165zM193 -172q-33 0 -68 16l7 49h35q24 0 33.5 7t9.5 25v96h20q26 -14 42.5 -45t16.5 -67q0 -37 -26 -59t-70 -22z" />
    <glyph glyph-name="uni0163" unicode="&#x163;" horiz-adv-x="354" 
d="M194 -10q-37 0 -55.5 18.5t-18.5 56.5v542l100 25v-558q14 -1 30 -2.5t41 -2.5l-6 -68q-31 -6 -53 -8.5t-38 -2.5zM50 431v69h259v-69h-259zM140 -172q-33 0 -68 16l7 49h35q24 0 33.5 7t9.5 25v96h20q26 -14 42.5 -45t16.5 -67q0 -37 -26 -59t-70 -22z" />
    <glyph glyph-name="Tcaron" unicode="&#x164;" horiz-adv-x="460" 
d="M280 542v-542h-100v542h-165v83h430v-83h-165zM147 837l83 -64l83 64l35 -34l-99 -116q-4 -6 -10 -6h-18q-5 0 -10 6l-99 116z" />
    <glyph glyph-name="tcaron" unicode="&#x165;" horiz-adv-x="420" 
d="M194 -10q-37 0 -55.5 18.5t-18.5 56.5v542l100 25v-558q14 -1 30 -2.5t41 -2.5l-6 -68q-31 -6 -53 -8.5t-38 -2.5zM50 431v69h259v-69h-259zM377 454l-43 13l21 98q-26 3 -38.5 17t-12.5 49q0 39 16 54t52 15t52 -15t16 -54q0 -36 -8.5 -59t-23.5 -54z" />
    <glyph glyph-name="Tbar" unicode="&#x166;" horiz-adv-x="460" 
d="M280 542v-542h-100v542h-165v83h430v-83h-165zM98 296q0 26 8 34t33 8h223v-29q0 -25 -7.5 -33t-33.5 -8h-223v28z" />
    <glyph glyph-name="tbar" unicode="&#x167;" horiz-adv-x="354" 
d="M194 -10q-37 0 -55.5 18.5t-18.5 56.5v542l100 25v-558q14 -1 30 -2.5t41 -2.5l-6 -68q-31 -6 -53 -8.5t-38 -2.5zM50 431v69h259v-69h-259zM38 253q0 26 8 34t33 8h223v-29q0 -25 -7.5 -33t-33.5 -8h-223v28z" />
    <glyph glyph-name="Utilde" unicode="&#x168;" horiz-adv-x="638" 
d="M319 -15q-73 0 -119.5 9t-72.5 31t-36.5 62t-10.5 102v436h100v-555h144q55 0 83.5 4.5t39.5 16t11 32.5v502h100v-436q0 -62 -10.5 -102t-36.5 -62t-72.5 -31t-119.5 -9zM341 689q-9 0 -17.5 3t-20 12.5t-32.5 27.5l-66 -33l-28 46q39 29 61.5 44t36.5 20.5t24 5.5
q9 0 16.5 -3t19.5 -12t34 -28l66 33l28 -46q-34 -26 -57 -41.5t-38 -22t-27 -6.5z" />
    <glyph glyph-name="utilde" unicode="&#x169;" horiz-adv-x="576" 
d="M486 500v-500h-46l-27 50q-40 -31 -87.5 -45.5t-108.5 -14.5q-68 0 -100 25.5t-32 79.5v405h100v-433h116q50 0 67.5 12t17.5 46v375h100zM309 564q-9 0 -17.5 3t-20 12.5t-32.5 27.5l-66 -33l-28 46q39 29 61.5 44t36.5 20.5t24 5.5q9 0 16.5 -3t19.5 -12t34 -28l66 33
l28 -46q-34 -26 -57 -41.5t-38 -22t-27 -6.5z" />
    <glyph glyph-name="Umacron" unicode="&#x16a;" horiz-adv-x="638" 
d="M319 -15q-73 0 -119.5 9t-72.5 31t-36.5 62t-10.5 102v436h100v-555h144q55 0 83.5 4.5t39.5 16t11 32.5v502h100v-436q0 -62 -10.5 -102t-36.5 -62t-72.5 -31t-119.5 -9zM243 711q-31 0 -38 10.5t-7 35.5v35h199q31 0 37.5 -9.5t6.5 -35.5v-36h-198z" />
    <glyph glyph-name="umacron" unicode="&#x16b;" horiz-adv-x="576" 
d="M486 500v-500h-46l-27 50q-40 -31 -87.5 -45.5t-108.5 -14.5q-68 0 -100 25.5t-32 79.5v405h100v-433h116q50 0 67.5 12t17.5 46v375h100zM211 586q-31 0 -38 10.5t-7 35.5v35h199q31 0 37.5 -9.5t6.5 -35.5v-36h-198z" />
    <glyph glyph-name="Ubreve" unicode="&#x16c;" horiz-adv-x="638" 
d="M319 -15q-73 0 -119.5 9t-72.5 31t-36.5 62t-10.5 102v436h100v-555h144q55 0 83.5 4.5t39.5 16t11 32.5v502h100v-436q0 -62 -10.5 -102t-36.5 -62t-72.5 -31t-119.5 -9zM320 692q-42 0 -73.5 24.5t-44.5 83.5l65 11q6 -22 21.5 -34t31.5 -12q17 0 32 12t21 34l65 -11
q-13 -55 -45 -81.5t-73 -26.5z" />
    <glyph glyph-name="ubreve" unicode="&#x16d;" horiz-adv-x="576" 
d="M486 500v-500h-46l-27 50q-40 -31 -87.5 -45.5t-108.5 -14.5q-68 0 -100 25.5t-32 79.5v405h100v-433h116q50 0 67.5 12t17.5 46v375h100zM288 567q-42 0 -73.5 24.5t-44.5 83.5l65 11q6 -22 21.5 -34t31.5 -12q17 0 32 12t21 34l65 -11q-13 -55 -45 -81.5t-73 -26.5z
" />
    <glyph glyph-name="Uring" unicode="&#x16e;" horiz-adv-x="638" 
d="M319 -15q-73 0 -119.5 9t-72.5 31t-36.5 62t-10.5 102v436h100v-555h144q55 0 83.5 4.5t39.5 16t11 32.5v502h100v-436q0 -62 -10.5 -102t-36.5 -62t-72.5 -31t-119.5 -9zM320 664q-53 0 -76 25t-23 74t23 73.5t76 24.5t75.5 -24.5t22.5 -73.5t-22.5 -74t-75.5 -25z
M277 716h42q19 0 30.5 3.5t11.5 22.5v67h-39q-20 0 -32.5 -3.5t-12.5 -21.5v-68z" />
    <glyph glyph-name="uring" unicode="&#x16f;" horiz-adv-x="576" 
d="M486 500v-500h-46l-27 50q-40 -31 -87.5 -45.5t-108.5 -14.5q-68 0 -100 25.5t-32 79.5v405h100v-433h116q50 0 67.5 12t17.5 46v375h100zM288 539q-53 0 -76 25t-23 74t23 73.5t76 24.5t75.5 -24.5t22.5 -73.5t-22.5 -74t-75.5 -25zM245 591h42q19 0 30.5 3.5t11.5 22.5
v67h-39q-20 0 -32.5 -3.5t-12.5 -21.5v-68z" />
    <glyph glyph-name="Uhungarumlaut" unicode="&#x170;" horiz-adv-x="638" 
d="M319 -15q-73 0 -119.5 9t-72.5 31t-36.5 62t-10.5 102v436h100v-555h144q55 0 83.5 4.5t39.5 16t11 32.5v502h100v-436q0 -62 -10.5 -102t-36.5 -62t-72.5 -31t-119.5 -9zM373 694l-22 34l133 105q5 4 8 4q2 0 3.5 -0.5t4.5 -4.5l44 -54q2 -3 4 -5.5t2 -5.5q0 -1 -0.5 -3
t-3.5 -5l-30 -25q-4 -3 -8 -5.5t-14 -4.5zM152 694l-22 34l133 105q5 4 8 4q2 0 3.5 -0.5t4.5 -4.5l44 -54q2 -3 4 -5.5t2 -5.5q0 -1 -0.5 -3t-3.5 -5l-30 -25q-4 -3 -8 -5.5t-14 -4.5z" />
    <glyph glyph-name="uhungarumlaut" unicode="&#x171;" horiz-adv-x="576" 
d="M486 500v-500h-46l-27 50q-40 -31 -87.5 -45.5t-108.5 -14.5q-68 0 -100 25.5t-32 79.5v405h100v-433h116q50 0 67.5 12t17.5 46v375h100zM341 569l-22 34l133 105q5 4 8 4q2 0 3.5 -0.5t4.5 -4.5l44 -54q2 -3 4 -5.5t2 -5.5q0 -1 -0.5 -3t-3.5 -5l-30 -25q-4 -3 -8 -5.5
t-14 -4.5zM120 569l-22 34l133 105q5 4 8 4q2 0 3.5 -0.5t4.5 -4.5l44 -54q2 -3 4 -5.5t2 -5.5q0 -1 -0.5 -3t-3.5 -5l-30 -25q-4 -3 -8 -5.5t-14 -4.5z" />
    <glyph glyph-name="Uogonek" unicode="&#x172;" horiz-adv-x="638" 
d="M319 -15q-73 0 -119.5 9t-72.5 31t-36.5 62t-10.5 102v436h100v-555h144q55 0 83.5 4.5t39.5 16t11 32.5v502h100v-436q0 -62 -10.5 -102t-36.5 -62t-72.5 -31t-119.5 -9zM316 -183q-42 0 -66.5 24t-24.5 65t37.5 70.5t95.5 36.5l10 -24l-20 -4q-28 -7 -36 -16t-8 -32
v-21q0 -16 7.5 -25t21.5 -9h51l8 -48q-19 -8 -37.5 -12.5t-38.5 -4.5z" />
    <glyph glyph-name="uogonek" unicode="&#x173;" horiz-adv-x="576" 
d="M486 500v-500h-46l-27 50q-40 -31 -87.5 -45.5t-108.5 -14.5q-68 0 -100 25.5t-32 79.5v405h100v-433h116q50 0 67.5 12t17.5 46v375h100zM433 -172q-42 0 -66.5 24t-24.5 65t37.5 70.5t95.5 36.5l10 -24l-20 -4q-28 -7 -36 -16t-8 -32v-21q0 -16 7.5 -25t21.5 -9h51
l8 -48q-19 -8 -37.5 -12.5t-38.5 -4.5z" />
    <glyph glyph-name="Wcircumflex" unicode="&#x174;" horiz-adv-x="802" 
d="M25 625h100l86 -533h9l128 533h83l-145 -625h-156zM777 625l-105 -625h-156l-145 625h83l128 -533h9l86 533h100zM318 681l-35 34l99 116q5 6 10 6h18q6 0 10 -6l99 -116l-35 -34l-83 64z" />
    <glyph glyph-name="wcircumflex" unicode="&#x175;" horiz-adv-x="702" 
d="M435 0l-118 500h80l95 -415h10l95 415h99l-123 -500h-138zM129 0l-123 500h99l95 -415h10l95 415h80l-118 -500h-138zM268 556l-35 34l99 116q5 6 10 6h18q6 0 10 -6l99 -116l-35 -34l-83 64z" />
    <glyph glyph-name="Ycircumflex" unicode="&#x176;" horiz-adv-x="490" 
d="M227 277l149 348h104l-185 -410v-215h-100v215l-185 410h104l149 -348h-36zM162 681l-35 34l99 116q5 6 10 6h18q6 0 10 -6l99 -116l-35 -34l-83 64z" />
    <glyph glyph-name="ycircumflex" unicode="&#x177;" horiz-adv-x="450" 
d="M149 30l-143 470h99l115 -385h10l115 385h99l-143 -470h-152zM93 -175q-22 0 -45.5 3t-41.5 8l4 53l69 9q38 5 59.5 14.5t34 30t23.5 57.5l9 30h96q-23 -77 -50.5 -122t-65 -64t-92.5 -19zM142 556l-35 34l99 116q5 6 10 6h18q6 0 10 -6l99 -116l-35 -34l-83 64z" />
    <glyph glyph-name="Ydieresis" unicode="&#x178;" horiz-adv-x="490" 
d="M227 277l149 348h104l-185 -410v-215h-100v215l-185 410h104l149 -348h-36zM337 700q-33 0 -42.5 13t-9.5 44q0 32 9.5 45t42.5 13q32 0 41.5 -13t9.5 -45q0 -31 -9.5 -44t-41.5 -13zM154 700q-33 0 -42.5 13t-9.5 44q0 32 9.5 45t42.5 13q32 0 41.5 -13t9.5 -45
q0 -31 -9.5 -44t-41.5 -13z" />
    <glyph glyph-name="Zacute" unicode="&#x179;" horiz-adv-x="545" 
d="M35 0v67l342 469l-3 6h-289l-12 83h437v-67l-342 -469l3 -6h323v-83h-459zM244 689l-22 34l152 110q5 4 8 4q4 0 8 -5l43 -53q7 -8 7 -12q0 -5 -7 -11l-27 -22q-4 -4 -8.5 -6t-13.5 -4z" />
    <glyph glyph-name="zacute" unicode="&#x17a;" horiz-adv-x="473" 
d="M309 422l-4 6h-237l-8 72h373v-55l-269 -367l3 -6h261v-72h-388v55zM194 564l-22 34l152 110q5 4 8 4q4 0 8 -5l43 -53q7 -8 7 -12q0 -5 -7 -11l-27 -22q-4 -4 -8.5 -6t-13.5 -4z" />
    <glyph glyph-name="Zdotaccent" unicode="&#x17b;" horiz-adv-x="545" 
d="M35 0v67l342 469l-3 6h-289l-12 83h437v-67l-342 -469l3 -6h323v-83h-459zM308 712q-37 0 -49.5 12.5t-12.5 47.5q0 36 13 49t49 13q35 0 47.5 -13t12.5 -49q0 -35 -12 -47.5t-48 -12.5z" />
    <glyph glyph-name="zdotaccent" unicode="&#x17c;" horiz-adv-x="473" 
d="M309 422l-4 6h-237l-8 72h373v-55l-269 -367l3 -6h261v-72h-388v55zM258 587q-37 0 -49.5 12.5t-12.5 47.5q0 36 13 49t49 13q35 0 47.5 -13t12.5 -49q0 -35 -12 -47.5t-48 -12.5z" />
    <glyph glyph-name="Zcaron" unicode="&#x17d;" horiz-adv-x="545" 
d="M35 0v67l342 469l-3 6h-289l-12 83h437v-67l-342 -469l3 -6h323v-83h-459zM224 837l83 -64l83 64l35 -34l-99 -116q-4 -6 -10 -6h-18q-5 0 -10 6l-99 116z" />
    <glyph glyph-name="zcaron" unicode="&#x17e;" horiz-adv-x="473" 
d="M309 422l-4 6h-237l-8 72h373v-55l-269 -367l3 -6h261v-72h-388v55zM174 712l83 -64l83 64l35 -34l-99 -116q-4 -6 -10 -6h-18q-5 0 -10 6l-99 116z" />
    <glyph glyph-name="florin" unicode="&#x192;" horiz-adv-x="419" 
d="M65 -175q-16 0 -37 3t-39 8l11 58q41 1 61.5 5.5t28.5 17.5t10 38l38 436q8 92 30.5 146.5t66.5 78.5t114 24q21 0 56 -5t60 -16l-21 -82q-21 8 -50.5 13t-53.5 5q-48 0 -67.5 -21t-25.5 -79l-43 -502q-6 -68 -39.5 -98t-99.5 -30zM60 287v57h317l-5 -57h-312z" />
    <glyph glyph-name="Aringacute" unicode="&#x1fa;" horiz-adv-x="551" 
d="M15 0l185 625h151l185 -625h-100l-156 533h-9l-156 -533h-100zM107 140v79h339v-79h-339zM276 664q-53 0 -76 25t-23 74t23 73.5t76 24.5t75.5 -24.5t22.5 -73.5t-22.5 -74t-75.5 -25zM233 716h42q19 0 30.5 3.5t11.5 22.5v67h-39q-20 0 -32.5 -3.5t-12.5 -21.5v-68z
M213 905l-22 34l152 110q5 4 8 4q4 0 8 -5l43 -53q7 -8 7 -12q0 -5 -7 -11l-27 -22q-4 -4 -8.5 -6t-13.5 -4z" />
    <glyph glyph-name="aringacute" unicode="&#x1fb;" horiz-adv-x="545" 
d="M208 -10q-82 0 -117.5 34.5t-35.5 115.5q0 52 10 83.5t39.5 48t87.5 22t153 5.5h45v-65h-163q-47 0 -64 -12t-17 -46v-109h134q47 0 63.5 12t16.5 46v295q-37 11 -101 11q-39 0 -82 -6t-87 -18l-13 73q25 9 58 16t70 10.5t71 3.5q68 0 108.5 -13.5t58 -44t17.5 -82.5
v-370h-46l-27 50q-36 -31 -79.5 -45.5t-99.5 -14.5zM276 539q-53 0 -76 25t-23 74t23 73.5t76 24.5t75.5 -24.5t22.5 -73.5t-22.5 -74t-75.5 -25zM233 591h42q19 0 30.5 3.5t11.5 22.5v67h-39q-20 0 -32.5 -3.5t-12.5 -21.5v-68zM213 780l-22 34l152 110q5 4 8 4q4 0 8 -5
l43 -53q7 -8 7 -12q0 -5 -7 -11l-27 -22q-4 -4 -8.5 -6t-13.5 -4z" />
    <glyph glyph-name="AEacute" unicode="&#x1fc;" horiz-adv-x="758" 
d="M15 0l162 625h481l-15 -90h-254l48 -184h179v-85h-157l45 -176h204v-90h-286l-34 137h-234l-33 -137h-106zM176 227h190l-74 306h-41zM316 689l-22 34l152 110q5 4 8 4q4 0 8 -5l43 -53q7 -8 7 -12q0 -5 -7 -11l-27 -22q-4 -4 -8.5 -6t-13.5 -4z" />
    <glyph glyph-name="aeacute" unicode="&#x1fd;" horiz-adv-x="837" 
d="M208 -10q-82 0 -117.5 34.5t-35.5 115.5q0 52 10 83.5t39.5 48t87.5 22t153 5.5h45v-65h-163q-47 0 -64 -12t-17 -46v-109h134q47 0 63.5 12t16.5 46v295q-37 11 -101 11q-39 0 -82 -6t-87 -18l-13 73q25 9 58 16t70 10.5t71 3.5q68 0 108.5 -13.5t58.5 -44t18 -82.5
v-320l-66 7q-37 -34 -82.5 -50.5t-104.5 -16.5zM550 -10q-76 0 -115 20t-58 67l20 372q23 32 63 46.5t107 14.5q79 0 122.5 -13t60.5 -45.5t17 -91.5q0 -52 -10.5 -83.5t-42 -48t-92 -22t-161.5 -5.5h-30v65h162q49 0 66.5 12t17.5 46v104h-133q-48 0 -65.5 -12t-17.5 -46
v-290q23 -6 48 -8.5t59 -2.5q40 0 79 5.5t94 18.5l13 -73q-39 -14 -93.5 -22t-110.5 -8zM356 564l-22 34l152 110q5 4 8 4q4 0 8 -5l43 -53q7 -8 7 -12q0 -5 -7 -11l-27 -22q-4 -4 -8.5 -6t-13.5 -4z" />
    <glyph glyph-name="Oslashacute" unicode="&#x1fe;" horiz-adv-x="636" 
d="M190 -47q-7 -17 -16.5 -22.5t-26.5 -5.5h-31l330 748q8 17 17 22.5t26 5.5h31zM65 312q0 102 10.5 166.5t37.5 99.5t76.5 48.5t128.5 13.5q78 0 128 -13.5t77 -49t37.5 -99.5t10.5 -166t-10.5 -166t-37.5 -99t-77 -48.5t-128 -13.5q-79 0 -128.5 13.5t-76.5 48.5
t-37.5 99t-10.5 166zM172 70h206q48 0 67 16t19 57v412h-207q-48 0 -66.5 -16t-18.5 -57v-412zM255 689l-22 34l152 110q5 4 8 4q4 0 8 -5l43 -53q7 -8 7 -12q0 -5 -7 -11l-27 -22q-4 -4 -8.5 -6t-13.5 -4z" />
    <glyph glyph-name="oslashacute" unicode="&#x1ff;" horiz-adv-x="554" 
d="M277 -10q-65 0 -107.5 11.5t-66.5 40t-33.5 79.5t-9.5 129t9.5 129t33.5 79.5t66.5 40t107.5 11.5q66 0 108.5 -11.5t66 -40t33 -79t9.5 -129.5q0 -78 -9.5 -129t-33.5 -79.5t-66.5 -40t-107.5 -11.5zM164 72h178q29 0 38.5 5t9.5 20v331h-178q-28 0 -38 -5t-10 -20v-331
zM149 -78q-7 -15 -16.5 -20t-26.5 -5h-31l330 680q8 15 17 20t26 5h31zM214 564l-22 34l152 110q5 4 8 4q4 0 8 -5l43 -53q7 -8 7 -12q0 -5 -7 -11l-27 -22q-4 -4 -8.5 -6t-13.5 -4z" />
    <glyph glyph-name="uni0218" unicode="&#x218;" horiz-adv-x="519" 
d="M61 91q40 -10 93.5 -16.5t102.5 -6.5q25 0 49.5 1t63.5 5v186l-95 7q-67 5 -110 15.5t-67.5 30t-34 51.5t-9.5 81q0 72 18.5 114.5t60.5 61.5t111 19q52 0 101 -4.5t101 -14.5l-13 -79q-44 8 -87 11.5t-96 3.5q-29 0 -47 -1t-40 -4v-188l111 -7q79 -5 123.5 -23.5
t63 -57.5t18.5 -106q0 -69 -22 -109.5t-72.5 -58t-136.5 -17.5q-53 0 -102 5.5t-100 18.5zM264 -286l-43 13l21 98q-26 3 -38.5 17t-12.5 49q0 39 16 54t52 15t52 -15t16 -54q0 -36 -8.5 -59t-23.5 -54z" />
    <glyph glyph-name="uni0219" unicode="&#x219;" horiz-adv-x="481" 
d="M56 366q0 77 46 113t143 36q45 0 85.5 -5.5t80.5 -16.5l-14 -73q-25 7 -58.5 11.5t-63.5 4.5q-32 0 -61.5 -2.5t-52.5 -6.5v-118q87 -12 141 -24.5t83 -30.5t40 -45t11 -68q0 -56 -20.5 -90.5t-66.5 -50t-123 -15.5q-44 0 -89 7.5t-92 21.5l16 80q77 -30 164 -30
q30 0 52.5 3t53.5 11v118q-92 13 -147 25t-82.5 29.5t-36.5 45t-9 70.5zM246 -286l-43 13l21 98q-26 3 -38.5 17t-12.5 49q0 39 16 54t52 15t52 -15t16 -54q0 -36 -8.5 -59t-23.5 -54z" />
    <glyph glyph-name="uni021A" unicode="&#x21a;" horiz-adv-x="460" 
d="M280 542v-542h-100v542h-165v83h430v-83h-165zM235 -286l-43 13l21 98q-26 3 -38.5 17t-12.5 49q0 39 16 54t52 15t52 -15t16 -54q0 -36 -8.5 -59t-23.5 -54z" />
    <glyph glyph-name="uni021B" unicode="&#x21b;" horiz-adv-x="354" 
d="M194 -10q-37 0 -55.5 18.5t-18.5 56.5v542l100 25v-558q14 -1 30 -2.5t41 -2.5l-6 -68q-31 -6 -53 -8.5t-38 -2.5zM50 431v69h259v-69h-259zM182 -286l-43 13l21 98q-26 3 -38.5 17t-12.5 49q0 39 16 54t52 15t52 -15t16 -54q0 -36 -8.5 -59t-23.5 -54z" />
    <glyph glyph-name="uni0237" unicode="&#x237;" horiz-adv-x="280" 
d="M66 -175q-19 0 -40 3t-37 8l6 58q40 0 60.5 4.5t27.5 17.5t7 39v538l100 15v-568q0 -58 -30 -86.5t-94 -28.5z" />
    <glyph glyph-name="circumflex" unicode="&#x2c6;" horiz-adv-x="600" 
d="M109 556l-35 34l99 116q5 6 10 6h18q6 0 10 -6l99 -116l-35 -34l-83 64z" />
    <glyph glyph-name="caron" unicode="&#x2c7;" horiz-adv-x="600" 
d="M109 712l83 -64l83 64l35 -34l-99 -116q-4 -6 -10 -6h-18q-5 0 -10 6l-99 116z" />
    <glyph glyph-name="breve" unicode="&#x2d8;" horiz-adv-x="600" 
d="M192 567q-42 0 -73.5 24.5t-44.5 83.5l65 11q6 -22 21.5 -34t31.5 -12q17 0 32 12t21 34l65 -11q-13 -55 -45 -81.5t-73 -26.5z" />
    <glyph glyph-name="dotaccent" unicode="&#x2d9;" horiz-adv-x="600" 
d="M132 587q-37 0 -49.5 12.5t-12.5 47.5q0 36 13 49t49 13q35 0 47.5 -13t12.5 -49q0 -35 -12 -47.5t-48 -12.5z" />
    <glyph glyph-name="ring" unicode="&#x2da;" horiz-adv-x="600" 
d="M133 539q-53 0 -76 25t-23 74t23 73.5t76 24.5t75.5 -24.5t22.5 -73.5t-22.5 -74t-75.5 -25zM90 591h42q19 0 30.5 3.5t11.5 22.5v67h-39q-20 0 -32.5 -3.5t-12.5 -21.5v-68z" />
    <glyph glyph-name="ogonek" unicode="&#x2db;" horiz-adv-x="600" 
d="M91 -172q-42 0 -66.5 24t-24.5 65t37.5 70.5t95.5 36.5l10 -24l-20 -4q-28 -7 -36 -16t-8 -32v-21q0 -16 7.5 -25t21.5 -9h51l8 -48q-19 -8 -37.5 -12.5t-38.5 -4.5z" />
    <glyph glyph-name="tilde" unicode="&#x2dc;" horiz-adv-x="600" 
d="M250 564q-9 0 -17.5 3t-20 12.5t-32.5 27.5l-66 -33l-28 46q39 29 61.5 44t36.5 20.5t24 5.5q9 0 16.5 -3t19.5 -12t34 -28l66 33l28 -46q-34 -26 -57 -41.5t-38 -22t-27 -6.5z" />
    <glyph glyph-name="hungarumlaut" unicode="&#x2dd;" horiz-adv-x="600" 
d="M283 569l-22 34l133 105q5 4 8 4q2 0 3.5 -0.5t4.5 -4.5l44 -54q2 -3 4 -5.5t2 -5.5q0 -1 -0.5 -3t-3.5 -5l-30 -25q-4 -3 -8 -5.5t-14 -4.5zM62 569l-22 34l133 105q5 4 8 4q2 0 3.5 -0.5t4.5 -4.5l44 -54q2 -3 4 -5.5t2 -5.5q0 -1 -0.5 -3t-3.5 -5l-30 -25
q-4 -3 -8 -5.5t-14 -4.5z" />
    <glyph glyph-name="gravecomb" unicode="&#x300;" 
d="M269 554l-140 35q-14 4 -22 10l-27 22q-7 6 -7 11q0 4 7 12l43 53q4 5 8 5q3 0 8 -4l152 -110z" />
    <glyph glyph-name="acutecomb" unicode="&#x301;" 
d="M154 564l-22 34l152 110q5 4 8 4q4 0 8 -5l43 -53q7 -8 7 -12q0 -5 -7 -11l-27 -22q-4 -4 -8.5 -6t-13.5 -4z" />
    <glyph glyph-name="uni0302" unicode="&#x302;" 
d="M109 556l-35 34l99 116q5 6 10 6h18q6 0 10 -6l99 -116l-35 -34l-83 64z" />
    <glyph glyph-name="tildecomb" unicode="&#x303;" 
d="M250 564q-9 0 -17.5 3t-20 12.5t-32.5 27.5l-66 -33l-28 46q39 29 61.5 44t36.5 20.5t24 5.5q9 0 16.5 -3t19.5 -12t34 -28l66 33l28 -46q-34 -26 -57 -41.5t-38 -22t-27 -6.5z" />
    <glyph glyph-name="uni0304" unicode="&#x304;" 
d="M123 586q-31 0 -38 10.5t-7 35.5v35h199q31 0 37.5 -9.5t6.5 -35.5v-36h-198z" />
    <glyph glyph-name="uni0306" unicode="&#x306;" 
d="M192 567q-42 0 -73.5 24.5t-44.5 83.5l65 11q6 -22 21.5 -34t31.5 -12q17 0 32 12t21 34l65 -11q-13 -55 -45 -81.5t-73 -26.5z" />
    <glyph glyph-name="uni0307" unicode="&#x307;" 
d="M132 587q-37 0 -49.5 12.5t-12.5 47.5q0 36 13 49t49 13q35 0 47.5 -13t12.5 -49q0 -35 -12 -47.5t-48 -12.5z" />
    <glyph glyph-name="uni0308" unicode="&#x308;" 
d="M285 575q-33 0 -42.5 13t-9.5 44q0 32 9.5 45t42.5 13q32 0 41.5 -13t9.5 -45q0 -31 -9.5 -44t-41.5 -13zM102 575q-33 0 -42.5 13t-9.5 44q0 32 9.5 45t42.5 13q32 0 41.5 -13t9.5 -45q0 -31 -9.5 -44t-41.5 -13z" />
    <glyph glyph-name="uni030A" unicode="&#x30a;" 
d="M133 539q-53 0 -76 25t-23 74t23 73.5t76 24.5t75.5 -24.5t22.5 -73.5t-22.5 -74t-75.5 -25zM90 591h42q19 0 30.5 3.5t11.5 22.5v67h-39q-20 0 -32.5 -3.5t-12.5 -21.5v-68z" />
    <glyph glyph-name="uni030B" unicode="&#x30b;" 
d="M283 569l-22 34l133 105q5 4 8 4q2 0 3.5 -0.5t4.5 -4.5l44 -54q2 -3 4 -5.5t2 -5.5q0 -1 -0.5 -3t-3.5 -5l-30 -25q-4 -3 -8 -5.5t-14 -4.5zM62 569l-22 34l133 105q5 4 8 4q2 0 3.5 -0.5t4.5 -4.5l44 -54q2 -3 4 -5.5t2 -5.5q0 -1 -0.5 -3t-3.5 -5l-30 -25
q-4 -3 -8 -5.5t-14 -4.5z" />
    <glyph glyph-name="uni030C" unicode="&#x30c;" 
d="M109 712l83 -64l83 64l35 -34l-99 -116q-4 -6 -10 -6h-18q-5 0 -10 6l-99 116z" />
    <glyph glyph-name="uni0312" unicode="&#x312;" 
d="M128 817l43 -13l-21 -98q26 -3 38.5 -17t12.5 -49q0 -39 -16 -54t-52 -15t-52 15t-16 54q0 36 8.5 59t23.5 54z" />
    <glyph glyph-name="uni0326" unicode="&#x326;" 
d="M98 -286l-43 13l21 98q-26 3 -38.5 17t-12.5 49q0 39 16 54t52 15t52 -15t16 -54q0 -36 -8.5 -59t-23.5 -54z" />
    <glyph glyph-name="uni0327" unicode="&#x327;" 
d="M65 -172q-33 0 -68 16l7 49h35q24 0 33.5 7t9.5 25v96h20q26 -14 42.5 -45t16.5 -67q0 -37 -26 -59t-70 -22z" />
    <glyph glyph-name="uni0328" unicode="&#x328;" 
d="M91 -172q-42 0 -66.5 24t-24.5 65t37.5 70.5t95.5 36.5l10 -24l-20 -4q-28 -7 -36 -16t-8 -32v-21q0 -16 7.5 -25t21.5 -9h51l8 -48q-19 -8 -37.5 -12.5t-38.5 -4.5z" />
    <glyph glyph-name="uni0335" unicode="&#x335;" 
d="M30 269q0 26 8 34t33 8h223v-29q0 -25 -7.5 -33t-33.5 -8h-223v28z" />
    <glyph glyph-name="uni0336" unicode="&#x336;" 
d="M30 269q0 26 8 34t33 8h543v-29q0 -25 -7.5 -33t-33.5 -8h-543v28z" />
    <glyph glyph-name="uni0337" unicode="&#x337;" 
d="M15 265l-9 27q-6 18 -6 29q0 15 17 21l220 73l9 -27q6 -18 6 -29q0 -15 -17 -21z" />
    <glyph glyph-name="uni0338" unicode="&#x338;" 
d="M74 -15q-7 -15 -16.5 -20t-26.5 -5h-31l330 680q8 15 17 20t26 5h31z" />
    <glyph glyph-name="uni0394" unicode="&#x394;" horiz-adv-x="663" 
d="M393 625l220 -573l-19 -52h-525l-19 52l221 573h122zM453 80q29 0 29 23v6.5t-2 7.5l-152 397h-15l-167 -434h307z" />
    <glyph glyph-name="uni03A9" unicode="&#x3a9;" horiz-adv-x="666" 
d="M166 563v-290q0 -39 11 -57.5t30.5 -23.5t45.5 -5l-15 -187h-193v63l130 8l6 68q-37 8 -60.5 22.5t-37 40.5t-19 68t-5.5 105q0 82 12.5 134t43 80.5t83.5 39.5t135 11t135 -11t83.5 -39.5t43 -80.5t12.5 -134q0 -63 -5.5 -105t-19 -68t-37 -40.5t-60.5 -22.5l6 -68
l130 -8v-63h-193l-15 187h87v313q0 29 -9.5 42.5t-26 17t-38.5 3.5h-260z" />
    <glyph glyph-name="pi" unicode="&#x3c0;" horiz-adv-x="617" 
d="M98 0l30 421l-48 12v67h392q5 14 6 36l77 -7q0 -48 -5.5 -72.5t-22.5 -33t-50 -8.5h-197q-22 0 -35.5 -9.5t-15.5 -28.5l-59 -377h-72zM471 -7q-37 0 -55.5 18.5t-18.5 56.5v372h100v-363q12 -1 23 -2.5t23 -2.5l-6 -68q-23 -6 -38.5 -8.5t-27.5 -2.5z" />
    <glyph glyph-name="uni060C" unicode="&#x60c;" horiz-adv-x="230" 
d="M114 233l45 -14l-20 -90q23 -4 32 -18.5t9 -47.5q0 -39 -14.5 -54t-52.5 -15q-35 0 -49 15t-14 54q0 12 2.5 24t8.5 27.5t15 37.5z" />
    <glyph glyph-name="uni0615" unicode="&#x615;" 
d="M-127 629v234h60v-120q17 27 44.5 42t72.5 15t62.5 -16.5t17.5 -58.5v-96h-60v117q-8 4 -19.5 6t-23.5 2q-49 0 -71.5 -30t-22.5 -95h-60zM-157 590v45h287v-45h-287z" />
    </font>
</defs>
</svg>
