<?xml version="1.0" standalone="no"?>
<!DOCTYPE svg PUBLIC "-//W3C//DTD SVG 1.1//EN" "http://www.w3.org/Graphics/SVG/1.1/DTD/svg11.dtd" >
<svg xmlns="http://www.w3.org/2000/svg" xmlns:xlink="http://www.w3.org/1999/xlink" version="1.1">
<metadata></metadata>
<defs>
<font id="balsamiq_sansregular" horiz-adv-x="0" >
<font-face units-per-em="2048" ascent="1638" descent="-410" />
<missing-glyph horiz-adv-x="552" />
<glyph unicode="&#xfb01;" horiz-adv-x="995" d="M246 0q-84 4 -92 123q-8 139 -13 481v98l-2 156h-16q-49 0 -78 28.5t-29 74.5q0 43 26 73.5t69 30.5h36q-2 209 95.5 324.5t279.5 115.5q150 0 241 -43t91 -110q0 -53 -31.5 -86t-79.5 -33q-33 0 -65.5 16.5t-65.5 32.5q-51 23 -114 23q-55 0 -79 -15.5t-40 -44.5 q-27 -51 -27 -180h88q47 0 75 -29.5t28 -72.5t-28 -73t-75 -30h-96v-235q0 -115 1 -247t11 -235q4 -66 -25.5 -105.5t-84.5 -37.5v0zM764 -2q-41 0 -69.5 26.5t-28.5 75.5q-2 45 -2 166q0 61 4 258v45l4 416q0 47 30.5 74.5t71.5 27.5t72 -27.5t31 -74.5l-5 -414v-49 q-4 -193 -4 -252q0 -121 2 -166q0 -49 -31.5 -77.5t-74.5 -28.5v0z" />
<glyph unicode="&#xfb02;" horiz-adv-x="962" d="M250 0q-88 4 -96 123q-8 139 -13 481v98l-2 152h-16q-49 0 -78 28.5t-29 73.5q0 47 31 78t76 31h24q4 201 100.5 320.5t274.5 119.5q143 0 226 -45t88 -123q2 -61 2 -188v-186q4 -279 4 -385v-478q-2 -47 -31 -72.5t-68 -27.5q-43 -2 -75.5 25.5t-30.5 76.5q2 92 1 173 t-1 151v94q0 172 2 271v323.5t-2 241.5l113 -123q-23 0 -88 27q-51 20 -89 32.5t-75 12.5q-55 0 -79 -15.5t-40 -44.5q-27 -51 -27 -180h78q45 0 73.5 -33t28.5 -76t-27.5 -69.5t-74.5 -26.5h-86v-209q0 -340 12 -508q6 -70 -24.5 -107.5t-81.5 -35.5v0z" />
<glyph />
<glyph unicode="&#xd;" horiz-adv-x="681" />
<glyph unicode=" "  horiz-adv-x="552" />
<glyph unicode="&#x09;" horiz-adv-x="552" />
<glyph unicode="&#xa0;" horiz-adv-x="552" />
<glyph unicode="!" horiz-adv-x="428" d="M121 442q-6 135 -7 287t2 345.5t3 287.5q0 43 29.5 72.5t72.5 29.5t73 -29.5t30 -72.5q0 -96 -3.5 -285.5t-2.5 -339t8 -286.5q2 -41 -27 -73t-71 -34t-73.5 26.5t-33.5 71.5v0zM276 168q31 -29 31 -72t-29.5 -72.5t-72.5 -29.5t-73 29.5t-30 72.5t30 73t73 30t71 -31v0z " />
<glyph unicode="&#x22;" horiz-adv-x="763" d="M637 981q0 -43 -31 -71.5t-74 -28.5t-71.5 30.5t-28.5 73.5q8 360 14 438q4 43 37 71t75 23.5t69.5 -37t23.5 -73.5q-6 -72 -14 -426v0zM311 979q-2 -43 -32.5 -71.5t-73.5 -26.5t-72 32.5t-27 73.5q2 72 3 414q0 43 29.5 72.5t72.5 29.5t72.5 -29.5t29.5 -72.5 q0 -346 -2 -422v0z" />
<glyph unicode="#" horiz-adv-x="1316" d="M946 131q-4 -43 -38 -69.5t-75.5 -22.5t-68.5 38t-23 75q12 109 19 229q-111 0 -217 -2q-8 -123 -19 -232q-4 -43 -36.5 -69.5t-75.5 -22.5t-70 37t-23 76q10 94 19 205q-59 -2 -119 -6q-43 -2 -74.5 25.5t-33.5 70.5t25.5 74.5t70.5 33.5q70 4 143 7l6 151q4 68 9 119 l-74 -2q-43 -2 -74 27.5t-33 71.5t28 73t71 33l96 4q10 135 24 248q6 41 40 66.5t76 20t67.5 -39t21.5 -76.5q-14 -100 -24 -213q106 2 192 4q2 131 6 233q2 43 34 72t74 27t70.5 -34t26.5 -73q-4 -100 -6 -225l135 -4q43 -2 72 -33t26.5 -74t-33 -71.5t-73.5 -26.5l-131 4 q0 -94 -2 -145q0 -72 -2 -131l143 -4q41 -2 71 -33t27.5 -73t-33 -71.5t-73.5 -27.5l-143 4q-6 -135 -19 -248v0zM555 584q104 2 213 2q2 57 2 133q2 49 2 141q-88 -2 -203 -4q-4 -55 -8 -137l-6 -135v0z" />
<glyph unicode="$" horiz-adv-x="1456" d="M793 -2q-74 -14 -156 -9t-155.5 22.5t-139.5 62.5t-100 110q-18 35 -32.5 77t-25 90t-14.5 59q-12 39 8.5 73.5t61.5 46t78.5 -7t50.5 -57.5q10 -37 19 -76t16.5 -64.5t19.5 -48.5q29 -51 119 -76.5t217 -8t216 66.5t109 107q14 51 5 80.5t-46 60.5q-72 53 -284 125 q-8 2 -72 20l-82 29q-23 8 -68.5 25.5t-80.5 32t-66 28.5q-219 115 -235 289q-18 203 137 315q129 94 328 98q186 4 361 -71.5t247 -220.5q18 -35 20 -84v-29q0 -10 2 -16q4 -41 -21.5 -73t-69.5 -36t-76.5 20.5t-39.5 65.5q-2 14 -2 35v33q-41 78 -158.5 130t-258.5 50 q-131 0 -205 -58q-68 -49 -58 -139q6 -74 127 -135q72 -37 338 -127q250 -84 349 -158q180 -139 104 -352q-31 -86 -114 -152.5t-177 -102.5t-196 -50v0zM774 -162q0 -53 -26.5 -86t-78 -29.5t-73 35t-16.5 99.5l8 284l8 545l-2 8l4 658l-2 153q2 61 26.5 89t79.5 32 q59 -8 78 -36.5t21 -82.5l-8 -188l-15 -1354l-4 -127v0z" />
<glyph unicode="%" horiz-adv-x="1933" d="M596 23q-16 -39 -56 -53.5t-79 3t-53.5 57.5t4.5 79q31 70 98 174q70 111 92 151l436 774l203 348q20 37 61 48.5t78 -10t48.5 -62.5t-11.5 -78l-198 -346l-244 -420l-193 -348q-27 -49 -100 -168q-59 -92 -86 -149v0zM442 993q49 -2 95.5 35t72.5 100q25 59 17 101 q-4 20 -15 24q-29 12 -88 11q-10 0 -20 -1t-23.5 -2t-21.5 -1q-10 -2 -23 -3q-14 -6 -24 -12l-33 -14q-25 -10 -33 -19q-53 -51 -18 -131q18 -39 49 -62.5t65 -25.5v0zM434 788q-100 4 -178 63.5t-115 147.5q-27 57 -31 119t19 126.5t74 115.5q33 33 90 59l14 6q33 39 84 37 q20 0 55 2l70 4q100 4 170 -22q119 -47 143 -182q16 -98 -30 -213q-45 -111 -141.5 -190t-223.5 -73v0zM1339 18q-147 31 -226 136.5t-79 236.5q2 125 75 235.5t202 157.5q39 14 94 13q2 0 31 -4h16q55 2 86 -45q47 -6 82 -21q78 -31 127 -86t66.5 -118.5t13.5 -130 t-29 -128.5q-53 -129 -177 -203.5t-282 -42.5v0zM1380 219q78 -16 139.5 19.5t90.5 105.5q27 63 9.5 116.5t-77.5 78.5q-14 4 -43 6q-84 6 -86 6q-33 6 -57 31q-55 -29 -85 -81t-32 -112q0 -63 36 -109.5t105 -60.5v0z" />
<glyph unicode="&#x26;" horiz-adv-x="1357" d="M1149 -8q-35 0 -70 28l-73 66q-111 94 -162 145q-188 186 -284.5 296t-182.5 239q-125 190 -125 336q0 90 50 172t136 132t189 50q137 0 215 -69.5t78 -176.5q0 -104 -66 -193t-207 -194q-96 -70 -123 -92q-117 -90 -166 -160.5t-49 -160.5q0 -94 60.5 -152.5 t160.5 -58.5q186 0 312 182q49 74 94 207q18 47 44 69.5t62 22.5q45 0 71 -28.5t26 -71.5q0 -63 -44 -165t-106 -179q-82 -104 -203.5 -169t-257.5 -65q-125 0 -221 51q-98 51 -152.5 141.5t-54.5 202.5q0 145 78 261t244 231q139 94 213 162q82 72 82 135q0 33 -24.5 54.5 t-78.5 21.5q-61 0 -109 -48.5t-48 -111.5q0 -55 18.5 -102.5t63.5 -127.5q41 -74 169 -220t257 -261q82 -74 258 -223q33 -27 32 -72q0 -41 -31.5 -72.5t-74.5 -31.5v0z" />
<glyph unicode="'" horiz-adv-x="458" d="M141 936q-14 311 -28 414q-4 43 21.5 76.5t67.5 38.5t75.5 -20.5t39.5 -66.5q14 -119 29 -434q2 -43 -26.5 -73.5t-71.5 -32.5t-74 26.5t-33 71.5v0z" />
<glyph unicode="(" horiz-adv-x="737" d="M365 -311l-46 65q-23 35 -38 60q-102 188 -133 426.5t3.5 448.5t111.5 385t194 347q20 37 62 45.5t78 -12t45 -59.5t-13 -72q-141 -217 -219 -435t-69 -477t124 -507q12 -25 27.5 -47.5t39 -53t39.5 -57.5q23 -31 15 -71t-44 -60.5t-78 -13t-65 42.5z" />
<glyph unicode=")" horiz-adv-x="759" d="M283 -354q-27 -31 -67 -40t-76 12.5t-46 60t17 69.5q307 350 321 791q14 455 -274 790q-27 31 -15.5 70t47 59.5t75.5 11t65 -39.5q324 -385 307 -900q-16 -494 -354 -884v0z" />
<glyph unicode="*" horiz-adv-x="956" d="M483 895l-129 -141q-29 -31 -70.5 -33t-73.5 26.5t-34 70.5t27 75l114 127q-18 10 -28 14q-2 0 -115 35q-41 12 -60.5 50t-7 79t50.5 60.5t79 7.5q121 -37 133 -43l16 -9q0 8 2 160q0 41 31 71t72.5 30t71.5 -31t30 -74q0 -35 -1 -65.5t-1 -44.5v-25l100 35 q41 12 79 -7.5t51.5 -59.5t-6 -78t-58.5 -52q-121 -39 -123 -39l188 -172q31 -29 31 -71.5t-28.5 -73.5t-71.5 -31t-74 29z" />
<glyph unicode="+" horiz-adv-x="1370" d="M580 106q0 102 -5 357q-244 -2 -339 -2q-43 0 -73 27.5t-30 65.5t30 66.5t73 28.5q96 0 337 2q0 203 5 348q2 41 32.5 71t72.5 28t71.5 -33t27.5 -74q-4 -141 -4 -338q205 0 359 -4q43 -2 71.5 -30.5t27.5 -66.5t-31.5 -64.5t-71.5 -26.5q-152 4 -353 4q4 -256 4 -359 q0 -43 -29.5 -72.5t-72.5 -29.5t-72.5 29.5t-29.5 72.5v0z" />
<glyph unicode="," horiz-adv-x="372" d="M113 -313q-37 0 -59.5 24.5t-22.5 61.5q0 23 8 41t27 43q18 27 28 48t10 46q0 31 -16 86q-12 45 -12 59q0 41 27.5 69t64.5 28q78 0 98 -72q25 -96 25 -162q0 -45 -15.5 -87t-44.5 -101q-43 -84 -118 -84v0z" />
<glyph unicode="-" horiz-adv-x="749" d="M207 471q-43 -2 -72 21.5t-32 65.5t22 70.5t65 33.5q70 4 193 8t161 6t69.5 -23.5t33.5 -67.5t-26.5 -70t-69.5 -30t-158 -6t-186 -8v0z" />
<glyph unicode="." horiz-adv-x="399" d="M281 203q37 -35 36.5 -83t-35 -83t-83.5 -35t-83 35t-34 83t34 83t83 35t82 -35v0z" />
<glyph unicode="/" horiz-adv-x="925" d="M342 41q-12 -39 -50 -58.5t-78 -6t-59.5 51.5t-4.5 78q113 352 462 1315q12 41 49 61.5t78 8.5t61.5 -49t8.5 -78q-313 -852 -467 -1323v0z" />
<glyph unicode="0" horiz-adv-x="1204" d="M731 14q-252 -66 -432 117q-147 150 -195 414q-25 111 -16.5 238.5t37.5 242.5t98.5 218.5t165.5 164.5q16 10 39 19.5t41 15.5l35 12q16 4 18 4q57 20 103 -20q25 2 70.5 -2t62.5 -4q176 -41 276 -271q82 -188 84 -430q2 -250 -82 -436q-104 -233 -305 -283v0zM682 211 q104 27 168 170q66 147 63 352q-2 201 -65 348q-59 135 -135 152q-33 6 -44.5 5t-49 -4t-74.5 -3q-20 0 -41 8q-2 -2 -4 -2q-123 -78 -177.5 -265.5t-17.5 -391.5q37 -201 139 -304q98 -100 238 -65v0z" />
<glyph unicode="1" horiz-adv-x="792" d="M621 106q-2 -41 -31 -70.5t-71 -27.5t-71.5 33t-27.5 74q16 526 6 962q-29 -27 -64 -45q-70 -43 -196 -65q-43 -8 -78 16.5t-42 66.5t17.5 76.5t65.5 40.5q90 16 129 41q43 25 90 92v3q0 2 1 5t2 8t4 13t5 19q41 121 146 114q57 -4 86 -53q14 -20 22 -51q8 -33 11 -86 q2 -23 2 -172q0 -78 1 -248t1 -265t-2 -230.5t-6 -250.5v0z" />
<glyph unicode="2" horiz-adv-x="1208" d="M1079 -4q-303 20 -520 16q-6 0 -25.5 -1t-51 -2t-56.5 -1q-53 -2 -84 -2q-20 -2 -31 0h-14q-16 0 -35 6q-51 20 -99 62.5t-59 107.5q-12 70 35 148q29 49 90 112q49 49 250 224q170 147 244 229q90 104 92 160q2 100 -46 148t-128 52q-86 2 -165 -46t-114 -132 q-2 -8 -4 -28q-4 -63 -4 -66q-6 -41 -39.5 -66.5t-75.5 -20.5t-68 39t-21 77q2 8 3 16t1 19.5t2 17.5q4 51 18 86q57 150 192.5 231.5t280.5 77.5q160 -6 268.5 -113.5t104.5 -295.5q-4 -131 -143 -291q-78 -88 -263 -248q-190 -164 -239 -213q-43 -45 -62 -76q-2 -2 -2 -6 q4 -4 13 -6h14q29 0 82 2q25 0 57.5 1t52 2t25.5 1q227 4 537 -16q43 -2 70.5 -35t25.5 -75t-35 -69.5t-74 -25.5v0z" />
<glyph unicode="3" horiz-adv-x="1259" d="M547 2q-133 10 -230 76q-94 61 -137 143q-8 16 -55 148q-14 39 3 78.5t57 54t79 -3t53 -60.5q41 -115 43 -116q18 -35 68 -68q55 -35 139 -44t170 17q86 27 139.5 77t63.5 116q16 111 -90 178q-41 25 -94 41q-16 6 -33 10l-10 2q-4 0 -6 2q-4 0 -9 2q-6 2 -12 7 q-10 4 -20 14q-31 27 -35 69q-4 47 28 86q10 12 25 23l41 27q57 39 86 65q86 76 61 152q-41 133 -182 151q-68 10 -138.5 -10t-123.5 -65q-16 -16 -27.5 -25.5t-20.5 -26t-13.5 -24.5t-16.5 -39t-22 -49q-16 -39 -56.5 -54.5t-79 3t-53 59.5t3.5 80q4 10 19.5 46t23 50 t23.5 41t36.5 50.5t51.5 47.5q86 76 198.5 109t223.5 16q119 -16 214 -91t136 -202q66 -211 -123 -379l-2 -2l12 -8q94 -59 150.5 -155.5t34.5 -233.5q-20 -139 -117.5 -231.5t-226.5 -128.5q-115 -39 -250 -25v0z" />
<glyph unicode="4" horiz-adv-x="1249" d="M801 -10q-43 0 -74 26.5t-31 75.5q0 115 4 299l-153 -2q-150 0 -277 -4q-86 -4 -141 32t-55 109q0 37 20.5 74t71.5 88q57 57 228 307t239 377q29 55 61.5 79t77.5 24q47 0 82 -35t39 -113q29 -461 18 -731q145 0 205 -2q47 0 74 -28.5t27 -69.5q0 -43 -28 -75t-77 -32 q-61 2 -205 2q-6 -143 -6 -303q0 -47 -29.5 -72.5t-70.5 -25.5v0zM707 596q4 106 2 270t-9 236q-145 -248 -346 -510z" />
<glyph unicode="5" horiz-adv-x="1173" d="M758 31q-76 -29 -156 -35t-165 19.5t-148 84.5q-45 43 -82 117l-23 51q-12 25 -20 39q-23 37 -11.5 78t48.5 62.5t77.5 10t61.5 -47.5q14 -23 29 -56l22 -47q20 -41 37 -55q45 -41 113.5 -49t144.5 18q74 29 122 80t54 109q14 106 -33 194t-135 127t-184 12l-31 -14 l-76 -37q-51 -25 -84 -35q-29 -8 -49 -10q-49 -4 -86 21q-88 59 -43 174q4 10 8.5 18t5.5 12.5t3 6.5t2 4v2q31 221 30 446q0 41 29 72q29 51 88 53q158 4 633 4q43 0 72.5 -29.5t29.5 -72.5t-29.5 -73t-72.5 -30q-422 0 -547 -2q-4 -193 -22 -350l18 10q47 23 64 27 q137 41 256.5 4t204.5 -116.5t127 -199.5t26 -247q-16 -121 -103 -214t-206 -136v0z" />
<glyph unicode="6" horiz-adv-x="1251" d="M416 68q-123 68 -200 187.5t-99.5 254.5t-10 274.5t59.5 262.5q49 131 133 232t195 153q262 111 544 -107q35 -27 40 -70t-20.5 -76.5t-67.5 -38.5t-75 19q-190 145 -340 82q-141 -63 -219 -268q-37 -96 -47 -201q129 117 262 150q80 18 186.5 -5.5t174.5 -66.5 q131 -76 187.5 -190.5t43 -229.5t-81.5 -213t-170 -156.5t-231 -63.5t-264 71v0zM674 207q78 2 138 35.5t101 91.5q37 57 45.5 115.5t-23.5 119t-106 103.5q-41 23 -108.5 39t-99.5 8q-35 -8 -63 -20.5t-60.5 -38t-48.5 -39.5l-119 -119q49 -180 184 -252q84 -45 160 -43v0z " />
<glyph unicode="7" horiz-adv-x="1005" d="M344 47q-18 -41 -57 -55.5t-78 5t-53.5 59.5t4.5 81q10 20 49 111l51 119l51 108q37 82 56 117l55 113q35 70 61 114l62 107q35 59 69 110l70 105q2 4 27 57l39 51h-2q-84 4 -224 4q-270 0 -356 -4q-41 -2 -73 28t-34 74t27 76.5t68 34.5q92 4 368 4q135 0 232 -4 q55 -2 84 -6q20 -2 34 -4q35 -8 62 -35q57 -61 39 -153q-8 -51 -43 -129q-10 -18 -27 -39q-12 -25 -22 -39l-25 -29l-10 -16q-35 -47 -66.5 -95.5t-66.5 -105.5l-58 -98q-20 -41 -55 -111l-53 -102l-53 -115l-50 -106l-53 -121q-41 -92 -49 -111v0z" />
<glyph unicode="8" horiz-adv-x="1193" d="M516 0q-139 20 -241.5 99t-139.5 194q-39 121 5 241.5t165 210.5q16 12 37 25q-25 8 -43 16q-127 61 -176 154q-76 139 45 324q143 219 459 200q12 2 22 2q8 0 25 2l37 2q61 6 108 -8q94 -33 155.5 -108.5t86.5 -171.5q23 -84 6.5 -184.5t-76.5 -172.5q-37 -47 -92 -82 q74 -59 121 -133q90 -147 78.5 -275t-111.5 -220q-86 -76 -214 -105.5t-257 -9.5v0zM545 201q94 -12 176 7t129 60q92 82 -2 232q-57 92 -201 155q-66 -14 -93.5 -21t-65 -21.5t-60.5 -30.5q-72 -53 -93.5 -112.5t-4.5 -113.5q18 -55 73.5 -98t141.5 -57v0zM666 870 q125 31 165 82q55 70 29 181q-14 63 -53 100q-12 0 -25 2q-113 23 -189.5 26t-145 -22t-107.5 -86q-55 -84 -37 -119q16 -31 84 -61q37 -18 193 -72q51 -16 86 -31v0z" />
<glyph unicode="9" horiz-adv-x="1183" d="M999 90q-4 -43 -35.5 -69.5t-74.5 -23.5t-69.5 34.5t-24.5 74.5q20 338 28 568q-111 -109 -262 -131q-119 -14 -217 19.5t-159.5 101t-94.5 153.5t-31 178q2 96 41 182.5t110 153t183.5 100t247.5 21.5q90 -8 147 -37q20 -10 54 -31l32 -22q16 8 37 10q43 2 75 -25.5 t34 -70.5q29 -483 -21 -1186v0zM532 748q76 10 134.5 61t89.5 133q20 51 39 227q-2 2 -7 5l-59 38l-33 21q-23 10 -71 14q-94 8 -166 -10q-72 -20 -112 -60t-60.5 -87.5t-22.5 -100.5q-2 -113 71 -186.5t197 -54.5v0z" />
<glyph unicode=":" horiz-adv-x="413" d="M285 203q37 -35 36.5 -83t-35 -83t-83.5 -35t-83 35t-34 83t34 83t83 35t82 -35v0zM281 1043q37 -35 36.5 -83t-35 -83t-83.5 -35t-83 35t-34 83t34 83t83 35t82 -35v0z" />
<glyph unicode=";" horiz-adv-x="421" d="M240 -274q-14 -35 -52 -51.5t-78 -3t-58.5 47t-4.5 70.5q23 57 53 125q14 31 15 35q2 4 -2 24q-12 104 -15 117q-4 39 24 67.5t59.5 33t74.5 -20.5t47 -61q0 -12 14 -113q4 -49 0 -80q-6 -23 -26 -72q-27 -61 -51 -118v0zM281 1042q37 -35 36.5 -83t-35 -82.5 t-83.5 -34.5t-83 34.5t-34 83t34 83t83 34.5t82 -35v0v0z" />
<glyph unicode="&#x3c;" horiz-adv-x="1427" d="M1141 12q-41 -10 -78 13q-236 141 -649 323l-11 4l-32 10q-49 20 -86 41q-63 33 -95 76q-57 78 -24 164q31 80 133 94q14 2 25 4h14h10l133 47q309 113 645 277q39 18 79 5t58.5 -52t5 -79t-51.5 -58q-365 -174 -666 -285l-113 -39l4 -2l29 -10q16 -6 25 -8 q426 -188 673 -336q35 -23 46.5 -64t-11 -76.5t-63.5 -48.5v0z" />
<glyph unicode="=" horiz-adv-x="1464" d="M1198 186q-104 4 -469 4q-295 0 -479 13q-41 4 -68.5 35.5t-24.5 73.5t34.5 70t74.5 26q174 -12 463 -13q367 0 477 -4q41 -2 71 -32.5t28 -72.5t-33 -72t-74 -28v0zM258 618q-43 0 -73.5 29t-30.5 72t28.5 73.5t71.5 30.5q602 12 954 13q43 0 73 -30t30 -73t-30 -72.5 t-73 -29.5q-348 0 -950 -13v0z" />
<glyph unicode="&#x3e;" horiz-adv-x="1558" d="M311 43q-41 -14 -78.5 4.5t-51 59t5 78.5t59.5 51q74 25 395 153q256 102 412 150h4q-20 10 -39 18q-510 207 -789 281q-41 10 -62.5 47t-10 78t48.5 62.5t78 8.5q291 -76 813 -289q27 -10 67.5 -30.5t57.5 -26.5q2 -2 4 -2h6q4 0 15 -1t28 -5q43 -8 69 -25 q61 -39 62 -110q0 -74 -78 -123q-33 -20 -86 -41q-16 -4 -131 -39q-147 -45 -393 -143q-281 -113 -406 -156v0z" />
<glyph unicode="?" horiz-adv-x="1038" d="M588 434q-4 -43 -38 -69.5t-76 -22.5t-68.5 38t-22.5 75q2 12 6 65q4 39 8 62q12 61 58 141q33 57 108 133q6 4 49 45l64 64q90 98 69 165q-18 61 -87.5 102.5t-167 42.5t-164 -38t-84.5 -102l2 -15v-10l4 -8v-8q4 -23 6 -39q2 -43 -25.5 -75t-69.5 -35t-74 24.5 t-36 68.5q0 8 -2 21q-6 29 -6 31q-8 55 4 98q27 100 101.5 168.5t162.5 96.5t183 26q94 0 182 -29t162.5 -96.5t105.5 -161.5q55 -182 -119 -367q-14 -18 -35 -39l-45 -41q-25 -23 -36 -34q-55 -55 -76 -90q-27 -49 -33 -78q-2 -12 -4 -39q-6 -57 -6 -70v0zM567 184 q31 -29 31 -71.5t-29.5 -72.5t-72.5 -30t-73 30t-30 73t30 72.5t73 29.5t71 -31v0z" />
<glyph unicode="@" horiz-adv-x="1888" d="M987 12q-227 10 -424.5 118t-318.5 282q-82 119 -117 253t-12.5 286.5t108.5 297.5q59 98 146.5 175t185.5 121t207.5 65.5t218.5 17.5t211 -29q133 -33 246.5 -101t198.5 -168.5t122 -241t10 -300.5q-16 -109 -89.5 -197.5t-174.5 -131.5q-68 -31 -138.5 -36t-143 26.5 t-123.5 101.5l-2 -2q-133 -145 -283 -148q-92 -2 -163.5 53.5t-112.5 157.5q-51 127 1 266.5t158 241.5q51 49 110.5 86t127.5 59.5t142.5 17.5t142.5 -44q37 -20 71 -63l19 -25q8 -10 14 -16q29 -31 27 -74t-33 -72q-12 -10 -29 -18l-2 -17q-12 -84 -16 -120 q-8 -76 -8 -123q-2 0 2 -39q51 -74 157 -27q55 25 95.5 74t50.5 102q35 219 -86 372t-340 208t-428 -13.5t-316 -244.5q-66 -109 -82 -220.5t9.5 -209t85.5 -185.5q94 -135 250 -219q154 -84 333 -92q78 -4 168 16q88 18 140 37l174 70q39 16 78.5 0t55 -55t-1 -79 t-55.5 -54q-12 -6 -34 -15q-106 -43 -168 -65.5t-166.5 -43t-198.5 -16.5v0zM811 606q61 0 135 82q61 66 78 107q6 12 41 143v25q0 14 2 34q2 43 16 72q2 2 4 6q-51 10 -116.5 -14.5t-128.5 -87.5q-76 -72 -105.5 -152t-9.5 -131q16 -37 33.5 -57.5t28 -23.5t22.5 -3v0z" />
<glyph unicode="A" horiz-adv-x="1251" d="M223 61q-16 -41 -56 -57t-80 0t-56.5 56t0.5 79q41 100 107.5 305t94.5 277q14 41 117 291q96 246 150 399q14 41 52 60.5t79 5.5q18 -6 33 -19q41 -14 57 -55l510 -1260q16 -41 -0.5 -80.5t-56 -56t-79.5 0t-57 54.5l-153 398q-84 -4 -94 -4q-276 -10 -435 -11 q-92 -270 -133 -383v0zM432 653q172 2 369 9l-187 450l-182 -459v0z" />
<glyph unicode="B" horiz-adv-x="1402" d="M283 6q-43 2 -72 33t-27 74q2 33 23 59q0 100 -2 310t-2 319q0 37 1 136t0 145t-5 121t-13 134q-8 43 17.5 77t66.5 40q33 6 62 -8q10 4 22 4q229 14 361 2q250 -20 375 -127q82 -70 113.5 -170t11 -202.5t-84.5 -182.5q39 -18 68 -43q84 -70 114.5 -165t9 -182 t-76.5 -164t-131 -122q-61 -33 -137 -55.5t-140.5 -32.5t-153.5 -12t-140 0t-141.5 6t-118.5 6v0zM412 205q117 -4 218 -7t204.5 15t177.5 61q92 51 108.5 145.5t-53.5 151.5q-49 41 -225 52q-66 -10 -146 -11q-61 2 -182 11q-29 2 -49 2q-16 2 -33 8l-24 2q0 -39 2 -192.5 t2 -237.5v0zM528 827q20 0 97 2q127 2 194 -2h12q59 10 95 33q80 47 90 149.5t-58 159.5q-76 63 -262 80q-111 8 -295 -2q8 -102 7 -405h6q80 -10 114 -15v0z" />
<glyph unicode="C" horiz-adv-x="1456" d="M819 -16q-113 0 -221.5 28.5t-187.5 79.5q-90 57 -163 161.5t-114 228.5t-41 239q0 154 65.5 299t184.5 264q90 90 203 139q133 55 268 56q117 0 234 -45q76 -29 129 -73t116 -116l62 -76q25 -31 24 -63q0 -41 -32.5 -71.5t-75.5 -30.5t-76 38l-76 93q-29 31 -67.5 60.5 t-77.5 45.5q-88 37 -176 31q-186 -16 -314 -137q-186 -180 -186 -414q0 -125 66.5 -261t156.5 -196q55 -35 133 -55.5t160 -20.5q248 0 324 138q14 25 34 94l21 65q12 33 37.5 51.5t54.5 18.5q41 0 74 -28.5t33 -73.5q0 -18 -7 -37l-14 -43q-35 -106 -53 -146 q-63 -111 -178 -170t-262 -71q-18 -2 -58 -2v0z" />
<glyph unicode="D" horiz-adv-x="1492" d="M313 -4q-31 -2 -57 14q-33 10 -52.5 38t-19.5 63q0 66 11 641q2 94 -7 301q-8 203 -2 315q2 43 34 71.5t73 26.5h8q18 10 39 13q94 8 149.5 11t155.5 3t172 -13.5t159 -44t154 -79.5q143 -104 210 -267t61 -344q-6 -174 -78 -335q-74 -160 -203 -263q-154 -123 -415 -143 q-78 -6 -205 -6q-137 0 -187 -2v0zM500 203q121 0 188 6q186 14 293 98q90 72 144.5 191.5t58.5 255.5q6 135 -41 250q-49 117 -144 184q-76 55 -180 80q-106 25 -206.5 21.5t-223.5 -13.5q-2 -59 4 -215q8 -223 6 -313q0 -61 -2 -171t-4 -202t-2 -172h109z" />
<glyph unicode="E" horiz-adv-x="1349" d="M1167 8q-276 -4 -870 6q-41 0 -70.5 31t-29.5 72q-12 25 -13 51q4 139 4 401t2 357q0 35 -2 122t0 161.5t13 140.5q4 29 24.5 51t48.5 31q27 25 66 26q152 4 433.5 6t383.5 2q43 0 73 -29.5t30 -72.5t-30 -72.5t-73 -29.5q-109 0 -365.5 -2.5t-396.5 -4.5 q-6 -29 -3 -156.5t3 -176.5v-84q100 6 214 6t258.5 -2t213.5 -2q43 0 73 -30t30 -73t-30 -72.5t-73 -29.5q-72 0 -216 2t-256.5 2t-215.5 -6q0 -291 -2 -416q500 -8 772 -4q43 0 74 -28.5t31 -71.5t-29 -74t-72 -31v0z" />
<glyph unicode="F" horiz-adv-x="1220" d="M199 98q0 80 3 369t0 474t-18 378q0 12 2 24q-2 8 -2 15q0 43 29 73.5t72 30.5q569 10 833 0q43 -2 72 -32.5t26.5 -73.5t-33 -72t-73.5 -27q-258 10 -717 3q12 -193 15 -424q135 0 608 6q43 0 73.5 -30t30.5 -72t-29.5 -72.5t-70.5 -30.5q-475 -6 -612 -6 q0 -68 -2.5 -251t-2.5 -282q0 -43 -29.5 -72.5t-72.5 -29.5t-72.5 29.5t-29.5 72.5v0z" />
<glyph unicode="G" horiz-adv-x="1536" d="M1008 12q-213 -66 -454 43t-353 295q-82 137 -101.5 289t16.5 263.5t111.5 228t178.5 198.5q113 86 242.5 123t266 18.5t274.5 -111.5t251 -257q25 -35 16.5 -77t-44.5 -66.5t-77 -16.5t-65 43q-88 127 -189.5 197.5t-198 82t-184.5 -13.5q-84 -27 -163 -88 q-109 -84 -170 -202q-61 -102 -61.5 -237.5t75.5 -264.5q80 -133 255 -211t314 -37q127 39 206 148.5t77 240.5q-180 -2 -389 -12q-41 -2 -73 26.5t-34 71.5t27 76t72 35q260 12 495 12q43 0 74 -30.5t31 -73.5v-15q35 -221 -87 -416.5t-339 -261.5v0z" />
<glyph unicode="H" horiz-adv-x="1497" d="M401 100q0 -43 -30.5 -71.5t-73.5 -28.5t-71.5 30.5t-28.5 73.5q4 188 -6.5 605t-2.5 659q2 41 33 70.5t73 27.5t71.5 -32.5t27.5 -73.5q-6 -219 0 -518q483 16 709 14q-2 279 10 508q2 43 34 70.5t75 25.5t70.5 -33.5t25.5 -74.5q-10 -240 -12 -408q0 -203 5 -455.5 t5 -386.5q0 -43 -30 -72.5t-73 -29.5t-72.5 29.5t-29.5 72.5q0 72 -6 549q-221 2 -707 -14q8 -346 4 -537v0z" />
<glyph unicode="I" horiz-adv-x="634" d="M178 -4q-43 -2 -73.5 27.5t-32.5 71.5t27.5 73t70.5 33l45 2q0 637 -4 1059h-33q-43 0 -71.5 30.5t-28.5 73.5t30.5 71.5t73.5 28.5q104 -2 254 -4q41 0 71 -30.5t30 -72.5t-31 -72t-74 -30h-16q4 -420 4 -1052h41q43 0 72.5 -30t29.5 -73t-29.5 -72.5t-72.5 -29.5 q-158 0 -283 -4v0z" />
<glyph unicode="J" horiz-adv-x="1105" d="M455 4q-119 -14 -227.5 34t-161.5 165q-12 25 -21.5 60.5t-14.5 70.5t-7 37q-8 41 13 76.5t63 45t78 -12t46 -64.5q6 -31 10.5 -57.5t7.5 -40t9 -29.5q23 -45 70 -67.5t110.5 -14.5t113.5 43t66 80q41 104 55.5 273t9.5 309.5t-18 349.5q-92 -2 -178 -9q-43 -2 -74.5 26 t-34.5 70t24.5 73.5t68.5 35.5q135 8 282 10h13q111 0 241 -4q41 -2 71 -32.5t28 -72.5t-33 -72t-74 -27l-129 4q51 -721 -59 -1008q-43 -106 -139.5 -172t-208.5 -80v0z" />
<glyph unicode="K" horiz-adv-x="1320" d="M618 698l-212 -176q2 -240 10 -416q2 -43 -26 -74.5t-71 -33.5t-74.5 25.5t-33.5 70.5q-6 123 -8 242q-2 147 -2 301t-2 240q0 53 -8.5 220t-6.5 267q0 43 31 71.5t74 28.5t71.5 -30.5t28.5 -73.5q-2 -98 6 -262t8 -217q0 -45 3 -97q322 268 667 646q29 31 72 32.5 t73.5 -27t32.5 -71.5t-26 -74q-229 -254 -453 -456l526 -670q27 -33 22 -75t-38 -68.5t-75 -21.5t-68 38z" />
<glyph unicode="L" horiz-adv-x="1177" d="M682 -4q-266 -4 -379 2q-39 2 -67.5 29.5t-30.5 68.5q-2 10 -2 19q-2 117 -10.5 551t-8.5 708q0 43 30 73t73 30t72.5 -30t29.5 -73q0 -207 3 -397.5t8.5 -418.5t5.5 -357q106 -2 326 2t335 2q43 0 71.5 -31t28.5 -74t-30.5 -71.5t-73.5 -28.5q-111 2 -381 -4v0z" />
<glyph unicode="M" horiz-adv-x="1767" d="M1573 96q-2 -43 -33 -71.5t-74 -26.5t-71.5 32.5t-26.5 73.5q8 61 6 489.5t-2 489.5q-158 -205 -364 -524q-23 -37 -65 -45t-77 14q-2 2 -4 2q-18 12 -31 29q-86 121 -290 367l-133 159q6 -154 6 -352q0 -98 -3 -309t-3 -320q0 -43 -30 -72.5t-73 -29.5t-72.5 29.5 t-29.5 72.5q0 109 3 320t3 311q0 383 -25 617q-4 43 22.5 75.5t69.5 36.5q20 2 39 -4q47 -2 78 -39l305 -362q129 -154 217 -268q274 418 478 636q8 8 16 15q33 31 76 28.5t71.5 -33t26.5 -73.5q-8 -215 -5 -638t-5 -630v0z" />
<glyph unicode="N" horiz-adv-x="1540" d="M1245 -6q-14 0 -26 4q-59 -10 -99 35q-55 68 -115.5 152.5t-99.5 146.5l-102 162l-94 147q-139 215 -320 453q-2 -172 7.5 -504t9.5 -490q0 -43 -30 -72.5t-73 -29.5t-72.5 29.5t-29.5 72.5q0 123 -10.5 556.5t-2.5 666.5q2 31 15 63q10 29 41 58q33 23 75.5 18.5 t69.5 -37.5q291 -362 492 -673l84 -134l96 -151l84 -125q10 682 4 1018q0 43 28.5 73.5t71.5 30.5t74 -28.5t31 -71.5q4 -256 -6 -1270q0 -41 -31 -70.5t-72 -29.5v0z" />
<glyph unicode="O" horiz-adv-x="1560" d="M639 -6q-106 14 -194.5 56t-150 103.5t-107.5 139.5t-65.5 163t-26.5 175t3 174q12 106 48 206.5t97.5 189.5t142.5 151.5t189.5 91.5t217.5 33q49 2 102 -4q100 -12 162 -33q141 -47 234 -144.5t134 -215t42 -250t-30.5 -259.5t-97 -243.5t-172 -199.5t-245 -119 t-283.5 -15v0zM670 203q190 -35 354 80q166 115 217 344q31 139 14.5 263t-86 217t-168.5 132q-47 18 -74.5 24.5t-66.5 6.5q-31 0 -67 2q-39 2 -103 -6q-117 -14 -239.5 -144.5t-145.5 -339.5q-16 -145 15.5 -272t123.5 -205q90 -76 226 -102v0z" />
<glyph unicode="P" horiz-adv-x="1288" d="M201 96q0 20 -15 604q-8 403 13 656q4 43 35.5 69.5t74.5 24.5q20 -2 39 -12q240 49 432 22q338 -47 439 -307q39 -125 29.5 -204t-47.5 -141.5t-96 -101t-117.5 -62t-127.5 -36.5q-209 -43 -465 -14q10 -393 11 -498q0 -43 -30 -72.5t-73 -29.5t-72.5 29.5t-29.5 72.5v0 zM391 797q12 2 27 2q223 -27 401 10q211 43 225 164q4 29 -18 106q-55 147 -272 178q-156 20 -357 -18q-10 -180 -6 -442v0z" />
<glyph unicode="Q" horiz-adv-x="1593" d="M1440 -102q-178 59 -336 165q-43 -20 -94 -38q-244 -88 -523 45q-178 84 -279.5 242.5t-113.5 333.5t50.5 354.5t191.5 306.5q20 16 41.5 33.5t48.5 31.5l43 27q16 10 49 24l45 17q10 6 45 20.5t37 14.5q51 20 96 -11q156 31 291 -12t236 -147q111 -113 169 -276t56 -341 q-2 -145 -37 -267t-133 -220q-12 -8 -25 -21q98 -55 207 -94q39 -14 58 -51q18 -37 3.5 -76t-51 -57.5t-75.5 -3.5v0zM918 205q-43 41 -89 88q-31 27 -30.5 70t30 71.5t71.5 28.5t71 -29q78 -76 151 -133q35 20 60 45q59 59 82.5 142t25.5 204q2 141 -42 265t-124 206 q-172 174 -434 80q-39 -14 -76 2q-92 -41 -137 -84q-135 -131 -172 -315t36 -351t237 -245q186 -88 340 -45v0z" />
<glyph unicode="R" horiz-adv-x="1456" d="M1128 217l-36 102q-10 41 -29 87.5t-39 76.5q-39 55 -111.5 87t-222.5 40q-20 0 -41 -2q-20 0 -80.5 -6t-87.5 -8q-57 -6 -86 -2q4 -299 4 -488q0 -43 -29.5 -72.5t-72.5 -29.5t-72.5 29.5t-29.5 72.5q0 201 -5.5 603.5t-5.5 603.5q0 35 23 63q6 29 28.5 49.5t53.5 24.5 q117 18 262 21.5t338 -21.5q70 -10 130 -27.5t126.5 -51.5t113 -78t75 -110.5t24.5 -148.5q-8 -223 -258 -334q53 -41 92 -98q29 -43 55.5 -106.5t42 -113.5t39 -128t37.5 -125q12 -39 -8.5 -77t-60.5 -50t-77.5 8.5t-50.5 61.5zM418 813q14 2 35 2q33 2 86 2q102 2 131 0 h20q178 12 293 55q166 59 170 168q6 156 -297 207q-209 35 -467 8q0 -172 4 -446z" />
<glyph unicode="S" horiz-adv-x="1239" d="M596 -20q-145 0 -262 56t-183.5 155.5t-66.5 226.5q0 49 31.5 78.5t74.5 29.5q33 0 59.5 -20.5t33.5 -61.5q29 -264 340 -264q150 0 235.5 65.5t85.5 168.5q0 61 -59.5 103t-161.5 75l-64 22q-203 68 -290 111q-127 63 -189.5 149.5t-62.5 202.5q0 102 65.5 196.5 t183 153t263.5 58.5q152 0 270.5 -55.5t184 -147.5t65.5 -197q0 -53 -29.5 -82.5t-72.5 -29.5q-41 0 -70 29.5t-29 78.5q0 51 -44 99.5t-118.5 78t-162.5 29.5q-152 0 -225.5 -52t-78.5 -144q-2 -49 31 -86t103 -76q66 -35 139.5 -64.5t195.5 -70.5q164 -55 261.5 -144.5 t97.5 -230.5q0 -131 -78 -231.5t-204 -154.5t-269 -54v0z" />
<glyph unicode="T" horiz-adv-x="1230" d="M702 102q0 -43 -30.5 -71.5t-73.5 -28.5t-71.5 30.5t-28.5 73.5q2 72 -2 580q-2 371 12 574q-223 2 -377 -5q-43 -2 -73.5 28t-32.5 72t27.5 72.5t70.5 32.5q176 6 489.5 4t489.5 0q43 0 73.5 -28.5t30.5 -71.5t-28.5 -73.5t-71.5 -30.5q-145 -2 -393 -3 q-14 -197 -13 -569q4 -510 2 -586v0z" />
<glyph unicode="U" horiz-adv-x="1499" d="M242 240q-59 88 -80 262q-12 129 -6 305q4 115 17 309.5t15 251.5q0 43 31 71.5t74 28.5t71.5 -30.5t28.5 -73.5q-2 -55 -15 -252t-18 -311q-6 -164 7 -277q12 -125 43 -170q72 -102 194.5 -136t244.5 9t189 148q111 164 117 448q2 102 -6 271q-12 217 -14 270 q0 43 28.5 73.5t71.5 30.5t73.5 -28.5t30.5 -71.5q2 -49 13 -262q10 -176 8 -289q-8 -342 -150 -557q-78 -117 -208 -184.5t-267 -75.5t-272 52.5t-221 187.5v0z" />
<glyph unicode="V" horiz-adv-x="1265" d="M590 4q-57 23 -154 279l-78 204l-172 439l-141 407q-14 39 3.5 78t56 54.5t77.5 -2t56 -56.5l174 -494q133 -352 215 -546l151 393q154 412 256 647q18 39 57 54.5t78 -2t54.5 -56.5t-0.5 -78q-98 -223 -252 -637q-172 -449 -248 -629q-16 -39 -55 -55t-78 0v0z" />
<glyph unicode="W" horiz-adv-x="1865" d="M451 2q-59 16 -72 78q-6 12 -10 26q-129 588 -316 1237q-12 41 8.5 78t61.5 49.5t78 -8t49 -61.5q131 -463 242 -971l159 483q104 301 156 463q2 33 21.5 58.5t52.5 35.5q6 4 18 4.5t29 -4.5q33 -10 52 -36.5t19 -59.5q141 -434 322 -995l295 1030q12 41 50 61.5t78 8 t60.5 -50t7.5 -76.5l-385 -1280q-12 -39 -50 -59.5t-79 -8.5q-37 12 -57 45q-14 16 -22 37q-182 545 -324 987l-76 -274l-90 -256l-74 -224q-45 -137 -77 -247q-12 -41 -49 -61.5t-78 -8.5v0z" />
<glyph unicode="X" horiz-adv-x="1159" d="M193 45q-25 -35 -67 -42t-77 17.5t-42 66.5t18 77l430 586q-141 207 -357 559q-20 37 -11 77.5t46 62t78 12.5t63 -46q215 -350 310 -491l362 495q25 33 67 40t75.5 -18.5t41 -67.5t-19.5 -77l-401 -548l41 -50q70 -80 100 -120q158 -215 280 -426q23 -37 11.5 -78 t-48 -62.5t-77.5 -10.5t-62 48q-121 207 -268 406q-20 27 -90 108l-12 15l-391 -533v0z" />
<glyph unicode="Y" horiz-adv-x="1196" d="M504 92q-8 59 -10 266q-2 131 -5 177l-327 538q-76 127 -139 246q-20 37 -8 78t48.5 61.5t77.5 8t62 -49.5q92 -172 383 -649q39 63 116.5 174t106.5 158q14 23 94 162q59 104 103 168q23 35 64.5 43t76.5 -15.5t43 -65.5t-16 -77q-27 -41 -93 -156l-96 -166 q-37 -57 -139.5 -203.5t-147.5 -240.5q-2 -6 -4 -10q2 -45 4 -179q2 -193 11 -247q4 -43 -24 -76t-70 -37t-74.5 23.5t-36.5 68.5v0z" />
<glyph unicode="Z" horiz-adv-x="1255" d="M1141 -8q-424 27 -801 8l-16 -2q-16 -2 -34 -3t-43.5 -2t-43.5 1q-154 14 -193 139q-12 43 10 94q8 20 27 49q27 41 74 101q57 76 131 162l139 161l168 181l135 157l144 160l10 14l18 23l21 25h-309q-262 0 -402 -27q-43 -8 -78 15.5t-43 65.5t15.5 76.5t64.5 43.5 q158 31 443 30h458q4 0 8 -2q8 -2 15 -4q25 -6 45 -28q53 -61 24 -154q-14 -43 -49 -96q-20 -35 -53 -74l-16 -21q-10 -12 -13 -14l-450 -502l-139 -161l-125 -154q-27 -35 -41 -55q14 0 42.5 3t47.5 3q387 18 821 -8q43 -2 70.5 -34t25.5 -75t-33.5 -70.5t-74.5 -25.5v0z " />
<glyph unicode="[" horiz-adv-x="768" d="M614 -403q-2 0 -7 1t-13 2t-17.5 2t-20.5 2t-24 3l-24 4l-29 4q-12 2 -26 4q-76 12 -125 23q-33 6 -52 12q-43 14 -65 37q-55 57 -29 147l11 33q4 57 4 120.5t-1 147.5t-1 121v569q0 2 -11 185q-8 137 6 213q25 139 97 190q51 35 129 35q16 0 30.5 -1t17.5 -1t15 2 q18 2 39 4t47 6l37 6q43 4 77 -21.5t39 -67.5t-20.5 -75.5t-66.5 -39.5l-127 -17h-98q-6 -20 -15 -57q-8 -53 -2 -164q10 -188 10 -197v-569q0 -358 -2 -401q0 -10 -4 -23l90 -14l29 -4q14 -2 27 -4l24 -4q12 -2 22.5 -3.5t20.5 -3.5t17.5 -2t12.5 -1t7 -1l4 -2 q43 -4 67.5 -38.5t19.5 -76.5t-40 -67t-76 -18h-4v0z" />
<glyph unicode="\" horiz-adv-x="868" d="M584 41q-154 471 -467 1323q-12 41 8 78t61 49t78 -8.5t49 -61.5q350 -963 463 -1315q14 -41 -5 -78.5t-59 -51t-78 6t-50 58.5v0z" />
<glyph unicode="]" horiz-adv-x="700" d="M150 -406q-41 -6 -75 19t-40 66.5t18.5 75.5t67.5 40q111 18 112 19q25 2 72 0q6 16 17 57v27q0 27 -3 71q-2 29 -4 74t-2 53q-6 209 -6 744q0 12 2 105t2 157q0 92 -2 147v8q-12 2 -28 5q-6 0 -119 2q-43 0 -72 30.5t-29 73.5t31 71.5t74 28.5q119 -2 129 -2 q53 -4 88 -14q68 -18 100 -59q16 -20 23 -50q4 -12 4 -28q4 -23 4 -60q2 -57 2 -155q0 -63 -2 -155.5t-2 -104.5q0 -530 6 -740q0 -6 2 -49t4 -71q2 -49 2 -80q0 -49 -4 -72q-33 -133 -96 -184q-47 -39 -121 -37q-16 2 -27.5 2t-11.5 1t-8 -1l-35 -4q-16 -2 -38.5 -6.5 t-34.5 -4.5v0z" />
<glyph unicode="^" horiz-adv-x="1079" d="M731 754l-65 161q-31 80 -60 146l-43 94l-262 -508q-18 -37 -58 -51t-78 4t-52.5 58t4.5 79l139 271q92 176 135 264q0 2 1 4t1 5t2 13.5t6 24.5q20 94 91 127q76 33 145 -31q27 -25 57 -74q41 -68 99 -198l61 -148l66 -164q33 -82 43 -110q16 -39 -0.5 -79t-55.5 -55.5 t-79 1t-54 55.5z" />
<glyph unicode="_" horiz-adv-x="1265" d="M66 -319q-43 -2 -74 26.5t-33 71.5t26.5 73.5t71.5 32.5q170 6 361.5 6t425 -3t360.5 -3q43 0 73 -29.5t30 -72.5t-30 -72.5t-73 -29.5q-127 0 -380 3t-380 3t-378 -6v0z" />
<glyph unicode="`" horiz-adv-x="395" d="M166 1262q-25 29 -41 47t-37 39l-61 61q-27 29 -26 70t30.5 70.5t71.5 29.5t71 -25l51 -55q37 -39 53.5 -55.5t38.5 -42.5l54 -66q27 -33 21.5 -72.5t-37 -66.5t-72.5 -23.5t-68 31.5z" />
<glyph unicode="a" horiz-adv-x="1159" d="M702 33q-74 -29 -167 -33t-172.5 21.5t-141.5 78.5q-106 88 -137 219.5t-2 235.5t87 203.5t127 168t159 116t188 46t207 -54.5q16 -8 35.5 -24.5t34.5 -28.5l26 -27q12 -12 12 -14q33 -29 35 -74q27 -123 35 -258t5 -253.5t3 -252.5q2 -41 -26.5 -71.5t-71.5 -32.5 t-73.5 26.5t-33.5 69.5v31q-61 -63 -129 -92v0zM610 217q31 8 49.5 16.5t46 24.5t58.5 41t55 61q4 4 10 9q0 276 -34 444q-6 8 -13.5 15.5t-10.5 11.5t-8 7t-11 7q-98 53 -207 3t-191 -187q-82 -139 -81 -242.5t79 -171.5q47 -39 117 -49t141 10v0z" />
<glyph unicode="b" horiz-adv-x="1153" d="M231 0q-43 2 -71.5 34t-26.5 72q4 92 6 148q2 72 4 155t3 140t0 138t-1 125t-1 155.5t-2 141.5t-3 131t-2 122q0 43 29 73.5t72 30.5t73.5 -28.5t30.5 -71.5q6 -274 6 -344q31 20 64 33q139 51 251.5 27.5t202.5 -107.5q78 -74 128 -180.5t65 -192.5q35 -260 -90 -436 q-72 -102 -189 -146q-115 -45 -264 -20q-100 16 -184 66q-12 -31 -40 -49.5t-61 -16.5v0zM549 201q174 -27 254 84q78 111 53 290q-25 152 -129 250q-102 94 -242 41q-14 -6 -25 -13t-24 -22l-24 -20q-8 -10 -29 -33.5t-33 -36.5q2 -213 -4 -415l2 -2q70 -100 201 -123v0z " />
<glyph unicode="c" horiz-adv-x="1089" d="M614 -4q-117 -2 -228.5 41t-182.5 125q-74 86 -97.5 205.5t-2 228.5t72.5 209q41 76 98.5 136t134 102t163.5 45.5t188 -37.5q53 -25 108 -78l66 -66q33 -27 37 -69.5t-23.5 -74.5t-70.5 -36t-74 25q-18 14 -43 39l-35 34q-29 29 -47 37q-92 41 -176 -1t-144 -152 q-61 -115 -60 -229.5t60 -182.5q37 -43 107 -69.5t147 -26.5q158 4 203 112l-2 11v59q2 43 34 70.5t75 25.5t70.5 -33.5t25.5 -74.5v-45q2 -51 -14 -90q-47 -119 -155 -178.5t-235 -61.5v0z" />
<glyph unicode="d" horiz-adv-x="1173" d="M938 0q-33 0 -59.5 18.5t-36.5 69.5q-88 -63 -185 -82q-133 -25 -243.5 14t-186.5 130q-137 160 -135 405q2 221 144 381q170 190 446 141q94 -16 143 -43l-4 328q0 43 30 73.5t72 30.5t72.5 -29.5t30.5 -70.5q14 -934 14 -1264q0 -43 -29.5 -72.5t-72.5 -29.5v0z M621 207q39 8 81.5 28.5t60 34t27 23.5t21.5 23.5t23 41.5q0 260 -5 414q-2 0 -4 2q-86 74 -86 76q-23 14 -94 27q-164 29 -256 -78q-92 -100 -92 -244q-2 -170 86 -273.5t238 -74.5v0z" />
<glyph unicode="e" horiz-adv-x="1214" d="M639 -10q-152 10 -264.5 61t-172 129t-86 143.5t-32.5 130t6 167.5q14 86 60.5 169.5t123 150.5t185 102.5t231.5 21.5q119 -14 203 -64.5t143 -128.5q51 -66 62.5 -98.5t20.5 -61t15.5 -49t11.5 -42t7 -50.5q2 -39 -14.5 -71.5t-48.5 -50.5q-27 -10 -58 -11l-350 -6 q-369 -2 -369 -8h-6q27 -104 112 -163.5t232 -70.5q80 -4 133 9q59 16 86 29.5t66 35.5q39 14 78 -4t53 -57t-3 -76t-54 -57q-33 -18 -68 -31.5t-102.5 -32t-200.5 -16.5v0zM311 625q119 6 617 12q-18 61 -60 117q-82 94 -202 108q-127 16 -223.5 -54.5t-131.5 -182.5v0z " />
<glyph unicode="f" horiz-adv-x="632" d="M272 0q-37 0 -63.5 22.5t-30.5 65.5q-33 268 -37 614l-2 154h-16q-51 0 -79 29.5t-28 75.5q0 41 25 72.5t70 31.5h36q0 121 36 232.5t106 150.5q70 37 131 37q86 0 137 -31t51 -88q0 -47 -22.5 -75.5t-63.5 -28.5q-12 0 -23.5 2t-21.5 4q-29 8 -59 8q-35 0 -47.5 -56.5 t-18.5 -154.5h88q47 0 75 -30.5t28 -71.5t-28 -72t-75 -31h-96l2 -155q18 -455 33 -580q6 -68 -27 -96.5t-80 -28.5v0z" />
<glyph unicode="g" horiz-adv-x="1181" d="M598 -420q-119 -10 -228.5 27t-181.5 129q-27 35 -44 86t3.5 89t60.5 50t78 -8.5t50 -58.5q4 -16 10 -44t45 -55q92 -33 203 -28q100 4 153.5 41.5t67.5 87.5q20 70 33 221q-78 -82 -236 -99q-135 -6 -242.5 38t-170 126t-90.5 183q-29 96 -21 241q16 225 176 363 q178 141 430 100q92 -31 146 -74q2 82 78 101q49 4 78.5 -22.5t35.5 -67.5q23 -250 27 -611q2 -205 -12 -342q-16 -205 -96.5 -306t-160 -129t-192.5 -38v0zM598 227q76 -2 117 19q119 37 137 194q10 121 -10 232q-14 70 -84 121q-41 33 -105 43q-164 29 -252 -50 q-84 -68 -96 -198q-10 -172 68 -269q80 -94 225 -92v0z" />
<glyph unicode="h" horiz-adv-x="1132" d="M1004 98q-2 -43 -33 -71.5t-73 -27.5t-70.5 31.5t-28.5 71.5q0 2 12 193q12 209 4 317q-18 256 -188 269q-90 6 -148.5 -28t-113.5 -118q-4 -6 -17 -28q14 -442 14 -607q0 -43 -29.5 -72.5t-72.5 -29.5t-72.5 29.5t-29.5 72.5q0 94 -17 637q-12 408 -4 647q2 41 33 71 t73 28t71.5 -33t27.5 -74q-2 -55 -2 -428q131 152 307 137q340 -29 373 -456q6 -119 3 -207t-11 -194.5t-8 -129.5v0z" />
<glyph unicode="i" horiz-adv-x="479" d="M135 98q-4 154 1 471.5t5 415.5q0 43 30 72.5t73 29.5t72.5 -29.5t29.5 -72.5q0 -98 -5 -413.5t-1 -469.5q0 -43 -28.5 -73.5t-71.5 -30.5t-74 28.5t-31 71.5v0zM326 1442q35 -35 34.5 -86t-35 -86t-86 -35t-86 35t-34.5 86t34.5 86t87 36t85.5 -36v0z" />
<glyph unicode="j" horiz-adv-x="487" d="M117 -365q-37 -23 -78 -11.5t-62.5 48.5t-10.5 78t48 62q2 2 74 38q25 12 35 21q4 10 8 29q12 41 19 114q12 131 10 348q-2 145 -25 625q-2 41 26.5 73t70.5 34t74 -27t34 -72q23 -481 25 -630q2 -223 -13 -371q-8 -88 -22 -144q-18 -84 -60 -122q-33 -33 -90 -60 q-2 -2 -25.5 -13t-37.5 -20v0zM295 1434q31 -29 31 -72t-30 -72.5t-73 -29.5t-72.5 29.5t-29.5 72.5t29.5 72.5t72.5 29.5t72 -30v0z" />
<glyph unicode="k" horiz-adv-x="1003" d="M834 33q-236 260 -365 487l-111 -92q-4 -4 -8 -6q-4 -160 -12 -326q-2 -43 -34 -71.5t-74 -26.5t-70.5 33.5t-26.5 72.5q23 471 23 1260q0 43 29.5 72.5t72.5 29.5t72.5 -29.5t29.5 -72.5q0 -401 -4 -672q299 250 414 361q27 33 70 35t74.5 -26t33.5 -71t-26 -73 q-102 -100 -293 -265q123 -225 356 -485q29 -31 27 -73t-34 -70.5t-74 -26.5t-70 35v0z" />
<glyph unicode="l" horiz-adv-x="456" d="M328 98q-2 -43 -33 -71.5t-74 -26.5t-71.5 32.5t-26.5 73.5q8 272 8 414t-4 422.5t-4 421.5q0 43 29.5 72.5t72.5 29.5t73 -29.5t30 -72.5q0 -141 4 -401.5t3 -472t-7 -392.5v0z" />
<glyph unicode="m" horiz-adv-x="1693" d="M1376 90q-2 37 -5 68.5t-4 47t-2 27t-1 25.5v117q0 33 3 115.5t2 140t-11 108.5q-12 72 -43 103.5t-94 31.5q-141 -2 -283 -172q6 -61 6 -237q0 -129 6 -361q2 -41 -27.5 -71.5t-71.5 -32.5t-72.5 27.5t-33.5 72.5q-6 231 -6 365v102q0 10 -1 43t-2 48.5t-4 41t-6 45 t-9 37.5q-16 57 -45 80q-31 25 -92 19q-68 -6 -117 -37q-47 -31 -96 -99q-10 -12 -23 -22q8 -410 0 -625q-2 -43 -32.5 -71.5t-73.5 -26.5t-72 32.5t-27 73.5q4 227 4 292t-5 297.5t-5 297.5q0 31 30 61.5t70.5 30.5t73.5 -25.5t31 -94.5q92 109 225 120q141 12 236 -63 q49 -39 88 -109q127 160 334 172q152 2 243 -94q72 -84 97 -215q10 -61 12 -134t-1 -164t-3 -103v-113q0 -10 1 -20.5t2 -23.5t3 -44t6 -68q2 -43 -25.5 -74.5t-69.5 -34.5t-74 24.5t-36 68.5v0z" />
<glyph unicode="n" horiz-adv-x="1155" d="M242 0q-41 0 -72 27.5t-31 74.5q0 162 -2 279q-4 348 -4 604q0 47 28.5 73.5t69.5 26.5q43 0 75 -27.5t32 -76.5v-63q127 166 334 165q178 0 273 -124.5t95 -335.5q0 -233 -6 -308l-10 -137l-6 -88q-4 -41 -33 -65.5t-67 -24.5q-41 0 -72 27.5t-31 74.5q0 33 14 228 q10 133 11 209q0 174 -49.5 257t-151.5 83q-74 0 -152.5 -45.5t-148.5 -114.5l4 -291l2 -326q0 -47 -30.5 -74.5t-71.5 -27.5v0z" />
<glyph unicode="o" horiz-adv-x="1163" d="M690 14q-270 -66 -432 109q-129 133 -160 342q-23 164 39 311q74 188 234 279q33 18 82 26q2 0 28 2q10 2 17 4q31 6 61 -6q8 0 39 -1t41 -2t35.5 -4t42.5 -7l39 -14q25 -8 47 -20.5t49 -28.5q133 -90 184 -253t27 -264q-18 -111 -65.5 -206t-130.5 -168.5t-177 -98.5v0z M627 227q88 12 150.5 91t82 167t-14.5 193.5t-108 152.5q-23 16 -37 23.5t-33.5 12.5t-30.5 5t-48 2.5t-66 4.5q-6 0 -14 2q-23 -2 -25 -2l-14 -5q-90 -49 -138 -156.5t-28 -221.5q23 -139 100 -211q84 -78 224 -58v0z" />
<glyph unicode="p" horiz-adv-x="1187" d="M338 -309q0 -43 -31 -72t-74 -29t-71.5 31t-28.5 74q8 403 8 1288q0 43 30 72.5t73 29.5q31 0 56.5 -27.5t37.5 -68.5l29 19q123 74 243.5 80t216.5 -54q90 -51 152.5 -143t91.5 -201q23 -78 25 -166t-22.5 -163.5t-72 -149.5t-132.5 -129t-195 -76q-190 -35 -330 66 q-2 -190 -6 -381v0zM637 207q156 29 218.5 148.5t18.5 281.5q-43 160 -149 219q-109 63 -252 -25q-66 -39 -76 -51q-6 -6 -10 -11t-14 -24l-27 -36v-336q10 -10 16 -23q57 -90 121 -125t154 -18v0z" />
<glyph unicode="q" horiz-adv-x="1196" d="M1069 -299q-2 -41 -32.5 -70.5t-72.5 -27.5t-72 32.5t-28 73.5q6 178 10 397q-57 -49 -112 -73q-115 -53 -266 -25q-109 20 -191 77.5t-127 134.5t-66.5 156t-18.5 148.5t22 147.5q37 117 103.5 209t141.5 143q246 154 510 -53l7 -2q8 61 35.5 84.5t62.5 23.5 q43 0 73.5 -28.5t30.5 -71.5q2 -129 2 -229q4 -16 0 -31q6 -461 -12 -1016v0zM532 209q88 -16 144 8q27 12 54.5 35.5t42.5 40t52 61.5l54 62v280l-21 23q-14 18 -22 26q-16 16 -72 54q-168 102 -289 41q-111 -57 -162 -224q-45 -127 14.5 -253.5t204.5 -153.5v0z" />
<glyph unicode="r" horiz-adv-x="739" d="M242 0q-41 0 -72 27.5t-31 74.5l-4 418q-2 141 -2 352v121q0 47 28.5 74t69.5 27q43 0 75 -28t32 -77v-61q23 49 84 84q84 51 184 51q76 0 117 -24.5t41 -88.5q0 -41 -24.5 -68.5t-71.5 -27.5q-172 0 -238 -47q-37 -25 -64.5 -59.5t-27.5 -67.5l4 -256l2 -322 q0 -47 -30.5 -74.5t-71.5 -27.5v0z" />
<glyph unicode="s" horiz-adv-x="1013" d="M352 0q-152 27 -219 123q-33 43 -47 115l-8 45q-4 20 -8 32q-12 39 8 76t61 47.5t78 -8t49 -59.5q6 -23 13 -52q2 -10 3 -19t7 -32q6 -27 28 -45q25 -23 74 -28q82 -16 176 4q92 20 144 59q37 33 30 68q-6 57 -71 86q-41 18 -213 49q-178 35 -252 90q-135 100 -88 299 q29 115 118 169t197 60q92 4 187.5 -21.5t162.5 -70.5q23 -16 47.5 -38.5t48 -49.5t27.5 -29q31 -31 31 -70.5t-29.5 -69.5t-71.5 -30t-73 29q-20 18 -41 39l-29 35q-12 10 -28 20q-39 25 -100.5 42.5t-121.5 15.5q-109 -6 -125 -76q-18 -74 13 -96q37 -27 166 -54 q190 -33 260 -63q168 -76 190 -244q18 -137 -102 -237q-92 -76 -234 -105q-135 -31 -258 -6v0z" />
<glyph unicode="t" horiz-adv-x="628" d="M473 6q-12 4 -50 12.5t-65.5 18.5t-63.5 29.5t-64.5 53.5t-49.5 81q-23 55 -28 217q-6 125 -2 321q0 37 2 123l-17 -2q-43 -4 -75.5 22.5t-38 68.5t21.5 75t68 39l47 4q2 109 6 219q2 43 32.5 72t73.5 26.5t72 -33t27 -73.5l-7 -195l68 5q43 2 75 -25t35 -70t-24 -74.5 t-70 -35.5l-90 -4q-2 -98 -2 -144q-4 -193 2 -313q4 -123 12.5 -141.5t12.5 -25.5t15.5 -14t23.5 -9.5t46 -11.5t73 -23q39 -12 58 -50t6 -78t-51 -59.5t-79 -5.5v0z" />
<glyph unicode="u" horiz-adv-x="1140" d="M889 0q-37 2 -64.5 28.5t-31.5 90.5q-94 -82 -195 -107q-143 -37 -262 47q-115 82 -180 271q-23 66 -35 135q-12 72 -11 152.5t3 131t10 137.5t10 109q4 41 36 69t74 24.5t69.5 -35t25.5 -74.5q-2 -31 -11.5 -117t-10.5 -128t-2 -110.5t8.5 -123t25.5 -105.5 q45 -125 115 -170q29 -18 94 -18q88 14 142.5 51t101.5 168q4 272 -6 553q-2 43 27.5 73.5t71.5 32.5t72.5 -27.5t32.5 -70.5q16 -483 -2 -891q-2 -41 -33.5 -69.5t-74.5 -26.5v0z" />
<glyph unicode="v" horiz-adv-x="983" d="M465 0q-39 -2 -70 20q-10 8 -18 19q-8 8 -15 18l-16 29q-12 25 -31 68l-41 92q-33 80 -142 365.5t-130 336.5q-14 39 3.5 78t56 54.5t77.5 -2t56 -56.5q16 -45 127.5 -336t140.5 -362l8 -19q8 14 14.5 29.5t10.5 25t6 17.5l4 8q14 33 109.5 278.5t162.5 368.5 q20 37 61.5 49.5t78 -8t49 -61.5t-8.5 -78q-66 -119 -150.5 -340t-113.5 -291l-57 -125q-29 -57 -53 -94q-18 -27 -37 -43q-37 -37 -82 -41v0z" />
<glyph unicode="w" horiz-adv-x="1374" d="M399 0q-39 0 -69.5 20.5t-40.5 53.5q-31 109 -137 428q-92 274 -136 452q-16 47 15.5 87t87.5 40q78 0 98 -82q55 -203 133 -432q31 -96 41 -159l47 143l29 86q-2 -6 45 141q12 37 24.5 77t26.5 81q35 96 123 96q43 0 70.5 -24.5t48.5 -81.5q96 -270 184 -576l45 185 q16 74 37 159q41 172 80 305q10 39 36.5 61.5t59.5 22.5q51 0 80 -38.5t12 -92.5q-2 -4 -16 -73q-23 -100 -51 -205l-45 -164q-78 -291 -113 -393q-45 -117 -125 -117q-43 0 -75.5 26.5t-49.5 73.5l-33 101q-47 139 -163 493l-35 -123q-94 -324 -115 -415q-18 -78 -49 -117 t-70 -39v0z" />
<glyph unicode="x" horiz-adv-x="958" d="M463 410q-115 -162 -227 -359q-20 -37 -61.5 -48t-78.5 10.5t-48 62.5t11 78q133 219 273 430l-254 338q-27 35 -19.5 76.5t41 67.5t75.5 18.5t67 -40.5l213 -280q111 143 225 285q27 33 69 38t74.5 -22t36.5 -68q6 -43 -20 -75q-129 -156 -256 -332l319 -430 q25 -35 16.5 -76t-43 -65.5t-75.5 -16.5t-66 43z" />
<glyph unicode="y" horiz-adv-x="925" d="M109 -412q-43 -4 -76 24t-37 70t23.5 74.5t68.5 36.5q20 2 49 4t38 3t23.5 4t22.5 10l21 12q49 25 88 137q12 35 24 49q-14 16 -22 39q-37 158 -152 467q-102 272 -151 436q-12 41 8 78t61 49.5t78 -8t49 -61.5q39 -131 148 -422l78 -213q143 438 262 657q20 37 61 49.5 t78 -8t49 -61.5t-8 -78q-53 -98 -110.5 -239.5t-90.5 -238t-86 -268.5q-12 -41 -16 -57q-10 -27 -29 -106q-23 -76 -37 -123q-57 -160 -155 -238q-29 -23 -57.5 -38t-60.5 -22t-50.5 -10.5t-52 -4.5t-39.5 -3v0z" />
<glyph unicode="z" horiz-adv-x="978" d="M481 0q-158 -2 -250 4q-59 4 -96 12q-27 6 -47 15q-45 23 -63 65q-12 35 0 72q4 12 10 20q4 8 12 19l23 29l63 65l94 94q168 174 281 301q88 111 125 185q-78 2 -146 2q-270 -6 -346 2q-41 6 -67.5 38.5t-21.5 74.5t38 69t76 23q66 -8 234.5 -5.5t265.5 0.5h88q4 -2 8 -2 l12 -4q23 -6 39 -22q55 -53 45 -142q-6 -51 -37 -116q-45 -94 -151 -209q-119 -156 -295 -338l-47 -47q59 -2 151 0q106 2 250 8q147 6 164 6q43 0 72.5 -29.5t29.5 -72.5t-29.5 -73t-72.5 -30q-16 0 -162.5 -6t-249.5 -8v0z" />
<glyph unicode="{" horiz-adv-x="872" d="M639 -410q-135 2 -214 46.5t-120 115.5q-37 66 -41 170.5t6 202.5q0 4 15 121q2 23 4 42t2 27v7q-8 35 -33 67l-35 17q-102 49 -100 141q2 72 65 108q25 14 64 21q4 0 13 2t14 2q37 33 53 70q14 31 20 182q8 197 45 297q29 72 55.5 118t71.5 74q12 8 24.5 15.5t29.5 13.5 l28 8q10 2 64.5 2h58.5q41 8 76 -16.5t42 -66.5t-17.5 -76.5t-67.5 -40.5q-111 -18 -123 -29q-18 10 -49 -76q-29 -72 -33 -231q-2 -4 -2 -29t-1 -34t-2 -31.5t-2 -35t-4 -33t-6 -33.5t-8.5 -30.5t-11.5 -29.5q-37 -80 -108 -144h2q59 -74 78 -157q8 -43 -5 -146l-4 -41 l-6 -41q-2 -16 -2 -26q-8 -129 -6 -182.5t14 -77.5q27 -45 222 -70q39 -12 58 -50t6 -78t-51 -59.5t-79 -5.5v0z" />
<glyph unicode="|" horiz-adv-x="419" d="M307 84q-2 -41 -32.5 -70.5t-72.5 -27.5t-72 32.5t-28 73.5q10 315 11 1276q0 43 29.5 72.5t72.5 29.5t72.5 -29.5t29.5 -72.5q0 -965 -10 -1284v0z" />
<glyph unicode="}" horiz-adv-x="876" d="M152 -414q-43 0 -74 29t-31 72t28.5 73.5t71.5 30.5q143 2 199 41q33 25 41 82q4 35 0 190q-4 160 20.5 262.5t57.5 149.5q2 4 4 6q-78 51 -109 111q-20 45 -18 104q0 6 4 31v16q0 45 1 137.5t-2 141.5t-15 90q-16 51 -49 72q-47 31 -148 24q-43 -2 -74.5 26t-33.5 71 t25.5 74.5t70.5 33.5q166 10 270 -55q96 -61 135 -187q16 -57 21.5 -125.5t4.5 -177t-1 -121.5q0 -16 -2 -38.5t-2 -24.5v-4q8 -10 45 -33q2 0 31 -4q39 -6 65 -18q63 -35 66 -109q2 -86 -90 -141q-31 -18 -33 -19q-8 -16 -23 -75q-18 -80 -16 -213q2 -182 -2 -224 q-20 -145 -125 -219q-104 -76 -313 -80v0z" />
<glyph unicode="~" horiz-adv-x="1441" d="M944 317q-53 0 -112.5 18.5t-88 33t-79.5 43.5q-125 70 -179 67q-90 0 -204 -127q-29 -33 -71 -35t-74 27t-34 71t27 72q174 197 356 197q51 0 109.5 -17.5t87.5 -31.5l80 -43q125 -70 182 -70q98 0 221 129q29 31 72 31t73.5 -28.5t30.5 -71.5t-28 -74 q-184 -190 -369 -191v0z" />
<glyph unicode="&#xa1;" horiz-adv-x="438" d="M131 -307q0 133 -9 464.5t-5 510.5q0 43 30.5 71.5t73.5 28.5t72 -30.5t29 -73.5q-4 -178 5 -508t9 -463q0 -43 -30 -73t-73 -30t-72.5 30t-29.5 73v0zM276 1061q31 -29 31 -72t-29.5 -72.5t-72.5 -29.5t-73 29.5t-30 72.5t30 73t73 30t71 -31v0z" />
<glyph unicode="&#xa2;" horiz-adv-x="1277" d="M489 -238q-39 -18 -78.5 -3.5t-57 53t-3.5 77.5l45 129q-12 8 -24 19q-164 137 -206 386t71 435q63 104 168.5 164.5t248.5 60.5h54l57 191q12 41 50 60.5t79 7t60.5 -50.5t7.5 -79l-54 -176q12 -8 29 -16q47 -23 102 -100q10 -14 23.5 -31t26 -34t18.5 -21 q25 -35 19.5 -77t-39 -67.5t-76.5 -21.5t-68 39l-16 22q-10 14 -23 33l-24 29q-18 23 -33 36l-86 -309q-70 -252 -107 -371q45 4 95 27q27 12 44 22.5t34.5 29t25.5 32.5l31 51l41 66q23 37 64.5 45t77.5 -14.5t44 -64.5t-14 -77l-35 -57q-25 -41 -40 -63.5t-44 -55.5 t-64.5 -57.5t-83.5 -44.5q-125 -53 -241 -41l-45 -125q-14 -39 -54 -58v0zM463 231q39 125 100 342l86 306q-166 0 -239 -125q-72 -121 -43 -299q23 -137 96 -224v0z" />
<glyph unicode="&#xa3;" horiz-adv-x="1318" d="M1016 -80q-113 -12 -297 41q-164 47 -230 47q-2 0 -38 -4q-51 -4 -82 -6q-53 -2 -88 0q-27 2 -48 8q-53 16 -75 62q-31 63 6 125q18 27 51 51l35 24q113 158 86 303q-2 6 -2 13q-55 -2 -103 -2q-43 0 -73.5 29.5t-30.5 71.5t29.5 72.5t70.5 30.5h29q-27 57 -39 97 q-80 240 59 424q88 117 238 161q152 45 303.5 3.5t243.5 -158.5q53 -72 69 -135q0 -6 15 -119q4 -43 -22.5 -76t-68.5 -38t-75 21.5t-39 67.5q-2 27 -4 47.5t-3 29.5t-3 19q-4 20 -33 56q-49 66 -139 89t-179.5 -1.5t-138.5 -89.5q-43 -57 -48 -115.5t20 -120.5 q8 -23 63 -151l2 -4q197 6 273 8q43 0 73.5 -29t30.5 -72t-28.5 -73.5t-71.5 -30.5q-78 -2 -213 -6q29 -188 -84 -379q27 2 32 2q94 0 287 -55q143 -41 219 -33q20 2 39 6q20 6 51 16.5t60 16.5q41 12 78 -9.5t48 -62.5t-10.5 -78t-62.5 -47q-8 -2 -45 -13t-71.5 -20.5 t-65.5 -13.5v0z" />
<glyph unicode="&#xa4;" horiz-adv-x="1284" d="M317 221q-31 -29 -73.5 -28.5t-71.5 31t-29 73.5t31 72l96 92q-51 102 -57 221q-4 139 53 262l-84 82q-31 29 -33 71t28 72.5t72 32.5t73 -28l73 -68q63 45 142 61q39 8 90 2q2 0 20.5 -3t30.5 -3q55 -4 84 -51q33 -8 55 -16q31 -12 57 -29l95 82q33 27 74.5 23.5 t69.5 -35t25 -73.5t-34 -71l-82 -69q92 -152 59 -336q-10 -61 -37 -119l68 -72q31 -31 29 -72.5t-33 -71.5t-73 -28t-70 33l-47 49q-121 -92 -287 -80q-131 10 -228 78l-86 -84v0zM647 432q96 -6 156.5 47t77.5 144q16 92 -22 170.5t-116 109.5q-18 8 -33.5 10t-45 5.5 t-60.5 9.5q-33 6 -55 30q-59 -27 -98 -98q-37 -74 -33 -170q4 -109 63.5 -179.5t165.5 -78.5v0z" />
<glyph unicode="&#xa5;" horiz-adv-x="1273" d="M711 98q0 -41 -31 -70.5t-73 -29.5t-71.5 30.5t-29.5 73.5q2 250 2 297q-166 -2 -250 0q-43 0 -71.5 31t-28.5 74t30.5 71.5t73.5 28.5q80 -2 211 -2l-76 143h-10l-164 3q-41 0 -70.5 30.5t-29.5 72.5t30.5 71.5t73.5 29.5h56l-144 244q-23 37 -11.5 78t48.5 62.5t78 10 t61 -48.5q227 -387 287 -499q168 266 348 514q25 33 67 40t75.5 -18.5t41 -67.5t-19.5 -77l-166 -236h56q43 0 72.5 -30.5t29.5 -72.5t-31 -71.5t-71 -29.5l-189 2l-92 -150q147 -2 262 -10q43 -4 69.5 -36t23.5 -75t-34.5 -69.5t-74.5 -24.5q-113 8 -256 10q0 -45 -2 -299 v0z" />
<glyph unicode="&#xa6;" horiz-adv-x="421" d="M307 100q-2 -43 -32.5 -71.5t-72.5 -27.5t-71 31.5t-29 71.5q2 47 3 133.5t3.5 157t4.5 131.5q2 43 32.5 72t73.5 27t71.5 -33t26.5 -74l-4 -133q-2 -70 -3 -154t-3 -131v0zM104 979q0 242 5 385q2 43 32.5 72.5t72.5 27.5t71.5 -32.5t27.5 -71.5q-4 -143 -4 -381 q0 -43 -29.5 -72.5t-72.5 -29.5t-73 29.5t-30 72.5v0z" />
<glyph unicode="&#xa7;" horiz-adv-x="1300" d="M715 -410q-123 -27 -244 10.5t-182 153.5q-14 27 -25 66q-12 37 -20 74.5t-8 42.5q-12 41 9 77.5t62 48t78 -10t47 -62.5q10 -33 15.5 -62.5t9.5 -46t12 -33.5q20 -39 74.5 -56t127 -1t118 55t49.5 82q10 82 -41 146q-49 66 -164 135q-39 23 -115 65q-76 41 -110 62 q-141 88 -197 176q-98 164 10 330q43 66 117 119q-49 80 -49 176q0 143 90 231q88 90 213 113q121 23 237 -19q119 -43 181 -151q20 -33 30 -82q0 -4 3.5 -21.5l5.5 -27.5q12 -41 -9.5 -78t-62.5 -48.5t-78 10t-47 62.5q-2 4 -12 62q-4 16 -6 20q-25 41 -81.5 62.5t-122 9.5 t-101 -49t-35.5 -94q0 -61 53 -108.5t186 -119.5l25 -12l90 -49q33 -18 88 -56t90 -74t68.5 -89.5t48.5 -110.5q39 -145 -35 -256q-35 -53 -111 -117q59 -111 45 -241q-14 -123 -110 -205t-217 -109v0zM862 299q57 49 74 76q25 35 10 90q-20 78 -90 131q-68 53 -217 131 q-104 55 -152 88q-63 -41 -96 -88q-37 -55 -4 -109q27 -47 127 -106q35 -23 111 -66l112 -61q74 -45 125 -86v0z" />
<glyph unicode="&#xa8;" horiz-adv-x="602" d="M260 1341q-10 -43 -43 -72.5t-93.5 -24.5t-91 40t-32.5 75t19.5 77t76.5 57q20 8 33.5 9t28.5 -1q23 -2 43 -12q41 -16 55 -59t4 -89v0zM600 1339q-6 -43 -42 -71.5t-94 -23.5t-88 39t-32 74t9.5 67.5t45.5 56.5q29 23 74 20q29 0 51 -8q20 -6 39 -23q18 -16 33 -55 q10 -29 4 -76v0z" />
<glyph unicode="&#xa9;" horiz-adv-x="1644" d="M801 12q-276 4 -475 194.5t-203 452.5q-2 141 20 271q43 131 130 226t202 161.5t240 91.5q37 47 96 37q12 -2 56 -7t85 -11.5t74 -16.5q80 -27 168 -82q80 -51 166 -153q104 -111 154.5 -325t-17.5 -396q-90 -201 -267 -324t-429 -119v0zM938 354q-109 -25 -200 6 t-150 105q-55 63 -78 146t-14 165q10 88 58 161t136 103q178 61 420 -108q35 -25 42 -67t-17.5 -76.5t-66.5 -42t-77 17.5q-156 111 -235 82q-47 -16 -56 -92q-12 -92 43 -158q53 -63 150 -41q8 2 27 16l28 23q23 16 39 27q37 23 78 13.5t63.5 -45.5t13.5 -77t-44 -63 l-23 -17l-33 -24q-53 -41 -104 -54v0zM852 207q162 0 274 86q90 68 179 190q55 127 16 299t-127 285q-43 55 -111 102q-49 35 -118 45q-29 4 -68 15q-20 -10 -45 -10q-143 0 -272 -73t-196 -197t-60 -261q10 -172 139 -338q145 -137 389 -143v0z" />
<glyph unicode="&#xaa;" horiz-adv-x="913" d="M776 791q-45 0 -91 40.5t-64 90.5q-41 -55 -101.5 -85t-138.5 -30q-131 0 -210 83t-79 222q0 102 53.5 186t137.5 130.5t174 46.5q125 0 217 -76q39 -33 50 -50.5t7 -31.5q18 -10 27.5 -24.5t9.5 -43.5t-10 -69q-14 -76 -15 -113q0 -92 76 -139q23 -14 28 -30.5t5 -43.5 q0 -25 -22.5 -44t-53.5 -19v0zM412 969q59 0 108 46t49 130q0 94 31 112q-20 0 -51 27q-33 29 -100 29q-72 0 -127.5 -56.5t-55.5 -140.5q0 -72 42 -109.5t104 -37.5v0z" />
<glyph unicode="&#xab;" horiz-adv-x="1081" d="M801 203q-129 121 -164 159q-78 88 -77 170t81 170q37 41 168 158q31 29 73 27t70.5 -34t26.5 -74t-35 -70q-123 -111 -151 -146q-20 -23 -27 -35q4 -6 25 -30q29 -29 149 -144q31 -29 33 -71.5t-26.5 -73.5t-72 -33t-73.5 27v0zM358 240q-143 133 -174 168 q-84 92 -69 176q10 68 98 143q6 8 62.5 54t95.5 83q33 29 74.5 27t70.5 -34t27 -74t-33 -70l-98 -86q-57 -47 -66 -54l-18 -18l8 -10q27 -31 162 -154q31 -29 32.5 -72t-27 -73.5t-71.5 -32.5t-74 27v0z" />
<glyph unicode="&#xac;" horiz-adv-x="1366" d="M1012 336q-4 141 0 262q-530 -12 -772 2q-43 2 -71 34t-26 75t34 70.5t75 25.5q66 -4 140.5 -6t130 -3t142.5 0t130 2t143 4t135 3q10 0 21 -2q16 6 34 4q43 -4 71 -36t24 -75q-12 -160 -6 -352q2 -43 -27 -73.5t-72 -32.5t-73.5 26.5t-32.5 71.5v0z" />
<glyph unicode="&#xad;" horiz-adv-x="796" d="M197 393q-43 -2 -69 24.5t-26 63.5q0 35 21.5 61.5t58.5 28.5l158 7l240 6q53 0 86 -25q29 -23 28 -65q0 -33 -23.5 -59.5t-58.5 -28.5l-262 -7l-153 -6v0z" />
<glyph unicode="&#xae;" horiz-adv-x="1601" d="M840 -2q-254 -10 -436.5 119t-256.5 340q-45 137 -43 277t64.5 282.5t179.5 253.5q43 43 74 69.5t92 63.5t119 51q27 6 61.5 8t70.5 3t42 1q41 2 74 -24l26 -4l37 -4q6 -2 33 -7.5t39 -9.5l37 -8q25 -6 39 -12l36 -15q18 -8 35 -18q106 -61 182 -155.5t108 -199t39 -220 t-22 -222.5q-25 -109 -79 -207t-131.5 -178t-186 -129t-233.5 -55v0zM831 203q164 6 281 121q119 117 160 290.5t-13.5 332.5t-197.5 241q-20 10 -49 19.5t-48.5 13.5t-68.5 11t-68 11q-25 4 -43 17q-90 -2 -106 -7q-68 -14 -191 -131q-84 -82 -131 -187.5t-48 -207.5 t32 -203q53 -150 180 -239.5t311 -81.5v0zM907 424q-4 23 -12 80q-4 33 -8 47q-4 20 -31 33q-4 2 -10 4q-23 -6 -43 -10q-72 -14 -117 -17h-8v-106q0 -43 -30 -73t-73 -30t-72.5 30t-29.5 73q0 35 -3 279.5t1 279.5q2 41 33 70.5t74 27.5h8q14 6 30 8l50 6q47 4 73 7 q109 4 170 -25q63 -29 115.5 -83t73.5 -120q43 -129 -47 -223q23 -33 34 -74q8 -31 14.5 -80t8.5 -67q8 -41 -15.5 -76t-65.5 -43t-77 15.5t-43 66.5v0zM717 801q68 4 125 -4l10 4l29 8h4q18 10 21 19.5t-3 13.5q-6 20 -28.5 43.5t-51.5 38.5q-16 6 -73 4q-29 -2 -76 -8 v-123z" />
<glyph unicode="&#xaf;" horiz-adv-x="649" d="M561 1266q-63 -8 -210.5 -8.5t-270.5 18.5q-37 4 -60.5 34.5t-18.5 68.5t35 61.5t68 19.5l54 -8q29 -4 60.5 -5t55 -3t62.5 -2h53q16 0 50 2t47.5 2t35 2t33.5 2q37 2 64.5 -24.5t29.5 -64.5t-25.5 -65.5t-62.5 -29.5v0z" />
<glyph unicode="&#xb0;" horiz-adv-x="944" d="M414 780q-131 16 -209 101q-78 86 -90 198q-12 104 33 204.5t143 146.5q37 18 88 22l29 2h20q41 6 74 -16l2 -2q14 -4 26 -6l29 -9q16 -4 27 -8q70 -18 112 -49q117 -80 131 -201q12 -106 -55 -205q-57 -86 -156.5 -137t-203.5 -41v0zM438 985q39 -6 88 19.5t80 68.5 q25 37 21 65.5t-43 57.5q-16 10 -54 21q-90 25 -92 26q-8 2 -14 6h-2q-2 0 -11.5 -1t-15.5 -1l-18 -2q-29 -14 -47.5 -53t-12.5 -88q12 -106 121 -119v0z" />
<glyph unicode="&#xb1;" horiz-adv-x="1335" d="M565 401q0 4 -8 232q-164 -2 -299 -2q-43 0 -73.5 25.5t-30.5 68.5t28.5 70.5t71.5 27.5q135 0 297 2q-2 154 10 279q4 43 38 69.5t76 22.5t68.5 -38t22.5 -75q-12 -121 -10 -258h323q43 0 73 -26.5t30 -69.5t-30 -69.5t-73 -26.5h-317q6 -195 8 -223q2 -43 -27.5 -74 t-71.5 -33t-74 27.5t-32 70.5v0zM260 -10q-43 0 -72.5 27.5t-29.5 65.5t29.5 66.5t72.5 28.5q96 0 297 2l520 -2q43 -2 72 -30.5t28 -66.5t-32 -65.5t-72 -25.5q-152 8 -309 4l-504 -4v0z" />
<glyph unicode="&#xb2;" horiz-adv-x="884" d="M291 569q-76 0 -128 50.5t-52 121.5q0 66 27.5 114t82.5 89q84 63 219 127q66 31 93.5 57.5t27.5 63.5q0 35 -32.5 58.5t-92.5 23.5q-55 0 -94 -25.5t-51 -72.5q-8 -35 -34 -56.5t-56 -21.5q-47 0 -73 28.5t-26 73.5q0 59 47.5 120.5t125 100.5t163.5 39 q143 0 227.5 -74.5t84.5 -187.5q0 -90 -58.5 -160.5t-189.5 -130.5q-170 -76 -197 -153q98 31 230 30q121 0 200 -28q76 -29 76 -90q0 -43 -30.5 -70t-71.5 -27q-29 0 -78 9q-61 12 -109 12q-31 0 -60.5 -3t-55.5 -7q-57 -10 -115 -11v0z" />
<glyph unicode="&#xb3;" horiz-adv-x="778" d="M383 549q-205 0 -295 127q-43 57 -43 108q0 35 24.5 60.5t57.5 25.5q31 0 51.5 -12t34.5 -41q53 -109 170 -106q74 2 111.5 36.5t33.5 96.5q-2 55 -49 88t-106 29q-37 -2 -64.5 21.5t-27.5 57.5q0 37 25.5 62.5t68.5 25.5q49 0 83 23t34 59q0 39 -35 63.5t-92 24.5 q-88 0 -127 -51q-20 -27 -40 -40t-51 -13q-33 0 -57 24.5t-24 59.5q0 33 16 58.5t49 54.5q88 76 234 75q86 0 154.5 -33.5t107.5 -88t39 -109.5q0 -68 -39 -126t-131 -85v51q106 -29 157.5 -96.5t51.5 -147.5q0 -121 -86.5 -201.5t-235.5 -80.5v0z" />
<glyph unicode="&#xb4;" horiz-adv-x="395" d="M180 1204q-27 -29 -67.5 -32t-72.5 24t-38 68t23 71l51 60q20 23 33.5 38t24.5 27.5t36 38.5l51 55q29 25 71 25t71.5 -29.5t29.5 -68.5t-26 -70q-31 -35 -62 -68t-50 -56t-75 -83v0z" />
<glyph unicode="&#xb5;" horiz-adv-x="1271" d="M211 -338q-6 -41 -42 -65.5t-77 -17.5t-65.5 43t-16.5 77q43 240 152 663q125 489 157 652q8 41 44 64.5t77 15t64.5 -44t15.5 -76.5q-41 -201 -160 -662l-8 -35q12 -8 22.5 -20t22.5 -31l17 -20q4 -6 6 -10q70 -37 141 10q86 55 176 203q111 184 238 546q2 8 8 17l8 45 q6 43 41 67.5t77 17.5t66.5 -42t16.5 -76q-51 -305 -211 -1034q-10 -41 -45 -63.5t-77 -13.5t-64.5 44t-14.5 78l39 174q-72 -86 -145 -135q-176 -115 -355 -17q-14 8 -28 19q-49 -205 -80 -373v0z" />
<glyph unicode="&#xb6;" horiz-adv-x="1339" d="M868 -274q0 264 -8 782t-8 770q-72 6 -133 4v-2q10 -580 -6 -1552q0 -43 -31 -72t-74 -29t-71.5 31t-28.5 74q8 446 10 739q-168 20 -274 111q-109 88 -140 225q-31 133 17 266q45 137 153 248q150 152 435 164q186 8 428 -45q41 -10 63.5 -46t13 -77t-45 -63.5 t-76.5 -14.5l-35 8q0 -242 8 -749.5t8 -771.5q0 -43 -29.5 -73t-72.5 -30t-73 30t-30 73v0zM518 678q0 299 -4 563q-55 -25 -92 -63q-76 -78 -105.5 -165t-13.5 -161q33 -143 215 -174v0z" />
<glyph unicode="&#xb7;" horiz-adv-x="229" d="M195 864q35 -33 34.5 -80t-34 -80.5t-80.5 -33.5t-81 33.5t-34 80.5t34 81t81 34t80 -35v0z" />
<glyph unicode="&#xb8;" horiz-adv-x="432" d="M209 -471q-90 0 -149.5 39t-59.5 96q0 29 18.5 48.5t47.5 19.5q20 0 34.5 -9.5t32.5 -27.5q33 -33 78 -33q27 0 46 18.5t22 47.5q0 45 -48 59q-39 10 -86 10q-33 0 -55 20.5t-22 49.5q0 78 161 213q49 -14 109 -49q-55 -49 -85 -85t-32 -75l-53 29q12 4 23.5 9t19.5 5 q96 2 158.5 -52.5t62.5 -127.5q0 -86 -64.5 -145.5t-158.5 -59.5v0z" />
<glyph unicode="&#xb9;" horiz-adv-x="681" d="M453 571q-39 0 -68 29t-27 78q10 272 11 338q0 92 -4 194q-80 -63 -122 -91.5t-79 -28.5q-47 0 -69.5 23.5t-22.5 62.5q0 51 55 96l49 37q47 33 107 82q45 39 74.5 56t74.5 17q111 0 121 -155q6 -94 6 -262q0 -147 -14 -377q-2 -47 -29 -73t-63 -26v0z" />
<glyph unicode="&#xba;" horiz-adv-x="866" d="M424 791q-92 0 -168 40.5t-120 115.5t-44 169q0 129 75 216t206 116q29 29 69 29q31 0 54 -17q41 -4 65 -37l29 -14q72 -37 112 -80q72 -78 72 -186q0 -92 -43 -173t-123 -130t-184 -49v0zM446 958q63 0 107.5 49.5t44.5 110.5q0 35 -5 54.5t-18 33.5q-23 27 -75 56 l-54 26q-174 -23 -178 -172q-2 -68 47.5 -113t130.5 -45v0z" />
<glyph unicode="&#xbb;" horiz-adv-x="1140" d="M715 217q-35 -25 -77 -19.5t-66.5 40t-19.5 76.5t40 67q188 141 209 158l2 2l-17 12l-51 37l-78 53l-77 57q-35 27 -40 69t20.5 76t67.5 39t74 -20q39 -31 78 -57l74 -53l51 -35q47 -33 70 -57q43 -43 51 -95q16 -90 -92 -184l-219 -166v0zM221 217q-55 0 -86 47 q-16 25 -16 55q0 55 47 87q150 98 188 131l15 14l-19 14q-45 33 -196 117q-51 31 -52 90q0 27 13 51q31 51 90 51q27 0 51 -12q160 -92 215 -131q109 -80 115 -168v-10q0 -86 -99 -170q-55 -49 -211 -150q-25 -16 -55 -16v0z" />
<glyph unicode="&#xbc;" horiz-adv-x="1835" d="M453 571q-39 0 -68 29t-27 78q10 272 11 338q0 92 -4 194q-80 -63 -122 -91.5t-79 -28.5q-47 0 -69.5 23.5t-22.5 62.5q0 51 55 96l49 37q47 33 107 82q45 39 74.5 56t74.5 17q111 0 121 -155q6 -94 6 -262q0 -147 -14 -377q-2 -47 -29 -73t-63 -26v0zM608 59 q-14 -31 -51 -42t-67.5 3.5t-46 46t-1.5 62.5q25 55 60 117q35 61 59 100l70 113l63 96l537 870q16 29 53 37t66.5 -9t43 -50t-4.5 -64l-537 -870q-18 -31 -64 -100l-69 -109l-53 -92q-33 -57 -58 -109v0zM1532 -14q-37 0 -62.5 23.5t-25.5 62.5l2 137q-102 0 -268 6 q-47 2 -79 34t-32 75q0 57 55 115q186 207 289 383q43 72 111 71q41 0 65.5 -28.5t26.5 -79.5q10 -258 8 -402l92 4q39 0 62.5 -24.5t23.5 -61.5t-23.5 -62.5t-62.5 -25.5l-94 -2l-2 -141q-2 -39 -26.5 -61.5t-59.5 -22.5v0zM1297 379q84 4 151 2l-2 176q-27 -35 -104 -127 l-45 -51v0z" />
<glyph unicode="&#xbd;" horiz-adv-x="1953" d="M453 571q-39 0 -68 29t-27 78q10 272 11 338q0 92 -4 194q-80 -63 -122 -91.5t-79 -28.5q-47 0 -69.5 23.5t-22.5 62.5q0 51 55 96l49 37q47 33 107 82q45 39 74.5 56t74.5 17q111 0 121 -155q6 -94 6 -262q0 -147 -14 -377q-2 -47 -29 -73t-63 -26v0zM608 59 q-14 -31 -51 -42t-67.5 3.5t-46 46t-1.5 62.5q25 55 60 117q35 61 59 100l70 113l63 96l537 870q16 29 53 37t66.5 -9t43 -50t-4.5 -64l-537 -870q-18 -31 -64 -100l-69 -109l-53 -92q-33 -57 -58 -109v0zM1362 -9q-76 0 -128 50.5t-52 121.5q0 66 27.5 114t82.5 89 q84 63 219 127q66 31 93.5 57.5t27.5 63.5q0 35 -32.5 58.5t-92.5 23.5q-55 0 -94 -25.5t-51 -72.5q-8 -35 -34 -56.5t-56 -21.5q-47 0 -73 28.5t-26 73.5q0 59 47.5 120.5t125 100.5t163.5 39q143 0 227.5 -74.5t84.5 -187.5q0 -90 -58.5 -160.5t-189.5 -130.5 q-170 -76 -197 -153q98 31 230 30q121 0 200 -28q76 -29 76 -90q0 -43 -30.5 -70t-71.5 -27q-29 0 -78 9q-61 12 -109 12q-31 0 -60.5 -3t-55.5 -7q-57 -10 -115 -11v0z" />
<glyph unicode="&#xbe;" horiz-adv-x="1853" d="M383 549q-205 0 -295 127q-43 57 -43 108q0 35 24.5 60.5t57.5 25.5q31 0 51.5 -12t34.5 -41q53 -109 170 -106q74 2 111.5 36.5t33.5 96.5q-2 55 -49 88t-106 29q-37 -2 -64.5 21.5t-27.5 57.5q0 37 25.5 62.5t68.5 25.5q49 0 83 23t34 59q0 39 -35 63.5t-92 24.5 q-88 0 -127 -51q-20 -27 -40 -40t-51 -13q-33 0 -57 24.5t-24 59.5q0 33 16 58.5t49 54.5q88 76 234 75q86 0 154.5 -33.5t107.5 -88t39 -109.5q0 -68 -39 -126t-131 -85v51q106 -29 157.5 -96.5t51.5 -147.5q0 -121 -86.5 -201.5t-235.5 -80.5v0zM704 59q-14 -31 -51 -42 t-67.5 3.5t-46 46t-1.5 62.5q25 55 60 117q35 61 59 100l70 113l63 96l537 870q16 29 53 37t66.5 -9t43 -50t-4.5 -64l-537 -870q-18 -31 -64 -100l-69 -109l-53 -92q-33 -57 -58 -109v0zM1548 -25q-37 0 -62.5 23.5t-25.5 62.5l2 137q-102 0 -268 6q-47 2 -79 34t-32 75 q0 57 55 115q186 207 289 383q43 72 111 71q41 0 65.5 -28.5t26.5 -79.5q10 -258 8 -402l92 4q39 0 62.5 -24.5t23.5 -61.5t-23.5 -62.5t-62.5 -25.5l-94 -2l-2 -141q-2 -39 -26.5 -61.5t-59.5 -22.5v0zM1313 368q84 4 151 2l-2 176q-27 -35 -104 -127l-45 -51v0z" />
<glyph unicode="&#xbf;" horiz-adv-x="964" d="M477 -403q-147 14 -270 98t-154 231q-25 117 16.5 200t118.5 155l60 51q37 33 52 47t32.5 36.5t25.5 45.5q8 20 13.5 42.5t11.5 56.5t12 63q10 41 46 63.5t77 13t63.5 -45.5t14.5 -76q-2 -10 -9 -49.5t-16.5 -76t-19.5 -65.5q-16 -43 -50 -87t-56.5 -66.5t-68.5 -61.5 t-48 -43q-51 -45 -67.5 -80t-6.5 -82q14 -63 79.5 -110t162.5 -56q96 -10 164.5 22t89.5 89q2 8 0 18v64q2 41 33.5 69.5t73.5 26.5t70.5 -33.5t26.5 -74.5v-50q2 -51 -12 -90q-35 -94 -114.5 -154.5t-169 -80t-181.5 -10.5v0zM565 975q31 -29 31 -72t-29.5 -72.5 t-72.5 -29.5t-73 29.5t-30 72.5t30 73t73 30t71 -31v0z" />
<glyph unicode="&#xc0;" horiz-adv-x="1255" d="M217 45q-18 -39 -58 -53.5t-78 4t-52.5 58.5t4.5 77q35 78 93 221.5t85 202.5l72 156l77 174l64 149l72 176q33 80 61 160q6 20 21 35q18 55 75 70q41 8 77 -14.5t46 -63.5q14 -63 60 -189q55 -154 71 -202q111 -360 326 -873q16 -39 1 -79t-54 -56t-79 -1t-57 54 q-80 184 -143 350q-317 6 -534 -2l-48 -112l-53 -131q-23 -57 -49 -111v0zM459 608q160 2 364 0q-59 164 -112 336q-16 53 -47 135q-66 -164 -205 -471v0zM547 1702q-29 25 -30 70t27.5 75.5t71.5 31.5t72 -26l148 -143q33 -25 35.5 -68t-26 -76.5t-74.5 -35.5t-71 26z" />
<glyph unicode="&#xc1;" horiz-adv-x="1267" d="M1059 45q-57 166 -148 379q-16 -6 -34 -6q-39 0 -129.5 3t-137.5 4t-116.5 -1t-128.5 -8l-148 -369q-16 -39 -54 -55.5t-77 0t-55.5 54.5t0.5 77l518 1292q14 39 54 55.5t79 -0.5q33 -12 49.5 -42.5t11.5 -65.5q66 -215 242 -608q195 -436 264 -645q14 -39 -5 -77 t-58 -51.5t-77 6t-50 58.5v0zM801 672q-113 254 -170 401l-180 -448q100 4 372 -2zM657 1544q-31 -23 -69.5 -18.5t-65 33t-22.5 69.5t35 70l206 157q29 20 70 15.5t61.5 -41.5t13.5 -76t-38 -63q-94 -72 -191 -146v0z" />
<glyph unicode="&#xc2;" horiz-adv-x="1224" d="M217 55q-18 -37 -58 -51t-78 4.5t-52.5 58t4.5 78.5q61 147 149 363q2 12 8 24l326 818q20 51 76 61q6 4 12 6q41 16 80 0t53 -55l201 -502l88 -225l98 -273l84 -237q12 -41 -7 -79t-59 -51t-78 6t-52 58q-51 158 -115 334q-10 -2 -20 -2q-90 0 -266.5 -6t-260.5 -6 q-80 -190 -133 -324v0zM432 584q57 2 189 6l200 6l-192 487l-197 -499v0zM473 1520q-25 -27 -61.5 -29t-62 22.5t-28 61.5t22.5 63l143 160q29 33 52 49q43 31 88 29q41 -4 80 -35q18 -12 51 -45q92 -92 147 -139q27 -27 29 -62.5t-21.5 -62.5t-59.5 -30t-65 20 q-59 53 -155 149l-12 12l-5 -2l-143 -161v0z" />
<glyph unicode="&#xc3;" horiz-adv-x="1230" d="M219 39q-16 -39 -55 -55.5t-78 0t-55.5 55.5t0.5 78q72 201 215 608q164 465 235 641q12 33 43 50.5t66 10.5q6 4 14 7q41 12 78 -8.5t49 -61.5q82 -272 258 -737q25 -66 115 -248q84 -168 119 -270q12 -41 -7.5 -79t-59.5 -51.5t-78 6t-52 58.5q-29 90 -106 244l-54 108 q-119 4 -208 9.5t-109.5 6.5t-56 2t-50.5 1h-90q-80 -219 -133 -375v0zM778 604q-113 297 -180 500l-160 -447l-12 -39q25 0 352 -14v0zM815 1528q-37 -2 -79 11t-61.5 25.5l-58.5 37.5q-84 57 -122 53q-61 -2 -136 -78q-33 -31 -65.5 -23.5t-49 29t-14.5 51t19 58.5 q115 133 239 139q35 2 76 -10.5t60 -26.5l57 -35q88 -57 127 -55q66 2 106 96q20 29 58.5 28t57 -25.5t14 -59.5t-20.5 -62q-82 -147 -207 -153v0z" />
<glyph unicode="&#xc4;" horiz-adv-x="1239" d="M219 59q-16 -39 -55 -55t-78 0t-55.5 55t0.5 78q92 221 235 629q164 465 236 641q12 33 42.5 50.5t65.5 10.5q6 4 15 7q41 12 77.5 -8.5t49.5 -61.5q82 -272 258 -737q25 -66 101.5 -251.5t111.5 -287.5q12 -41 -7.5 -79t-59.5 -51t-78 6.5t-52 57.5q-29 90 -139 373 q-119 4 -208 9.5t-109.5 6.5t-56.5 2t-50 1h-90q-80 -219 -154 -396v0zM799 645q-113 297 -181 500l-159 -447l-13 -39q25 0 353 -14v0zM584 1663q-10 -43 -43 -72.5t-93.5 -24.5t-91 39.5t-32.5 74.5t19.5 77t76.5 58q20 8 33.5 9t27.5 -1q23 -2 43 -13q41 -16 56 -59 q14 -43 4 -88v0zM924 1661q-6 -43 -42 -71.5t-94.5 -23.5t-88 38.5t-31.5 73.5t9 68t46 56q29 23 74 21q29 0 51 -8q20 -6 39 -23q18 -16 33 -55q10 -29 4 -76v0z" />
<glyph unicode="&#xc5;" horiz-adv-x="1255" d="M1042 43q-29 90 -106 244l-53 108q-121 4 -210 9.5t-108.5 6.5t-56.5 2t-51 1h-92q-74 -197 -146 -367q-16 -39 -56 -54.5t-79 1t-54.5 56.5t1.5 79q98 231 233 614q156 438 234 627q18 35 26 53q14 18 22.5 27.5t30 20t56.5 10.5q31 0 52.5 -14.5t37.5 -43.5 q4 -8 25 -59q82 -272 258 -737q25 -66 114 -248q84 -168 119 -270q12 -41 -7.5 -79t-59 -51.5t-77.5 6t-53 58.5v0zM795 604q-113 299 -181 502l-157 -432l-19 -56q29 0 357 -14v0zM827 1690q-14 -72 -67 -124.5t-137 -40t-133.5 69t-52.5 121t42 126t129 79.5q14 16 39 16 h4q2 0 7.5 1t13.5 4q35 2 61 -11q66 -31 90 -100q20 -72 4 -141v0zM639 1642q59 -8 74 70q10 39 -0.5 69.5t-26.5 43.5h-2l-4 -2h-10t-11 -2q-10 -8 -24 -13q-53 -14 -71.5 -51t3 -72.5t72.5 -42.5v0z" />
<glyph unicode="&#xc6;" horiz-adv-x="1937" d="M981 -2q-43 -2 -73.5 26.5t-33.5 71.5q0 16 5 33q0 123 -5 264l-503 8l-168 -360q-18 -39 -58.5 -52.5t-79 5t-52 58.5t4.5 79q72 143 150 320l127 290l272 641q6 33 32 55.5t58 26.5q203 20 539 15q406 -8 522 -2q41 2 73 -27t34 -71t-27 -73.5t-72 -33.5 q-139 -6 -532 2h-152q4 -145 19 -426q117 -2 335 1t312 3q43 0 72.5 -29.5t29.5 -72.5t-29.5 -73t-72.5 -30q-96 0 -310 -3t-329 -1q12 -258 14 -436q270 8 670 8q43 0 72.5 -29.5t29.5 -72.5t-29.5 -73t-72.5 -30q-467 0 -772 -12v0zM866 598q-2 78 -9 213t-11 247.5 t-8 213.5q-51 -2 -99 -6l-278 -662q207 -4 405 -6v0z" />
<glyph unicode="&#xc7;" horiz-adv-x="1456" d="M768 -471q-90 0 -149.5 39t-59.5 96q0 29 18.5 48.5t47.5 19.5q20 0 34.5 -9.5t32.5 -27.5q33 -33 78 -33q27 0 46.5 18.5t21.5 47.5q0 45 -47 59q-39 10 -86 10q-33 0 -55.5 20.5t-22.5 49.5q0 78 161 213q49 -14 109 -49q-55 -49 -85 -85t-32 -75l-53 29q12 4 23.5 9 t19.5 5q96 2 158.5 -52.5t62.5 -127.5q0 -86 -64.5 -145.5t-158.5 -59.5v0zM819 -16q-113 0 -221.5 28.5t-187.5 79.5q-90 57 -163 161.5t-114 228.5t-41 239q0 154 65.5 299t184.5 264q90 90 203 139q133 55 268 56q117 0 234 -45q76 -29 129 -73t116 -116l62 -76 q25 -31 24 -63q0 -41 -32.5 -71.5t-75.5 -30.5t-76 38l-76 93q-29 31 -67.5 60.5t-77.5 45.5q-88 37 -176 31q-186 -16 -314 -137q-186 -180 -186 -414q0 -125 66.5 -261t156.5 -196q55 -35 133 -55.5t160 -20.5q248 0 324 138q14 25 34 94l21 65q12 33 37.5 51.5t54.5 18.5 q41 0 74 -28.5t33 -73.5q0 -18 -7 -37l-14 -43q-35 -106 -53 -146q-63 -111 -178 -170t-262 -71q-18 -2 -58 -2v0v0z" />
<glyph unicode="&#xc8;" horiz-adv-x="1419" d="M311 -16q-35 -2 -65 18q-27 12 -44.5 38t-17.5 58q2 61 10.5 413.5t7.5 412t-1 413.5q0 41 26.5 71t65.5 34q12 4 22 6q127 16 268.5 17t317.5 -5t252 -6q43 0 72.5 -29.5t29.5 -72.5t-29.5 -73t-72.5 -30q-92 0 -258 5.5t-247 6.5t-240 -10q2 -176 -2 -389q119 6 290 6 q293 0 379 4q43 2 74 -26.5t33 -71.5t-27 -73.5t-72 -32.5q-88 -4 -387 -4q-184 0 -295 -9q-2 -84 -5 -240.5t-5 -219.5q416 23 848 6q43 -2 71.5 -33t26.5 -74t-32.5 -71.5t-73.5 -26.5q-426 16 -920 -12v0zM588 1700q-29 25 -30 70t27.5 75.5t71.5 31.5t72 -26l148 -143 q33 -25 35.5 -68t-26 -76.5t-74.5 -35.5t-71 26z" />
<glyph unicode="&#xc9;" horiz-adv-x="1304" d="M319 -14q-41 -4 -73.5 20.5t-38.5 65.5q-8 16 -10 34q-39 416 6 1197q2 41 33.5 69.5t72.5 26.5q184 12 287.5 11t268.5 -8t253 -7q43 0 73 -30t30 -73t-30 -72.5t-73 -29.5q-86 0 -367.5 11t-349.5 -1q-12 -244 -18 -393q106 10 224 12t268.5 -2t209.5 -4q43 0 73 -29.5 t30 -72.5t-30 -73t-73 -30q-72 0 -227.5 4t-266 2t-210.5 -14q0 -176 14 -399q106 8 225 9t269.5 -2t214.5 -3q43 0 72.5 -30t29.5 -73t-29.5 -72.5t-72.5 -29.5q-66 0 -248 4t-302 1t-235 -19v0zM739 1554q-31 -23 -69.5 -18.5t-62 34t-19.5 69.5t35 61l192 147 q29 20 68 15.5t61.5 -35.5t15 -70t-37.5 -63q-100 -72 -183 -140v0z" />
<glyph unicode="&#xca;" horiz-adv-x="1366" d="M1178 -23q-578 27 -863 7q-41 -2 -72.5 24.5t-35.5 67.5q-6 14 -8 33q-12 139 -14.5 307t1.5 293l15 311q8 186 10 287q-10 20 -10 41q-2 43 26.5 73.5t71.5 32.5q74 8 440.5 1t440.5 -7q43 0 72.5 -29.5t29.5 -72.5t-29.5 -73t-72.5 -30q-102 0 -363.5 6t-402.5 2 q-2 -61 -5 -130.5t-6.5 -153.5t-5.5 -131q119 6 326 6q307 0 401 6q43 2 75 -25.5t34 -70.5t-25.5 -75t-70.5 -34q-98 -6 -414 -6q-219 0 -332 -6q-6 -248 6 -436q264 10 789 -13q43 -2 71.5 -33.5t26.5 -73.5t-33.5 -71t-72.5 -27v0zM606 1546q-25 -27 -61.5 -28.5t-62 23 t-27.5 61t22 63.5l144 160q29 33 51 49q43 31 88 29q41 -4 80 -35q18 -12 51 -45q92 -92 147 -140q27 -27 29 -62.5t-21.5 -62t-59.5 -29.5t-64 19q-59 53 -156 150l-12 12l-4 -2l-144 -162v0z" />
<glyph unicode="&#xcb;" horiz-adv-x="1402" d="M1212 -16q-213 12 -911 4q-43 0 -71.5 30.5t-28.5 73.5q0 6 2 12q-2 10 -2 19q8 424 -8 1204q-8 18 -9 41q0 43 30 72.5t73 29.5q96 0 413.5 -8t491.5 -2q43 2 73.5 -26.5t32.5 -71.5t-26.5 -74t-71.5 -33q-186 -4 -267 -3t-267 5l-267 9q4 -256 7 -428q98 -2 731 6 q43 0 73.5 -30t30.5 -72t-29.5 -72.5t-70.5 -30.5q-635 -8 -733 -6q2 -238 0 -443q571 12 817 -2q43 -2 70.5 -33.5t25.5 -74.5t-34 -70.5t-75 -25.5v0zM725 1673q-10 -49 -46 -84t-103.5 -26.5t-101.5 46.5t-36 71.5t29 65.5t88 46q31 10 47 10h2h6t8 2q25 2 41 -6 q45 -23 62 -69q14 -47 4 -56v0zM1096 1671q-10 -49 -46 -84t-103.5 -26.5t-101.5 46.5t-36 74.5t28.5 65.5t88.5 43q10 10 26 10h2h16.5t18.5 2q25 2 41 -6q45 -23 62 -70q14 -47 4 -55v0z" />
<glyph unicode="&#xcc;" horiz-adv-x="589" d="M401 100q-2 -43 -32.5 -71.5t-73.5 -26.5t-71.5 33t-26.5 74q8 236 -2.5 669.5t-10.5 581.5q0 43 30 72.5t73 29.5t72.5 -29.5t29.5 -72.5q0 -145 10.5 -584.5t1.5 -675.5v0zM86 1698q-29 25 -29.5 69.5t28 75.5t71.5 32t72 -26l147 -143q33 -25 36 -68t-25.5 -76.5 t-74.5 -35.5t-71 26z" />
<glyph unicode="&#xcd;" horiz-adv-x="632" d="M342 1544q-31 -23 -70 -18.5t-65.5 33t-22.5 69.5t35 70l207 157q29 20 69.5 15.5t61 -41.5t13.5 -76t-38 -63q-94 -72 -190 -146v0zM409 100q-2 -43 -32.5 -71.5t-73.5 -26.5t-71.5 33t-26.5 74q8 236 -2.5 669.5t-10.5 581.5q0 43 30 72.5t73 29.5t72.5 -29.5 t29.5 -72.5q0 -145 10.5 -584.5t1.5 -675.5v0z" />
<glyph unicode="&#xce;" horiz-adv-x="589" d="M401 100q-2 -43 -32.5 -71.5t-73.5 -26.5t-71.5 33t-26.5 74q8 236 -2.5 669.5t-10.5 581.5q0 43 30 72.5t73 29.5t72.5 -29.5t29.5 -72.5q0 -145 10.5 -584.5t1.5 -675.5v0zM146 1559q-33 -37 -70 -38t-64.5 22.5t-27.5 61.5t33 72l135 148q31 31 51 49q37 35 80 35 q45 0 90 -35q39 -37 74 -78q53 -61 106 -119q25 -29 29 -63.5t-20.5 -62t-64.5 -29.5t-77 37q-31 35 -137 157l-137 -157v0z" />
<glyph unicode="&#xcf;" horiz-adv-x="589" d="M254 1653q-10 -41 -41 -69t-88 -23.5t-87 38t-32 71.5t18.5 73t73.5 55q18 8 31.5 9t26.5 -1q23 -2 41 -12q39 -16 53 -57t4 -84v0zM578 1651q-6 -41 -40 -68t-89.5 -22.5t-84 37t-30.5 70.5t9 64.5t44 53.5q27 23 70 20q27 0 49 -8q18 -6 37 -22q16 -14 30 -52 q10 -29 5 -73v0zM401 100q-2 -43 -32.5 -71.5t-73.5 -26.5t-71.5 33t-26.5 74q8 236 -2.5 669.5t-10.5 581.5q0 43 30 72.5t73 29.5t72.5 -29.5t29.5 -72.5q0 -145 10.5 -584.5t1.5 -675.5v0z" />
<glyph unicode="&#xd0;" horiz-adv-x="1492" d="M170 639q-43 0 -76 27.5t-31 70.5q0 37 28 62.5t71 25.5l555 2q41 0 68.5 -28.5t27.5 -69.5q-2 -39 -30.5 -63.5t-67.5 -24.5l-545 -2v0zM313 -4q-31 -2 -57 14q-33 10 -52.5 38t-19.5 63q0 66 11 641q2 94 -7 301q-8 203 -2 315q2 43 34 71.5t73 26.5h8q18 10 39 13 q94 8 149.5 11t155.5 3t172 -13.5t159 -44t154 -79.5q143 -104 210 -267t61 -344q-6 -174 -78 -335q-74 -160 -203 -263q-154 -123 -415 -143q-78 -6 -205 -6q-137 0 -187 -2v0v0zM500 203q121 0 188 6q186 14 293 98q90 72 144.5 191.5t58.5 255.5q6 135 -41 250 q-49 117 -144 184q-76 55 -180 80q-106 25 -206.5 21.5t-223.5 -13.5q-2 -59 4 -215q8 -223 6 -313q0 -61 -2 -171t-4 -202t-2 -172h109v0z" />
<glyph unicode="&#xd1;" horiz-adv-x="1570" d="M1280 -20q-41 0 -72 28q-27 8 -45 29q-94 102 -188 237l-197 293q-96 152 -157 238q-51 74 -181 237l-39 52q-35 -618 2 -1002q4 -43 -23.5 -75.5t-69.5 -37t-74.5 23.5t-36.5 69q-18 199 -18.5 448.5t7.5 388.5l23 443q2 43 33.5 70.5t74.5 25.5q68 14 107 -43 q61 -88 176 -238q133 -170 186 -243q70 -96 195 -293q127 -199 199 -295q2 141 0 233q-2 72 -7.5 198t-8.5 210t-4 195.5t5 203.5q2 43 34 71t75 25.5t70.5 -34t25.5 -74.5q-6 -199 -6 -263.5t9 -262t11 -260.5q2 -96 -1 -270.5t-3 -225.5q0 -43 -29.5 -72.5t-72.5 -29.5v0z M991 1491q-37 -2 -70.5 8t-62.5 28.5t-76 49.5q-74 51 -112 47q-61 -2 -135 -82q-33 -31 -65 -23.5t-50.5 31t-15 54t19.5 59.5q115 141 240 147q35 2 73.5 -10t75.5 -37l57 -39q74 -49 113 -47q66 2 107 101q20 31 58 29.5t56.5 -28t14 -62.5t-20.5 -64q-82 -156 -207 -162 v0z" />
<glyph unicode="&#xd2;" horiz-adv-x="1495" d="M539 10q-160 47 -246 125q-127 117 -173 308.5t-16 392.5q29 203 131.5 371.5t266.5 240.5q74 31 160 36t133 -1q18 0 34 -6q33 4 62 -11q131 -68 229.5 -150.5t165.5 -203.5q70 -125 98.5 -271.5t11 -292t-103.5 -275.5t-233 -205q-131 -70 -253 -84.5t-267 26.5v0z M596 207q102 -29 186 -18.5t183 59.5q127 68 186 196.5t46 279t-91 290.5q-86 154 -301 264h-14q-72 4 -119 2t-88 -20q-104 -45 -179 -168t-98 -287q-25 -162 9 -303.5t116 -214.5q51 -47 164 -80v0zM584 1696q-29 25 -30 69.5t27.5 75.5t71.5 32t72 -26l147 -143 q33 -25 36 -68t-25.5 -76.5t-74.5 -35.5t-71 26z" />
<glyph unicode="&#xd3;" horiz-adv-x="1591" d="M809 -27q-127 -2 -244 31q-119 29 -230.5 107.5t-172.5 191.5q-66 127 -69 302t46 325q53 170 154.5 305t247.5 192q80 31 182 29q39 37 94 27q162 -33 293 -115t214 -192.5t128 -238.5t47 -261t-40 -257t-125 -222.5t-218 -161.5q-137 -59 -307 -62v0zM805 174 q162 2 275.5 72.5t164.5 181.5t49 246q-4 195 -119.5 360.5t-320.5 233.5q-27 -16 -59 -15q-66 4 -105 4t-76 -14q-88 -37 -161.5 -135t-116.5 -234q-41 -137 -38 -266t48 -213q55 -109 181 -166t278 -55v0zM778 1544q-25 -29 -70.5 -26.5t-74.5 36t-26 76.5t36 68l148 143 q29 27 71.5 26t71.5 -32t28 -76t-30 -69l-154 -146v0z" />
<glyph unicode="&#xd4;" horiz-adv-x="1560" d="M782 -23q-223 -8 -391 119q-166 125 -241 324q-51 123 -57.5 254t37.5 264t144 236q43 41 109 98q109 88 166 108q49 14 137 33q33 55 98 47q4 -2 37 -4t65 -6t56 -10q55 -16 143 -78q66 -43 109 -80q176 -152 239.5 -369t8.5 -426q-55 -215 -228 -358 q-174 -143 -432 -152v0zM774 174q190 6 309 107q123 100 164 256.5t-8 320.5q-47 162 -180 275q-33 31 -88 67q-63 43 -86 49q-16 6 -37 8q-18 -18 -45 -24l-70 -10q-37 -8 -63.5 -14.5t-51.5 -14.5q-27 -8 -102 -74q-59 -49 -96 -86q-98 -102 -121 -252q-20 -152 39 -293 q57 -145 176 -233q115 -88 260 -82v0zM659 1524q-25 -27 -61.5 -29t-62 22.5t-27.5 61.5t22 63l144 160q29 33 51 49q43 31 88 29q41 -4 80 -35q18 -12 51 -45q92 -92 148 -139q27 -27 28.5 -62.5t-22 -62.5t-59 -30t-64.5 20q-59 53 -156 149l-12 13l-4 -2l-144 -162v0z " />
<glyph unicode="&#xd5;" horiz-adv-x="1615" d="M784 -41q-102 4 -223 31.5t-201 83.5q-137 96 -202.5 246.5t-65.5 320.5q2 158 57.5 311.5t151.5 266.5q127 147 383 211q37 49 98 38q10 0 55.5 -5t88.5 -12t75 -19q145 -47 256 -139.5t172.5 -207t86.5 -241.5q23 -129 6 -254q-16 -129 -72 -242q-57 -115 -147.5 -205 t-224.5 -140t-294 -44v0zM793 164q223 -8 361 122t165 328q16 131 -18.5 253t-129 223.5t-235.5 148.5q-31 10 -123 21q-18 -14 -41 -21q-115 -27 -188 -59q-74 -35 -127 -97q-74 -84 -117 -202q-41 -119 -43 -242q0 -127 45 -230.5t137 -166.5q45 -33 137.5 -54.5 t176.5 -23.5v0zM1012 1520q-39 -2 -83 12t-64.5 27.5t-59.5 37.5q-90 59 -129 56q-66 -2 -144 -82q-35 -31 -62.5 -29t-50 31t-21.5 59.5t20 59.5q119 141 250 147q37 2 80 -11t63 -28l59 -37q92 -59 134 -57q70 2 112 100q20 31 60.5 30t59.5 -27.5t15 -62.5t-22 -65 q-86 -156 -217 -161v0z" />
<glyph unicode="&#xd6;" horiz-adv-x="1636" d="M623 -27q-150 35 -264.5 134.5t-176 226.5t-82.5 274q-31 221 41 432t246 332q156 106 410 107q27 8 53 0q10 -2 59 -13.5t70 -17.5l57 -18q41 -12 74 -29t66 -35q129 -78 215 -190.5t120.5 -236.5t31.5 -253t-46 -248q-45 -123 -124 -221t-191.5 -166.5t-253 -90 t-305.5 12.5v0zM668 174q233 -53 401 47q166 98 236 287q31 90 33.5 185t-24 186.5t-89 173.5t-156.5 137l-29 16q-14 8 -26.5 13.5t-30.5 11.5l-25 10q-10 2 -33.5 8t-30.5 8.5t-36 8.5l-37 10q-8 -2 -18 -2q-199 0 -301 -70q-117 -80 -170 -237q-53 -156 -29 -330 q25 -178 121 -304t244 -159v0zM752 1661q-10 -49 -46 -84t-103.5 -26.5t-101.5 46t-36 81.5t28.5 86t88.5 57q31 10 47 10h2h6t8 2q25 2 41 -6q45 -23 62 -70q14 -47 4 -96v0zM1122 1659q-10 -49 -46 -84t-103.5 -27t-101 46t-35.5 82t28.5 86t87.5 57q10 10 27 10h2h16.5 t18.5 2q25 2 41 -6q45 -23 61 -70q14 -47 4 -96v0z" />
<glyph unicode="&#xd7;" horiz-adv-x="1368" d="M874 199q-96 106 -151 159l-25 25l-102 -102q-139 -143 -221 -246q-27 -35 -69 -39t-74.5 24.5t-37 73.5t24.5 80q86 113 236 262l92 94q-238 229 -357 369q-29 33 -26.5 78t34 74.5t73.5 27.5t71 -37q119 -137 350 -360q39 41 164 188q106 125 174 195q31 29 73 29 t71.5 -32t29.5 -77t-30 -76q-63 -66 -166 -184q-117 -139 -164 -188l18 -17q57 -57 160 -172q106 -119 152 -164q31 -33 30.5 -77t-30 -76.5t-71.5 -32.5t-73 31z" />
<glyph unicode="&#xd8;" horiz-adv-x="1609" d="M211 -29q-20 -27 -55 -29.5t-60.5 20t-29 56t19.5 58.5l223 207l1112 1210q25 25 58.5 25t58.5 -22.5t25 -57.5t-21 -60l-676 -739l-442 -473l-213 -195v0zM791 186q223 -8 361 122t165 329q16 131 -18.5 253t-129 223t-235.5 149q-31 10 -123 20q-18 -14 -41 -20 q-115 -27 -188 -60q-74 -35 -127 -96q-74 -84 -117 -203q-41 -119 -43 -241q0 -127 54 -225.5t147 -162.5q45 -33 128 -59.5t167 -28.5v0zM782 -18q-102 4 -213.5 36.5t-191.5 87.5q-137 96 -212 242t-75 316q2 158 57.5 311t151.5 266q127 147 383 211q37 49 98 39 q10 0 55.5 -5t88.5 -12.5t75 -19.5q145 -47 256 -139t172.5 -207t85.5 -242q23 -129 7 -254q-16 -129 -72 -241q-57 -115 -147.5 -205t-224.5 -140.5t-294 -43.5v0z" />
<glyph unicode="&#xd9;" horiz-adv-x="1488" d="M958 8q-94 -39 -204.5 -33.5t-211 40t-187.5 106.5t-132 166q-84 174 -76 579q6 246 43 543q6 43 39 68.5t76 20.5t68.5 -38t21.5 -76q-37 -289 -43 -524q-8 -354 56 -483q55 -117 203.5 -170t277.5 -6q92 35 168 178q86 168 84 479q-2 115 -17.5 318.5t-17.5 224.5 q-2 43 25.5 74.5t70.5 33.5t75 -25.5t34 -70.5q0 -18 16 -228t19 -325q2 -362 -109 -575q-113 -215 -279 -277v0zM571 1683q-29 25 -29.5 70t28 76t71.5 32t72 -26l147 -143q33 -25 36 -68t-25.5 -77t-74.5 -36t-71 27z" />
<glyph unicode="&#xda;" horiz-adv-x="1435" d="M420 86q-74 53 -134.5 148.5t-88.5 185.5q-29 96 -43.5 222t-13.5 287t3 240q4 68 13 205q2 41 33.5 70t73.5 26.5t70.5 -34t26.5 -74.5q-12 -217 -14 -289q-4 -123 5 -305t42 -287q18 -63 61.5 -130.5t84.5 -96.5q111 -78 247 -53.5t195 131.5q49 84 74.5 194.5 t28.5 255t1 238.5q-2 74 -12 260q-2 74 -4 88q-2 43 25.5 75t70.5 34t75 -26t34 -71q0 -6 6 -119.5t7 -140t4 -123t1 -137.5t-5 -128t-14 -140t-24.5 -124t-36 -128t-51.5 -111q-74 -127 -207 -189.5t-276 -48t-258 94.5v0zM752 1546q-25 -29 -71 -26.5t-74.5 36t-25.5 76.5 t35 68l148 143q29 27 72 26t71.5 -32t27.5 -76t-30 -69l-153 -146v0z" />
<glyph unicode="&#xdb;" horiz-adv-x="1406" d="M666 -2q-154 16 -287 94t-182 211q-18 49 -27 117q-10 68 -10 115t1 116.5t1 89.5q0 29 -4 218.5t-3 219t3 189.5q2 43 32.5 71.5t73.5 26.5t72 -32.5t26 -73.5q-2 -152 -3 -186.5t3.5 -213t4.5 -215.5q0 -41 -1 -105.5t-1 -101t6 -82.5t18 -83q23 -61 106 -110.5 t194.5 -62t192.5 18.5t109 90q68 147 68 498q0 115 -10.5 311.5t-10.5 251.5q0 43 29 74t72 31t73.5 -29t30.5 -72q0 -55 10.5 -252.5t10.5 -314.5q0 -393 -88 -584q-33 -72 -93 -123q-59 -49 -126.5 -71.5t-145.5 -31.5t-145 1v0zM545 1526q-23 -27 -59.5 -29t-61.5 21.5 t-27 60.5t23 61l139 158q29 33 51 47q41 31 86 29q41 -4 78 -35q18 -10 51 -43q90 -90 144 -137q27 -25 28.5 -60.5t-21 -61.5t-58 -29t-64.5 20q-57 51 -152 145l-12 13l-4 -3l-141 -157v0z" />
<glyph unicode="&#xdc;" horiz-adv-x="1439" d="M698 -10q-100 12 -195 52t-157 99q-51 49 -102 154q-82 162 -92 563q-6 195 10 510q2 41 33.5 69.5t73.5 26.5t71 -33.5t27 -74.5q-16 -317 -11 -492q10 -356 72 -479q35 -72 61 -96q35 -33 99 -60q61 -27 135 -36q152 -16 219 47q92 88 123 329q14 115 19.5 236t2 239.5 t0.5 329.5q0 43 31 72t74 29t71.5 -31t28.5 -74q-2 -201 0 -321.5t-3 -252.5t-19 -251q-41 -315 -185 -453q-139 -131 -387 -102v0zM676 1651q-8 -47 -44 -82t-101.5 -27t-99.5 46t-36 81t29 84t86 55q31 10 47 11h2h5t7 2q25 2 41 -6q45 -23 60 -70q14 -45 4 -94v0z M1040 1649q-10 -47 -44.5 -82t-101.5 -27t-99.5 46t-34.5 81t27.5 84t86.5 55q8 10 25 11h2h16.5t18.5 2q25 2 41 -7q43 -23 59 -69q14 -45 4 -94v0z" />
<glyph unicode="&#xdd;" horiz-adv-x="1196" d="M504 92q-8 59 -10 266q-2 131 -5 177l-327 538q-76 127 -139 246q-20 37 -8 78t48.5 61.5t77.5 8t62 -49.5q92 -172 383 -649q39 63 116.5 174t106.5 158q14 23 94 162q59 104 103 168q23 35 64.5 43t76.5 -15.5t43 -65.5t-16 -77q-27 -41 -93 -156l-96 -166 q-37 -57 -139.5 -203.5t-147.5 -240.5q-2 -6 -4 -10q2 -45 4 -179q2 -193 11 -247q4 -43 -24 -76t-70 -37t-74.5 23.5t-36.5 68.5v0zM633 1544q-31 -23 -70 -18.5t-65.5 33t-22.5 69.5t35 70l207 157q29 20 69.5 15.5t61 -41.5t13.5 -76t-38 -63q-94 -72 -190 -146v0z" />
<glyph unicode="&#xde;" horiz-adv-x="1316" d="M190 98q-23 586 -10 1268q0 43 31 71.5t74 28.5t71.5 -30.5t28.5 -73.5v-98q287 2 317 0q274 -10 404 -93q119 -76 158 -251q41 -184 -52 -302q-66 -84 -180 -157q-92 -59 -311 -72q-55 -2 -151.5 -3t-127 -3t-55.5 12q2 -145 8 -289q2 -43 -26.5 -73.5t-71.5 -32.5 t-73.5 26.5t-33.5 71.5v0zM383 573q23 12 47 15q31 2 128 3t153 3q164 8 211 39q86 55 131 112q31 39 10 131.5t-68 122.5q-80 51 -301 60q-33 2 -313 0q-2 -248 2 -486v0z" />
<glyph unicode="&#xdf;" horiz-adv-x="1142" d="M649 -29q-41 -14 -79 4.5t-52 58.5t4.5 78t57.5 52q156 55 229.5 122.5t79.5 184.5q6 123 -58 201q-45 57 -126 51q-8 0 -22.5 -2t-16.5 -2q-33 -2 -56 2q-72 10 -94 76q-14 43 4 96q6 16 17.5 30.5t21.5 18.5l8 6q6 4 17 8q4 2 14 5q20 6 29 10q39 12 67 33 q88 57 88 172q0 125 -123 143q-63 10 -130.5 -11.5t-110.5 -66.5q-88 -90 -103 -297q-4 -96 -4 -129t5.5 -129t5.5 -125q8 -287 32 -487q4 -43 -22.5 -76t-68.5 -38t-74.5 21.5t-38.5 67.5q-25 211 -33 504q0 18 -5.5 120.5t-5.5 140.5t5 147q20 279 159 423q78 80 194 117 t226 21q127 -20 212 -109.5t85 -236.5q0 -170 -106 -283q61 -31 110 -90q113 -141 103 -344q-4 -86 -34 -159t-71 -122t-102.5 -91t-115.5 -66.5t-122 -49.5v0z" />
<glyph unicode="&#xe0;" horiz-adv-x="1163" d="M672 20q-74 -20 -150 -22t-155.5 23.5t-141.5 78.5q-106 88 -137 219.5t-2 235.5t87 203.5t127 168t159 116t188 46t207 -54.5q16 -8 35.5 -24.5t34.5 -28.5l26 -27q12 -12 13 -14q33 -29 34 -74q27 -123 35 -258t5 -253.5t3 -252.5q2 -41 -26.5 -71.5t-71.5 -32.5 t-73.5 26.5t-32.5 69.5v8q-78 -57 -164 -82v0zM614 217q31 8 56.5 22.5t39 24.5t51.5 44t62 52q4 4 11 9q0 276 -35 444q-6 8 -13.5 15.5t-10.5 11.5t-8 7t-11 7q-98 53 -207 3t-191 -187q-82 -139 -80.5 -242.5t78.5 -171.5q47 -39 117 -49t141 10v0zM487 1354 q-29 25 -32.5 68.5t24 75.5t70.5 36t72 -21l157 -157q33 -23 38 -66t-21.5 -77.5t-71.5 -39t-72 24.5z" />
<glyph unicode="&#xe1;" horiz-adv-x="1159" d="M702 33q-74 -29 -167 -33t-172.5 21.5t-141.5 78.5q-106 88 -137 219.5t-2 235.5t87 203.5t127 168t159 116t188 46t207 -54.5q16 -8 35.5 -24.5t34.5 -28.5l26 -27q12 -12 12 -14q33 -29 35 -74q27 -123 35 -258t5 -253.5t3 -252.5q2 -41 -26.5 -71.5t-71.5 -32.5 t-73.5 26.5t-33.5 69.5v31q-61 -63 -129 -92v0zM610 217q31 8 49.5 16.5t46 24.5t58.5 41t55 61q4 4 10 9q0 276 -34 444q-6 8 -13.5 15.5t-10.5 11.5t-8 7t-11 7q-98 53 -207 3t-191 -187q-82 -139 -81 -242.5t79 -171.5q47 -39 117 -49t141 10v0zM680 1204 q-27 -29 -67.5 -32t-72.5 24t-38 68t23 71l51 60q20 23 33.5 38t24.5 27.5t36 38.5l51 55q29 25 71 25t71.5 -29.5t29.5 -68.5t-26 -70q-31 -35 -62 -68t-50 -56t-75 -83v0z" />
<glyph unicode="&#xe2;" horiz-adv-x="1159" d="M702 33q-74 -29 -167 -33t-172.5 21.5t-141.5 78.5q-106 88 -137 219.5t-2 235.5t87 203.5t127 168t159 116t188 46t207 -54.5q16 -8 35.5 -24.5t34.5 -28.5l26 -27q12 -12 12 -14q33 -29 35 -74q27 -123 35 -258t5 -253.5t3 -252.5q2 -41 -26.5 -71.5t-71.5 -32.5 t-73.5 26.5t-33.5 69.5v31q-61 -63 -129 -92v0zM610 217q31 8 49.5 16.5t46 24.5t58.5 41t55 61q4 4 10 9q0 276 -34 444q-6 8 -13.5 15.5t-10.5 11.5t-8 7t-11 7q-98 53 -207 3t-191 -187q-82 -139 -81 -242.5t79 -171.5q47 -39 117 -49t141 10v0zM484 1219 q-33 -37 -70 -38t-64.5 22.5t-27.5 61.5t33 72l135 148q31 31 51 49q37 35 80 35q45 0 90 -35q39 -37 74 -78q53 -61 106 -119q25 -29 29 -63.5t-20.5 -62t-64.5 -29.5t-77 37q-31 35 -137 157l-137 -157v0z" />
<glyph unicode="&#xe3;" horiz-adv-x="1171" d="M672 20q-74 -20 -150 -22t-155.5 23.5t-141.5 78.5q-106 88 -137 219.5t-2 235.5t87 203.5t127 168t159 116t188 46t207 -54.5q16 -8 35.5 -24.5t34.5 -28.5l26 -27q12 -12 13 -14q33 -29 34 -74q27 -123 35 -258t5 -253.5t3 -252.5q2 -41 -26.5 -71.5t-71.5 -32.5 t-73.5 26.5t-32.5 69.5v8q-78 -57 -164 -82v0zM614 217q31 8 56.5 22.5t39 24.5t51.5 44t62 52q4 4 11 9q0 276 -35 444q-6 8 -13.5 15.5t-10.5 11.5t-8 7t-11 7q-98 53 -207 3t-191 -187q-82 -139 -80.5 -242.5t78.5 -171.5q47 -39 117 -49t141 10v0zM809 1223 q-39 -2 -83 12t-64.5 27.5t-59.5 37.5q-90 59 -129 56q-66 -2 -143 -82q-35 -31 -62.5 -29t-50 31t-21.5 59.5t19 59.5q119 141 250 147q37 2 80 -11t63 -28l60 -37q92 -59 133 -57q70 2 112 100q20 31 60.5 30t60 -27.5t15 -62.5t-22.5 -65q-86 -156 -217 -161v0z" />
<glyph unicode="&#xe4;" horiz-adv-x="1159" d="M702 33q-74 -29 -167 -33t-172.5 21.5t-141.5 78.5q-106 88 -137 219.5t-2 235.5t87 203.5t127 168t159 116t188 46t207 -54.5q16 -8 35.5 -24.5t34.5 -28.5l26 -27q12 -12 12 -14q33 -29 35 -74q27 -123 35 -258t5 -253.5t3 -252.5q2 -41 -26.5 -71.5t-71.5 -32.5 t-73.5 26.5t-33.5 69.5v31q-61 -63 -129 -92v0zM610 217q31 8 49.5 16.5t46 24.5t58.5 41t55 61q4 4 10 9q0 276 -34 444q-6 8 -13.5 15.5t-10.5 11.5t-8 7t-11 7q-98 53 -207 3t-191 -187q-82 -139 -81 -242.5t79 -171.5q47 -39 117 -49t141 10v0zM589 1341 q-10 -43 -43 -72.5t-93.5 -24.5t-91 40t-32.5 75t19.5 77t76.5 57q20 8 33.5 9t28.5 -1q23 -2 43 -12q41 -16 55 -59t4 -89v0zM929 1339q-6 -43 -42 -71.5t-94 -23.5t-88 39t-32 74t9.5 67.5t45.5 56.5q29 23 74 20q29 0 51 -8q20 -6 39 -23q18 -16 33 -55q10 -29 4 -76v0z " />
<glyph unicode="&#xe5;" horiz-adv-x="1159" d="M702 33q-74 -29 -167 -33t-172.5 21.5t-141.5 78.5q-106 88 -137 219.5t-2 235.5t87 203.5t127 168t159 116t188 46t207 -54.5q16 -8 35.5 -24.5t34.5 -28.5l26 -27q12 -12 12 -14q33 -29 35 -74q27 -123 35 -258t5 -253.5t3 -252.5q2 -41 -26.5 -71.5t-71.5 -32.5 t-73.5 26.5t-33.5 69.5v31q-61 -63 -129 -92v0zM610 217q31 8 49.5 16.5t46 24.5t58.5 41t55 61q4 4 10 9q0 276 -34 444q-6 8 -13.5 15.5t-10.5 11.5t-8 7t-11 7q-98 53 -207 3t-191 -187q-82 -139 -81 -242.5t79 -171.5q47 -39 117 -49t141 10v0zM834 1331 q-16 -76 -71.5 -130t-143.5 -42t-140.5 71.5t-55.5 127t44 132t135 85.5q16 16 41 16h4q2 0 8.5 1t14.5 3q37 2 63 -10q70 -33 95 -106q23 -74 6 -148v0zM635 1292q53 -6 70 66q8 37 -1.5 64.5t-25.5 39.5h-2l-4 -2h-8t-9 -2q-12 -8 -24 -10q-49 -14 -66.5 -48t3 -68 t67.5 -40v0z" />
<glyph unicode="&#xe6;" horiz-adv-x="1748" d="M360 6q-102 29 -171.5 98.5t-67.5 182.5q0 86 38 153.5t100.5 105.5t128 59.5t138.5 33.5q94 12 217 12q6 131 -51 191q-51 53 -170 43q-121 -14 -184 -78q-6 -6 -8 -10t-11 -19l-18 -37q-20 -37 -60 -47t-77 8.5t-49.5 56.5t8.5 72l2 9q4 4 8 12l10 18q6 12 15 21l14 22 q8 12 16 21q55 57 140.5 94t175.5 45q96 6 187 -17.5t155 -88.5q16 -18 28 -37q106 100 258 118.5t270 -34.5t193 -162q20 -33 35 -60.5t23 -45t15 -46t9 -40t6.5 -40t4.5 -51.5q0 -39 -31 -66.5t-72 -33.5q-51 -6 -119 -6q-150 -14 -452 -12q-14 0 -82 4q0 -45 10 -84 q25 -98 147.5 -151.5t237.5 -14.5q47 16 62 28q25 18 33 25.5t18 18t26 30.5q27 31 68 36t74.5 -18.5t39 -62.5t-19.5 -69q-35 -55 -90 -97q-45 -39 -141 -67q-131 -47 -285 -17q-152 31 -256 129q-55 -63 -145 -104q-76 -35 -168 -43t-183 12v0zM412 190q53 -10 110.5 -6 t102.5 23l28 16q12 4 24.5 16.5l16.5 16.5t23 29l28 37l-2 4q-14 57 -12 137q-98 0 -174 -12q-121 -18 -177 -57.5t-56 -106.5q0 -74 88 -97v0zM1016 639q256 2 444 16q-6 43 -35 95q-49 70 -117.5 96t-159.5 12t-149 -76l-16 -18q-10 -20 -13 -30.5t-7.5 -24t-5.5 -25.5 t-3 -41q47 -4 62 -4v0z" />
<glyph unicode="&#xe7;" horiz-adv-x="1089" d="M557 -471q-90 0 -149.5 39t-59.5 96q0 29 18.5 48.5t47.5 19.5q20 0 34.5 -9.5t32.5 -27.5q33 -33 78 -33q27 0 46.5 18.5t21.5 47.5q0 45 -47 59q-39 10 -86 10q-33 0 -55.5 20.5t-22.5 49.5q0 78 162 213q49 -14 108 -49q-55 -49 -85 -85t-32 -75l-53 29q12 4 23.5 9 t19.5 5q96 2 158.5 -52.5t62.5 -127.5q0 -86 -64.5 -145.5t-158.5 -59.5v0zM614 -4q-117 -2 -228.5 41t-182.5 125q-74 86 -97.5 205.5t-2 228.5t72.5 209q41 76 98.5 136t134 102t163.5 45.5t188 -37.5q53 -25 108 -78l66 -66q33 -27 37 -69.5t-23.5 -74.5t-70.5 -36 t-74 25q-18 14 -43 39l-35 34q-29 29 -47 37q-92 41 -176 -1t-144 -152q-61 -115 -60 -229.5t60 -182.5q37 -43 107 -69.5t147 -26.5q158 4 203 112l-2 11v59q2 43 34 70.5t75 25.5t70.5 -33.5t25.5 -74.5v-45q2 -51 -14 -90q-47 -119 -155 -178.5t-235 -61.5v0v0z" />
<glyph unicode="&#xe8;" horiz-adv-x="1232" d="M625 2q-150 12 -261.5 65.5t-168 125t-82 138t-30.5 131t9 167.5q16 84 63.5 167t124 147.5t186 98t232.5 17.5q115 -16 211.5 -81t161.5 -161q23 -29 38 -56.5t25.5 -57t14.5 -45t11 -50.5t9 -49q8 -39 -12 -71.5t-57 -45.5q-25 -14 -53 -14l-369 2q-369 4 -369 -2h-6 q23 -92 107 -152.5t231 -72.5q98 -8 133 0q57 14 88 25.5t70 29.5q39 14 77 -4t52 -57t-4.5 -76t-55.5 -55q-33 -18 -70.5 -35t-105 -28t-200.5 -1v0zM311 629q119 4 635 0q-10 31 -43 78q-94 133 -233 151q-127 18 -224.5 -50.5t-134.5 -178.5v0zM463 1366q-29 25 -30 70 t27.5 75.5t71.5 31.5t72 -25l148 -164q33 -25 36 -68t-26 -76.5t-75 -36t-71 26.5z" />
<glyph unicode="&#xe9;" horiz-adv-x="1232" d="M625 4q-150 12 -261.5 65.5t-168 125t-82 138t-30.5 131t9 167.5q16 84 63.5 167t124 147.5t186 98t232.5 17.5q115 -16 211.5 -81t161.5 -161q23 -29 38 -56.5t25.5 -57t14.5 -45t11 -50.5t9 -49q8 -39 -12 -71.5t-57 -45.5q-25 -14 -53 -14l-369 2q-369 4 -369 -2h-6 q23 -92 107 -152.5t231 -72.5q98 -8 133 0q57 14 88 25.5t70 29.5q39 14 77 -4t52 -57t-4.5 -76t-55.5 -55q-33 -18 -70.5 -35t-105 -28t-200.5 -1v0zM311 631q119 4 635 0q-10 31 -43 78q-94 133 -233 151q-127 18 -224.5 -50.5t-134.5 -178.5v0zM602 1200 q-25 -29 -71 -26.5t-74.5 36t-25.5 76.5t36 68l147 164q29 27 72 25.5t71.5 -32t27.5 -75.5t-29 -70l-154 -166v0z" />
<glyph unicode="&#xea;" horiz-adv-x="1232" d="M625 4q-150 12 -261.5 65.5t-168 125t-82 138t-30.5 131t9 167.5q16 84 63.5 167t124 147.5t186 98t232.5 17.5q115 -16 211.5 -81t161.5 -161q23 -29 38 -56.5t25.5 -57t14.5 -45t11 -50.5t9 -49q8 -39 -12 -71.5t-57 -45.5q-25 -14 -53 -14l-369 2q-369 4 -369 -2h-6 q23 -92 107 -152.5t231 -72.5q98 -8 133 0q57 14 88 25.5t70 29.5q39 14 77 -4t52 -57t-4.5 -76t-55.5 -55q-33 -18 -70.5 -35t-105 -28t-200.5 -1v0zM311 631q119 4 635 0q-10 31 -43 78q-94 133 -233 151q-127 18 -224.5 -50.5t-134.5 -178.5v0zM455 1176q-25 -27 -62 -29 t-62.5 22.5t-27.5 61.5t23 63l143 160q29 33 51 49q43 31 88 29q41 -4 80 -35q18 -12 51 -45q92 -92 148 -139q27 -27 29 -63t-22 -62.5t-59.5 -29.5t-64.5 20q-59 53 -156 149l-12 12l-4 -2l-143 -161v0z" />
<glyph unicode="&#xeb;" horiz-adv-x="1232" d="M625 4q-150 12 -261.5 65.5t-168 125t-82 138t-30.5 131t9 167.5q16 84 63.5 167t124 147.5t186 98t232.5 17.5q115 -16 211.5 -81t161.5 -161q23 -29 38 -56.5t25.5 -57t14.5 -45t11 -50.5t9 -49q8 -39 -12 -71.5t-57 -45.5q-25 -14 -53 -14l-369 2q-369 4 -369 -2h-6 q23 -92 107 -152.5t231 -72.5q98 -8 133 0q57 14 88 25.5t70 29.5q39 14 77 -4t52 -57t-4.5 -76t-55.5 -55q-33 -18 -70.5 -35t-105 -28t-200.5 -1v0zM311 631q119 4 635 0q-10 31 -43 78q-94 133 -233 151q-127 18 -224.5 -50.5t-134.5 -178.5v0zM584 1325q-10 -49 -46 -84 t-103.5 -26.5t-101.5 46t-36 81.5t28.5 86t88.5 57q31 10 47 10h2h6t8 2q25 2 41 -6q45 -23 62 -70q14 -47 4 -96v0zM954 1323q-10 -49 -46 -84t-103.5 -26.5t-101 46t-35.5 81.5t28.5 86t87.5 57q10 10 27 10h2h16.5t18.5 2q25 2 41 -6q45 -23 61 -70q14 -47 4 -96v0z" />
<glyph unicode="&#xec;" horiz-adv-x="485" d="M147 86q0 604 -14 889q-2 43 25.5 74.5t70.5 33.5t75 -25.5t34 -70.5q14 -313 14 -901q0 -43 -29.5 -72.5t-72.5 -29.5t-73 29.5t-30 72.5v0zM160 1262q-25 29 -41 47t-37 39l-61 61q-27 29 -26 70t30.5 70.5t71.5 29.5t71 -25l51 -55q37 -39 53.5 -55.5t38.5 -42.5 l54 -66q27 -33 21.5 -72.5t-37 -66.5t-72.5 -23.5t-68 31.5z" />
<glyph unicode="&#xed;" horiz-adv-x="485" d="M287 1204q-25 -29 -64 -32t-68.5 24t-35.5 68t20 71l49 60q18 23 31.5 38t24 27.5t32.5 38.5l50 55q27 25 66.5 25t67 -29.5t27.5 -68.5t-24 -70q-29 -35 -57 -68q-31 -33 -49.5 -56t-69.5 -83v0zM147 86q0 604 -14 889q-2 43 25.5 74.5t70.5 33.5t75 -25.5t34 -70.5 q14 -313 14 -901q0 -43 -29.5 -72.5t-72.5 -29.5t-73 29.5t-30 72.5v0z" />
<glyph unicode="&#xee;" horiz-adv-x="485" d="M338 80q-4 -41 -37 -68.5t-75 -23.5t-69.5 36.5t-23.5 75.5q16 170 6 418q-16 436 -16 465q0 43 29.5 72.5t72.5 29.5t73 -29.5t30 -72.5q0 -59 16 -457q10 -268 -6 -446v0zM102 1219q-33 -37 -66.5 -38t-60 22.5t-26.5 61.5t31 72l126 148q31 31 50 49q35 35 75 35 q43 0 84 -35q37 -37 70 -78q51 -61 100 -119q25 -29 28 -63.5t-19.5 -62t-60.5 -29.5t-73 37q-29 35 -129 157l-129 -157v0z" />
<glyph unicode="&#xef;" horiz-adv-x="442" d="M195 1323q-10 -41 -41 -69.5t-88.5 -23.5t-87 37.5t-31.5 70.5t18.5 74t73.5 54q18 8 31.5 9.5t25.5 -0.5q23 -2 41 -13q39 -14 53 -55t5 -84v0zM498 1321q-6 -41 -40 -68.5t-89.5 -22.5t-84 36.5t-30.5 69.5t9 64.5t44 53.5q27 23 70 21q27 0 49 -9q18 -6 37 -20 q16 -16 31 -53q10 -27 4 -72v0zM127 86q0 604 -14 889q-2 43 25.5 74.5t70.5 33.5t74.5 -25.5t33.5 -70.5q14 -313 15 -901q0 -43 -30 -72.5t-73 -29.5t-72.5 29.5t-29.5 72.5v0z" />
<glyph unicode="&#xf0;" horiz-adv-x="1249" d="M629 -23q-147 0 -264 79t-181.5 212t-64.5 291q0 119 46 228.5t130 185.5t190 98q47 10 101 10q74 0 172 -28q-92 133 -201 250q-80 -55 -178 -132q-29 -20 -62 -20q-41 0 -71.5 33t-30.5 73q0 45 41 78l147 111l-55 49q-37 31 -37 74q0 41 32 75.5t71 34.5q37 0 65 -28 l101 -88q68 43 139 82q27 14 51 14q41 0 70.5 -33t29.5 -76q0 -57 -53 -86l-84 -47q410 -428 410 -837q0 -156 -66.5 -295.5t-183.5 -223.5t-264 -84v0zM633 174q88 0 157.5 56.5t108.5 144.5t39 178q0 76 -13.5 139.5t-39.5 134.5q-14 -6 -35 -6q-29 0 -121 31 q-61 18 -96 27q-33 6 -62 6q-61 0 -114 -37q-131 -98 -131 -311q0 -92 37.5 -176.5t107.5 -135.5t162 -51v0z" />
<glyph unicode="&#xf1;" horiz-adv-x="1157" d="M178 82q-27 119 -36 273.5t-9 355.5q0 193 -4 278q-2 43 26.5 74t71.5 33t74 -27t33 -72t2 -92q190 176 383 168q170 -6 254 -164q57 -104 71 -286q8 -115 0 -295q-10 -213 -10 -236q0 -43 -28.5 -73.5t-71.5 -30.5t-74 28.5t-31 71.5q0 18 11 250q8 166 0 270 q-10 137 -47 205q-29 53 -82 55q-88 4 -170 -59.5t-191 -187.5q-6 -6 -12 -11q4 -313 41 -487q8 -43 -15.5 -78t-65.5 -43t-77 15.5t-43 64.5v0zM766 1151q-39 -2 -83 12.5t-64.5 27.5t-59.5 38q-90 59 -129 55q-66 -2 -143 -82q-35 -31 -62.5 -28.5t-47 24t-21.5 59 t16 66.5q119 141 250 147q37 2 80 -11t63 -27l60 -37q92 -59 133 -58q70 2 112 101q20 31 57.5 33t60 -28t18 -66t-22.5 -64q-86 -156 -217 -162v0z" />
<glyph unicode="&#xf2;" horiz-adv-x="1140" d="M543 -6q-164 12 -273.5 112.5t-152.5 245.5q-39 131 -18.5 279.5t98.5 261.5q63 96 147 151.5t199 100.5q35 14 67.5 4t53.5 -39q188 -84 288.5 -262t96.5 -369q-6 -213 -129 -348q-141 -156 -377 -137v0zM559 199q135 -10 209 69q72 80 76 215q2 141 -73 268.5 t-208 180.5q-135 -61 -198 -154q-49 -74 -63.5 -175t13 -193.5t89 -148.5t155.5 -62v0zM444 1360q-29 25 -29.5 70t28 75.5t71.5 31.5t72 -26l127 -143q33 -25 36 -68t-26 -76.5t-75 -35.5t-70 26z" />
<glyph unicode="&#xf3;" horiz-adv-x="1167" d="M606 -8q-104 -6 -190 28q-88 33 -148.5 94.5t-99.5 135.5t-59 158q-37 170 6 342t172 264q20 16 45.5 29.5t54.5 25.5l49 16q20 8 51 17.5t37 11.5q61 18 107 -29q53 -10 82 -22q172 -78 268 -244t94 -344q-2 -123 -51 -227.5t-157.5 -176t-260.5 -79.5v0zM594 197 q137 8 205.5 84.5t70.5 197.5t-63.5 233.5t-175.5 161.5q-12 6 -21.5 7.5t-32 3.5t-53.5 8q-6 0 -12 2q-76 -25 -106 -45q-66 -49 -94.5 -162t-2.5 -235q29 -123 102.5 -193t182.5 -63v0zM508 1221q-25 -29 -71 -27t-74.5 36t-25.5 77t36 67l147 144q29 27 72 25.5t71.5 -32 t27.5 -75.5t-29 -70l-154 -145v0z" />
<glyph unicode="&#xf4;" horiz-adv-x="1155" d="M584 -18q-184 12 -309 145t-169 313q-23 78 -18.5 168t28 171t82 154t142.5 116q37 16 133 36l111 21q33 6 62.5 -8.5t45.5 -42.5q170 -70 266.5 -227.5t104.5 -333.5q8 -217 -107 -361q-135 -168 -372 -151v0zM596 186q133 -10 201 76q68 84 61 223q-6 145 -92 261 t-227 141q-4 0 -9 2l-16 -4q-70 -14 -80 -21q-88 -43 -123 -146.5t-4 -230.5q29 -127 109 -210.5t180 -90.5v0zM397 1184q-25 -27 -61.5 -29t-62 22.5t-27.5 61.5t22 64l144 159q29 33 51 49q43 31 88 29q41 -4 80 -35q18 -12 51 -45q92 -92 147 -139q27 -27 29 -62.5 t-21.5 -62.5t-59.5 -30t-64 20q-59 53 -156 149l-12 13l-4 -2l-144 -162v0z" />
<glyph unicode="&#xf5;" horiz-adv-x="1163" d="M690 14q-270 -66 -432 109q-129 133 -160 342q-23 164 39 311q74 188 234 279q33 18 82 26q2 0 28 2q10 2 17 4q31 6 61 -6q8 0 39 -1t41 -2t35.5 -4t42.5 -7l39 -14q25 -8 47 -20.5t49 -28.5q133 -90 184 -253t27 -264q-18 -111 -65.5 -206t-130.5 -168.5t-177 -98.5v0z M627 227q88 12 150.5 91t82 167t-14.5 193.5t-108 152.5q-23 16 -37 23.5t-33.5 12.5t-30.5 5t-48 2.5t-66 4.5q-6 0 -14 2q-23 -2 -25 -2l-14 -5q-90 -49 -138 -156.5t-28 -221.5q23 -139 100 -211q84 -78 224 -58v0zM756 1212q-35 -2 -75.5 11.5t-60 25t-54.5 33.5 q-84 55 -121 51q-59 -2 -131 -76q-33 -27 -61.5 -20.5t-46 32t-16.5 54.5t17 53q111 131 232 135q33 2 72.5 -10t60.5 -24l53 -33q86 -55 123 -53q61 2 100 92q20 27 59.5 26.5t57 -25t13 -61.5t-20.5 -63q-80 -143 -201 -148v0z" />
<glyph unicode="&#xf6;" horiz-adv-x="1153" d="M621 -8q-111 -10 -203 21.5t-154.5 93t-103.5 139.5t-58 168q-33 180 31 359t221 278q49 29 125 53q37 51 99 41h10q12 0 26.5 -2t32 -4t35.5 -6.5t31 -8.5q111 -45 191.5 -144t118.5 -216t38 -238q0 -94 -24.5 -181t-76 -164t-139.5 -128t-200 -61v0zM600 197 q127 10 191.5 100t64.5 229.5t-62.5 255t-154.5 150.5q-14 -2 -43 -9.5t-41 -11.5l-33 -10q-20 -6 -34.5 -12t-26.5 -15q-94 -57 -137 -176.5t-19 -246.5q23 -127 99.5 -197t195.5 -57v0zM528 1337q-10 -49 -46 -83.5t-103.5 -26.5t-101 46t-35.5 71.5t28.5 65.5t87.5 46 q31 10 48 10h2h6t8 2q25 2 41 -6q45 -23 61 -69q14 -47 4 -56v0zM899 1335q-10 -49 -46 -83.5t-103.5 -26.5t-101.5 46t-36 74.5t29 65.5t88 43q10 10 27 10h2h16t19 2q25 2 41 -6q45 -23 61 -69q14 -47 4 -56v0z" />
<glyph unicode="&#xf7;" horiz-adv-x="1323" d="M252 442q-43 -2 -75 27t-34 71t27 73.5t70 33.5q233 12 837 12q43 0 73 -29.5t30 -72.5t-30 -72.5t-73 -29.5q-567 0 -825 -13v0zM719 248q31 -29 31 -72t-30 -72.5t-73 -29.5t-72.5 29.5t-29.5 72.5t29.5 73t72.5 30t72 -31v0zM717 983q31 -29 31 -72t-30 -72.5 t-73 -29.5t-72.5 29.5t-29.5 72.5t29.5 73t72.5 30t72 -31v0z" />
<glyph unicode="&#xf8;" horiz-adv-x="1153" d="M178 -39q-20 -23 -49 -22.5t-49.5 19.5t-20.5 49t17 50l565 619l211 237l160 162q16 23 44.5 25t50 -16.5t25 -47t-15.5 -47.5l-168 -174l-229 -262l-541 -592v0zM600 197q127 10 191.5 100t64.5 229.5t-62.5 255t-154.5 150.5q-14 -2 -43 -9.5t-41 -11.5l-33 -10 q-20 -6 -34.5 -12t-26.5 -15q-94 -57 -137 -176.5t-19 -246.5q23 -127 99.5 -197t195.5 -57v0zM621 -8q-111 -10 -203 21.5t-154.5 93t-103.5 139.5t-58 168q-33 180 31 359t221 278q49 29 125 53q37 51 99 41h10q12 0 26.5 -2t32 -4t35.5 -6.5t31 -8.5q111 -45 191.5 -144 t118.5 -216t38 -238q0 -94 -24.5 -181t-76 -164t-139.5 -128t-200 -61v0z" />
<glyph unicode="&#xf9;" horiz-adv-x="1124" d="M434 0q-279 59 -315 473q-8 121 -6 195.5t8 183.5t6 135q0 41 30.5 70.5t72.5 29.5t72 -30.5t30 -72.5t-6.5 -146.5t-8.5 -169t5 -176.5q25 -264 153 -291q76 -16 170 102q20 27 51 78l60 94q12 16 26 27q0 119 -8 487q0 43 28.5 74t72 31t74 -29t30.5 -72 q12 -616 12 -893q0 -43 -29.5 -72.5t-72.5 -29.5t-73 29.5t-30 72.5v54q-166 -193 -352 -154v0zM389 1292q-29 25 -30 70t28 75.5t72 31.5t71 -25l148 -144q33 -25 36 -67.5t-26 -76.5t-75 -36t-70 27z" />
<glyph unicode="&#xfa;" horiz-adv-x="1124" d="M434 0q-279 59 -315 473q-8 121 -6 195.5t8 183.5t6 135q0 41 30.5 70.5t72.5 29.5t72 -30.5t30 -72.5t-6.5 -146.5t-8.5 -169t5 -176.5q25 -264 153 -291q76 -16 170 102q20 27 51 78l60 94q12 16 26 27q0 119 -8 487q0 43 28.5 74t72 31t74 -29t30.5 -72 q12 -616 12 -872q0 -63 -29.5 -93t-72.5 -30t-73 29.5t-30 93.5v33q-166 -193 -352 -154v0zM598 1204q-27 -29 -68 -32t-72.5 24t-37.5 68t22 71l52 60q20 23 33.5 38t24.5 27.5t36 38.5l51 55q29 25 71 25t71.5 -29.5t29.5 -68.5t-27 -70q-31 -35 -61 -68 q-31 -33 -50.5 -56t-74.5 -83v0z" />
<glyph unicode="&#xfb;" horiz-adv-x="1148" d="M807 104q-104 -104 -237.5 -121.5t-248 56.5t-167.5 217q-51 139 -39 408q2 76 14 165q10 125 12 177q2 41 34 69.5t74 26.5t70.5 -34t26.5 -75t-13 -152.5t-16 -185.5q-8 -227 29 -329q43 -119 145.5 -137.5t184.5 75.5q66 78 119 254q6 14 14 29q2 311 2 465 q0 43 29.5 72.5t72.5 29.5t73 -29.5t30 -72.5q0 -154 -2 -461t-2 -461q0 -43 -30 -72.5t-73 -29.5t-72.5 29.5t-29.5 72.5v14zM420 1200q-25 -27 -61.5 -29t-62.5 23t-28 61.5t23 63.5l143 160q29 33 51 49q43 31 88 28q41 -4 80 -34q18 -12 52 -45q92 -92 147 -140 q27 -27 29 -62.5t-21.5 -62t-59.5 -29.5t-65 19q-59 53 -155 150l-13 12l-4 -2l-143 -162v0z" />
<glyph unicode="&#xfc;" horiz-adv-x="1153" d="M467 0q-80 16 -138.5 49t-105.5 101q-98 143 -108 468q-6 186 20 388q4 43 37 69.5t76 22.5t69.5 -37t22.5 -76q-25 -195 -21 -362q6 -262 72 -355q20 -31 43 -43q25 -14 74 -24q86 -18 145 47q51 55 111 205q12 33 43 49q2 248 8 487q0 43 31 72t74 29t71.5 -31 t28.5 -74q-10 -455 -10 -858q0 -63 -30 -93t-73 -30q-39 0 -67.5 24.5t-32.5 82.5l-4 -2q-137 -150 -336 -109v0zM545 1294q-10 -49 -46 -83.5t-93.5 -26.5t-91 46t-36 82t28.5 86t88 56q10 10 27 10h2h6t8 2q25 2 41 -6q45 -23 62 -69q14 -47 4 -97v0zM895 1292 q-10 -49 -46 -83.5t-93.5 -26.5t-91 46t-35.5 82t28.5 86t87.5 56q10 10 27 10h2h6t8 2q25 2 41 -6q45 -23 62 -69q14 -47 4 -97v0z" />
<glyph unicode="&#xfd;" horiz-adv-x="925" d="M109 -412q-43 -4 -76 24t-37 70t23.5 74.5t68.5 36.5q20 2 49 4t38 3t23.5 4t22.5 10l21 12q49 25 88 137q12 35 24 49q-14 16 -22 39q-37 158 -152 467q-102 272 -151 436q-12 41 8 78t61 49.5t78 -8t49 -61.5q39 -131 148 -422l78 -213q143 438 262 657q20 37 61 49.5 t78 -8t49 -61.5t-8 -78q-53 -98 -110.5 -239.5t-90.5 -238t-86 -268.5q-12 -41 -16 -57q-10 -27 -29 -106q-23 -76 -37 -123q-57 -160 -155 -238q-29 -23 -57.5 -38t-60.5 -22t-50.5 -10.5t-52 -4.5t-39.5 -3v0zM520 1204q-27 -29 -67.5 -32t-72.5 24t-38 68t23 71l51 60 q20 23 33.5 38t24.5 27.5t36 38.5l51 55q29 25 71 25t71.5 -29.5t29.5 -68.5t-26 -70q-31 -35 -62 -68t-50 -56t-75 -83v0z" />
<glyph unicode="&#xfe;" horiz-adv-x="1105" d="M141 -313q0 178 -4 526t-4 625.5t10 525.5q2 43 33 71.5t74 26.5t71.5 -32.5t26.5 -73.5q-6 -143 -8 -301q113 92 295 65q203 -29 307 -237q88 -174 68 -389q-20 -227 -148 -363q-158 -166 -401 -113q-57 14 -117 54q2 -227 2 -385q0 -43 -29.5 -73t-72.5 -30t-73 30 t-30 73v0zM506 219q129 -29 207 53q80 84 94 240q14 158 -47 279q-57 115 -154 129q-96 12 -137 -25q-66 -29 -131 -203q0 -141 2 -360q16 -6 29 -17l37 -32l30 -25q8 -8 22.5 -17.5t25 -14.5t22.5 -7v0z" />
<glyph unicode="&#xff;" horiz-adv-x="884" d="M221 -428q-6 0 -117 25q-41 10 -63.5 45.5t-13 76.5t45.5 63.5t77 14.5q25 -6 43 -11t26 -7t17 -2q12 -2 32 12l2 2l9 12q6 10 14 25q25 47 57 131l15 39q-256 451 -388 985q-8 41 13.5 78t62.5 46t78 -12.5t47 -62.5q104 -418 275 -764l26 88l80 281l74 266 q29 106 41 144q12 41 50 59t79 5t59.5 -51t3.5 -79q-12 -37 -41 -141l-71 -262l-78 -281q-76 -258 -135 -412q-37 -94 -68 -153q-43 -82 -90 -113q-80 -53 -162 -47v0zM377 1331q-10 -49 -46 -84t-103.5 -26.5t-101.5 46.5t-36 82t29 86t88 56q31 10 47 10h2h6t8 2 q25 2 41 -6q45 -23 62 -70q14 -47 4 -96v0zM748 1329q-10 -49 -46 -84t-104 -26.5t-101.5 46.5t-35.5 82t28.5 86t88.5 56q10 10 26 10h2h16.5t18.5 2q25 2 41 -6q45 -23 61 -70q14 -47 5 -96v0z" />
<glyph unicode="&#x131;" horiz-adv-x="485" d="M147 86q0 604 -14 889q-2 43 25.5 74.5t70.5 33.5t75 -25.5t34 -70.5q14 -313 14 -901q0 -43 -29.5 -72.5t-72.5 -29.5t-73 29.5t-30 72.5v0z" />
<glyph unicode="&#x152;" horiz-adv-x="2170" d="M774 -29q-119 6 -223 56q-139 63 -256 170q-111 125 -158 258q-35 82 -35 151q-6 59 0 158q8 143 56 268q47 129 129 232.5t209 167t280 69.5q188 6 324 -57q12 20 30 33q25 61 91 63q55 2 88 -43q92 2 292.5 11.5t307.5 11.5q43 0 73.5 -29t30.5 -72t-28.5 -73.5 t-71.5 -30.5q-104 -2 -301 -11.5t-281 -11.5q2 -25 2 -51l8 -8q27 -31 25 -71t-31 -68q4 -160 4 -207q369 18 498 18q43 0 72.5 -29.5t29.5 -72.5t-29.5 -73t-72.5 -30q-127 0 -491 -16q10 -268 36 -475q78 2 295 5t336 3q43 0 73 -29.5t30 -72.5t-30 -73t-73 -30 q-121 0 -341 -4t-306 -4q-23 -20 -53 -24q-33 -6 -60.5 8t-44.5 41q-37 31 -37 77q0 25 11 48v6l-8 -10q-80 -104 -188.5 -147.5t-211.5 -31.5v0zM639 211q248 -102 371 61q10 12 16 24.5t13.5 30t10.5 28l11 38.5l12 45q16 57 76 72q-6 98 -10 213q-14 25 -17 53 q-2 31 15 55q0 23 -7 332q-47 53 -81 76q-96 63 -265 57q-209 -6 -335 -157q-127 -154 -142 -387q-6 -72 -5 -118t24 -102q33 -96 114 -192q92 -82 199 -129v0z" />
<glyph unicode="&#x153;" horiz-adv-x="2015" d="M530 -14q-156 31 -272.5 155.5t-140.5 304.5q-14 109 6 228t78 207q61 90 165.5 141t219.5 59q115 10 222 -25.5t179 -117.5q98 135 248.5 174t295 -13t245.5 -171q78 -92 110 -185q27 -78 15 -141q-18 -92 -105 -139q-18 -10 -49 -14q-10 0 -29 -3q-27 -2 -76 -2h-217 q-348 2 -362 2h-4q6 -68 28 -110q51 -96 194.5 -142.5t254.5 -5.5q16 6 28.5 12.5t26 17.5t20.5 18.5t27.5 30t34.5 36.5q29 31 71 33t72.5 -27.5t32.5 -71.5t-28 -73q-6 -8 -30 -34t-38 -38l-37 -33q-23 -20 -50.5 -35.5t-59.5 -27.5q-174 -66 -385 2q-160 51 -256 160 q-80 -111 -196 -154t-239 -18v0zM571 186q86 -18 163 28t116 169l8 16q-18 139 21 297q-6 8 -13 21q0 2 -22 61q-6 16 -10 23q-33 41 -94.5 62.5t-138.5 15t-138.5 -37t-89.5 -75.5q-35 -51 -49.5 -133t-1.5 -158q14 -117 85.5 -193.5t163.5 -95.5v0zM1640 649q37 0 58 2 q0 10 -6 25q-18 57 -72 121q-106 125 -252.5 126t-226.5 -122q-39 -59 -62 -150q12 0 348 -2h213z" />
<glyph unicode="&#x178;" horiz-adv-x="1302" d="M545 96q0 92 2 260t2 232q-76 115 -256 362q-174 246 -266 387q-23 35 -15 77t44 64.5t78 14.5t65 -45q84 -129 250 -363l204 -288q172 225 457 678q23 35 63.5 44t76.5 -13.5t45.5 -63.5t-13.5 -78q-315 -502 -514 -752q8 -41 -14 -75q0 -25 -2 -190t-2 -251 q0 -43 -30 -72.5t-73 -29.5t-72.5 29.5t-29.5 72.5v0zM569 1663q-10 -43 -42.5 -72.5t-93 -24.5t-91.5 39.5t-33 74.5t19.5 77t77.5 58q20 8 33.5 9t27.5 -1q23 -2 43 -13q41 -16 55 -59t4 -88v0zM909 1661q-6 -43 -42 -71.5t-94 -23.5t-88 38.5t-32 73.5t9.5 68t46.5 56 q29 23 73 21q29 0 52 -8q20 -6 38 -23q18 -16 33 -55q10 -29 4 -76v0z" />
<glyph unicode="&#x2c6;" horiz-adv-x="595" d="M160 1219q-33 -37 -70 -38t-64.5 22.5t-27.5 61.5t33 72l135 148q31 31 51 49q37 35 80 35q45 0 90 -35q39 -37 74 -78q53 -61 106 -119q25 -29 29 -63.5t-20.5 -62t-64.5 -29.5t-77 37q-31 35 -137 157l-137 -157v0z" />
<glyph unicode="&#x2dc;" horiz-adv-x="788" d="M567 1212q-35 -2 -75.5 11.5t-60 25t-54.5 33.5q-84 55 -121 51q-59 -2 -131 -76q-33 -27 -61.5 -20.5t-46 32t-16.5 54.5t17 53q111 131 232 135q33 2 72.5 -10t60.5 -24l53 -33q86 -55 123 -53q61 2 100 92q20 27 59.5 26.5t57 -25t13 -61.5t-20.5 -63 q-80 -143 -201 -148v0z" />
<glyph unicode="&#x300;" d="M-229 1262q-25 29 -41 47t-37 39l-61 61q-27 29 -26 70t30.5 70.5t71.5 29.5t71 -25l51 -55q37 -39 53.5 -55.5t38.5 -42.5l54 -66q27 -33 21.5 -72.5t-37 -66.5t-72.5 -23.5t-68 31.5z" />
<glyph unicode="&#x301;" d="M-215 1204q-27 -29 -67.5 -32t-72.5 24t-38 68t23 71l51 60q20 23 33.5 38t24.5 27.5t36 38.5l51 55q29 25 71 25t71.5 -29.5t29.5 -68.5t-26 -70q-31 -35 -62 -68t-50 -56t-75 -83v0z" />
<glyph unicode="&#x302;" d="M-452 1219q-33 -37 -70 -38t-64.5 22.5t-27.5 61.5t33 72l135 148q31 31 51 49q37 35 80 35q45 0 90 -35q39 -37 74 -78q53 -61 106 -119q25 -29 29 -63.5t-20.5 -62t-64.5 -29.5t-77 37q-31 35 -137 157l-137 -157v0z" />
<glyph unicode="&#x303;" d="M-221 1212q-35 -2 -75.5 11.5t-60 25t-54.5 33.5q-84 55 -121 51q-59 -2 -131 -76q-33 -27 -61.5 -20.5t-46 32t-16.5 54.5t17 53q111 131 232 135q33 2 72.5 -10t60.5 -24l53 -33q86 -55 123 -53q61 2 100 92q20 27 59.5 26.5t57 -25t13 -61.5t-20.5 -63 q-80 -143 -201 -148v0z" />
<glyph unicode="&#x308;" d="M-322 1341q-10 -43 -43 -72.5t-93.5 -24.5t-91 40t-32.5 75t19.5 77t76.5 57q20 8 33.5 9t28.5 -1q23 -2 43 -12q41 -16 55 -59t4 -89v0zM18 1339q-6 -43 -42 -71.5t-94 -23.5t-88 39t-32 74t9.5 67.5t45.5 56.5q29 23 74 20q29 0 51 -8q20 -6 39 -23q18 -16 33 -55 q10 -29 4 -76v0z" />
<glyph unicode="&#x30a;" d="M-6 1331q-16 -76 -71.5 -130t-143.5 -42t-140.5 71.5t-55.5 127t44 132t135 85.5q16 16 41 16h4q2 0 8.5 1t14.5 3q37 2 63 -10q70 -33 95 -106q23 -74 6 -148v0zM-205 1292q53 -6 70 66q8 37 -1.5 64.5t-25.5 39.5h-2l-4 -2h-8t-9 -2q-12 -8 -24 -10q-49 -14 -66.5 -48 t3 -68t67.5 -40v0z" />
<glyph unicode="&#x2000;" horiz-adv-x="971" />
<glyph unicode="&#x2001;" horiz-adv-x="1942" />
<glyph unicode="&#x2002;" horiz-adv-x="971" />
<glyph unicode="&#x2003;" horiz-adv-x="1942" />
<glyph unicode="&#x2004;" horiz-adv-x="647" />
<glyph unicode="&#x2005;" horiz-adv-x="485" />
<glyph unicode="&#x2006;" horiz-adv-x="323" />
<glyph unicode="&#x2007;" horiz-adv-x="323" />
<glyph unicode="&#x2008;" horiz-adv-x="242" />
<glyph unicode="&#x2009;" horiz-adv-x="388" />
<glyph unicode="&#x200a;" horiz-adv-x="107" />
<glyph unicode="&#x2010;" horiz-adv-x="749" d="M207 471q-43 -2 -72 21.5t-32 65.5t22 70.5t65 33.5q70 4 193 8t161 6t69.5 -23.5t33.5 -67.5t-26.5 -70t-69.5 -30t-158 -6t-186 -8v0z" />
<glyph unicode="&#x2011;" horiz-adv-x="749" d="M207 471q-43 -2 -72 21.5t-32 65.5t22 70.5t65 33.5q70 4 193 8t161 6t69.5 -23.5t33.5 -67.5t-26.5 -70t-69.5 -30t-158 -6t-186 -8v0z" />
<glyph unicode="&#x2012;" horiz-adv-x="749" d="M207 471q-43 -2 -72 21.5t-32 65.5t22 70.5t65 33.5q70 4 193 8t161 6t69.5 -23.5t33.5 -67.5t-26.5 -70t-69.5 -30t-158 -6t-186 -8v0z" />
<glyph unicode="&#x2013;" horiz-adv-x="1349" d="M1155 455q-184 18 -479 16q-453 -4 -494 -2q-35 0 -57.5 24.5t-22.5 59.5t25 57.5t59.5 22.5t487.5 2q303 2 497 -17q33 -4 54.5 -29.5t18.5 -59t-28.5 -55t-60.5 -19.5v0z" />
<glyph unicode="&#x2014;" horiz-adv-x="1783" d="M893 463q-455 -12 -735 6q-33 2 -55.5 27.5t-20.5 59.5t27.5 56.5t60.5 20.5q262 -18 719 -6q547 14 733 10q33 0 56.5 -24.5t23.5 -58.5t-24.5 -57.5t-59.5 -23.5q-182 4 -725 -10v0z" />
<glyph unicode="&#x2018;" horiz-adv-x="548" d="M385 1098q-35 -14 -72 1t-51 48l-145 356q-14 33 2 70t51 49q35 14 70.5 -1t50.5 -50q74 -188 139 -346q16 -37 3 -74t-48 -53v0z" />
<glyph unicode="&#x2019;" horiz-adv-x="378" d="M94 1098q-35 16 -48 53t3 74q66 158 139 346q14 35 50 50t71 1q35 -12 51.5 -49t1.5 -70l-145 -356q-14 -33 -51 -48.5t-72 -0.5v0z" />
<glyph unicode="&#x201a;" horiz-adv-x="444" d="M256 -195q-18 -29 -51 -35t-61.5 12.5t-35 51.5t12.5 62q37 55 47 98t6 119q-2 35 21.5 59.5t57.5 26.5t58.5 -21.5t26.5 -56.5q4 -100 -12.5 -168t-69.5 -148v0z" />
<glyph unicode="&#x201c;" horiz-adv-x="866" d="M434 1503q-14 33 2.5 70t51 50t70.5 -2t50 -50q39 -100 140 -346q16 -37 2.5 -74t-48 -52.5t-71.5 0t-51 48.5zM117 1497q-14 31 2 68t51 50t70.5 -2.5t50.5 -49.5q39 -100 139 -346q16 -37 3 -74t-48 -51.5t-72 0t-51 49.5z" />
<glyph unicode="&#x201d;" horiz-adv-x="866" d="M287 1153q-14 -33 -51 -48t-72 0t-48.5 52t3.5 74q100 246 139 346q14 35 50 50t71 2t51 -50t2 -70l-145 -356v0zM604 1147q-14 -35 -51 -49.5t-72 0t-48 51.5t3 74q100 246 139 346q14 35 50.5 50t71 2t51 -50t2.5 -68l-146 -356v0z" />
<glyph unicode="&#x201e;" horiz-adv-x="724" d="M539 -244q-18 -29 -51 -37t-62 10.5t-37 51.5t10 61q41 68 49.5 115t4.5 156q-2 35 21.5 59.5t57 26.5t58 -21.5t26.5 -56.5q6 -127 -6 -200t-71 -165v0zM266 -246q-12 -33 -42.5 -46t-62.5 -1t-45.5 43t-0.5 62q16 45 21 89t7 109.5t9 116.5q4 33 30.5 54.5t60 17.5 t55 -31t17.5 -62q-4 -25 -7 -97t-11 -135.5t-31 -119.5v0z" />
<glyph unicode="&#x2022;" horiz-adv-x="532" d="M381 821q49 -47 49 -114.5t-48 -115.5t-115.5 -48t-116 48t-48.5 115.5t48.5 115.5t116 48t114.5 -49v0z" />
<glyph unicode="&#x2026;" horiz-adv-x="1581" d="M268 178q33 -31 33 -73t-30.5 -72.5t-73.5 -30.5t-74 30.5t-31 72.5t31 73t74 31t71 -31v0zM862 178q33 -31 33 -73t-30.5 -72.5t-73.5 -30.5t-74 30.5t-31 72.5t31 73t72.5 30t72.5 -30v0zM1456 178q33 -31 33 -73t-31 -72.5t-74 -30.5t-73.5 30.5t-30.5 72.5t30.5 73 t72.5 30t73 -30v0z" />
<glyph unicode="&#x202f;" horiz-adv-x="388" />
<glyph unicode="&#x2039;" horiz-adv-x="585" d="M330 236q-125 123 -166 178q-66 88 -47 164q14 51 88 124q92 90 133 140q23 25 56.5 27.5t59 -19t28.5 -55t-17 -60.5q-47 -55 -146 -149q-33 -33 -40 -47q4 -10 16 -27q33 -43 149 -162q25 -23 25 -57.5t-23.5 -58t-58.5 -23.5t-57 25v0z" />
<glyph unicode="&#x203a;" horiz-adv-x="624" d="M256 256q-25 -23 -59.5 -23t-57 25t-22.5 59.5t24 57.5l103 94q61 55 80 76l10 10l-23 16q-111 82 -182 146q-25 25 -27 58.5t21.5 58t57.5 26.5t59 -20q63 -59 168 -135l57 -46q37 -35 45 -73q10 -47 -18 -94q-16 -27 -52 -64l-84 -76q-61 -57 -100 -96v0z" />
<glyph unicode="&#x2044;" horiz-adv-x="471" d="M-74 59q-14 -31 -51 -42t-67.5 3.5t-46 46t-1.5 62.5q25 55 60 117q35 61 59 100l70 113l63 96l537 870q16 29 53 37t66.5 -9t43 -50t-4.5 -64l-537 -870q-18 -31 -64 -100l-69 -109l-53 -92q-33 -57 -58 -109v0z" />
<glyph unicode="&#x205f;" horiz-adv-x="485" />
<glyph unicode="&#x2074;" horiz-adv-x="821" d="M516 553q-37 0 -62.5 23.5t-25.5 62.5l2 137q-102 0 -268 6q-47 2 -79 34t-32 75q0 57 55 115q186 207 289 383q43 72 111 71q41 0 65.5 -28.5t26.5 -79.5q10 -258 8 -402l92 4q39 0 62.5 -24.5t23.5 -61.5t-23.5 -62.5t-62.5 -25.5l-94 -2l-2 -141q-2 -39 -26.5 -61.5 t-59.5 -22.5v0zM281 946q84 4 151 2l-2 176q-27 -35 -104 -127l-45 -51v0z" />
<glyph unicode="&#x20ac;" horiz-adv-x="1550" d="M860 4q-125 -23 -243.5 6t-200.5 121q-104 121 -140 375h-45q-43 2 -71.5 31.5t-27.5 72.5t31 72t73 29h30q2 45 6 90h-47q-43 0 -72.5 29.5t-29.5 72.5t29.5 73t72.5 30h84q39 147 103 262q102 180 254 252q180 86 397 4q135 -51 218 -147.5t138 -235.5q16 -39 0 -79 t-55 -55.5t-79 1t-54 55.5q-45 109 -101 172q-53 63 -141 96q-135 51 -235 4q-92 -43 -162 -168q-41 -72 -70 -161q213 2 406 6q43 0 73.5 -29t30.5 -72t-28.5 -73.5t-71.5 -30.5q-211 -4 -453 -6q-6 -47 -8 -92q154 2 477 14q43 2 74 -26.5t33 -71.5t-27 -74t-72 -33 q-313 -12 -473 -14q29 -170 88 -238q80 -92 252 -61q84 14 158 53t117 86q25 29 39 50.5t20 34.5t23 58l28 82q16 39 55.5 56.5t78 2t56 -54t3.5 -77.5q-10 -23 -28.5 -76t-28 -73.5t-34 -59.5t-61.5 -78q-68 -76 -172 -130t-217 -75v0z" />
<glyph unicode="&#x2122;" horiz-adv-x="1748" d="M1483 764q0 80 -21 301l-10 111l-8 -11q-96 -111 -137 -164q-10 -18 -29 -30q-29 -18 -61.5 -10t-51.5 36q-86 133 -164 217q0 -72 5.5 -216t7.5 -216q0 -35 -23.5 -59.5t-57.5 -24.5t-58.5 23.5t-24.5 56.5q0 39 -8 260.5t-4 337.5q-12 41 12 74q20 27 54 32t61 -16 q154 -115 274 -286l82 94q100 115 139 170q20 29 54 34t61 -14q23 -16 31 -43q12 -20 10 -45q-8 -109 8 -295q23 -256 23 -317q0 -35 -24 -58.5t-58.5 -23.5t-58 23.5t-23.5 58.5v0zM358 776q-25 270 -18 520q-84 0 -158 4q-35 2 -57.5 28t-20.5 59.5t28 56t58 20.5 q172 -10 472 2q35 2 59 -21.5t26.5 -57t-21.5 -58t-56 -26.5q-96 -4 -164 -7q-8 -242 16 -503q2 -35 -19.5 -60.5t-55 -29t-59.5 18t-30 54.5v0z" />
<glyph unicode="&#x25fc;" horiz-adv-x="1085" d="M0 1085h1085v-1085h-1085v1085z" />
<glyph unicode="&#xfb03;" horiz-adv-x="1458" d="M723 0q-45 2 -69.5 30.5t-26.5 92.5q-10 190 -11 375l-2 204l-2 121h-16q-49 0 -78 29t-29 74t26 74.5t69 29.5h37l2 78q4 184 102 290.5t270 106.5q152 0 242 -45t90 -119q0 -45 -31.5 -76.5t-78.5 -31.5q-29 0 -66 16l-66 33q-47 23 -114 23q-82 0 -118 -52.5 t-32 -162.5l2 -56h90q47 0 75 -28.5t28 -73.5t-27.5 -74t-75.5 -29h-96v-178q0 -373 12 -508q6 -70 -24.5 -107.5t-81.5 -35.5v0zM258 0q-98 0 -102 102q-12 307 -15 600l-2 121h-24q-43 0 -71 30t-28 73q0 45 26 74.5t69 29.5h36v60q0 172 94.5 273t256.5 101 q80 0 143.5 -19.5t126.5 -58.5l-98 -165q-90 43 -174 43q-78 0 -109 -36t-33 -124l-2 -70l307 -8v-205l-315 8v-196q2 -324 10 -510q2 -57 -24.5 -90t-71.5 -33v0zM1227 -2q-39 0 -68 26.5t-31 73.5q-2 31 -2 168q0 35 2 62l2 196v45l3 211q2 68 2 205q0 47 29.5 74.5 t72.5 27.5t72.5 -27.5t29.5 -74.5q0 -135 -2 -203l-2 -211v-49l-2 -194q-2 -25 -2 -58l2 -168q0 -47 -30.5 -75.5t-75.5 -28.5v0z" />
<glyph d="M-326 1698q-29 25 -29.5 69.5t28 75.5t71.5 32t72 -26l147 -143q33 -25 36 -68t-25.5 -76.5t-74.5 -35.5t-71 26z" />
<glyph d="M-229 1544q-31 -23 -70 -18.5t-65.5 33t-22.5 69.5t35 70l207 157q29 20 69.5 15.5t61 -41.5t13.5 -76t-38 -63q-94 -72 -190 -146v0z" />
<glyph d="M-452 1559q-33 -37 -70 -38t-64.5 22.5t-27.5 61.5t33 72l135 148q31 31 51 49q37 35 80 35q45 0 90 -35q39 -37 74 -78q53 -61 106 -119q25 -29 29 -63.5t-20.5 -62t-64.5 -29.5t-77 37q-31 35 -137 157l-137 -157v0z" />
<glyph horiz-adv-x="589" d="M401 100q-2 -43 -32.5 -71.5t-73.5 -26.5t-71.5 33t-26.5 74q8 236 -2.5 669.5t-10.5 581.5q0 43 30 72.5t73 29.5t72.5 -29.5t29.5 -72.5q0 -145 10.5 -584.5t1.5 -675.5v0z" />
</font>
</defs>
</svg>
